  0
SECTION
  2
HEADER
  9
$ACADVER
  1
AC1024
  9
$ACADMAINTVER
 70
6
  9
$DWGCODEPAGE
  3
ANSI_1252
  9
$LASTSAVEDBY
  1
ezdxf
  9
$INSBASE
 10
0.0
 20
0.0
 30
0.0
  9
$EXTMIN
 10
1e+20
 20
1e+20
 30
1e+20
  9
$EXTMAX
 10
-1e+20
 20
-1e+20
 30
-1e+20
  9
$LIMMIN
 10
0.0
 20
0.0
  9
$LIMMAX
 10
420.0
 20
297.0
  9
$ORTHOMODE
 70
0
  9
$REGENMODE
 70
1
  9
$FILLMODE
 70
1
  9
$QTEXTMODE
 70
0
  9
$MIRRTEXT
 70
1
  9
$LTSCALE
 40
1.0
  9
$ATTMODE
 70
1
  9
$TEXTSIZE
 40
2.5
  9
$TRACEWID
 40
1.0
  9
$TEXTSTYLE
  7
OpenSans
  9
$CLAYER
  8
0
  9
$CELTYPE
  6
ByLayer
  9
$CECOLOR
 62
256
  9
$CELTSCALE
 40
1.0
  9
$DISPSILH
 70
0
  9
$DIMSCALE
 40
1.0
  9
$DIMASZ
 40
0.175
  9
$DIMEXO
 40
0.125
  9
$DIMDLI
 40
3.75
  9
$DIMRND
 40
0.0
  9
$DIMDLE
 40
0.0
  9
$DIMEXE
 40
0.375
  9
$DIMTP
 40
0.0
  9
$DIMTM
 40
0.0
  9
$DIMTXT
 40
0.25
  9
$DIMCEN
 40
2.5
  9
$DIMTSZ
 40
0.0
  9
$DIMTOL
 70
0
  9
$DIMLIM
 70
0
  9
$DIMTIH
 70
0
  9
$DIMTOH
 70
0
  9
$DIMSE1
 70
0
  9
$DIMSE2
 70
0
  9
$DIMTAD
 70
1
  9
$DIMZIN
 70
12
  9
$DIMBLK
  1
ARCHTICK
  9
$DIMASO
 70
1
  9
$DIMSHO
 70
1
  9
$DIMPOST
  1

  9
$DIMAPOST
  1

  9
$DIMALT
 70
0
  9
$DIMALTD
 70
3
  9
$DIMALTF
 40
0.03937007874
  9
$DIMLFAC
 40
100.0
  9
$DIMTOFL
 70
1
  9
$DIMTVP
 40
0.0
  9
$DIMTIX
 70
0
  9
$DIMSOXD
 70
0
  9
$DIMSAH
 70
0
  9
$DIMBLK1
  1

  9
$DIMBLK2
  1

  9
$DIMSTYLE
  2
EZDXF
  9
$DIMCLRD
 70
0
  9
$DIMCLRE
 70
0
  9
$DIMCLRT
 70
0
  9
$DIMTFAC
 40
0.5
  9
$DIMGAP
 40
0.1
  9
$DIMJUST
 70
0
  9
$DIMSD1
 70
0
  9
$DIMSD2
 70
0
  9
$DIMTOLJ
 70
0
  9
$DIMTZIN
 70
8
  9
$DIMALTZ
 70
0
  9
$DIMALTTZ
 70
0
  9
$DIMUPT
 70
1
  9
$DIMDEC
 70
2
  9
$DIMTDEC
 70
2
  9
$DIMALTU
 70
2
  9
$DIMALTTD
 70
3
  9
$DIMTXSTY
  7
OpenSansCondensed-Light
  9
$DIMAUNIT
 70
0
  9
$DIMADEC
 70
2
  9
$DIMALTRND
 40
0.0
  9
$DIMAZIN
 70
3
  9
$DIMDSEP
 70
46
  9
$DIMATFIT
 70
3
  9
$DIMFRAC
 70
0
  9
$DIMLDRBLK
  1

  9
$DIMLUNIT
 70
2
  9
$DIMLWD
 70
-2
  9
$DIMLWE
 70
-2
  9
$DIMTMOVE
 70
2
  9
$DIMFXL
 40
1.0
  9
$DIMFXLON
 70
0
  9
$DIMJOGANG
 40
0.785398163397
  9
$DIMTFILL
 70
0
  9
$DIMTFILLCLR
 70
0
  9
$DIMARCSYM
 70
0
  9
$DIMLTYPE
  6

  9
$DIMLTEX1
  6

  9
$DIMLTEX2
  6

  9
$DIMTXTDIRECTION
 70
0
  9
$LUNITS
 70
2
  9
$LUPREC
 70
4
  9
$SKETCHINC
 40
1.0
  9
$FILLETRAD
 40
10.0
  9
$AUNITS
 70
0
  9
$AUPREC
 70
2
  9
$MENU
  1
.
  9
$ELEVATION
 40
0.0
  9
$PELEVATION
 40
0.0
  9
$THICKNESS
 40
0.0
  9
$LIMCHECK
 70
0
  9
$CHAMFERA
 40
0.0
  9
$CHAMFERB
 40
0.0
  9
$CHAMFERC
 40
0.0
  9
$CHAMFERD
 40
0.0
  9
$SKPOLY
 70
0
  9
$TDCREATE
 40
2461320.3670717594
  9
$TDUCREATE
 40
2458532.153996898
  9
$TDUPDATE
 40
2461320.3670717594
  9
$TDUUPDATE
 40
2458532.1544311
  9
$TDINDWG
 40
0.0
  9
$TDUSRTIMER
 40
0.0
  9
$USRTIMER
 70
1
  9
$ANGBASE
 50
0.0
  9
$ANGDIR
 70
0
  9
$PDMODE
 70
0
  9
$PDSIZE
 40
0.0
  9
$PLINEWID
 40
0.0
  9
$SPLFRAME
 70
0
  9
$SPLINETYPE
 70
6
  9
$SPLINESEGS
 70
8
  9
$HANDSEED
  5
516
  9
$SURFTAB1
 70
6
  9
$SURFTAB2
 70
6
  9
$SURFTYPE
 70
6
  9
$SURFU
 70
6
  9
$SURFV
 70
6
  9
$UCSBASE
  2

  9
$UCSNAME
  2

  9
$UCSORG
 10
0.0
 20
0.0
 30
0.0
  9
$UCSXDIR
 10
1.0
 20
0.0
 30
0.0
  9
$UCSYDIR
 10
0.0
 20
1.0
 30
0.0
  9
$UCSORTHOREF
  2

  9
$UCSORTHOVIEW
 70
0
  9
$UCSORGTOP
 10
0.0
 20
0.0
 30
0.0
  9
$UCSORGBOTTOM
 10
0.0
 20
0.0
 30
0.0
  9
$UCSORGLEFT
 10
0.0
 20
0.0
 30
0.0
  9
$UCSORGRIGHT
 10
0.0
 20
0.0
 30
0.0
  9
$UCSORGFRONT
 10
0.0
 20
0.0
 30
0.0
  9
$UCSORGBACK
 10
0.0
 20
0.0
 30
0.0
  9
$PUCSBASE
  2

  9
$PUCSNAME
  2

  9
$PUCSORG
 10
0.0
 20
0.0
 30
0.0
  9
$PUCSXDIR
 10
1.0
 20
0.0
 30
0.0
  9
$PUCSYDIR
 10
0.0
 20
1.0
 30
0.0
  9
$PUCSORTHOREF
  2

  9
$PUCSORTHOVIEW
 70
0
  9
$PUCSORGTOP
 10
0.0
 20
0.0
 30
0.0
  9
$PUCSORGBOTTOM
 10
0.0
 20
0.0
 30
0.0
  9
$PUCSORGLEFT
 10
0.0
 20
0.0
 30
0.0
  9
$PUCSORGRIGHT
 10
0.0
 20
0.0
 30
0.0
  9
$PUCSORGFRONT
 10
0.0
 20
0.0
 30
0.0
  9
$PUCSORGBACK
 10
0.0
 20
0.0
 30
0.0
  9
$USERI1
 70
0
  9
$USERI2
 70
0
  9
$USERI3
 70
0
  9
$USERI4
 70
0
  9
$USERI5
 70
0
  9
$USERR1
 40
0.0
  9
$USERR2
 40
0.0
  9
$USERR3
 40
0.0
  9
$USERR4
 40
0.0
  9
$USERR5
 40
0.0
  9
$WORLDVIEW
 70
1
  9
$SHADEDGE
 70
3
  9
$SHADEDIF
 70
70
  9
$TILEMODE
 70
1
  9
$MAXACTVP
 70
64
  9
$PINSBASE
 10
0.0
 20
0.0
 30
0.0
  9
$PLIMCHECK
 70
0
  9
$PEXTMIN
 10
1e+20
 20
1e+20
 30
1e+20
  9
$PEXTMAX
 10
-1e+20
 20
-1e+20
 30
-1e+20
  9
$PLIMMIN
 10
0.0
 20
0.0
  9
$PLIMMAX
 10
420.0
 20
297.0
  9
$UNITMODE
 70
0
  9
$VISRETAIN
 70
1
  9
$PLINEGEN
 70
0
  9
$PSLTSCALE
 70
1
  9
$TREEDEPTH
 70
3020
  9
$CMLSTYLE
  2
Standard
  9
$CMLJUST
 70
0
  9
$CMLSCALE
 40
20.0
  9
$PROXYGRAPHICS
 70
1
  9
$MEASUREMENT
 70
1
  9
$CELWEIGHT
370
-1
  9
$ENDCAPS
280
0
  9
$JOINSTYLE
280
0
  9
$LWDISPLAY
290
0
  9
$INSUNITS
 70
5
  9
$HYPERLINKBASE
  1

  9
$STYLESHEET
  1

  9
$XEDIT
290
1
  9
$CEPSNTYPE
380
0
  9
$PSTYLEMODE
290
1
  9
$FINGERPRINTGUID
  2
{B20D8010-5075-4300-95AE-55B72FA0D686}
  9
$VERSIONGUID
  2
{55B22603-B653-49E0-9108-DB771B3642B0}
  9
$EXTNAMES
290
1
  9
$PSVPSCALE
 40
0.0
  9
$OLESTARTUP
290
0
  9
$SORTENTS
280
127
  9
$INDEXCTL
280
0
  9
$HIDETEXT
280
1
  9
$XCLIPFRAME
280
1
  9
$HALOGAP
280
0
  9
$OBSCOLOR
 70
257
  9
$OBSLTYPE
280
0
  9
$INTERSECTIONDISPLAY
280
0
  9
$INTERSECTIONCOLOR
 70
257
  9
$DIMASSOC
280
2
  9
$PROJECTNAME
  1

  9
$CAMERADISPLAY
290
0
  9
$LENSLENGTH
 40
50.0
  9
$CAMERAHEIGHT
 40
0.0
  9
$STEPSPERSEC
 40
24.0
  9
$STEPSIZE
 40
100.0
  9
$3DDWFPREC
 40
2.0
  9
$PSOLWIDTH
 40
0.005
  9
$PSOLHEIGHT
 40
0.08
  9
$LOFTANG1
 40
1.570796326795
  9
$LOFTANG2
 40
1.570796326795
  9
$LOFTMAG1
 40
0.0
  9
$LOFTMAG2
 40
0.0
  9
$LOFTPARAM
 70
7
  9
$LOFTNORMALS
280
1
  9
$LATITUDE
 40
37.795
  9
$LONGITUDE
 40
-122.394
  9
$NORTHDIRECTION
 40
0.0
  9
$TIMEZONE
 70
-8000
  9
$LIGHTGLYPHDISPLAY
280
1
  9
$TILEMODELIGHTSYNCH
280
1
  9
$CMATERIAL
347
20
  9
$SOLIDHIST
280
0
  9
$SHOWHIST
280
1
  9
$DWFFRAME
280
2
  9
$DGNFRAME
280
2
  9
$REALWORLDSCALE
290
1
  9
$INTERFERECOLOR
 62
256
  9
$CSHADOW
280
0
  9
$SHADOWPLANELOCATION
 40
0.0
  0
ENDSEC
  0
SECTION
  2
CLASSES
  0
CLASS
  1
ACDBDICTIONARYWDFLT
  2
AcDbDictionaryWithDefault
  3
ObjectDBX Classes
 90
0
 91
0
280
0
281
0
  0
CLASS
  1
SUN
  2
AcDbSun
  3
SCENEOE
 90
1153
 91
0
280
0
281
0
  0
CLASS
  1
VISUALSTYLE
  2
AcDbVisualStyle
  3
ObjectDBX Classes
 90
4095
 91
0
280
0
281
0
  0
CLASS
  1
MATERIAL
  2
AcDbMaterial
  3
ObjectDBX Classes
 90
1153
 91
0
280
0
281
0
  0
CLASS
  1
SCALE
  2
AcDbScale
  3
ObjectDBX Classes
 90
1153
 91
0
280
0
281
0
  0
CLASS
  1
TABLESTYLE
  2
AcDbTableStyle
  3
ObjectDBX Classes
 90
4095
 91
0
280
0
281
0
  0
CLASS
  1
MLEADERSTYLE
  2
AcDbMLeaderStyle
  3
ACDB_MLEADERSTYLE_CLASS
 90
4095
 91
0
280
0
281
0
  0
CLASS
  1
DICTIONARYVAR
  2
AcDbDictionaryVar
  3
ObjectDBX Classes
 90
0
 91
0
280
0
281
0
  0
CLASS
  1
CELLSTYLEMAP
  2
AcDbCellStyleMap
  3
ObjectDBX Classes
 90
1152
 91
0
280
0
281
0
  0
CLASS
  1
MENTALRAYRENDERSETTINGS
  2
AcDbMentalRayRenderSettings
  3
SCENEOE
 90
1024
 91
0
280
0
281
0
  0
CLASS
  1
ACDBDETAILVIEWSTYLE
  2
AcDbDetailViewStyle
  3
ObjectDBX Classes
 90
1025
 91
0
280
0
281
0
  0
CLASS
  1
ACDBSECTIONVIEWSTYLE
  2
AcDbSectionViewStyle
  3
ObjectDBX Classes
 90
1025
 91
0
280
0
281
0
  0
CLASS
  1
RASTERVARIABLES
  2
AcDbRasterVariables
  3
ISM
 90
0
 91
0
280
0
281
0
  0
CLASS
  1
ACDBPLACEHOLDER
  2
AcDbPlaceHolder
  3
ObjectDBX Classes
 90
0
 91
0
280
0
281
0
  0
CLASS
  1
LAYOUT
  2
AcDbLayout
  3
ObjectDBX Classes
 90
0
 91
0
280
0
281
0
  0
ENDSEC
  0
SECTION
  2
TABLES
  0
TABLE
  2
VPORT
  5
8
330
0
100
AcDbSymbolTable
 70
1
  0
VPORT
  5
23
330
8
100
AcDbSymbolTableRecord
100
AcDbViewportTableRecord
  2
*Active
 70
0
 10
0.0
 20
0.0
 11
1.0
 21
1.0
 12
0.0
 22
0.0
 13
0.0
 23
0.0
 14
0.5
 24
0.5
 15
0.5
 25
0.5
 16
0.0
 26
0.0
 36
1.0
 17
0.0
 27
0.0
 37
0.0
 40
1000.0
 41
1.34
 42
50.0
 43
0.0
 44
0.0
 50
0.0
 51
0.0
 71
0
 72
1000
 73
1
 74
3
 75
0
 76
0
 77
0
 78
0
281
0
 65
0
146
0.0
  0
ENDTAB
  0
TABLE
  2
LTYPE
  5
2
330
0
100
AcDbSymbolTable
 70
21
  0
LTYPE
  5
24
330
2
100
AcDbSymbolTableRecord
100
AcDbLinetypeTableRecord
  2
ByBlock
 70
0
  3

 72
65
 73
0
 40
0.0
  0
LTYPE
  5
25
330
2
100
AcDbSymbolTableRecord
100
AcDbLinetypeTableRecord
  2
ByLayer
 70
0
  3

 72
65
 73
0
 40
0.0
  0
LTYPE
  5
26
330
2
100
AcDbSymbolTableRecord
100
AcDbLinetypeTableRecord
  2
Continuous
 70
0
  3

 72
65
 73
0
 40
0.0
  0
LTYPE
  5
2F
330
2
100
AcDbSymbolTableRecord
100
AcDbLinetypeTableRecord
  2
CENTER
 70
0
  3
Center ____ _ ____ _ ____ _ ____ _ ____ _ ____
 72
65
 73
4
 40
5.08
 49
3.175
 74
0
 49
-0.635
 74
0
 49
0.635
 74
0
 49
-0.635
 74
0
  0
LTYPE
  5
30
330
2
100
AcDbSymbolTableRecord
100
AcDbLinetypeTableRecord
  2
CENTERX2
 70
0
  3
Center (2x) ________  __  ________  __  ________
 72
65
 73
4
 40
8.89
 49
6.35
 74
0
 49
-0.635
 74
0
 49
1.27
 74
0
 49
-0.635
 74
0
  0
LTYPE
  5
31
330
2
100
AcDbSymbolTableRecord
100
AcDbLinetypeTableRecord
  2
CENTER2
 70
0
  3
Center (.5x) ____ _ ____ _ ____ _ ____ _ ____
 72
65
 73
4
 40
2.54
 49
1.587
 74
0
 49
-0.318
 74
0
 49
0.318
 74
0
 49
-0.318
 74
0
  0
LTYPE
  5
32
330
2
100
AcDbSymbolTableRecord
100
AcDbLinetypeTableRecord
  2
DASHED
 70
0
  3
Dashed __ __ __ __ __ __ __ __ __ __ __ __ __ _
 72
65
 73
2
 40
1.524
 49
1.27
 74
0
 49
-0.254
 74
0
  0
LTYPE
  5
33
330
2
100
AcDbSymbolTableRecord
100
AcDbLinetypeTableRecord
  2
DASHEDX2
 70
0
  3
Dashed (2x) ____  ____  ____  ____  ____  ____
 72
65
 73
2
 40
3.048
 49
2.54
 74
0
 49
-0.508
 74
0
  0
LTYPE
  5
34
330
2
100
AcDbSymbolTableRecord
100
AcDbLinetypeTableRecord
  2
DASHED2
 70
0
  3
Dashed (.5x) _ _ _ _ _ _ _ _ _ _ _ _ _ _
 72
65
 73
2
 40
0.762
 49
0.635
 74
0
 49
-0.127
 74
0
  0
LTYPE
  5
35
330
2
100
AcDbSymbolTableRecord
100
AcDbLinetypeTableRecord
  2
PHANTOM
 70
0
  3
Phantom ______  __  __  ______  __  __  ______
 72
65
 73
6
 40
6.35
 49
3.175
 74
0
 49
-0.635
 74
0
 49
0.635
 74
0
 49
-0.635
 74
0
 49
0.635
 74
0
 49
-0.635
 74
0
  0
LTYPE
  5
36
330
2
100
AcDbSymbolTableRecord
100
AcDbLinetypeTableRecord
  2
PHANTOMX2
 70
0
  3
Phantom (2x)____________    ____    ____    ____________
 72
65
 73
6
 40
10.795
 49
6.35
 74
0
 49
-0.635
 74
0
 49
1.27
 74
0
 49
-0.635
 74
0
 49
1.27
 74
0
 49
-0.635
 74
0
  0
LTYPE
  5
37
330
2
100
AcDbSymbolTableRecord
100
AcDbLinetypeTableRecord
  2
PHANTOM2
 70
0
  3
Phantom (.5x) ___ _ _ ___ _ _ ___ _ _ ___ _ _ ___
 72
65
 73
6
 40
3.175
 49
1.587
 74
0
 49
-0.318
 74
0
 49
0.318
 74
0
 49
-0.318
 74
0
 49
0.318
 74
0
 49
-0.318
 74
0
  0
LTYPE
  5
38
330
2
100
AcDbSymbolTableRecord
100
AcDbLinetypeTableRecord
  2
DASHDOT
 70
0
  3
Dash dot __ . __ . __ . __ . __ . __ . __ . __
 72
65
 73
4
 40
3.556
 49
2.54
 74
0
 49
-0.508
 74
0
 49
0.0
 74
0
 49
-0.508
 74
0
  0
LTYPE
  5
39
330
2
100
AcDbSymbolTableRecord
100
AcDbLinetypeTableRecord
  2
DASHDOTX2
 70
0
  3
Dash dot (2x) ____  .  ____  .  ____  .  ____
 72
65
 73
4
 40
6.096
 49
5.08
 74
0
 49
-0.508
 74
0
 49
0.0
 74
0
 49
-0.508
 74
0
  0
LTYPE
  5
3A
330
2
100
AcDbSymbolTableRecord
100
AcDbLinetypeTableRecord
  2
DASHDOT2
 70
0
  3
Dash dot (.5x) _ . _ . _ . _ . _ . _ . _ . _
 72
65
 73
4
 40
1.778
 49
1.27
 74
0
 49
-0.254
 74
0
 49
0.0
 74
0
 49
-0.254
 74
0
  0
LTYPE
  5
3B
330
2
100
AcDbSymbolTableRecord
100
AcDbLinetypeTableRecord
  2
DOT
 70
0
  3
Dot .  .  .  .  .  .  .  .  .  .  .  .  .  .  .  .
 72
65
 73
2
 40
0.508
 49
0.0
 74
0
 49
-0.508
 74
0
  0
LTYPE
  5
3C
330
2
100
AcDbSymbolTableRecord
100
AcDbLinetypeTableRecord
  2
DOTX2
 70
0
  3
Dot (2x) .    .    .    .    .    .    .    . 
 72
65
 73
2
 40
1.016
 49
0.0
 74
0
 49
-1.016
 74
0
  0
LTYPE
  5
3D
330
2
100
AcDbSymbolTableRecord
100
AcDbLinetypeTableRecord
  2
DOT2
 70
0
  3
Dot (.5) . . . . . . . . . . . . . . . . . . . 
 72
65
 73
2
 40
0.254
 49
0.0
 74
0
 49
-0.254
 74
0
  0
LTYPE
  5
3E
330
2
100
AcDbSymbolTableRecord
100
AcDbLinetypeTableRecord
  2
DIVIDE
 70
0
  3
Divide __ . . __ . . __ . . __ . . __ . . __
 72
65
 73
6
 40
4.064
 49
2.54
 74
0
 49
-0.508
 74
0
 49
0.0
 74
0
 49
-0.508
 74
0
 49
0.0
 74
0
 49
-0.508
 74
0
  0
LTYPE
  5
3F
330
2
100
AcDbSymbolTableRecord
100
AcDbLinetypeTableRecord
  2
DIVIDEX2
 70
0
  3
Divide (2x) ____  . .  ____  . .  ____  . .  ____
 72
65
 73
6
 40
6.604
 49
5.08
 74
0
 49
-0.508
 74
0
 49
0.0
 74
0
 49
-0.508
 74
0
 49
0.0
 74
0
 49
-0.508
 74
0
  0
LTYPE
  5
40
330
2
100
AcDbSymbolTableRecord
100
AcDbLinetypeTableRecord
  2
DIVIDE2
 70
0
  3
Divide(.5x) _ . _ . _ . _ . _ . _ . _ . _
 72
65
 73
6
 40
2.032
 49
1.27
 74
0
 49
-0.254
 74
0
 49
0.0
 74
0
 49
-0.254
 74
0
 49
0.0
 74
0
 49
-0.254
 74
0
  0
ENDTAB
  0
TABLE
  2
LAYER
  5
1
330
0
100
AcDbSymbolTable
 70
11
  0
LAYER
  5
27
330
1
100
AcDbSymbolTableRecord
100
AcDbLayerTableRecord
  2
0
 70
0
 62
7
  6
Continuous
370
-3
390
13
347
21
  0
LAYER
  5
28
330
1
100
AcDbSymbolTableRecord
100
AcDbLayerTableRecord
  2
Defpoints
 70
0
 62
7
  6
Continuous
290
0
370
-3
390
13
347
21
  0
LAYER
  5
8A
330
1
100
AcDbSymbolTableRecord
100
AcDbLayerTableRecord
  2
WALL
 70
0
 62
7
  6
Continuous
370
-3
390
13
347
21
  0
LAYER
  5
8B
330
1
100
AcDbSymbolTableRecord
100
AcDbLayerTableRecord
  2
OPENING
 70
0
 62
4
  6
Continuous
370
-3
390
13
347
21
  0
LAYER
  5
8C
330
1
100
AcDbSymbolTableRecord
100
AcDbLayerTableRecord
  2
FRAME-PLATE
 70
0
 62
1
  6
Continuous
370
-3
390
13
347
21
  0
LAYER
  5
8D
330
1
100
AcDbSymbolTableRecord
100
AcDbLayerTableRecord
  2
FRAME-STUD
 70
0
 62
3
  6
Continuous
370
-3
390
13
347
21
  0
LAYER
  5
8E
330
1
100
AcDbSymbolTableRecord
100
AcDbLayerTableRecord
  2
FRAME-OPENING
 70
0
 62
5
  6
Continuous
370
-3
390
13
347
21
  0
LAYER
  5
8F
330
1
100
AcDbSymbolTableRecord
100
AcDbLayerTableRecord
  2
FRAME-CRIPPLE
 70
0
 62
6
  6
Continuous
370
-3
390
13
347
21
  0
LAYER
  5
90
330
1
100
AcDbSymbolTableRecord
100
AcDbLayerTableRecord
  2
DIM
 70
0
 62
8
  6
Continuous
370
-3
390
13
347
21
  0
LAYER
  5
91
330
1
100
AcDbSymbolTableRecord
100
AcDbLayerTableRecord
  2
TEXT
 70
0
 62
2
  6
Continuous
370
-3
390
13
347
21
  0
LAYER
  5
92
330
1
100
AcDbSymbolTableRecord
100
AcDbLayerTableRecord
  2
FURNITURE
 70
0
 62
6
  6
Continuous
370
-3
390
13
347
21
  0
ENDTAB
  0
TABLE
  2
STYLE
  5
5
330
0
100
AcDbSymbolTable
 70
26
  0
STYLE
  5
29
330
5
100
AcDbSymbolTableRecord
100
AcDbTextStyleTableRecord
  2
Standard
 70
0
 40
0.0
 41
1.0
 50
0.0
 71
0
 42
2.5
  3
txt
  4

  0
STYLE
  5
41
330
5
100
AcDbSymbolTableRecord
100
AcDbTextStyleTableRecord
  2
OpenSans-Light
 70
0
 40
0.0
 41
1.0
 50
0.0
 71
0
 42
2.5
  3
OpenSans-Light.ttf
  4

  0
STYLE
  5
42
330
5
100
AcDbSymbolTableRecord
100
AcDbTextStyleTableRecord
  2
OpenSans-Light-Italic
 70
0
 40
0.0
 41
1.0
 50
0.0
 71
0
 42
2.5
  3
OpenSans-LightItalic.ttf
  4

  0
STYLE
  5
43
330
5
100
AcDbSymbolTableRecord
100
AcDbTextStyleTableRecord
  2
OpenSans
 70
0
 40
0.0
 41
1.0
 50
0.0
 71
0
 42
2.5
  3
OpenSans-Regular.ttf
  4

  0
STYLE
  5
44
330
5
100
AcDbSymbolTableRecord
100
AcDbTextStyleTableRecord
  2
OpenSans-Italic
 70
0
 40
0.0
 41
1.0
 50
0.0
 71
0
 42
2.5
  3
OpenSans-Italic.ttf
  4

  0
STYLE
  5
45
330
5
100
AcDbSymbolTableRecord
100
AcDbTextStyleTableRecord
  2
OpenSans-SemiBold
 70
0
 40
0.0
 41
1.0
 50
0.0
 71
0
 42
2.5
  3
OpenSans-SemiBold.ttf
  4

  0
STYLE
  5
46
330
5
100
AcDbSymbolTableRecord
100
AcDbTextStyleTableRecord
  2
OpenSans-SemiBoldItalic
 70
0
 40
0.0
 41
1.0
 50
0.0
 71
0
 42
2.5
  3
OpenSans-SemiBoldItalic.ttf
  4

  0
STYLE
  5
47
330
5
100
AcDbSymbolTableRecord
100
AcDbTextStyleTableRecord
  2
OpenSans-Bold
 70
0
 40
0.0
 41
1.0
 50
0.0
 71
0
 42
2.5
  3
OpenSans-Bold.ttf
  4

  0
STYLE
  5
48
330
5
100
AcDbSymbolTableRecord
100
AcDbTextStyleTableRecord
  2
OpenSans-BoldItalic
 70
0
 40
0.0
 41
1.0
 50
0.0
 71
0
 42
2.5
  3
OpenSans-BoldItalic.ttf
  4

  0
STYLE
  5
49
330
5
100
AcDbSymbolTableRecord
100
AcDbTextStyleTableRecord
  2
OpenSans-ExtraBold
 70
0
 40
0.0
 41
1.0
 50
0.0
 71
0
 42
2.5
  3
OpenSans-ExtraBold.ttf
  4

  0
STYLE
  5
4A
330
5
100
AcDbSymbolTableRecord
100
AcDbTextStyleTableRecord
  2
OpenSans-ExtraBoldItalic
 70
0
 40
0.0
 41
1.0
 50
0.0
 71
0
 42
2.5
  3
OpenSans-ExtraBoldItalic.ttf
  4

  0
STYLE
  5
4B
330
5
100
AcDbSymbolTableRecord
100
AcDbTextStyleTableRecord
  2
OpenSansCondensed-Bold
 70
0
 40
0.0
 41
1.0
 50
0.0
 71
0
 42
2.5
  3
OpenSansCondensed-Bold.ttf
  4

  0
STYLE
  5
4C
330
5
100
AcDbSymbolTableRecord
100
AcDbTextStyleTableRecord
  2
OpenSansCondensed-Light
 70
0
 40
0.0
 41
1.0
 50
0.0
 71
0
 42
2.5
  3
OpenSansCondensed-Light.ttf
  4

  0
STYLE
  5
4D
330
5
100
AcDbSymbolTableRecord
100
AcDbTextStyleTableRecord
  2
OpenSansCondensed-Italic
 70
0
 40
0.0
 41
1.0
 50
0.0
 71
0
 42
2.5
  3
OpenSansCondensed-LightItalic.ttf
  4

  0
STYLE
  5
4E
330
5
100
AcDbSymbolTableRecord
100
AcDbTextStyleTableRecord
  2
LiberationSans
 70
0
 40
0.0
 41
1.0
 50
0.0
 71
0
 42
2.5
  3
LiberationSans-Regular.ttf
  4

  0
STYLE
  5
4F
330
5
100
AcDbSymbolTableRecord
100
AcDbTextStyleTableRecord
  2
LiberationSans-Bold
 70
0
 40
0.0
 41
1.0
 50
0.0
 71
0
 42
2.5
  3
LiberationSans-Bold.ttf
  4

  0
STYLE
  5
50
330
5
100
AcDbSymbolTableRecord
100
AcDbTextStyleTableRecord
  2
LiberationSans-BoldItalic
 70
0
 40
0.0
 41
1.0
 50
0.0
 71
0
 42
2.5
  3
LiberationSans-BoldItalic.ttf
  4

  0
STYLE
  5
51
330
5
100
AcDbSymbolTableRecord
100
AcDbTextStyleTableRecord
  2
LiberationSans-Italic
 70
0
 40
0.0
 41
1.0
 50
0.0
 71
0
 42
2.5
  3
LiberationSans-Italic.ttf
  4

  0
STYLE
  5
52
330
5
100
AcDbSymbolTableRecord
100
AcDbTextStyleTableRecord
  2
LiberationSerif
 70
0
 40
0.0
 41
1.0
 50
0.0
 71
0
 42
2.5
  3
LiberationSerif-Regular.ttf
  4

  0
STYLE
  5
53
330
5
100
AcDbSymbolTableRecord
100
AcDbTextStyleTableRecord
  2
LiberationSerif-Bold
 70
0
 40
0.0
 41
1.0
 50
0.0
 71
0
 42
2.5
  3
LiberationSerif-Bold.ttf
  4

  0
STYLE
  5
54
330
5
100
AcDbSymbolTableRecord
100
AcDbTextStyleTableRecord
  2
LiberationSerif-BoldItalic
 70
0
 40
0.0
 41
1.0
 50
0.0
 71
0
 42
2.5
  3
LiberationSerif-BoldItalic.ttf
  4

  0
STYLE
  5
55
330
5
100
AcDbSymbolTableRecord
100
AcDbTextStyleTableRecord
  2
LiberationSerif-Italic
 70
0
 40
0.0
 41
1.0
 50
0.0
 71
0
 42
2.5
  3
LiberationSerif-Italic.ttf
  4

  0
STYLE
  5
56
330
5
100
AcDbSymbolTableRecord
100
AcDbTextStyleTableRecord
  2
LiberationMono
 70
0
 40
0.0
 41
1.0
 50
0.0
 71
0
 42
2.5
  3
LiberationMono-Regular.ttf
  4

  0
STYLE
  5
57
330
5
100
AcDbSymbolTableRecord
100
AcDbTextStyleTableRecord
  2
LiberationMono-Bold
 70
0
 40
0.0
 41
1.0
 50
0.0
 71
0
 42
2.5
  3
LiberationMono-Bold.ttf
  4

  0
STYLE
  5
58
330
5
100
AcDbSymbolTableRecord
100
AcDbTextStyleTableRecord
  2
LiberationMono-BoldItalic
 70
0
 40
0.0
 41
1.0
 50
0.0
 71
0
 42
2.5
  3
LiberationMono-BoldItalic.ttf
  4

  0
STYLE
  5
59
330
5
100
AcDbSymbolTableRecord
100
AcDbTextStyleTableRecord
  2
LiberationMono-Italic
 70
0
 40
0.0
 41
1.0
 50
0.0
 71
0
 42
2.5
  3
LiberationMono-Italic.ttf
  4

  0
ENDTAB
  0
TABLE
  2
VIEW
  5
7
330
0
100
AcDbSymbolTable
 70
0
  0
ENDTAB
  0
TABLE
  2
UCS
  5
6
330
0
100
AcDbSymbolTable
 70
0
  0
ENDTAB
  0
TABLE
  2
APPID
  5
3
330
0
100
AcDbSymbolTable
 70
3
  0
APPID
  5
2A
330
3
100
AcDbSymbolTableRecord
100
AcDbRegAppTableRecord
  2
ACAD
 70
0
  0
APPID
  5
513
330
3
100
AcDbSymbolTableRecord
100
AcDbRegAppTableRecord
  2
HATCHBACKGROUNDCOLOR
 70
0
  0
APPID
  5
514
330
3
100
AcDbSymbolTableRecord
100
AcDbRegAppTableRecord
  2
EZDXF
 70
0
  0
ENDTAB
  0
TABLE
  2
DIMSTYLE
  5
4
330
0
100
AcDbSymbolTable
 70
12
100
AcDbDimStyleTable
  0
DIMSTYLE
105
2B
330
4
100
AcDbSymbolTableRecord
100
AcDbDimStyleTableRecord
  2
Standard
 70
0
 40
1.0
 41
2.5
 42
0.625
 43
3.75
 44
1.25
 45
0.0
 46
0.0
 47
0.0
 48
0.0
 49
2.5
140
2.5
141
2.5
142
0.0
143
0.03937007874
144
1.0
145
0.0
146
1.0
147
0.625
148
0.0
 69
0
 70
0
 71
0
 72
0
 73
0
 74
0
 75
0
 76
0
 77
1
 78
8
 79
3
170
0
171
3
172
1
173
0
174
0
175
0
176
0
177
0
178
0
179
2
271
2
272
2
273
2
274
3
275
0
276
0
277
2
278
44
279
0
280
0
281
0
282
0
283
0
284
8
285
0
286
0
288
0
289
3
290
0
371
-2
372
-2
  0
DIMSTYLE
105
73
330
4
100
AcDbSymbolTableRecord
100
AcDbDimStyleTableRecord
  2
EZDXF
 70
0
 40
1.0
 41
0.175
 42
0.125
 43
3.75
 44
0.375
 45
0.0
 46
0.0
 47
0.0
 48
0.0
 49
2.5
140
0.25
141
2.5
142
0.0
143
0.03937007874
144
100.0
145
0.0
146
0.5
147
0.1
148
0.0
 69
0
 70
0
 71
0
 72
0
 73
0
 74
0
 75
0
 76
0
 77
1
 78
12
 79
3
170
0
171
3
172
1
173
0
174
0
175
0
176
0
177
0
178
0
179
2
271
2
272
2
273
2
274
3
275
0
276
0
277
2
278
46
279
2
280
0
281
0
282
0
283
0
284
8
285
0
286
0
288
1
289
3
290
0
340
4C
342
74
371
-2
372
-2
  0
DIMSTYLE
105
7C
330
4
100
AcDbSymbolTableRecord
100
AcDbDimStyleTableRecord
  2
EZ_M_100_H25_CM
 70
0
 40
1.0
 41
0.25
 42
0.125
 43
3.75
 44
0.375
 45
0.0
 46
0.0
 47
0.0
 48
0.0
 49
2.5
140
0.25
141
2.5
142
0.125
143
0.03937007874
144
100.0
145
0.0
146
0.5
147
0.1
148
0.0
 69
0
 70
0
 71
0
 72
0
 73
0
 74
0
 75
0
 76
0
 77
1
 78
12
 79
3
170
0
171
3
172
1
173
0
174
0
175
0
176
0
177
0
178
0
179
2
271
2
272
2
273
2
274
3
275
0
276
0
277
2
278
46
279
2
280
0
281
0
282
0
283
0
284
8
285
0
286
0
288
1
289
3
290
0
340
4C
371
-2
372
-2
  0
DIMSTYLE
105
7D
330
4
100
AcDbSymbolTableRecord
100
AcDbDimStyleTableRecord
  2
EZ_M_50_H25_CM
 70
0
 40
1.0
 41
0.125
 42
0.0625
 43
3.75
 44
0.1875
 45
0.0
 46
0.0
 47
0.0
 48
0.0
 49
2.5
140
0.125
141
2.5
142
0.0625
143
0.03937007874
144
100.0
145
0.0
146
0.5
147
0.05
148
0.0
 69
0
 70
0
 71
0
 72
0
 73
0
 74
0
 75
0
 76
0
 77
1
 78
12
 79
3
170
0
171
3
172
1
173
0
174
0
175
0
176
0
177
0
178
0
179
2
271
2
272
2
273
2
274
3
275
0
276
0
277
2
278
46
279
2
280
0
281
0
282
0
283
0
284
8
285
0
286
0
288
1
289
3
290
0
340
4C
371
-2
372
-2
  0
DIMSTYLE
105
7E
330
4
100
AcDbSymbolTableRecord
100
AcDbDimStyleTableRecord
  2
EZ_M_25_H25_CM
 70
0
 40
1.0
 41
0.0625
 42
0.03125
 43
3.75
 44
0.09375
 45
0.0
 46
0.0
 47
0.0
 48
0.0
 49
2.5
140
0.0625
141
2.5
142
0.03125
143
0.03937007874
144
100.0
145
0.0
146
0.5
147
0.025
148
0.0
 69
0
 70
0
 71
0
 72
0
 73
0
 74
0
 75
0
 76
0
 77
1
 78
12
 79
3
170
0
171
3
172
1
173
0
174
0
175
0
176
0
177
0
178
0
179
2
271
2
272
2
273
2
274
3
275
0
276
0
277
2
278
46
279
2
280
0
281
0
282
0
283
0
284
8
285
0
286
0
288
1
289
3
290
0
340
4C
371
-2
372
-2
  0
DIMSTYLE
105
7F
330
4
100
AcDbSymbolTableRecord
100
AcDbDimStyleTableRecord
  2
EZ_M_20_H25_CM
 70
0
 40
1.0
 41
0.05
 42
0.025
 43
3.75
 44
0.07500000000000001
 45
0.0
 46
0.0
 47
0.0
 48
0.0
 49
2.5
140
0.05
141
2.5
142
0.025
143
0.03937007874
144
100.0
145
0.0
146
0.5
147
0.020000000000000004
148
0.0
 69
0
 70
0
 71
0
 72
0
 73
0
 74
0
 75
0
 76
0
 77
1
 78
12
 79
3
170
0
171
3
172
1
173
0
174
0
175
0
176
0
177
0
178
0
179
2
271
2
272
2
273
2
274
3
275
0
276
0
277
2
278
46
279
2
280
0
281
0
282
0
283
0
284
8
285
0
286
0
288
1
289
3
290
0
340
4C
371
-2
372
-2
  0
DIMSTYLE
105
80
330
4
100
AcDbSymbolTableRecord
100
AcDbDimStyleTableRecord
  2
EZ_M_10_H25_CM
 70
0
 40
1.0
 41
0.025
 42
0.0125
 43
3.75
 44
0.037500000000000006
 45
0.0
 46
0.0
 47
0.0
 48
0.0
 49
2.5
140
0.025
141
2.5
142
0.0125
143
0.03937007874
144
100.0
145
0.0
146
0.5
147
0.010000000000000002
148
0.0
 69
0
 70
0
 71
0
 72
0
 73
0
 74
0
 75
0
 76
0
 77
1
 78
12
 79
3
170
0
171
3
172
1
173
0
174
0
175
0
176
0
177
0
178
0
179
2
271
2
272
2
273
2
274
3
275
0
276
0
277
2
278
46
279
2
280
0
281
0
282
0
283
0
284
8
285
0
286
0
288
1
289
3
290
0
340
4C
371
-2
372
-2
  0
DIMSTYLE
105
81
330
4
100
AcDbSymbolTableRecord
100
AcDbDimStyleTableRecord
  2
EZ_M_5_H25_CM
 70
0
 40
1.0
 41
0.0125
 42
0.00625
 43
3.75
 44
0.018750000000000003
 45
0.0
 46
0.0
 47
0.0
 48
0.0
 49
2.5
140
0.0125
141
2.5
142
0.00625
143
0.03937007874
144
100.0
145
0.0
146
0.5
147
0.005000000000000001
148
0.0
 69
0
 70
0
 71
0
 72
0
 73
0
 74
0
 75
0
 76
0
 77
1
 78
12
 79
3
170
0
171
3
172
1
173
0
174
0
175
0
176
0
177
0
178
0
179
2
271
2
272
2
273
2
274
3
275
0
276
0
277
2
278
46
279
2
280
0
281
0
282
0
283
0
284
8
285
0
286
0
288
1
289
3
290
0
340
4C
371
-2
372
-2
  0
DIMSTYLE
105
82
330
4
100
AcDbSymbolTableRecord
100
AcDbDimStyleTableRecord
  2
EZ_M_1_H25_CM
 70
0
 40
1.0
 41
0.0025
 42
0.00125
 43
3.75
 44
0.00375
 45
0.0
 46
0.0
 47
0.0
 48
0.0
 49
2.5
140
0.0025
141
2.5
142
0.00125
143
0.03937007874
144
100.0
145
0.0
146
0.5
147
0.001
148
0.0
 69
0
 70
0
 71
0
 72
0
 73
0
 74
0
 75
0
 76
0
 77
1
 78
12
 79
3
170
0
171
3
172
1
173
0
174
0
175
0
176
0
177
0
178
0
179
2
271
2
272
2
273
2
274
3
275
0
276
0
277
2
278
46
279
2
280
0
281
0
282
0
283
0
284
8
285
0
286
0
288
1
289
3
290
0
340
4C
371
-2
372
-2
  0
DIMSTYLE
105
83
330
4
100
AcDbSymbolTableRecord
100
AcDbDimStyleTableRecord
  2
EZ_RADIUS
 70
0
 40
1.0
 41
0.25
 42
0.125
 43
3.75
 44
0.375
 45
0.0
 46
0.0
 47
0.0
 48
0.0
 49
2.5
140
0.25
141
0.0
142
0.0
143
0.03937007874
144
100.0
145
0.0
146
0.5
147
0.1
148
0.0
 69
0
 70
0
 71
0
 72
0
 73
0
 74
0
 75
0
 76
0
 77
1
 78
12
 79
3
170
0
171
3
172
0
173
0
174
0
175
0
176
0
177
0
178
0
179
2
271
2
272
2
273
2
274
3
275
0
276
0
277
2
278
46
279
1
280
0
281
0
282
0
283
0
284
8
285
0
286
0
288
1
289
3
290
0
340
4C
342
84
371
-2
372
-2
  0
DIMSTYLE
105
88
330
4
100
AcDbSymbolTableRecord
100
AcDbDimStyleTableRecord
  2
EZ_RADIUS_INSIDE
 70
0
 40
1.0
 41
0.25
 42
0.125
 43
3.75
 44
0.375
 45
0.0
 46
0.0
 47
0.0
 48
0.0
 49
2.5
140
0.25
141
0.0
142
0.0
143
0.03937007874
144
100.0
145
0.0
146
0.5
147
0.1
148
0.0
 69
0
 70
0
 71
0
 72
0
 73
0
 74
0
 75
0
 76
0
 77
0
 78
12
 79
3
170
0
171
3
172
0
173
0
174
1
175
0
176
0
177
0
178
0
179
2
271
2
272
2
273
2
274
3
275
0
276
0
277
2
278
46
279
0
280
0
281
0
282
0
283
0
284
8
285
0
286
0
288
1
289
0
290
0
340
4C
342
84
371
-2
372
-2
  0
DIMSTYLE
105
89
330
4
100
AcDbSymbolTableRecord
100
AcDbDimStyleTableRecord
  2
EZ_CURVED
 70
0
 40
1.0
 41
0.25
 42
0.125
 43
3.75
 44
0.375
 45
0.0
 46
0.0
 47
0.0
 48
0.0
 49
2.5
140
0.25
141
2.5
142
0.0
143
0.03937007874
144
100.0
145
0.0
146
0.5
147
0.1
148
0.0
 69
0
 70
0
 71
0
 72
0
 73
0
 74
0
 75
0
 76
0
 77
1
 78
12
 79
2
 90
2
170
0
171
3
172
1
173
0
174
0
175
0
176
0
177
0
178
0
179
2
271
2
272
2
273
2
274
3
275
0
276
0
277
2
278
46
279
2
280
0
281
0
282
0
283
0
284
8
285
0
286
0
288
1
289
3
290
0
340
4C
371
-2
372
-2
  0
ENDTAB
  0
TABLE
  2
BLOCK_RECORD
  5
9
330
0
100
AcDbSymbolTable
 70
49
  0
BLOCK_RECORD
  5
17
330
9
100
AcDbSymbolTableRecord
100
AcDbBlockTableRecord
  2
*Model_Space
340
1A
 70
0
280
1
281
0
  0
BLOCK_RECORD
  5
1B
330
9
100
AcDbSymbolTableRecord
100
AcDbBlockTableRecord
  2
*Paper_Space
340
1E
 70
0
280
1
281
0
  0
BLOCK_RECORD
  5
74
330
9
100
AcDbSymbolTableRecord
100
AcDbBlockTableRecord
  2
_ARCHTICK
340
0
 70
0
280
1
281
0
  0
BLOCK_RECORD
  5
78
330
9
100
AcDbSymbolTableRecord
100
AcDbBlockTableRecord
  2
_CLOSEDFILLED
340
0
 70
0
280
1
281
0
  0
BLOCK_RECORD
  5
84
330
9
100
AcDbSymbolTableRecord
100
AcDbBlockTableRecord
  2
_CLOSEDBLANK
340
0
 70
0
280
1
281
0
  0
BLOCK_RECORD
  5
98
330
9
100
AcDbSymbolTableRecord
100
AcDbBlockTableRecord
  2
*D1
340
0
 70
0
280
1
281
0
  0
BLOCK_RECORD
  5
AB
330
9
100
AcDbSymbolTableRecord
100
AcDbBlockTableRecord
  2
*D2
340
0
 70
0
280
1
281
0
  0
BLOCK_RECORD
  5
BE
330
9
100
AcDbSymbolTableRecord
100
AcDbBlockTableRecord
  2
*D3
340
0
 70
0
280
1
281
0
  0
BLOCK_RECORD
  5
D2
330
9
100
AcDbSymbolTableRecord
100
AcDbBlockTableRecord
  2
*D4
340
0
 70
0
280
1
281
0
  0
BLOCK_RECORD
  5
E5
330
9
100
AcDbSymbolTableRecord
100
AcDbBlockTableRecord
  2
*D5
340
0
 70
0
280
1
281
0
  0
BLOCK_RECORD
  5
F6
330
9
100
AcDbSymbolTableRecord
100
AcDbBlockTableRecord
  2
*D6
340
0
 70
0
280
1
281
0
  0
BLOCK_RECORD
  5
107
330
9
100
AcDbSymbolTableRecord
100
AcDbBlockTableRecord
  2
*D7
340
0
 70
0
280
1
281
0
  0
BLOCK_RECORD
  5
119
330
9
100
AcDbSymbolTableRecord
100
AcDbBlockTableRecord
  2
*D8
340
0
 70
0
280
1
281
0
  0
BLOCK_RECORD
  5
12A
330
9
100
AcDbSymbolTableRecord
100
AcDbBlockTableRecord
  2
*D9
340
0
 70
0
280
1
281
0
  0
BLOCK_RECORD
  5
13D
330
9
100
AcDbSymbolTableRecord
100
AcDbBlockTableRecord
  2
*D10
340
0
 70
0
280
1
281
0
  0
BLOCK_RECORD
  5
14E
330
9
100
AcDbSymbolTableRecord
100
AcDbBlockTableRecord
  2
*D11
340
0
 70
0
280
1
281
0
  0
BLOCK_RECORD
  5
15F
330
9
100
AcDbSymbolTableRecord
100
AcDbBlockTableRecord
  2
*D12
340
0
 70
0
280
1
281
0
  0
BLOCK_RECORD
  5
172
330
9
100
AcDbSymbolTableRecord
100
AcDbBlockTableRecord
  2
*D13
340
0
 70
0
280
1
281
0
  0
BLOCK_RECORD
  5
185
330
9
100
AcDbSymbolTableRecord
100
AcDbBlockTableRecord
  2
*D14
340
0
 70
0
280
1
281
0
  0
BLOCK_RECORD
  5
197
330
9
100
AcDbSymbolTableRecord
100
AcDbBlockTableRecord
  2
*D15
340
0
 70
0
280
1
281
0
  0
BLOCK_RECORD
  5
1AB
330
9
100
AcDbSymbolTableRecord
100
AcDbBlockTableRecord
  2
*D16
340
0
 70
0
280
1
281
0
  0
BLOCK_RECORD
  5
1BE
330
9
100
AcDbSymbolTableRecord
100
AcDbBlockTableRecord
  2
*D17
340
0
 70
0
280
1
281
0
  0
BLOCK_RECORD
  5
1CF
330
9
100
AcDbSymbolTableRecord
100
AcDbBlockTableRecord
  2
*D18
340
0
 70
0
280
1
281
0
  0
BLOCK_RECORD
  5
1E2
330
9
100
AcDbSymbolTableRecord
100
AcDbBlockTableRecord
  2
*D19
340
0
 70
0
280
1
281
0
  0
BLOCK_RECORD
  5
1F3
330
9
100
AcDbSymbolTableRecord
100
AcDbBlockTableRecord
  2
*D20
340
0
 70
0
280
1
281
0
  0
BLOCK_RECORD
  5
205
330
9
100
AcDbSymbolTableRecord
100
AcDbBlockTableRecord
  2
*D21
340
0
 70
0
280
1
281
0
  0
BLOCK_RECORD
  5
216
330
9
100
AcDbSymbolTableRecord
100
AcDbBlockTableRecord
  2
*D22
340
0
 70
0
280
1
281
0
  0
BLOCK_RECORD
  5
26F
330
9
100
AcDbSymbolTableRecord
100
AcDbBlockTableRecord
  2
*D23
340
0
 70
0
280
1
281
0
  0
BLOCK_RECORD
  5
298
330
9
100
AcDbSymbolTableRecord
100
AcDbBlockTableRecord
  2
*D24
340
0
 70
0
280
1
281
0
  0
BLOCK_RECORD
  5
2C0
330
9
100
AcDbSymbolTableRecord
100
AcDbBlockTableRecord
  2
*D25
340
0
 70
0
280
1
281
0
  0
BLOCK_RECORD
  5
2EC
330
9
100
AcDbSymbolTableRecord
100
AcDbBlockTableRecord
  2
*D26
340
0
 70
0
280
1
281
0
  0
BLOCK_RECORD
  5
30D
330
9
100
AcDbSymbolTableRecord
100
AcDbBlockTableRecord
  2
*D27
340
0
 70
0
280
1
281
0
  0
BLOCK_RECORD
  5
323
330
9
100
AcDbSymbolTableRecord
100
AcDbBlockTableRecord
  2
*D28
340
0
 70
0
280
1
281
0
  0
BLOCK_RECORD
  5
339
330
9
100
AcDbSymbolTableRecord
100
AcDbBlockTableRecord
  2
*D29
340
0
 70
0
280
1
281
0
  0
BLOCK_RECORD
  5
353
330
9
100
AcDbSymbolTableRecord
100
AcDbBlockTableRecord
  2
*D30
340
0
 70
0
280
1
281
0
  0
BLOCK_RECORD
  5
36C
330
9
100
AcDbSymbolTableRecord
100
AcDbBlockTableRecord
  2
*D31
340
0
 70
0
280
1
281
0
  0
BLOCK_RECORD
  5
38A
330
9
100
AcDbSymbolTableRecord
100
AcDbBlockTableRecord
  2
*D32
340
0
 70
0
280
1
281
0
  0
BLOCK_RECORD
  5
3A3
330
9
100
AcDbSymbolTableRecord
100
AcDbBlockTableRecord
  2
*D33
340
0
 70
0
280
1
281
0
  0
BLOCK_RECORD
  5
3BC
330
9
100
AcDbSymbolTableRecord
100
AcDbBlockTableRecord
  2
*D34
340
0
 70
0
280
1
281
0
  0
BLOCK_RECORD
  5
3E4
330
9
100
AcDbSymbolTableRecord
100
AcDbBlockTableRecord
  2
*D35
340
0
 70
0
280
1
281
0
  0
BLOCK_RECORD
  5
40D
330
9
100
AcDbSymbolTableRecord
100
AcDbBlockTableRecord
  2
*D36
340
0
 70
0
280
1
281
0
  0
BLOCK_RECORD
  5
430
330
9
100
AcDbSymbolTableRecord
100
AcDbBlockTableRecord
  2
*D37
340
0
 70
0
280
1
281
0
  0
BLOCK_RECORD
  5
45C
330
9
100
AcDbSymbolTableRecord
100
AcDbBlockTableRecord
  2
*D38
340
0
 70
0
280
1
281
0
  0
BLOCK_RECORD
  5
481
330
9
100
AcDbSymbolTableRecord
100
AcDbBlockTableRecord
  2
*D39
340
0
 70
0
280
1
281
0
  0
BLOCK_RECORD
  5
49A
330
9
100
AcDbSymbolTableRecord
100
AcDbBlockTableRecord
  2
*D40
340
0
 70
0
280
1
281
0
  0
BLOCK_RECORD
  5
4BB
330
9
100
AcDbSymbolTableRecord
100
AcDbBlockTableRecord
  2
*D41
340
0
 70
0
280
1
281
0
  0
BLOCK_RECORD
  5
4D1
330
9
100
AcDbSymbolTableRecord
100
AcDbBlockTableRecord
  2
*D42
340
0
 70
0
280
1
281
0
  0
BLOCK_RECORD
  5
4EC
330
9
100
AcDbSymbolTableRecord
100
AcDbBlockTableRecord
  2
*D43
340
0
 70
0
280
1
281
0
  0
BLOCK_RECORD
  5
505
330
9
100
AcDbSymbolTableRecord
100
AcDbBlockTableRecord
  2
*D44
340
0
 70
0
280
1
281
0
  0
ENDTAB
  0
ENDSEC
  0
SECTION
  2
BLOCKS
  0
BLOCK
  5
18
330
17
100
AcDbEntity
  8
0
100
AcDbBlockBegin
  2
*Model_Space
 70
0
 10
0.0
 20
0.0
 30
0.0
  3
*Model_Space
  1

  0
ENDBLK
  5
19
330
17
100
AcDbEntity
  8
0
100
AcDbBlockEnd
  0
BLOCK
  5
1C
330
1B
100
AcDbEntity
  8
0
100
AcDbBlockBegin
  2
*Paper_Space
 70
0
 10
0.0
 20
0.0
 30
0.0
  3
*Paper_Space
  1

  0
ENDBLK
  5
1D
330
1B
100
AcDbEntity
  8
0
100
AcDbBlockEnd
  0
BLOCK
  5
75
330
74
100
AcDbEntity
  8
0
100
AcDbBlockBegin
  2
_ARCHTICK
 70
0
 10
0.0
 20
0.0
 30
0.0
  3
_ARCHTICK
  1

  0
LWPOLYLINE
  5
77
330
74
100
AcDbEntity
  8
0
  6
BYBLOCK
 62
0
100
AcDbPolyline
 90
2
 70
0
 43
0.15
 10
-0.5
 20
-0.5
 10
0.5
 20
0.5
  0
ENDBLK
  5
76
330
74
100
AcDbEntity
  8
0
100
AcDbBlockEnd
  0
BLOCK
  5
79
330
78
100
AcDbEntity
  8
0
100
AcDbBlockBegin
  2
_CLOSEDFILLED
 70
0
 10
0.0
 20
0.0
 30
0.0
  3
_CLOSEDFILLED
  1

  0
SOLID
  5
7B
330
78
100
AcDbEntity
  8
0
  6
BYBLOCK
 62
0
100
AcDbTrace
 10
-1.0
 20
0.16439898372402537
 30
0.0
 11
0.0
 21
0.0
 31
0.0
 12
-1.0
 22
-0.16439898372402537
 32
0.0
 13
-1.0
 23
-0.16439898372402537
 33
0.0
  0
ENDBLK
  5
7A
330
78
100
AcDbEntity
  8
0
100
AcDbBlockEnd
  0
BLOCK
  5
85
330
84
100
AcDbEntity
  8
0
100
AcDbBlockBegin
  2
_CLOSEDBLANK
 70
0
 10
0.0
 20
0.0
 30
0.0
  3
_CLOSEDBLANK
  1

  0
LWPOLYLINE
  5
87
330
84
100
AcDbEntity
  8
0
  6
BYBLOCK
 62
0
100
AcDbPolyline
 90
3
 70
1
 10
-1.0
 20
0.16439898372402537
 10
0.0
 20
0.0
 10
-1.0
 20
-0.16439898372402537
  0
ENDBLK
  5
86
330
84
100
AcDbEntity
  8
0
100
AcDbBlockEnd
  0
BLOCK
  5
99
330
98
100
AcDbEntity
  8
0
100
AcDbBlockBegin
  2
*D1
 70
1
 10
0.0
 20
0.0
 30
0.0
  3
*D1
  1

  0
LINE
  5
9B
330
98
100
AcDbEntity
  8
0
100
AcDbLine
 10
0.0
 20
-0.125
 30
0.0
 11
0.0
 21
-60.375
 31
0.0
  0
LINE
  5
9C
330
98
100
AcDbEntity
  8
0
100
AcDbLine
 10
768.0
 20
-0.125
 30
0.0
 11
768.0
 21
-60.375
 31
0.0
  0
INSERT
  5
9D
330
98
100
AcDbEntity
  8
DIM
100
AcDbBlockReference
  2
_ARCHTICK
 10
0.0
 20
-60.0
 30
0.0
 41
0.175
 42
0.175
 50
180.0
  0
INSERT
  5
9F
330
98
100
AcDbEntity
  8
DIM
100
AcDbBlockReference
  2
_ARCHTICK
 10
768.0
 20
-60.0
 30
0.0
 41
0.175
 42
0.175
  0
LINE
  5
A1
330
98
100
AcDbEntity
  8
0
100
AcDbLine
 10
0.0
 20
-60.0
 30
0.0
 11
768.0
 21
-60.0
 31
0.0
  0
MTEXT
  5
A2
330
98
100
AcDbEntity
  8
DIM
100
AcDbMText
 10
384.0
 20
-59.775
 30
0.0
 40
0.25
 71
5
  1
76800
  7
OpenSansCondensed-Light
  0
POINT
  5
A3
330
98
100
AcDbEntity
  8
Defpoints
100
AcDbPoint
 10
0.0
 20
-60.0
 30
0.0
  0
POINT
  5
A4
330
98
100
AcDbEntity
  8
Defpoints
100
AcDbPoint
 10
0.0
 20
0.0
 30
0.0
  0
POINT
  5
A5
330
98
100
AcDbEntity
  8
Defpoints
100
AcDbPoint
 10
768.0
 20
0.0
 30
0.0
  0
ENDBLK
  5
9A
330
98
100
AcDbEntity
  8
0
100
AcDbBlockEnd
  0
BLOCK
  5
AC
330
AB
100
AcDbEntity
  8
0
100
AcDbBlockBegin
  2
*D2
 70
1
 10
0.0
 20
0.0
 30
0.0
  3
*D2
  1

  0
LINE
  5
AE
330
AB
100
AcDbEntity
  8
0
100
AcDbLine
 10
768.125
 20
0.0
 30
0.0
 11
828.375
 21
0.0
 31
0.0
  0
LINE
  5
AF
330
AB
100
AcDbEntity
  8
0
100
AcDbLine
 10
768.125
 20
758.0
 30
0.0
 11
828.375
 21
758.0
 31
0.0
  0
INSERT
  5
B0
330
AB
100
AcDbEntity
  8
DIM
100
AcDbBlockReference
  2
_ARCHTICK
 10
828.0
 20
0.0
 30
0.0
 41
0.175
 42
0.175
 50
270.0
  0
INSERT
  5
B2
330
AB
100
AcDbEntity
  8
DIM
100
AcDbBlockReference
  2
_ARCHTICK
 10
828.0
 20
758.0
 30
0.0
 41
0.175
 42
0.175
 50
90.0
  0
LINE
  5
B4
330
AB
100
AcDbEntity
  8
0
100
AcDbLine
 10
828.0
 20
0.0
 30
0.0
 11
828.0
 21
758.0
 31
0.0
  0
MTEXT
  5
B5
330
AB
100
AcDbEntity
  8
DIM
100
AcDbMText
 10
827.775
 20
379.0
 30
0.0
 40
0.25
 71
5
  1
75800
  7
OpenSansCondensed-Light
 50
90.0
  0
POINT
  5
B6
330
AB
100
AcDbEntity
  8
Defpoints
100
AcDbPoint
 10
828.0
 20
0.0
 30
0.0
  0
POINT
  5
B7
330
AB
100
AcDbEntity
  8
Defpoints
100
AcDbPoint
 10
768.0
 20
0.0
 30
0.0
  0
POINT
  5
B8
330
AB
100
AcDbEntity
  8
Defpoints
100
AcDbPoint
 10
768.0
 20
758.0
 30
0.0
  0
ENDBLK
  5
AD
330
AB
100
AcDbEntity
  8
0
100
AcDbBlockEnd
  0
BLOCK
  5
BF
330
BE
100
AcDbEntity
  8
0
100
AcDbBlockBegin
  2
*D3
 70
1
 10
0.0
 20
0.0
 30
0.0
  3
*D3
  1

  0
LINE
  5
C1
330
BE
100
AcDbEntity
  8
0
100
AcDbLine
 10
768.0
 20
758.125
 30
0.0
 11
768.0
 21
818.375
 31
0.0
  0
LINE
  5
C2
330
BE
100
AcDbEntity
  8
0
100
AcDbLine
 10
0.0
 20
758.125
 30
0.0
 11
0.0
 21
818.375
 31
0.0
  0
INSERT
  5
C3
330
BE
100
AcDbEntity
  8
DIM
100
AcDbBlockReference
  2
_ARCHTICK
 10
768.0
 20
818.0
 30
0.0
 41
0.175
 42
0.175
 50
360.0
  0
INSERT
  5
C5
330
BE
100
AcDbEntity
  8
DIM
100
AcDbBlockReference
  2
_ARCHTICK
 10
0.0
 20
818.0
 30
0.0
 41
0.175
 42
0.175
 50
180.0
  0
LINE
  5
C7
330
BE
100
AcDbEntity
  8
0
100
AcDbLine
 10
768.0
 20
818.0
 30
0.0
 11
0.0
 21
818.0
 31
0.0
  0
MTEXT
  5
C8
330
BE
100
AcDbEntity
  8
DIM
100
AcDbMText
 10
384.0
 20
817.775
 30
0.0
 40
0.25
 71
5
  1
76800
  7
OpenSansCondensed-Light
 50
180.0
  0
POINT
  5
C9
330
BE
100
AcDbEntity
  8
Defpoints
100
AcDbPoint
 10
768.0
 20
818.0
 30
0.0
  0
POINT
  5
CA
330
BE
100
AcDbEntity
  8
Defpoints
100
AcDbPoint
 10
768.0
 20
758.0
 30
0.0
  0
POINT
  5
CB
330
BE
100
AcDbEntity
  8
Defpoints
100
AcDbPoint
 10
0.0
 20
758.0
 30
0.0
  0
ENDBLK
  5
C0
330
BE
100
AcDbEntity
  8
0
100
AcDbBlockEnd
  0
BLOCK
  5
D3
330
D2
100
AcDbEntity
  8
0
100
AcDbBlockBegin
  2
*D4
 70
1
 10
0.0
 20
0.0
 30
0.0
  3
*D4
  1

  0
LINE
  5
D5
330
D2
100
AcDbEntity
  8
0
100
AcDbLine
 10
-0.12499999999999999
 20
758.0
 30
0.0
 11
-60.37500000000001
 21
758.0
 31
0.0
  0
LINE
  5
D6
330
D2
100
AcDbEntity
  8
0
100
AcDbLine
 10
-0.12499999999999999
 20
0.0
 30
0.0
 11
-60.37500000000001
 21
0.0
 31
0.0
  0
INSERT
  5
D7
330
D2
100
AcDbEntity
  8
DIM
100
AcDbBlockReference
  2
_ARCHTICK
 10
-60.00000000000001
 20
758.0
 30
0.0
 41
0.175
 42
0.175
 50
90.0
  0
INSERT
  5
D9
330
D2
100
AcDbEntity
  8
DIM
100
AcDbBlockReference
  2
_ARCHTICK
 10
-60.00000000000001
 20
0.0
 30
0.0
 41
0.175
 42
0.175
 50
-90.0
  0
LINE
  5
DB
330
D2
100
AcDbEntity
  8
0
100
AcDbLine
 10
-60.00000000000001
 20
758.0
 30
0.0
 11
-60.00000000000001
 21
0.0
 31
0.0
  0
MTEXT
  5
DC
330
D2
100
AcDbEntity
  8
DIM
100
AcDbMText
 10
-59.775000000000006
 20
379.0
 30
0.0
 40
0.25
 71
5
  1
75800
  7
OpenSansCondensed-Light
 50
-90.0
  0
POINT
  5
DD
330
D2
100
AcDbEntity
  8
Defpoints
100
AcDbPoint
 10
-60.00000000000001
 20
758.0
 30
0.0
  0
POINT
  5
DE
330
D2
100
AcDbEntity
  8
Defpoints
100
AcDbPoint
 10
0.0
 20
758.0
 30
0.0
  0
POINT
  5
DF
330
D2
100
AcDbEntity
  8
Defpoints
100
AcDbPoint
 10
0.0
 20
0.0
 30
0.0
  0
ENDBLK
  5
D4
330
D2
100
AcDbEntity
  8
0
100
AcDbBlockEnd
  0
BLOCK
  5
E6
330
E5
100
AcDbEntity
  8
0
100
AcDbBlockBegin
  2
*D5
 70
1
 10
0.0
 20
0.0
 30
0.0
  3
*D5
  1

  0
LINE
  5
E8
330
E5
100
AcDbEntity
  8
0
100
AcDbLine
 10
162.125
 20
330.0
 30
0.0
 11
222.375
 21
330.0
 31
0.0
  0
LINE
  5
E9
330
E5
100
AcDbEntity
  8
0
100
AcDbLine
 10
162.125
 20
758.0
 30
0.0
 11
222.375
 21
758.0
 31
0.0
  0
INSERT
  5
EA
330
E5
100
AcDbEntity
  8
DIM
100
AcDbBlockReference
  2
_ARCHTICK
 10
222.0
 20
330.0
 30
0.0
 41
0.175
 42
0.175
 50
270.0
  0
INSERT
  5
EC
330
E5
100
AcDbEntity
  8
DIM
100
AcDbBlockReference
  2
_ARCHTICK
 10
222.0
 20
758.0
 30
0.0
 41
0.175
 42
0.175
 50
90.0
  0
LINE
  5
EE
330
E5
100
AcDbEntity
  8
0
100
AcDbLine
 10
222.0
 20
330.0
 30
0.0
 11
222.0
 21
758.0
 31
0.0
  0
MTEXT
  5
EF
330
E5
100
AcDbEntity
  8
DIM
100
AcDbMText
 10
221.775
 20
544.0
 30
0.0
 40
0.25
 71
5
  1
42800
  7
OpenSansCondensed-Light
 50
90.0
  0
POINT
  5
F0
330
E5
100
AcDbEntity
  8
Defpoints
100
AcDbPoint
 10
222.0
 20
330.0
 30
0.0
  0
POINT
  5
F1
330
E5
100
AcDbEntity
  8
Defpoints
100
AcDbPoint
 10
162.0
 20
330.0
 30
0.0
  0
POINT
  5
F2
330
E5
100
AcDbEntity
  8
Defpoints
100
AcDbPoint
 10
162.0
 20
758.0
 30
0.0
  0
ENDBLK
  5
E7
330
E5
100
AcDbEntity
  8
0
100
AcDbBlockEnd
  0
BLOCK
  5
F7
330
F6
100
AcDbEntity
  8
0
100
AcDbBlockBegin
  2
*D6
 70
1
 10
0.0
 20
0.0
 30
0.0
  3
*D6
  1

  0
LINE
  5
F9
330
F6
100
AcDbEntity
  8
0
100
AcDbLine
 10
0.0
 20
527.875
 30
0.0
 11
0.0
 21
467.625
 31
0.0
  0
LINE
  5
FA
330
F6
100
AcDbEntity
  8
0
100
AcDbLine
 10
162.0
 20
527.875
 30
0.0
 11
162.0
 21
467.625
 31
0.0
  0
INSERT
  5
FB
330
F6
100
AcDbEntity
  8
DIM
100
AcDbBlockReference
  2
_ARCHTICK
 10
0.0
 20
468.0
 30
0.0
 41
0.175
 42
0.175
 50
180.0
  0
INSERT
  5
FD
330
F6
100
AcDbEntity
  8
DIM
100
AcDbBlockReference
  2
_ARCHTICK
 10
162.0
 20
468.0
 30
0.0
 41
0.175
 42
0.175
  0
LINE
  5
FF
330
F6
100
AcDbEntity
  8
0
100
AcDbLine
 10
0.0
 20
468.0
 30
0.0
 11
162.0
 21
468.0
 31
0.0
  0
MTEXT
  5
100
330
F6
100
AcDbEntity
  8
DIM
100
AcDbMText
 10
81.0
 20
468.225
 30
0.0
 40
0.25
 71
5
  1
16200
  7
OpenSansCondensed-Light
  0
POINT
  5
101
330
F6
100
AcDbEntity
  8
Defpoints
100
AcDbPoint
 10
0.0
 20
468.0
 30
0.0
  0
POINT
  5
102
330
F6
100
AcDbEntity
  8
Defpoints
100
AcDbPoint
 10
0.0
 20
528.0
 30
0.0
  0
POINT
  5
103
330
F6
100
AcDbEntity
  8
Defpoints
100
AcDbPoint
 10
162.0
 20
528.0
 30
0.0
  0
ENDBLK
  5
F8
330
F6
100
AcDbEntity
  8
0
100
AcDbBlockEnd
  0
BLOCK
  5
108
330
107
100
AcDbEntity
  8
0
100
AcDbBlockBegin
  2
*D7
 70
1
 10
0.0
 20
0.0
 30
0.0
  3
*D7
  1

  0
LINE
  5
10A
330
107
100
AcDbEntity
  8
0
100
AcDbLine
 10
0.0
 20
329.875
 30
0.0
 11
0.0
 21
269.625
 31
0.0
  0
LINE
  5
10B
330
107
100
AcDbEntity
  8
0
100
AcDbLine
 10
162.0
 20
329.875
 30
0.0
 11
162.0
 21
269.625
 31
0.0
  0
INSERT
  5
10C
330
107
100
AcDbEntity
  8
DIM
100
AcDbBlockReference
  2
_ARCHTICK
 10
0.0
 20
270.0
 30
0.0
 41
0.175
 42
0.175
 50
180.0
  0
INSERT
  5
10E
330
107
100
AcDbEntity
  8
DIM
100
AcDbBlockReference
  2
_ARCHTICK
 10
162.0
 20
270.0
 30
0.0
 41
0.175
 42
0.175
  0
LINE
  5
110
330
107
100
AcDbEntity
  8
0
100
AcDbLine
 10
0.0
 20
270.0
 30
0.0
 11
162.0
 21
270.0
 31
0.0
  0
MTEXT
  5
111
330
107
100
AcDbEntity
  8
DIM
100
AcDbMText
 10
81.0
 20
270.225
 30
0.0
 40
0.25
 71
5
  1
16200
  7
OpenSansCondensed-Light
  0
POINT
  5
112
330
107
100
AcDbEntity
  8
Defpoints
100
AcDbPoint
 10
0.0
 20
270.0
 30
0.0
  0
POINT
  5
113
330
107
100
AcDbEntity
  8
Defpoints
100
AcDbPoint
 10
0.0
 20
330.0
 30
0.0
  0
POINT
  5
114
330
107
100
AcDbEntity
  8
Defpoints
100
AcDbPoint
 10
162.0
 20
330.0
 30
0.0
  0
ENDBLK
  5
109
330
107
100
AcDbEntity
  8
0
100
AcDbBlockEnd
  0
BLOCK
  5
11A
330
119
100
AcDbEntity
  8
0
100
AcDbBlockBegin
  2
*D8
 70
1
 10
0.0
 20
0.0
 30
0.0
  3
*D8
  1

  0
LINE
  5
11C
330
119
100
AcDbEntity
  8
0
100
AcDbLine
 10
510.0
 20
329.875
 30
0.0
 11
510.0
 21
269.625
 31
0.0
  0
LINE
  5
11D
330
119
100
AcDbEntity
  8
0
100
AcDbLine
 10
768.0
 20
329.875
 30
0.0
 11
768.0
 21
269.625
 31
0.0
  0
INSERT
  5
11E
330
119
100
AcDbEntity
  8
DIM
100
AcDbBlockReference
  2
_ARCHTICK
 10
510.0
 20
270.0
 30
0.0
 41
0.175
 42
0.175
 50
180.0
  0
INSERT
  5
120
330
119
100
AcDbEntity
  8
DIM
100
AcDbBlockReference
  2
_ARCHTICK
 10
768.0
 20
270.0
 30
0.0
 41
0.175
 42
0.175
  0
LINE
  5
122
330
119
100
AcDbEntity
  8
0
100
AcDbLine
 10
510.0
 20
270.0
 30
0.0
 11
768.0
 21
270.0
 31
0.0
  0
MTEXT
  5
123
330
119
100
AcDbEntity
  8
DIM
100
AcDbMText
 10
639.0
 20
270.225
 30
0.0
 40
0.25
 71
5
  1
25800
  7
OpenSansCondensed-Light
  0
POINT
  5
124
330
119
100
AcDbEntity
  8
Defpoints
100
AcDbPoint
 10
510.0
 20
270.0
 30
0.0
  0
POINT
  5
125
330
119
100
AcDbEntity
  8
Defpoints
100
AcDbPoint
 10
510.0
 20
330.0
 30
0.0
  0
POINT
  5
126
330
119
100
AcDbEntity
  8
Defpoints
100
AcDbPoint
 10
768.0
 20
330.0
 30
0.0
  0
ENDBLK
  5
11B
330
119
100
AcDbEntity
  8
0
100
AcDbBlockEnd
  0
BLOCK
  5
12B
330
12A
100
AcDbEntity
  8
0
100
AcDbBlockBegin
  2
*D9
 70
1
 10
0.0
 20
0.0
 30
0.0
  3
*D9
  1

  0
LINE
  5
12D
330
12A
100
AcDbEntity
  8
0
100
AcDbLine
 10
510.125
 20
0.0
 30
0.0
 11
570.375
 21
0.0
 31
0.0
  0
LINE
  5
12E
330
12A
100
AcDbEntity
  8
0
100
AcDbLine
 10
510.125
 20
330.0
 30
0.0
 11
570.375
 21
330.0
 31
0.0
  0
INSERT
  5
12F
330
12A
100
AcDbEntity
  8
DIM
100
AcDbBlockReference
  2
_ARCHTICK
 10
570.0
 20
0.0
 30
0.0
 41
0.175
 42
0.175
 50
270.0
  0
INSERT
  5
131
330
12A
100
AcDbEntity
  8
DIM
100
AcDbBlockReference
  2
_ARCHTICK
 10
570.0
 20
330.0
 30
0.0
 41
0.175
 42
0.175
 50
90.0
  0
LINE
  5
133
330
12A
100
AcDbEntity
  8
0
100
AcDbLine
 10
570.0
 20
0.0
 30
0.0
 11
570.0
 21
330.0
 31
0.0
  0
MTEXT
  5
134
330
12A
100
AcDbEntity
  8
DIM
100
AcDbMText
 10
569.775
 20
165.0
 30
0.0
 40
0.25
 71
5
  1
33000
  7
OpenSansCondensed-Light
 50
90.0
  0
POINT
  5
135
330
12A
100
AcDbEntity
  8
Defpoints
100
AcDbPoint
 10
570.0
 20
0.0
 30
0.0
  0
POINT
  5
136
330
12A
100
AcDbEntity
  8
Defpoints
100
AcDbPoint
 10
510.0
 20
0.0
 30
0.0
  0
POINT
  5
137
330
12A
100
AcDbEntity
  8
Defpoints
100
AcDbPoint
 10
510.0
 20
330.0
 30
0.0
  0
ENDBLK
  5
12C
330
12A
100
AcDbEntity
  8
0
100
AcDbBlockEnd
  0
BLOCK
  5
13E
330
13D
100
AcDbEntity
  8
0
100
AcDbBlockBegin
  2
*D10
 70
1
 10
0.0
 20
0.0
 30
0.0
  3
*D10
  1

  0
LINE
  5
140
330
13D
100
AcDbEntity
  8
0
100
AcDbLine
 10
162.0
 20
431.875
 30
0.0
 11
162.0
 21
371.625
 31
0.0
  0
LINE
  5
141
330
13D
100
AcDbEntity
  8
0
100
AcDbLine
 10
510.0
 20
431.875
 30
0.0
 11
510.0
 21
371.625
 31
0.0
  0
INSERT
  5
142
330
13D
100
AcDbEntity
  8
DIM
100
AcDbBlockReference
  2
_ARCHTICK
 10
162.0
 20
372.0
 30
0.0
 41
0.175
 42
0.175
 50
180.0
  0
INSERT
  5
144
330
13D
100
AcDbEntity
  8
DIM
100
AcDbBlockReference
  2
_ARCHTICK
 10
510.0
 20
372.0
 30
0.0
 41
0.175
 42
0.175
  0
LINE
  5
146
330
13D
100
AcDbEntity
  8
0
100
AcDbLine
 10
162.0
 20
372.0
 30
0.0
 11
510.0
 21
372.0
 31
0.0
  0
MTEXT
  5
147
330
13D
100
AcDbEntity
  8
DIM
100
AcDbMText
 10
336.0
 20
372.225
 30
0.0
 40
0.25
 71
5
  1
34800
  7
OpenSansCondensed-Light
  0
POINT
  5
148
330
13D
100
AcDbEntity
  8
Defpoints
100
AcDbPoint
 10
162.0
 20
372.0
 30
0.0
  0
POINT
  5
149
330
13D
100
AcDbEntity
  8
Defpoints
100
AcDbPoint
 10
162.0
 20
432.0
 30
0.0
  0
POINT
  5
14A
330
13D
100
AcDbEntity
  8
Defpoints
100
AcDbPoint
 10
510.0
 20
432.0
 30
0.0
  0
ENDBLK
  5
13F
330
13D
100
AcDbEntity
  8
0
100
AcDbBlockEnd
  0
BLOCK
  5
14F
330
14E
100
AcDbEntity
  8
0
100
AcDbBlockBegin
  2
*D11
 70
1
 10
0.0
 20
0.0
 30
0.0
  3
*D11
  1

  0
LINE
  5
151
330
14E
100
AcDbEntity
  8
0
100
AcDbLine
 10
390.125
 20
432.0
 30
0.0
 11
450.375
 21
432.0
 31
0.0
  0
LINE
  5
152
330
14E
100
AcDbEntity
  8
0
100
AcDbLine
 10
390.125
 20
758.0
 30
0.0
 11
450.375
 21
758.0
 31
0.0
  0
INSERT
  5
153
330
14E
100
AcDbEntity
  8
DIM
100
AcDbBlockReference
  2
_ARCHTICK
 10
450.0
 20
432.0
 30
0.0
 41
0.175
 42
0.175
 50
270.0
  0
INSERT
  5
155
330
14E
100
AcDbEntity
  8
DIM
100
AcDbBlockReference
  2
_ARCHTICK
 10
450.0
 20
758.0
 30
0.0
 41
0.175
 42
0.175
 50
90.0
  0
LINE
  5
157
330
14E
100
AcDbEntity
  8
0
100
AcDbLine
 10
450.0
 20
432.0
 30
0.0
 11
450.0
 21
758.0
 31
0.0
  0
MTEXT
  5
158
330
14E
100
AcDbEntity
  8
DIM
100
AcDbMText
 10
449.775
 20
595.0
 30
0.0
 40
0.25
 71
5
  1
32600
  7
OpenSansCondensed-Light
 50
90.0
  0
POINT
  5
159
330
14E
100
AcDbEntity
  8
Defpoints
100
AcDbPoint
 10
450.0
 20
432.0
 30
0.0
  0
POINT
  5
15A
330
14E
100
AcDbEntity
  8
Defpoints
100
AcDbPoint
 10
390.0
 20
432.0
 30
0.0
  0
POINT
  5
15B
330
14E
100
AcDbEntity
  8
Defpoints
100
AcDbPoint
 10
390.0
 20
758.0
 30
0.0
  0
ENDBLK
  5
150
330
14E
100
AcDbEntity
  8
0
100
AcDbBlockEnd
  0
BLOCK
  5
160
330
15F
100
AcDbEntity
  8
0
100
AcDbBlockBegin
  2
*D12
 70
1
 10
0.0
 20
0.0
 30
0.0
  3
*D12
  1

  0
LINE
  5
162
330
15F
100
AcDbEntity
  8
0
100
AcDbLine
 10
510.125
 20
432.0
 30
0.0
 11
570.375
 21
432.0
 31
0.0
  0
LINE
  5
163
330
15F
100
AcDbEntity
  8
0
100
AcDbLine
 10
510.125
 20
758.0
 30
0.0
 11
570.375
 21
758.0
 31
0.0
  0
INSERT
  5
164
330
15F
100
AcDbEntity
  8
DIM
100
AcDbBlockReference
  2
_ARCHTICK
 10
570.0
 20
432.0
 30
0.0
 41
0.175
 42
0.175
 50
270.0
  0
INSERT
  5
166
330
15F
100
AcDbEntity
  8
DIM
100
AcDbBlockReference
  2
_ARCHTICK
 10
570.0
 20
758.0
 30
0.0
 41
0.175
 42
0.175
 50
90.0
  0
LINE
  5
168
330
15F
100
AcDbEntity
  8
0
100
AcDbLine
 10
570.0
 20
432.0
 30
0.0
 11
570.0
 21
758.0
 31
0.0
  0
MTEXT
  5
169
330
15F
100
AcDbEntity
  8
DIM
100
AcDbMText
 10
569.775
 20
595.0
 30
0.0
 40
0.25
 71
5
  1
32600
  7
OpenSansCondensed-Light
 50
90.0
  0
POINT
  5
16A
330
15F
100
AcDbEntity
  8
Defpoints
100
AcDbPoint
 10
570.0
 20
432.0
 30
0.0
  0
POINT
  5
16B
330
15F
100
AcDbEntity
  8
Defpoints
100
AcDbPoint
 10
510.0
 20
432.0
 30
0.0
  0
POINT
  5
16C
330
15F
100
AcDbEntity
  8
Defpoints
100
AcDbPoint
 10
510.0
 20
758.0
 30
0.0
  0
ENDBLK
  5
161
330
15F
100
AcDbEntity
  8
0
100
AcDbBlockEnd
  0
BLOCK
  5
173
330
172
100
AcDbEntity
  8
0
100
AcDbBlockBegin
  2
*D13
 70
1
 10
0.0
 20
0.0
 30
0.0
  3
*D13
  1

  0
LINE
  5
175
330
172
100
AcDbEntity
  8
0
100
AcDbLine
 10
0.0
 20
-0.125
 30
0.0
 11
0.0
 21
-60.375
 31
0.0
  0
LINE
  5
176
330
172
100
AcDbEntity
  8
0
100
AcDbLine
 10
768.0
 20
-0.125
 30
0.0
 11
768.0
 21
-60.375
 31
0.0
  0
INSERT
  5
177
330
172
100
AcDbEntity
  8
DIM
100
AcDbBlockReference
  2
_ARCHTICK
 10
0.0
 20
-60.0
 30
0.0
 41
0.175
 42
0.175
 50
180.0
  0
INSERT
  5
179
330
172
100
AcDbEntity
  8
DIM
100
AcDbBlockReference
  2
_ARCHTICK
 10
768.0
 20
-60.0
 30
0.0
 41
0.175
 42
0.175
  0
LINE
  5
17B
330
172
100
AcDbEntity
  8
0
100
AcDbLine
 10
0.0
 20
-60.0
 30
0.0
 11
768.0
 21
-60.0
 31
0.0
  0
MTEXT
  5
17C
330
172
100
AcDbEntity
  8
DIM
100
AcDbMText
 10
384.0
 20
-59.775
 30
0.0
 40
0.25
 71
5
  1
76800
  7
OpenSansCondensed-Light
  0
POINT
  5
17D
330
172
100
AcDbEntity
  8
Defpoints
100
AcDbPoint
 10
0.0
 20
-60.0
 30
0.0
  0
POINT
  5
17E
330
172
100
AcDbEntity
  8
Defpoints
100
AcDbPoint
 10
0.0
 20
0.0
 30
0.0
  0
POINT
  5
17F
330
172
100
AcDbEntity
  8
Defpoints
100
AcDbPoint
 10
768.0
 20
0.0
 30
0.0
  0
ENDBLK
  5
174
330
172
100
AcDbEntity
  8
0
100
AcDbBlockEnd
  0
BLOCK
  5
186
330
185
100
AcDbEntity
  8
0
100
AcDbBlockBegin
  2
*D14
 70
1
 10
0.0
 20
0.0
 30
0.0
  3
*D14
  1

  0
LINE
  5
188
330
185
100
AcDbEntity
  8
0
100
AcDbLine
 10
768.125
 20
0.0
 30
0.0
 11
828.375
 21
0.0
 31
0.0
  0
LINE
  5
189
330
185
100
AcDbEntity
  8
0
100
AcDbLine
 10
768.125
 20
758.0
 30
0.0
 11
828.375
 21
758.0
 31
0.0
  0
INSERT
  5
18A
330
185
100
AcDbEntity
  8
DIM
100
AcDbBlockReference
  2
_ARCHTICK
 10
828.0
 20
0.0
 30
0.0
 41
0.175
 42
0.175
 50
270.0
  0
INSERT
  5
18C
330
185
100
AcDbEntity
  8
DIM
100
AcDbBlockReference
  2
_ARCHTICK
 10
828.0
 20
758.0
 30
0.0
 41
0.175
 42
0.175
 50
90.0
  0
LINE
  5
18E
330
185
100
AcDbEntity
  8
0
100
AcDbLine
 10
828.0
 20
0.0
 30
0.0
 11
828.0
 21
758.0
 31
0.0
  0
MTEXT
  5
18F
330
185
100
AcDbEntity
  8
DIM
100
AcDbMText
 10
827.775
 20
379.0
 30
0.0
 40
0.25
 71
5
  1
75800
  7
OpenSansCondensed-Light
 50
90.0
  0
POINT
  5
190
330
185
100
AcDbEntity
  8
Defpoints
100
AcDbPoint
 10
828.0
 20
0.0
 30
0.0
  0
POINT
  5
191
330
185
100
AcDbEntity
  8
Defpoints
100
AcDbPoint
 10
768.0
 20
0.0
 30
0.0
  0
POINT
  5
192
330
185
100
AcDbEntity
  8
Defpoints
100
AcDbPoint
 10
768.0
 20
758.0
 30
0.0
  0
ENDBLK
  5
187
330
185
100
AcDbEntity
  8
0
100
AcDbBlockEnd
  0
BLOCK
  5
198
330
197
100
AcDbEntity
  8
0
100
AcDbBlockBegin
  2
*D15
 70
1
 10
0.0
 20
0.0
 30
0.0
  3
*D15
  1

  0
LINE
  5
19A
330
197
100
AcDbEntity
  8
0
100
AcDbLine
 10
768.0
 20
758.125
 30
0.0
 11
768.0
 21
818.375
 31
0.0
  0
LINE
  5
19B
330
197
100
AcDbEntity
  8
0
100
AcDbLine
 10
0.0
 20
758.125
 30
0.0
 11
0.0
 21
818.375
 31
0.0
  0
INSERT
  5
19C
330
197
100
AcDbEntity
  8
DIM
100
AcDbBlockReference
  2
_ARCHTICK
 10
768.0
 20
818.0
 30
0.0
 41
0.175
 42
0.175
 50
360.0
  0
INSERT
  5
19E
330
197
100
AcDbEntity
  8
DIM
100
AcDbBlockReference
  2
_ARCHTICK
 10
0.0
 20
818.0
 30
0.0
 41
0.175
 42
0.175
 50
180.0
  0
LINE
  5
1A0
330
197
100
AcDbEntity
  8
0
100
AcDbLine
 10
768.0
 20
818.0
 30
0.0
 11
0.0
 21
818.0
 31
0.0
  0
MTEXT
  5
1A1
330
197
100
AcDbEntity
  8
DIM
100
AcDbMText
 10
384.0
 20
817.775
 30
0.0
 40
0.25
 71
5
  1
76800
  7
OpenSansCondensed-Light
 50
180.0
  0
POINT
  5
1A2
330
197
100
AcDbEntity
  8
Defpoints
100
AcDbPoint
 10
768.0
 20
818.0
 30
0.0
  0
POINT
  5
1A3
330
197
100
AcDbEntity
  8
Defpoints
100
AcDbPoint
 10
768.0
 20
758.0
 30
0.0
  0
POINT
  5
1A4
330
197
100
AcDbEntity
  8
Defpoints
100
AcDbPoint
 10
0.0
 20
758.0
 30
0.0
  0
ENDBLK
  5
199
330
197
100
AcDbEntity
  8
0
100
AcDbBlockEnd
  0
BLOCK
  5
1AC
330
1AB
100
AcDbEntity
  8
0
100
AcDbBlockBegin
  2
*D16
 70
1
 10
0.0
 20
0.0
 30
0.0
  3
*D16
  1

  0
LINE
  5
1AE
330
1AB
100
AcDbEntity
  8
0
100
AcDbLine
 10
-0.12499999999999999
 20
758.0
 30
0.0
 11
-60.37500000000001
 21
758.0
 31
0.0
  0
LINE
  5
1AF
330
1AB
100
AcDbEntity
  8
0
100
AcDbLine
 10
-0.12499999999999999
 20
0.0
 30
0.0
 11
-60.37500000000001
 21
0.0
 31
0.0
  0
INSERT
  5
1B0
330
1AB
100
AcDbEntity
  8
DIM
100
AcDbBlockReference
  2
_ARCHTICK
 10
-60.00000000000001
 20
758.0
 30
0.0
 41
0.175
 42
0.175
 50
90.0
  0
INSERT
  5
1B2
330
1AB
100
AcDbEntity
  8
DIM
100
AcDbBlockReference
  2
_ARCHTICK
 10
-60.00000000000001
 20
0.0
 30
0.0
 41
0.175
 42
0.175
 50
-90.0
  0
LINE
  5
1B4
330
1AB
100
AcDbEntity
  8
0
100
AcDbLine
 10
-60.00000000000001
 20
758.0
 30
0.0
 11
-60.00000000000001
 21
0.0
 31
0.0
  0
MTEXT
  5
1B5
330
1AB
100
AcDbEntity
  8
DIM
100
AcDbMText
 10
-59.775000000000006
 20
379.0
 30
0.0
 40
0.25
 71
5
  1
75800
  7
OpenSansCondensed-Light
 50
-90.0
  0
POINT
  5
1B6
330
1AB
100
AcDbEntity
  8
Defpoints
100
AcDbPoint
 10
-60.00000000000001
 20
758.0
 30
0.0
  0
POINT
  5
1B7
330
1AB
100
AcDbEntity
  8
Defpoints
100
AcDbPoint
 10
0.0
 20
758.0
 30
0.0
  0
POINT
  5
1B8
330
1AB
100
AcDbEntity
  8
Defpoints
100
AcDbPoint
 10
0.0
 20
0.0
 30
0.0
  0
ENDBLK
  5
1AD
330
1AB
100
AcDbEntity
  8
0
100
AcDbBlockEnd
  0
BLOCK
  5
1BF
330
1BE
100
AcDbEntity
  8
0
100
AcDbBlockBegin
  2
*D17
 70
1
 10
0.0
 20
0.0
 30
0.0
  3
*D17
  1

  0
LINE
  5
1C1
330
1BE
100
AcDbEntity
  8
0
100
AcDbLine
 10
0.0
 20
329.875
 30
0.0
 11
0.0
 21
269.625
 31
0.0
  0
LINE
  5
1C2
330
1BE
100
AcDbEntity
  8
0
100
AcDbLine
 10
768.0
 20
329.875
 30
0.0
 11
768.0
 21
269.625
 31
0.0
  0
INSERT
  5
1C3
330
1BE
100
AcDbEntity
  8
DIM
100
AcDbBlockReference
  2
_ARCHTICK
 10
0.0
 20
270.0
 30
0.0
 41
0.175
 42
0.175
 50
180.0
  0
INSERT
  5
1C5
330
1BE
100
AcDbEntity
  8
DIM
100
AcDbBlockReference
  2
_ARCHTICK
 10
768.0
 20
270.0
 30
0.0
 41
0.175
 42
0.175
  0
LINE
  5
1C7
330
1BE
100
AcDbEntity
  8
0
100
AcDbLine
 10
0.0
 20
270.0
 30
0.0
 11
768.0
 21
270.0
 31
0.0
  0
MTEXT
  5
1C8
330
1BE
100
AcDbEntity
  8
DIM
100
AcDbMText
 10
384.0
 20
270.225
 30
0.0
 40
0.25
 71
5
  1
76800
  7
OpenSansCondensed-Light
  0
POINT
  5
1C9
330
1BE
100
AcDbEntity
  8
Defpoints
100
AcDbPoint
 10
0.0
 20
270.0
 30
0.0
  0
POINT
  5
1CA
330
1BE
100
AcDbEntity
  8
Defpoints
100
AcDbPoint
 10
0.0
 20
330.0
 30
0.0
  0
POINT
  5
1CB
330
1BE
100
AcDbEntity
  8
Defpoints
100
AcDbPoint
 10
768.0
 20
330.0
 30
0.0
  0
ENDBLK
  5
1C0
330
1BE
100
AcDbEntity
  8
0
100
AcDbBlockEnd
  0
BLOCK
  5
1D0
330
1CF
100
AcDbEntity
  8
0
100
AcDbBlockBegin
  2
*D18
 70
1
 10
0.0
 20
0.0
 30
0.0
  3
*D18
  1

  0
LINE
  5
1D2
330
1CF
100
AcDbEntity
  8
0
100
AcDbLine
 10
384.125
 20
0.0
 30
0.0
 11
444.375
 21
0.0
 31
0.0
  0
LINE
  5
1D3
330
1CF
100
AcDbEntity
  8
0
100
AcDbLine
 10
384.125
 20
330.0
 30
0.0
 11
444.375
 21
330.0
 31
0.0
  0
INSERT
  5
1D4
330
1CF
100
AcDbEntity
  8
DIM
100
AcDbBlockReference
  2
_ARCHTICK
 10
444.0
 20
0.0
 30
0.0
 41
0.175
 42
0.175
 50
270.0
  0
INSERT
  5
1D6
330
1CF
100
AcDbEntity
  8
DIM
100
AcDbBlockReference
  2
_ARCHTICK
 10
444.0
 20
330.0
 30
0.0
 41
0.175
 42
0.175
 50
90.0
  0
LINE
  5
1D8
330
1CF
100
AcDbEntity
  8
0
100
AcDbLine
 10
444.0
 20
0.0
 30
0.0
 11
444.0
 21
330.0
 31
0.0
  0
MTEXT
  5
1D9
330
1CF
100
AcDbEntity
  8
DIM
100
AcDbMText
 10
443.775
 20
165.0
 30
0.0
 40
0.25
 71
5
  1
33000
  7
OpenSansCondensed-Light
 50
90.0
  0
POINT
  5
1DA
330
1CF
100
AcDbEntity
  8
Defpoints
100
AcDbPoint
 10
444.0
 20
0.0
 30
0.0
  0
POINT
  5
1DB
330
1CF
100
AcDbEntity
  8
Defpoints
100
AcDbPoint
 10
384.0
 20
0.0
 30
0.0
  0
POINT
  5
1DC
330
1CF
100
AcDbEntity
  8
Defpoints
100
AcDbPoint
 10
384.0
 20
330.0
 30
0.0
  0
ENDBLK
  5
1D1
330
1CF
100
AcDbEntity
  8
0
100
AcDbBlockEnd
  0
BLOCK
  5
1E3
330
1E2
100
AcDbEntity
  8
0
100
AcDbBlockBegin
  2
*D19
 70
1
 10
0.0
 20
0.0
 30
0.0
  3
*D19
  1

  0
LINE
  5
1E5
330
1E2
100
AcDbEntity
  8
0
100
AcDbLine
 10
162.125
 20
330.0
 30
0.0
 11
222.375
 21
330.0
 31
0.0
  0
LINE
  5
1E6
330
1E2
100
AcDbEntity
  8
0
100
AcDbLine
 10
162.125
 20
758.0
 30
0.0
 11
222.375
 21
758.0
 31
0.0
  0
INSERT
  5
1E7
330
1E2
100
AcDbEntity
  8
DIM
100
AcDbBlockReference
  2
_ARCHTICK
 10
222.0
 20
330.0
 30
0.0
 41
0.175
 42
0.175
 50
270.0
  0
INSERT
  5
1E9
330
1E2
100
AcDbEntity
  8
DIM
100
AcDbBlockReference
  2
_ARCHTICK
 10
222.0
 20
758.0
 30
0.0
 41
0.175
 42
0.175
 50
90.0
  0
LINE
  5
1EB
330
1E2
100
AcDbEntity
  8
0
100
AcDbLine
 10
222.0
 20
330.0
 30
0.0
 11
222.0
 21
758.0
 31
0.0
  0
MTEXT
  5
1EC
330
1E2
100
AcDbEntity
  8
DIM
100
AcDbMText
 10
221.775
 20
544.0
 30
0.0
 40
0.25
 71
5
  1
42800
  7
OpenSansCondensed-Light
 50
90.0
  0
POINT
  5
1ED
330
1E2
100
AcDbEntity
  8
Defpoints
100
AcDbPoint
 10
222.0
 20
330.0
 30
0.0
  0
POINT
  5
1EE
330
1E2
100
AcDbEntity
  8
Defpoints
100
AcDbPoint
 10
162.0
 20
330.0
 30
0.0
  0
POINT
  5
1EF
330
1E2
100
AcDbEntity
  8
Defpoints
100
AcDbPoint
 10
162.0
 20
758.0
 30
0.0
  0
ENDBLK
  5
1E4
330
1E2
100
AcDbEntity
  8
0
100
AcDbBlockEnd
  0
BLOCK
  5
1F4
330
1F3
100
AcDbEntity
  8
0
100
AcDbBlockBegin
  2
*D20
 70
1
 10
0.0
 20
0.0
 30
0.0
  3
*D20
  1

  0
LINE
  5
1F6
330
1F3
100
AcDbEntity
  8
0
100
AcDbLine
 10
0.0
 20
527.875
 30
0.0
 11
0.0
 21
467.625
 31
0.0
  0
LINE
  5
1F7
330
1F3
100
AcDbEntity
  8
0
100
AcDbLine
 10
162.0
 20
527.875
 30
0.0
 11
162.0
 21
467.625
 31
0.0
  0
INSERT
  5
1F8
330
1F3
100
AcDbEntity
  8
DIM
100
AcDbBlockReference
  2
_ARCHTICK
 10
0.0
 20
468.0
 30
0.0
 41
0.175
 42
0.175
 50
180.0
  0
INSERT
  5
1FA
330
1F3
100
AcDbEntity
  8
DIM
100
AcDbBlockReference
  2
_ARCHTICK
 10
162.0
 20
468.0
 30
0.0
 41
0.175
 42
0.175
  0
LINE
  5
1FC
330
1F3
100
AcDbEntity
  8
0
100
AcDbLine
 10
0.0
 20
468.0
 30
0.0
 11
162.0
 21
468.0
 31
0.0
  0
MTEXT
  5
1FD
330
1F3
100
AcDbEntity
  8
DIM
100
AcDbMText
 10
81.0
 20
468.225
 30
0.0
 40
0.25
 71
5
  1
16200
  7
OpenSansCondensed-Light
  0
POINT
  5
1FE
330
1F3
100
AcDbEntity
  8
Defpoints
100
AcDbPoint
 10
0.0
 20
468.0
 30
0.0
  0
POINT
  5
1FF
330
1F3
100
AcDbEntity
  8
Defpoints
100
AcDbPoint
 10
0.0
 20
528.0
 30
0.0
  0
POINT
  5
200
330
1F3
100
AcDbEntity
  8
Defpoints
100
AcDbPoint
 10
162.0
 20
528.0
 30
0.0
  0
ENDBLK
  5
1F5
330
1F3
100
AcDbEntity
  8
0
100
AcDbBlockEnd
  0
BLOCK
  5
206
330
205
100
AcDbEntity
  8
0
100
AcDbBlockBegin
  2
*D21
 70
1
 10
0.0
 20
0.0
 30
0.0
  3
*D21
  1

  0
LINE
  5
208
330
205
100
AcDbEntity
  8
0
100
AcDbLine
 10
162.0
 20
431.875
 30
0.0
 11
162.0
 21
371.625
 31
0.0
  0
LINE
  5
209
330
205
100
AcDbEntity
  8
0
100
AcDbLine
 10
510.0
 20
431.875
 30
0.0
 11
510.0
 21
371.625
 31
0.0
  0
INSERT
  5
20A
330
205
100
AcDbEntity
  8
DIM
100
AcDbBlockReference
  2
_ARCHTICK
 10
162.0
 20
372.0
 30
0.0
 41
0.175
 42
0.175
 50
180.0
  0
INSERT
  5
20C
330
205
100
AcDbEntity
  8
DIM
100
AcDbBlockReference
  2
_ARCHTICK
 10
510.0
 20
372.0
 30
0.0
 41
0.175
 42
0.175
  0
LINE
  5
20E
330
205
100
AcDbEntity
  8
0
100
AcDbLine
 10
162.0
 20
372.0
 30
0.0
 11
510.0
 21
372.0
 31
0.0
  0
MTEXT
  5
20F
330
205
100
AcDbEntity
  8
DIM
100
AcDbMText
 10
336.0
 20
372.225
 30
0.0
 40
0.25
 71
5
  1
34800
  7
OpenSansCondensed-Light
  0
POINT
  5
210
330
205
100
AcDbEntity
  8
Defpoints
100
AcDbPoint
 10
162.0
 20
372.0
 30
0.0
  0
POINT
  5
211
330
205
100
AcDbEntity
  8
Defpoints
100
AcDbPoint
 10
162.0
 20
432.0
 30
0.0
  0
POINT
  5
212
330
205
100
AcDbEntity
  8
Defpoints
100
AcDbPoint
 10
510.0
 20
432.0
 30
0.0
  0
ENDBLK
  5
207
330
205
100
AcDbEntity
  8
0
100
AcDbBlockEnd
  0
BLOCK
  5
217
330
216
100
AcDbEntity
  8
0
100
AcDbBlockBegin
  2
*D22
 70
1
 10
0.0
 20
0.0
 30
0.0
  3
*D22
  1

  0
LINE
  5
219
330
216
100
AcDbEntity
  8
0
100
AcDbLine
 10
510.125
 20
432.0
 30
0.0
 11
570.375
 21
432.0
 31
0.0
  0
LINE
  5
21A
330
216
100
AcDbEntity
  8
0
100
AcDbLine
 10
510.125
 20
758.0
 30
0.0
 11
570.375
 21
758.0
 31
0.0
  0
INSERT
  5
21B
330
216
100
AcDbEntity
  8
DIM
100
AcDbBlockReference
  2
_ARCHTICK
 10
570.0
 20
432.0
 30
0.0
 41
0.175
 42
0.175
 50
270.0
  0
INSERT
  5
21D
330
216
100
AcDbEntity
  8
DIM
100
AcDbBlockReference
  2
_ARCHTICK
 10
570.0
 20
758.0
 30
0.0
 41
0.175
 42
0.175
 50
90.0
  0
LINE
  5
21F
330
216
100
AcDbEntity
  8
0
100
AcDbLine
 10
570.0
 20
432.0
 30
0.0
 11
570.0
 21
758.0
 31
0.0
  0
MTEXT
  5
220
330
216
100
AcDbEntity
  8
DIM
100
AcDbMText
 10
569.775
 20
595.0
 30
0.0
 40
0.25
 71
5
  1
32600
  7
OpenSansCondensed-Light
 50
90.0
  0
POINT
  5
221
330
216
100
AcDbEntity
  8
Defpoints
100
AcDbPoint
 10
570.0
 20
432.0
 30
0.0
  0
POINT
  5
222
330
216
100
AcDbEntity
  8
Defpoints
100
AcDbPoint
 10
510.0
 20
432.0
 30
0.0
  0
POINT
  5
223
330
216
100
AcDbEntity
  8
Defpoints
100
AcDbPoint
 10
510.0
 20
758.0
 30
0.0
  0
ENDBLK
  5
218
330
216
100
AcDbEntity
  8
0
100
AcDbBlockEnd
  0
BLOCK
  5
270
330
26F
100
AcDbEntity
  8
0
100
AcDbBlockBegin
  2
*D23
 70
1
 10
0.0
 20
0.0
 30
0.0
  3
*D23
  1

  0
LINE
  5
272
330
26F
100
AcDbEntity
  8
0
100
AcDbLine
 10
0.0
 20
-780.125
 30
0.0
 11
0.0
 21
-830.375
 31
0.0
  0
LINE
  5
273
330
26F
100
AcDbEntity
  8
0
100
AcDbLine
 10
768.0
 20
-780.125
 30
0.0
 11
768.0
 21
-830.375
 31
0.0
  0
INSERT
  5
274
330
26F
100
AcDbEntity
  8
DIM
100
AcDbBlockReference
  2
_ARCHTICK
 10
0.0
 20
-830.0
 30
0.0
 41
0.175
 42
0.175
 50
180.0
  0
INSERT
  5
276
330
26F
100
AcDbEntity
  8
DIM
100
AcDbBlockReference
  2
_ARCHTICK
 10
768.0
 20
-830.0
 30
0.0
 41
0.175
 42
0.175
  0
LINE
  5
278
330
26F
100
AcDbEntity
  8
0
100
AcDbLine
 10
0.0
 20
-830.0
 30
0.0
 11
768.0
 21
-830.0
 31
0.0
  0
MTEXT
  5
279
330
26F
100
AcDbEntity
  8
DIM
100
AcDbMText
 10
384.0
 20
-829.775
 30
0.0
 40
0.25
 71
5
  1
76800
  7
OpenSansCondensed-Light
  0
POINT
  5
27A
330
26F
100
AcDbEntity
  8
Defpoints
100
AcDbPoint
 10
0.0
 20
-830.0
 30
0.0
  0
POINT
  5
27B
330
26F
100
AcDbEntity
  8
Defpoints
100
AcDbPoint
 10
0.0
 20
-780.0
 30
0.0
  0
POINT
  5
27C
330
26F
100
AcDbEntity
  8
Defpoints
100
AcDbPoint
 10
768.0
 20
-780.0
 30
0.0
  0
ENDBLK
  5
271
330
26F
100
AcDbEntity
  8
0
100
AcDbBlockEnd
  0
BLOCK
  5
299
330
298
100
AcDbEntity
  8
0
100
AcDbBlockBegin
  2
*D24
 70
1
 10
0.0
 20
0.0
 30
0.0
  3
*D24
  1

  0
LINE
  5
29B
330
298
100
AcDbEntity
  8
0
100
AcDbLine
 10
968.0
 20
-780.125
 30
0.0
 11
968.0
 21
-830.375
 31
0.0
  0
LINE
  5
29C
330
298
100
AcDbEntity
  8
0
100
AcDbLine
 10
1726.0
 20
-780.125
 30
0.0
 11
1726.0
 21
-830.375
 31
0.0
  0
INSERT
  5
29D
330
298
100
AcDbEntity
  8
DIM
100
AcDbBlockReference
  2
_ARCHTICK
 10
968.0
 20
-830.0
 30
0.0
 41
0.175
 42
0.175
 50
180.0
  0
INSERT
  5
29F
330
298
100
AcDbEntity
  8
DIM
100
AcDbBlockReference
  2
_ARCHTICK
 10
1726.0
 20
-830.0
 30
0.0
 41
0.175
 42
0.175
  0
LINE
  5
2A1
330
298
100
AcDbEntity
  8
0
100
AcDbLine
 10
968.0
 20
-830.0
 30
0.0
 11
1726.0
 21
-830.0
 31
0.0
  0
MTEXT
  5
2A2
330
298
100
AcDbEntity
  8
DIM
100
AcDbMText
 10
1347.0
 20
-829.775
 30
0.0
 40
0.25
 71
5
  1
75800
  7
OpenSansCondensed-Light
  0
POINT
  5
2A3
330
298
100
AcDbEntity
  8
Defpoints
100
AcDbPoint
 10
968.0
 20
-830.0
 30
0.0
  0
POINT
  5
2A4
330
298
100
AcDbEntity
  8
Defpoints
100
AcDbPoint
 10
968.0
 20
-780.0
 30
0.0
  0
POINT
  5
2A5
330
298
100
AcDbEntity
  8
Defpoints
100
AcDbPoint
 10
1726.0
 20
-780.0
 30
0.0
  0
ENDBLK
  5
29A
330
298
100
AcDbEntity
  8
0
100
AcDbBlockEnd
  0
BLOCK
  5
2C1
330
2C0
100
AcDbEntity
  8
0
100
AcDbBlockBegin
  2
*D25
 70
1
 10
0.0
 20
0.0
 30
0.0
  3
*D25
  1

  0
LINE
  5
2C3
330
2C0
100
AcDbEntity
  8
0
100
AcDbLine
 10
1926.0
 20
-780.125
 30
0.0
 11
1926.0
 21
-830.375
 31
0.0
  0
LINE
  5
2C4
330
2C0
100
AcDbEntity
  8
0
100
AcDbLine
 10
2694.0
 20
-780.125
 30
0.0
 11
2694.0
 21
-830.375
 31
0.0
  0
INSERT
  5
2C5
330
2C0
100
AcDbEntity
  8
DIM
100
AcDbBlockReference
  2
_ARCHTICK
 10
1926.0
 20
-830.0
 30
0.0
 41
0.175
 42
0.175
 50
180.0
  0
INSERT
  5
2C7
330
2C0
100
AcDbEntity
  8
DIM
100
AcDbBlockReference
  2
_ARCHTICK
 10
2694.0
 20
-830.0
 30
0.0
 41
0.175
 42
0.175
  0
LINE
  5
2C9
330
2C0
100
AcDbEntity
  8
0
100
AcDbLine
 10
1926.0
 20
-830.0
 30
0.0
 11
2694.0
 21
-830.0
 31
0.0
  0
MTEXT
  5
2CA
330
2C0
100
AcDbEntity
  8
DIM
100
AcDbMText
 10
2310.0
 20
-829.775
 30
0.0
 40
0.25
 71
5
  1
76800
  7
OpenSansCondensed-Light
  0
POINT
  5
2CB
330
2C0
100
AcDbEntity
  8
Defpoints
100
AcDbPoint
 10
1926.0
 20
-830.0
 30
0.0
  0
POINT
  5
2CC
330
2C0
100
AcDbEntity
  8
Defpoints
100
AcDbPoint
 10
1926.0
 20
-780.0
 30
0.0
  0
POINT
  5
2CD
330
2C0
100
AcDbEntity
  8
Defpoints
100
AcDbPoint
 10
2694.0
 20
-780.0
 30
0.0
  0
ENDBLK
  5
2C2
330
2C0
100
AcDbEntity
  8
0
100
AcDbBlockEnd
  0
BLOCK
  5
2ED
330
2EC
100
AcDbEntity
  8
0
100
AcDbBlockBegin
  2
*D26
 70
1
 10
0.0
 20
0.0
 30
0.0
  3
*D26
  1

  0
LINE
  5
2EF
330
2EC
100
AcDbEntity
  8
0
100
AcDbLine
 10
2894.0
 20
-780.125
 30
0.0
 11
2894.0
 21
-830.375
 31
0.0
  0
LINE
  5
2F0
330
2EC
100
AcDbEntity
  8
0
100
AcDbLine
 10
3652.0
 20
-780.125
 30
0.0
 11
3652.0
 21
-830.375
 31
0.0
  0
INSERT
  5
2F1
330
2EC
100
AcDbEntity
  8
DIM
100
AcDbBlockReference
  2
_ARCHTICK
 10
2894.0
 20
-830.0
 30
0.0
 41
0.175
 42
0.175
 50
180.0
  0
INSERT
  5
2F3
330
2EC
100
AcDbEntity
  8
DIM
100
AcDbBlockReference
  2
_ARCHTICK
 10
3652.0
 20
-830.0
 30
0.0
 41
0.175
 42
0.175
  0
LINE
  5
2F5
330
2EC
100
AcDbEntity
  8
0
100
AcDbLine
 10
2894.0
 20
-830.0
 30
0.0
 11
3652.0
 21
-830.0
 31
0.0
  0
MTEXT
  5
2F6
330
2EC
100
AcDbEntity
  8
DIM
100
AcDbMText
 10
3273.0
 20
-829.775
 30
0.0
 40
0.25
 71
5
  1
75800
  7
OpenSansCondensed-Light
  0
POINT
  5
2F7
330
2EC
100
AcDbEntity
  8
Defpoints
100
AcDbPoint
 10
2894.0
 20
-830.0
 30
0.0
  0
POINT
  5
2F8
330
2EC
100
AcDbEntity
  8
Defpoints
100
AcDbPoint
 10
2894.0
 20
-780.0
 30
0.0
  0
POINT
  5
2F9
330
2EC
100
AcDbEntity
  8
Defpoints
100
AcDbPoint
 10
3652.0
 20
-780.0
 30
0.0
  0
ENDBLK
  5
2EE
330
2EC
100
AcDbEntity
  8
0
100
AcDbBlockEnd
  0
BLOCK
  5
30E
330
30D
100
AcDbEntity
  8
0
100
AcDbBlockBegin
  2
*D27
 70
1
 10
0.0
 20
0.0
 30
0.0
  3
*D27
  1

  0
LINE
  5
310
330
30D
100
AcDbEntity
  8
0
100
AcDbLine
 10
3852.0
 20
-780.125
 30
0.0
 11
3852.0
 21
-830.375
 31
0.0
  0
LINE
  5
311
330
30D
100
AcDbEntity
  8
0
100
AcDbLine
 10
4280.0
 20
-780.125
 30
0.0
 11
4280.0
 21
-830.375
 31
0.0
  0
INSERT
  5
312
330
30D
100
AcDbEntity
  8
DIM
100
AcDbBlockReference
  2
_ARCHTICK
 10
3852.0
 20
-830.0
 30
0.0
 41
0.175
 42
0.175
 50
180.0
  0
INSERT
  5
314
330
30D
100
AcDbEntity
  8
DIM
100
AcDbBlockReference
  2
_ARCHTICK
 10
4280.0
 20
-830.0
 30
0.0
 41
0.175
 42
0.175
  0
LINE
  5
316
330
30D
100
AcDbEntity
  8
0
100
AcDbLine
 10
3852.0
 20
-830.0
 30
0.0
 11
4280.0
 21
-830.0
 31
0.0
  0
MTEXT
  5
317
330
30D
100
AcDbEntity
  8
DIM
100
AcDbMText
 10
4066.0
 20
-829.775
 30
0.0
 40
0.25
 71
5
  1
42800
  7
OpenSansCondensed-Light
  0
POINT
  5
318
330
30D
100
AcDbEntity
  8
Defpoints
100
AcDbPoint
 10
3852.0
 20
-830.0
 30
0.0
  0
POINT
  5
319
330
30D
100
AcDbEntity
  8
Defpoints
100
AcDbPoint
 10
3852.0
 20
-780.0
 30
0.0
  0
POINT
  5
31A
330
30D
100
AcDbEntity
  8
Defpoints
100
AcDbPoint
 10
4280.0
 20
-780.0
 30
0.0
  0
ENDBLK
  5
30F
330
30D
100
AcDbEntity
  8
0
100
AcDbBlockEnd
  0
BLOCK
  5
324
330
323
100
AcDbEntity
  8
0
100
AcDbBlockBegin
  2
*D28
 70
1
 10
0.0
 20
0.0
 30
0.0
  3
*D28
  1

  0
LINE
  5
326
330
323
100
AcDbEntity
  8
0
100
AcDbLine
 10
4480.0
 20
-780.125
 30
0.0
 11
4480.0
 21
-830.375
 31
0.0
  0
LINE
  5
327
330
323
100
AcDbEntity
  8
0
100
AcDbLine
 10
4642.0
 20
-780.125
 30
0.0
 11
4642.0
 21
-830.375
 31
0.0
  0
INSERT
  5
328
330
323
100
AcDbEntity
  8
DIM
100
AcDbBlockReference
  2
_ARCHTICK
 10
4480.0
 20
-830.0
 30
0.0
 41
0.175
 42
0.175
 50
180.0
  0
INSERT
  5
32A
330
323
100
AcDbEntity
  8
DIM
100
AcDbBlockReference
  2
_ARCHTICK
 10
4642.0
 20
-830.0
 30
0.0
 41
0.175
 42
0.175
  0
LINE
  5
32C
330
323
100
AcDbEntity
  8
0
100
AcDbLine
 10
4480.0
 20
-830.0
 30
0.0
 11
4642.0
 21
-830.0
 31
0.0
  0
MTEXT
  5
32D
330
323
100
AcDbEntity
  8
DIM
100
AcDbMText
 10
4561.0
 20
-829.775
 30
0.0
 40
0.25
 71
5
  1
16200
  7
OpenSansCondensed-Light
  0
POINT
  5
32E
330
323
100
AcDbEntity
  8
Defpoints
100
AcDbPoint
 10
4480.0
 20
-830.0
 30
0.0
  0
POINT
  5
32F
330
323
100
AcDbEntity
  8
Defpoints
100
AcDbPoint
 10
4480.0
 20
-780.0
 30
0.0
  0
POINT
  5
330
330
323
100
AcDbEntity
  8
Defpoints
100
AcDbPoint
 10
4642.0
 20
-780.0
 30
0.0
  0
ENDBLK
  5
325
330
323
100
AcDbEntity
  8
0
100
AcDbBlockEnd
  0
BLOCK
  5
33A
330
339
100
AcDbEntity
  8
0
100
AcDbBlockBegin
  2
*D29
 70
1
 10
0.0
 20
0.0
 30
0.0
  3
*D29
  1

  0
LINE
  5
33C
330
339
100
AcDbEntity
  8
0
100
AcDbLine
 10
4842.0
 20
-780.125
 30
0.0
 11
4842.0
 21
-830.375
 31
0.0
  0
LINE
  5
33D
330
339
100
AcDbEntity
  8
0
100
AcDbLine
 10
5004.0
 20
-780.125
 30
0.0
 11
5004.0
 21
-830.375
 31
0.0
  0
INSERT
  5
33E
330
339
100
AcDbEntity
  8
DIM
100
AcDbBlockReference
  2
_ARCHTICK
 10
4842.0
 20
-830.0
 30
0.0
 41
0.175
 42
0.175
 50
180.0
  0
INSERT
  5
340
330
339
100
AcDbEntity
  8
DIM
100
AcDbBlockReference
  2
_ARCHTICK
 10
5004.0
 20
-830.0
 30
0.0
 41
0.175
 42
0.175
  0
LINE
  5
342
330
339
100
AcDbEntity
  8
0
100
AcDbLine
 10
4842.0
 20
-830.0
 30
0.0
 11
5004.0
 21
-830.0
 31
0.0
  0
MTEXT
  5
343
330
339
100
AcDbEntity
  8
DIM
100
AcDbMText
 10
4923.0
 20
-829.775
 30
0.0
 40
0.25
 71
5
  1
16200
  7
OpenSansCondensed-Light
  0
POINT
  5
344
330
339
100
AcDbEntity
  8
Defpoints
100
AcDbPoint
 10
4842.0
 20
-830.0
 30
0.0
  0
POINT
  5
345
330
339
100
AcDbEntity
  8
Defpoints
100
AcDbPoint
 10
4842.0
 20
-780.0
 30
0.0
  0
POINT
  5
346
330
339
100
AcDbEntity
  8
Defpoints
100
AcDbPoint
 10
5004.0
 20
-780.0
 30
0.0
  0
ENDBLK
  5
33B
330
339
100
AcDbEntity
  8
0
100
AcDbBlockEnd
  0
BLOCK
  5
354
330
353
100
AcDbEntity
  8
0
100
AcDbBlockBegin
  2
*D30
 70
1
 10
0.0
 20
0.0
 30
0.0
  3
*D30
  1

  0
LINE
  5
356
330
353
100
AcDbEntity
  8
0
100
AcDbLine
 10
5204.0
 20
-780.125
 30
0.0
 11
5204.0
 21
-830.375
 31
0.0
  0
LINE
  5
357
330
353
100
AcDbEntity
  8
0
100
AcDbLine
 10
5462.0
 20
-780.125
 30
0.0
 11
5462.0
 21
-830.375
 31
0.0
  0
INSERT
  5
358
330
353
100
AcDbEntity
  8
DIM
100
AcDbBlockReference
  2
_ARCHTICK
 10
5204.0
 20
-830.0
 30
0.0
 41
0.175
 42
0.175
 50
180.0
  0
INSERT
  5
35A
330
353
100
AcDbEntity
  8
DIM
100
AcDbBlockReference
  2
_ARCHTICK
 10
5462.0
 20
-830.0
 30
0.0
 41
0.175
 42
0.175
  0
LINE
  5
35C
330
353
100
AcDbEntity
  8
0
100
AcDbLine
 10
5204.0
 20
-830.0
 30
0.0
 11
5462.0
 21
-830.0
 31
0.0
  0
MTEXT
  5
35D
330
353
100
AcDbEntity
  8
DIM
100
AcDbMText
 10
5333.0
 20
-829.775
 30
0.0
 40
0.25
 71
5
  1
25800
  7
OpenSansCondensed-Light
  0
POINT
  5
35E
330
353
100
AcDbEntity
  8
Defpoints
100
AcDbPoint
 10
5204.0
 20
-830.0
 30
0.0
  0
POINT
  5
35F
330
353
100
AcDbEntity
  8
Defpoints
100
AcDbPoint
 10
5204.0
 20
-780.0
 30
0.0
  0
POINT
  5
360
330
353
100
AcDbEntity
  8
Defpoints
100
AcDbPoint
 10
5462.0
 20
-780.0
 30
0.0
  0
ENDBLK
  5
355
330
353
100
AcDbEntity
  8
0
100
AcDbBlockEnd
  0
BLOCK
  5
36D
330
36C
100
AcDbEntity
  8
0
100
AcDbBlockBegin
  2
*D31
 70
1
 10
0.0
 20
0.0
 30
0.0
  3
*D31
  1

  0
LINE
  5
36F
330
36C
100
AcDbEntity
  8
0
100
AcDbLine
 10
5662.0
 20
-780.125
 30
0.0
 11
5662.0
 21
-830.375
 31
0.0
  0
LINE
  5
370
330
36C
100
AcDbEntity
  8
0
100
AcDbLine
 10
5992.0
 20
-780.125
 30
0.0
 11
5992.0
 21
-830.375
 31
0.0
  0
INSERT
  5
371
330
36C
100
AcDbEntity
  8
DIM
100
AcDbBlockReference
  2
_ARCHTICK
 10
5662.0
 20
-830.0
 30
0.0
 41
0.175
 42
0.175
 50
180.0
  0
INSERT
  5
373
330
36C
100
AcDbEntity
  8
DIM
100
AcDbBlockReference
  2
_ARCHTICK
 10
5992.0
 20
-830.0
 30
0.0
 41
0.175
 42
0.175
  0
LINE
  5
375
330
36C
100
AcDbEntity
  8
0
100
AcDbLine
 10
5662.0
 20
-830.0
 30
0.0
 11
5992.0
 21
-830.0
 31
0.0
  0
MTEXT
  5
376
330
36C
100
AcDbEntity
  8
DIM
100
AcDbMText
 10
5827.0
 20
-829.775
 30
0.0
 40
0.25
 71
5
  1
33000
  7
OpenSansCondensed-Light
  0
POINT
  5
377
330
36C
100
AcDbEntity
  8
Defpoints
100
AcDbPoint
 10
5662.0
 20
-830.0
 30
0.0
  0
POINT
  5
378
330
36C
100
AcDbEntity
  8
Defpoints
100
AcDbPoint
 10
5662.0
 20
-780.0
 30
0.0
  0
POINT
  5
379
330
36C
100
AcDbEntity
  8
Defpoints
100
AcDbPoint
 10
5992.0
 20
-780.0
 30
0.0
  0
ENDBLK
  5
36E
330
36C
100
AcDbEntity
  8
0
100
AcDbBlockEnd
  0
BLOCK
  5
38B
330
38A
100
AcDbEntity
  8
0
100
AcDbBlockBegin
  2
*D32
 70
1
 10
0.0
 20
0.0
 30
0.0
  3
*D32
  1

  0
LINE
  5
38D
330
38A
100
AcDbEntity
  8
0
100
AcDbLine
 10
6192.0
 20
-780.125
 30
0.0
 11
6192.0
 21
-830.375
 31
0.0
  0
LINE
  5
38E
330
38A
100
AcDbEntity
  8
0
100
AcDbLine
 10
6540.0
 20
-780.125
 30
0.0
 11
6540.0
 21
-830.375
 31
0.0
  0
INSERT
  5
38F
330
38A
100
AcDbEntity
  8
DIM
100
AcDbBlockReference
  2
_ARCHTICK
 10
6192.0
 20
-830.0
 30
0.0
 41
0.175
 42
0.175
 50
180.0
  0
INSERT
  5
391
330
38A
100
AcDbEntity
  8
DIM
100
AcDbBlockReference
  2
_ARCHTICK
 10
6540.0
 20
-830.0
 30
0.0
 41
0.175
 42
0.175
  0
LINE
  5
393
330
38A
100
AcDbEntity
  8
0
100
AcDbLine
 10
6192.0
 20
-830.0
 30
0.0
 11
6540.0
 21
-830.0
 31
0.0
  0
MTEXT
  5
394
330
38A
100
AcDbEntity
  8
DIM
100
AcDbMText
 10
6366.0
 20
-829.775
 30
0.0
 40
0.25
 71
5
  1
34800
  7
OpenSansCondensed-Light
  0
POINT
  5
395
330
38A
100
AcDbEntity
  8
Defpoints
100
AcDbPoint
 10
6192.0
 20
-830.0
 30
0.0
  0
POINT
  5
396
330
38A
100
AcDbEntity
  8
Defpoints
100
AcDbPoint
 10
6192.0
 20
-780.0
 30
0.0
  0
POINT
  5
397
330
38A
100
AcDbEntity
  8
Defpoints
100
AcDbPoint
 10
6540.0
 20
-780.0
 30
0.0
  0
ENDBLK
  5
38C
330
38A
100
AcDbEntity
  8
0
100
AcDbBlockEnd
  0
BLOCK
  5
3A4
330
3A3
100
AcDbEntity
  8
0
100
AcDbBlockBegin
  2
*D33
 70
1
 10
0.0
 20
0.0
 30
0.0
  3
*D33
  1

  0
LINE
  5
3A6
330
3A3
100
AcDbEntity
  8
0
100
AcDbLine
 10
6740.0
 20
-780.125
 30
0.0
 11
6740.0
 21
-830.375
 31
0.0
  0
LINE
  5
3A7
330
3A3
100
AcDbEntity
  8
0
100
AcDbLine
 10
7066.0
 20
-780.125
 30
0.0
 11
7066.0
 21
-830.375
 31
0.0
  0
INSERT
  5
3A8
330
3A3
100
AcDbEntity
  8
DIM
100
AcDbBlockReference
  2
_ARCHTICK
 10
6740.0
 20
-830.0
 30
0.0
 41
0.175
 42
0.175
 50
180.0
  0
INSERT
  5
3AA
330
3A3
100
AcDbEntity
  8
DIM
100
AcDbBlockReference
  2
_ARCHTICK
 10
7066.0
 20
-830.0
 30
0.0
 41
0.175
 42
0.175
  0
LINE
  5
3AC
330
3A3
100
AcDbEntity
  8
0
100
AcDbLine
 10
6740.0
 20
-830.0
 30
0.0
 11
7066.0
 21
-830.0
 31
0.0
  0
MTEXT
  5
3AD
330
3A3
100
AcDbEntity
  8
DIM
100
AcDbMText
 10
6903.0
 20
-829.775
 30
0.0
 40
0.25
 71
5
  1
32600
  7
OpenSansCondensed-Light
  0
POINT
  5
3AE
330
3A3
100
AcDbEntity
  8
Defpoints
100
AcDbPoint
 10
6740.0
 20
-830.0
 30
0.0
  0
POINT
  5
3AF
330
3A3
100
AcDbEntity
  8
Defpoints
100
AcDbPoint
 10
6740.0
 20
-780.0
 30
0.0
  0
POINT
  5
3B0
330
3A3
100
AcDbEntity
  8
Defpoints
100
AcDbPoint
 10
7066.0
 20
-780.0
 30
0.0
  0
ENDBLK
  5
3A5
330
3A3
100
AcDbEntity
  8
0
100
AcDbBlockEnd
  0
BLOCK
  5
3BD
330
3BC
100
AcDbEntity
  8
0
100
AcDbBlockBegin
  2
*D34
 70
1
 10
0.0
 20
0.0
 30
0.0
  3
*D34
  1

  0
LINE
  5
3BF
330
3BC
100
AcDbEntity
  8
0
100
AcDbLine
 10
7266.0
 20
-780.125
 30
0.0
 11
7266.0
 21
-830.375
 31
0.0
  0
LINE
  5
3C0
330
3BC
100
AcDbEntity
  8
0
100
AcDbLine
 10
7592.0
 20
-780.125
 30
0.0
 11
7592.0
 21
-830.375
 31
0.0
  0
INSERT
  5
3C1
330
3BC
100
AcDbEntity
  8
DIM
100
AcDbBlockReference
  2
_ARCHTICK
 10
7266.0
 20
-830.0
 30
0.0
 41
0.175
 42
0.175
 50
180.0
  0
INSERT
  5
3C3
330
3BC
100
AcDbEntity
  8
DIM
100
AcDbBlockReference
  2
_ARCHTICK
 10
7592.0
 20
-830.0
 30
0.0
 41
0.175
 42
0.175
  0
LINE
  5
3C5
330
3BC
100
AcDbEntity
  8
0
100
AcDbLine
 10
7266.0
 20
-830.0
 30
0.0
 11
7592.0
 21
-830.0
 31
0.0
  0
MTEXT
  5
3C6
330
3BC
100
AcDbEntity
  8
DIM
100
AcDbMText
 10
7429.0
 20
-829.775
 30
0.0
 40
0.25
 71
5
  1
32600
  7
OpenSansCondensed-Light
  0
POINT
  5
3C7
330
3BC
100
AcDbEntity
  8
Defpoints
100
AcDbPoint
 10
7266.0
 20
-830.0
 30
0.0
  0
POINT
  5
3C8
330
3BC
100
AcDbEntity
  8
Defpoints
100
AcDbPoint
 10
7266.0
 20
-780.0
 30
0.0
  0
POINT
  5
3C9
330
3BC
100
AcDbEntity
  8
Defpoints
100
AcDbPoint
 10
7592.0
 20
-780.0
 30
0.0
  0
ENDBLK
  5
3BE
330
3BC
100
AcDbEntity
  8
0
100
AcDbBlockEnd
  0
BLOCK
  5
3E5
330
3E4
100
AcDbEntity
  8
0
100
AcDbBlockBegin
  2
*D35
 70
1
 10
0.0
 20
0.0
 30
0.0
  3
*D35
  1

  0
LINE
  5
3E7
330
3E4
100
AcDbEntity
  8
0
100
AcDbLine
 10
7792.0
 20
-780.125
 30
0.0
 11
7792.0
 21
-830.375
 31
0.0
  0
LINE
  5
3E8
330
3E4
100
AcDbEntity
  8
0
100
AcDbLine
 10
8560.0
 20
-780.125
 30
0.0
 11
8560.0
 21
-830.375
 31
0.0
  0
INSERT
  5
3E9
330
3E4
100
AcDbEntity
  8
DIM
100
AcDbBlockReference
  2
_ARCHTICK
 10
7792.0
 20
-830.0
 30
0.0
 41
0.175
 42
0.175
 50
180.0
  0
INSERT
  5
3EB
330
3E4
100
AcDbEntity
  8
DIM
100
AcDbBlockReference
  2
_ARCHTICK
 10
8560.0
 20
-830.0
 30
0.0
 41
0.175
 42
0.175
  0
LINE
  5
3ED
330
3E4
100
AcDbEntity
  8
0
100
AcDbLine
 10
7792.0
 20
-830.0
 30
0.0
 11
8560.0
 21
-830.0
 31
0.0
  0
MTEXT
  5
3EE
330
3E4
100
AcDbEntity
  8
DIM
100
AcDbMText
 10
8176.0
 20
-829.775
 30
0.0
 40
0.25
 71
5
  1
76800
  7
OpenSansCondensed-Light
  0
POINT
  5
3EF
330
3E4
100
AcDbEntity
  8
Defpoints
100
AcDbPoint
 10
7792.0
 20
-830.0
 30
0.0
  0
POINT
  5
3F0
330
3E4
100
AcDbEntity
  8
Defpoints
100
AcDbPoint
 10
7792.0
 20
-780.0
 30
0.0
  0
POINT
  5
3F1
330
3E4
100
AcDbEntity
  8
Defpoints
100
AcDbPoint
 10
8560.0
 20
-780.0
 30
0.0
  0
ENDBLK
  5
3E6
330
3E4
100
AcDbEntity
  8
0
100
AcDbBlockEnd
  0
BLOCK
  5
40E
330
40D
100
AcDbEntity
  8
0
100
AcDbBlockBegin
  2
*D36
 70
1
 10
0.0
 20
0.0
 30
0.0
  3
*D36
  1

  0
LINE
  5
410
330
40D
100
AcDbEntity
  8
0
100
AcDbLine
 10
8760.0
 20
-780.125
 30
0.0
 11
8760.0
 21
-830.375
 31
0.0
  0
LINE
  5
411
330
40D
100
AcDbEntity
  8
0
100
AcDbLine
 10
9518.0
 20
-780.125
 30
0.0
 11
9518.0
 21
-830.375
 31
0.0
  0
INSERT
  5
412
330
40D
100
AcDbEntity
  8
DIM
100
AcDbBlockReference
  2
_ARCHTICK
 10
8760.0
 20
-830.0
 30
0.0
 41
0.175
 42
0.175
 50
180.0
  0
INSERT
  5
414
330
40D
100
AcDbEntity
  8
DIM
100
AcDbBlockReference
  2
_ARCHTICK
 10
9518.0
 20
-830.0
 30
0.0
 41
0.175
 42
0.175
  0
LINE
  5
416
330
40D
100
AcDbEntity
  8
0
100
AcDbLine
 10
8760.0
 20
-830.0
 30
0.0
 11
9518.0
 21
-830.0
 31
0.0
  0
MTEXT
  5
417
330
40D
100
AcDbEntity
  8
DIM
100
AcDbMText
 10
9139.0
 20
-829.775
 30
0.0
 40
0.25
 71
5
  1
75800
  7
OpenSansCondensed-Light
  0
POINT
  5
418
330
40D
100
AcDbEntity
  8
Defpoints
100
AcDbPoint
 10
8760.0
 20
-830.0
 30
0.0
  0
POINT
  5
419
330
40D
100
AcDbEntity
  8
Defpoints
100
AcDbPoint
 10
8760.0
 20
-780.0
 30
0.0
  0
POINT
  5
41A
330
40D
100
AcDbEntity
  8
Defpoints
100
AcDbPoint
 10
9518.0
 20
-780.0
 30
0.0
  0
ENDBLK
  5
40F
330
40D
100
AcDbEntity
  8
0
100
AcDbBlockEnd
  0
BLOCK
  5
431
330
430
100
AcDbEntity
  8
0
100
AcDbBlockBegin
  2
*D37
 70
1
 10
0.0
 20
0.0
 30
0.0
  3
*D37
  1

  0
LINE
  5
433
330
430
100
AcDbEntity
  8
0
100
AcDbLine
 10
9718.0
 20
-780.125
 30
0.0
 11
9718.0
 21
-830.375
 31
0.0
  0
LINE
  5
434
330
430
100
AcDbEntity
  8
0
100
AcDbLine
 10
10486.0
 20
-780.125
 30
0.0
 11
10486.0
 21
-830.375
 31
0.0
  0
INSERT
  5
435
330
430
100
AcDbEntity
  8
DIM
100
AcDbBlockReference
  2
_ARCHTICK
 10
9718.0
 20
-830.0
 30
0.0
 41
0.175
 42
0.175
 50
180.0
  0
INSERT
  5
437
330
430
100
AcDbEntity
  8
DIM
100
AcDbBlockReference
  2
_ARCHTICK
 10
10486.0
 20
-830.0
 30
0.0
 41
0.175
 42
0.175
  0
LINE
  5
439
330
430
100
AcDbEntity
  8
0
100
AcDbLine
 10
9718.0
 20
-830.0
 30
0.0
 11
10486.0
 21
-830.0
 31
0.0
  0
MTEXT
  5
43A
330
430
100
AcDbEntity
  8
DIM
100
AcDbMText
 10
10102.0
 20
-829.775
 30
0.0
 40
0.25
 71
5
  1
76800
  7
OpenSansCondensed-Light
  0
POINT
  5
43B
330
430
100
AcDbEntity
  8
Defpoints
100
AcDbPoint
 10
9718.0
 20
-830.0
 30
0.0
  0
POINT
  5
43C
330
430
100
AcDbEntity
  8
Defpoints
100
AcDbPoint
 10
9718.0
 20
-780.0
 30
0.0
  0
POINT
  5
43D
330
430
100
AcDbEntity
  8
Defpoints
100
AcDbPoint
 10
10486.0
 20
-780.0
 30
0.0
  0
ENDBLK
  5
432
330
430
100
AcDbEntity
  8
0
100
AcDbBlockEnd
  0
BLOCK
  5
45D
330
45C
100
AcDbEntity
  8
0
100
AcDbBlockBegin
  2
*D38
 70
1
 10
0.0
 20
0.0
 30
0.0
  3
*D38
  1

  0
LINE
  5
45F
330
45C
100
AcDbEntity
  8
0
100
AcDbLine
 10
10686.0
 20
-780.125
 30
0.0
 11
10686.0
 21
-830.375
 31
0.0
  0
LINE
  5
460
330
45C
100
AcDbEntity
  8
0
100
AcDbLine
 10
11444.0
 20
-780.125
 30
0.0
 11
11444.0
 21
-830.375
 31
0.0
  0
INSERT
  5
461
330
45C
100
AcDbEntity
  8
DIM
100
AcDbBlockReference
  2
_ARCHTICK
 10
10686.0
 20
-830.0
 30
0.0
 41
0.175
 42
0.175
 50
180.0
  0
INSERT
  5
463
330
45C
100
AcDbEntity
  8
DIM
100
AcDbBlockReference
  2
_ARCHTICK
 10
11444.0
 20
-830.0
 30
0.0
 41
0.175
 42
0.175
  0
LINE
  5
465
330
45C
100
AcDbEntity
  8
0
100
AcDbLine
 10
10686.0
 20
-830.0
 30
0.0
 11
11444.0
 21
-830.0
 31
0.0
  0
MTEXT
  5
466
330
45C
100
AcDbEntity
  8
DIM
100
AcDbMText
 10
11065.0
 20
-829.775
 30
0.0
 40
0.25
 71
5
  1
75800
  7
OpenSansCondensed-Light
  0
POINT
  5
467
330
45C
100
AcDbEntity
  8
Defpoints
100
AcDbPoint
 10
10686.0
 20
-830.0
 30
0.0
  0
POINT
  5
468
330
45C
100
AcDbEntity
  8
Defpoints
100
AcDbPoint
 10
10686.0
 20
-780.0
 30
0.0
  0
POINT
  5
469
330
45C
100
AcDbEntity
  8
Defpoints
100
AcDbPoint
 10
11444.0
 20
-780.0
 30
0.0
  0
ENDBLK
  5
45E
330
45C
100
AcDbEntity
  8
0
100
AcDbBlockEnd
  0
BLOCK
  5
482
330
481
100
AcDbEntity
  8
0
100
AcDbBlockBegin
  2
*D39
 70
1
 10
0.0
 20
0.0
 30
0.0
  3
*D39
  1

  0
LINE
  5
484
330
481
100
AcDbEntity
  8
0
100
AcDbLine
 10
11644.0
 20
-780.125
 30
0.0
 11
11644.0
 21
-830.375
 31
0.0
  0
LINE
  5
485
330
481
100
AcDbEntity
  8
0
100
AcDbLine
 10
12412.0
 20
-780.125
 30
0.0
 11
12412.0
 21
-830.375
 31
0.0
  0
INSERT
  5
486
330
481
100
AcDbEntity
  8
DIM
100
AcDbBlockReference
  2
_ARCHTICK
 10
11644.0
 20
-830.0
 30
0.0
 41
0.175
 42
0.175
 50
180.0
  0
INSERT
  5
488
330
481
100
AcDbEntity
  8
DIM
100
AcDbBlockReference
  2
_ARCHTICK
 10
12412.0
 20
-830.0
 30
0.0
 41
0.175
 42
0.175
  0
LINE
  5
48A
330
481
100
AcDbEntity
  8
0
100
AcDbLine
 10
11644.0
 20
-830.0
 30
0.0
 11
12412.0
 21
-830.0
 31
0.0
  0
MTEXT
  5
48B
330
481
100
AcDbEntity
  8
DIM
100
AcDbMText
 10
12028.0
 20
-829.775
 30
0.0
 40
0.25
 71
5
  1
76800
  7
OpenSansCondensed-Light
  0
POINT
  5
48C
330
481
100
AcDbEntity
  8
Defpoints
100
AcDbPoint
 10
11644.0
 20
-830.0
 30
0.0
  0
POINT
  5
48D
330
481
100
AcDbEntity
  8
Defpoints
100
AcDbPoint
 10
11644.0
 20
-780.0
 30
0.0
  0
POINT
  5
48E
330
481
100
AcDbEntity
  8
Defpoints
100
AcDbPoint
 10
12412.0
 20
-780.0
 30
0.0
  0
ENDBLK
  5
483
330
481
100
AcDbEntity
  8
0
100
AcDbBlockEnd
  0
BLOCK
  5
49B
330
49A
100
AcDbEntity
  8
0
100
AcDbBlockBegin
  2
*D40
 70
1
 10
0.0
 20
0.0
 30
0.0
  3
*D40
  1

  0
LINE
  5
49D
330
49A
100
AcDbEntity
  8
0
100
AcDbLine
 10
12612.0
 20
-780.125
 30
0.0
 11
12612.0
 21
-830.375
 31
0.0
  0
LINE
  5
49E
330
49A
100
AcDbEntity
  8
0
100
AcDbLine
 10
12942.0
 20
-780.125
 30
0.0
 11
12942.0
 21
-830.375
 31
0.0
  0
INSERT
  5
49F
330
49A
100
AcDbEntity
  8
DIM
100
AcDbBlockReference
  2
_ARCHTICK
 10
12612.0
 20
-830.0
 30
0.0
 41
0.175
 42
0.175
 50
180.0
  0
INSERT
  5
4A1
330
49A
100
AcDbEntity
  8
DIM
100
AcDbBlockReference
  2
_ARCHTICK
 10
12942.0
 20
-830.0
 30
0.0
 41
0.175
 42
0.175
  0
LINE
  5
4A3
330
49A
100
AcDbEntity
  8
0
100
AcDbLine
 10
12612.0
 20
-830.0
 30
0.0
 11
12942.0
 21
-830.0
 31
0.0
  0
MTEXT
  5
4A4
330
49A
100
AcDbEntity
  8
DIM
100
AcDbMText
 10
12777.0
 20
-829.775
 30
0.0
 40
0.25
 71
5
  1
33000
  7
OpenSansCondensed-Light
  0
POINT
  5
4A5
330
49A
100
AcDbEntity
  8
Defpoints
100
AcDbPoint
 10
12612.0
 20
-830.0
 30
0.0
  0
POINT
  5
4A6
330
49A
100
AcDbEntity
  8
Defpoints
100
AcDbPoint
 10
12612.0
 20
-780.0
 30
0.0
  0
POINT
  5
4A7
330
49A
100
AcDbEntity
  8
Defpoints
100
AcDbPoint
 10
12942.0
 20
-780.0
 30
0.0
  0
ENDBLK
  5
49C
330
49A
100
AcDbEntity
  8
0
100
AcDbBlockEnd
  0
BLOCK
  5
4BC
330
4BB
100
AcDbEntity
  8
0
100
AcDbBlockBegin
  2
*D41
 70
1
 10
0.0
 20
0.0
 30
0.0
  3
*D41
  1

  0
LINE
  5
4BE
330
4BB
100
AcDbEntity
  8
0
100
AcDbLine
 10
13142.0
 20
-780.125
 30
0.0
 11
13142.0
 21
-830.375
 31
0.0
  0
LINE
  5
4BF
330
4BB
100
AcDbEntity
  8
0
100
AcDbLine
 10
13570.0
 20
-780.125
 30
0.0
 11
13570.0
 21
-830.375
 31
0.0
  0
INSERT
  5
4C0
330
4BB
100
AcDbEntity
  8
DIM
100
AcDbBlockReference
  2
_ARCHTICK
 10
13142.0
 20
-830.0
 30
0.0
 41
0.175
 42
0.175
 50
180.0
  0
INSERT
  5
4C2
330
4BB
100
AcDbEntity
  8
DIM
100
AcDbBlockReference
  2
_ARCHTICK
 10
13570.0
 20
-830.0
 30
0.0
 41
0.175
 42
0.175
  0
LINE
  5
4C4
330
4BB
100
AcDbEntity
  8
0
100
AcDbLine
 10
13142.0
 20
-830.0
 30
0.0
 11
13570.0
 21
-830.0
 31
0.0
  0
MTEXT
  5
4C5
330
4BB
100
AcDbEntity
  8
DIM
100
AcDbMText
 10
13356.0
 20
-829.775
 30
0.0
 40
0.25
 71
5
  1
42800
  7
OpenSansCondensed-Light
  0
POINT
  5
4C6
330
4BB
100
AcDbEntity
  8
Defpoints
100
AcDbPoint
 10
13142.0
 20
-830.0
 30
0.0
  0
POINT
  5
4C7
330
4BB
100
AcDbEntity
  8
Defpoints
100
AcDbPoint
 10
13142.0
 20
-780.0
 30
0.0
  0
POINT
  5
4C8
330
4BB
100
AcDbEntity
  8
Defpoints
100
AcDbPoint
 10
13570.0
 20
-780.0
 30
0.0
  0
ENDBLK
  5
4BD
330
4BB
100
AcDbEntity
  8
0
100
AcDbBlockEnd
  0
BLOCK
  5
4D2
330
4D1
100
AcDbEntity
  8
0
100
AcDbBlockBegin
  2
*D42
 70
1
 10
0.0
 20
0.0
 30
0.0
  3
*D42
  1

  0
LINE
  5
4D4
330
4D1
100
AcDbEntity
  8
0
100
AcDbLine
 10
13770.0
 20
-780.125
 30
0.0
 11
13770.0
 21
-830.375
 31
0.0
  0
LINE
  5
4D5
330
4D1
100
AcDbEntity
  8
0
100
AcDbLine
 10
13932.0
 20
-780.125
 30
0.0
 11
13932.0
 21
-830.375
 31
0.0
  0
INSERT
  5
4D6
330
4D1
100
AcDbEntity
  8
DIM
100
AcDbBlockReference
  2
_ARCHTICK
 10
13770.0
 20
-830.0
 30
0.0
 41
0.175
 42
0.175
 50
180.0
  0
INSERT
  5
4D8
330
4D1
100
AcDbEntity
  8
DIM
100
AcDbBlockReference
  2
_ARCHTICK
 10
13932.0
 20
-830.0
 30
0.0
 41
0.175
 42
0.175
  0
LINE
  5
4DA
330
4D1
100
AcDbEntity
  8
0
100
AcDbLine
 10
13770.0
 20
-830.0
 30
0.0
 11
13932.0
 21
-830.0
 31
0.0
  0
MTEXT
  5
4DB
330
4D1
100
AcDbEntity
  8
DIM
100
AcDbMText
 10
13851.0
 20
-829.775
 30
0.0
 40
0.25
 71
5
  1
16200
  7
OpenSansCondensed-Light
  0
POINT
  5
4DC
330
4D1
100
AcDbEntity
  8
Defpoints
100
AcDbPoint
 10
13770.0
 20
-830.0
 30
0.0
  0
POINT
  5
4DD
330
4D1
100
AcDbEntity
  8
Defpoints
100
AcDbPoint
 10
13770.0
 20
-780.0
 30
0.0
  0
POINT
  5
4DE
330
4D1
100
AcDbEntity
  8
Defpoints
100
AcDbPoint
 10
13932.0
 20
-780.0
 30
0.0
  0
ENDBLK
  5
4D3
330
4D1
100
AcDbEntity
  8
0
100
AcDbBlockEnd
  0
BLOCK
  5
4ED
330
4EC
100
AcDbEntity
  8
0
100
AcDbBlockBegin
  2
*D43
 70
1
 10
0.0
 20
0.0
 30
0.0
  3
*D43
  1

  0
LINE
  5
4EF
330
4EC
100
AcDbEntity
  8
0
100
AcDbLine
 10
14132.0
 20
-780.125
 30
0.0
 11
14132.0
 21
-830.375
 31
0.0
  0
LINE
  5
4F0
330
4EC
100
AcDbEntity
  8
0
100
AcDbLine
 10
14480.0
 20
-780.125
 30
0.0
 11
14480.0
 21
-830.375
 31
0.0
  0
INSERT
  5
4F1
330
4EC
100
AcDbEntity
  8
DIM
100
AcDbBlockReference
  2
_ARCHTICK
 10
14132.0
 20
-830.0
 30
0.0
 41
0.175
 42
0.175
 50
180.0
  0
INSERT
  5
4F3
330
4EC
100
AcDbEntity
  8
DIM
100
AcDbBlockReference
  2
_ARCHTICK
 10
14480.0
 20
-830.0
 30
0.0
 41
0.175
 42
0.175
  0
LINE
  5
4F5
330
4EC
100
AcDbEntity
  8
0
100
AcDbLine
 10
14132.0
 20
-830.0
 30
0.0
 11
14480.0
 21
-830.0
 31
0.0
  0
MTEXT
  5
4F6
330
4EC
100
AcDbEntity
  8
DIM
100
AcDbMText
 10
14306.0
 20
-829.775
 30
0.0
 40
0.25
 71
5
  1
34800
  7
OpenSansCondensed-Light
  0
POINT
  5
4F7
330
4EC
100
AcDbEntity
  8
Defpoints
100
AcDbPoint
 10
14132.0
 20
-830.0
 30
0.0
  0
POINT
  5
4F8
330
4EC
100
AcDbEntity
  8
Defpoints
100
AcDbPoint
 10
14132.0
 20
-780.0
 30
0.0
  0
POINT
  5
4F9
330
4EC
100
AcDbEntity
  8
Defpoints
100
AcDbPoint
 10
14480.0
 20
-780.0
 30
0.0
  0
ENDBLK
  5
4EE
330
4EC
100
AcDbEntity
  8
0
100
AcDbBlockEnd
  0
BLOCK
  5
506
330
505
100
AcDbEntity
  8
0
100
AcDbBlockBegin
  2
*D44
 70
1
 10
0.0
 20
0.0
 30
0.0
  3
*D44
  1

  0
LINE
  5
508
330
505
100
AcDbEntity
  8
0
100
AcDbLine
 10
14680.0
 20
-780.125
 30
0.0
 11
14680.0
 21
-830.375
 31
0.0
  0
LINE
  5
509
330
505
100
AcDbEntity
  8
0
100
AcDbLine
 10
15006.0
 20
-780.125
 30
0.0
 11
15006.0
 21
-830.375
 31
0.0
  0
INSERT
  5
50A
330
505
100
AcDbEntity
  8
DIM
100
AcDbBlockReference
  2
_ARCHTICK
 10
14680.0
 20
-830.0
 30
0.0
 41
0.175
 42
0.175
 50
180.0
  0
INSERT
  5
50C
330
505
100
AcDbEntity
  8
DIM
100
AcDbBlockReference
  2
_ARCHTICK
 10
15006.0
 20
-830.0
 30
0.0
 41
0.175
 42
0.175
  0
LINE
  5
50E
330
505
100
AcDbEntity
  8
0
100
AcDbLine
 10
14680.0
 20
-830.0
 30
0.0
 11
15006.0
 21
-830.0
 31
0.0
  0
MTEXT
  5
50F
330
505
100
AcDbEntity
  8
DIM
100
AcDbMText
 10
14843.0
 20
-829.775
 30
0.0
 40
0.25
 71
5
  1
32600
  7
OpenSansCondensed-Light
  0
POINT
  5
510
330
505
100
AcDbEntity
  8
Defpoints
100
AcDbPoint
 10
14680.0
 20
-830.0
 30
0.0
  0
POINT
  5
511
330
505
100
AcDbEntity
  8
Defpoints
100
AcDbPoint
 10
14680.0
 20
-780.0
 30
0.0
  0
POINT
  5
512
330
505
100
AcDbEntity
  8
Defpoints
100
AcDbPoint
 10
15006.0
 20
-780.0
 30
0.0
  0
ENDBLK
  5
507
330
505
100
AcDbEntity
  8
0
100
AcDbBlockEnd
  0
ENDSEC
  0
SECTION
  2
ENTITIES
  0
LWPOLYLINE
  5
93
330
17
100
AcDbEntity
  8
WALL
100
AcDbPolyline
 90
4
 70
1
 10
0.0
 20
6.0
 10
768.0
 20
6.0
 10
768.0
 20
-6.0
 10
0.0
 20
-6.0
  0
LWPOLYLINE
  5
94
330
17
100
AcDbEntity
  8
OPENING
100
AcDbPolyline
 90
4
 70
1
 10
60.0
 20
6.0
 10
220.0
 20
6.0
 10
220.0
 20
-6.0
 10
60.0
 20
-6.0
  0
LWPOLYLINE
  5
95
330
17
100
AcDbEntity
  8
OPENING
100
AcDbPolyline
 90
4
 70
1
 10
290.0
 20
6.0
 10
390.0
 20
6.0
 10
390.0
 20
-6.0
 10
290.0
 20
-6.0
  0
LWPOLYLINE
  5
96
330
17
100
AcDbEntity
  8
OPENING
100
AcDbPolyline
 90
4
 70
1
 10
580.0
 20
6.0
 10
700.0
 20
6.0
 10
700.0
 20
-6.0
 10
580.0
 20
-6.0
  0
DIMENSION
  5
97
330
17
100
AcDbEntity
  8
DIM
100
AcDbDimension
280
0
  2
*D1
  3
EZDXF
 10
0.0
 20
-60.0
 30
0.0
 11
384.0
 21
-59.775
 31
0.0
 70
32
 71
5
  1
<>
100
AcDbAlignedDimension
 13
0.0
 23
0.0
 33
0.0
 14
768.0
 24
0.0
 34
0.0
 50
0.0
100
AcDbRotatedDimension
  0
TEXT
  5
A6
330
17
100
AcDbEntity
  8
TEXT
100
AcDbText
 10
384.0
 20
-24.0
 30
0.0
 40
15.0
  1
أ-جنوب
 11
384.0
 21
-24.0
 31
0.0
100
AcDbText
  0
LWPOLYLINE
  5
A7
330
17
100
AcDbEntity
  8
WALL
100
AcDbPolyline
 90
4
 70
1
 10
762.0
 20
0.0
 10
762.0
 20
758.0
 10
774.0
 20
758.0
 10
774.0
 20
0.0
  0
LWPOLYLINE
  5
A8
330
17
100
AcDbEntity
  8
OPENING
100
AcDbPolyline
 90
4
 70
1
 10
762.0
 20
110.0
 10
762.0
 20
210.0
 10
774.0
 20
210.0
 10
774.0
 20
110.0
  0
LWPOLYLINE
  5
A9
330
17
100
AcDbEntity
  8
OPENING
100
AcDbPolyline
 90
4
 70
1
 10
762.0
 20
560.0
 10
762.0
 20
660.0
 10
774.0
 20
660.0
 10
774.0
 20
560.0
  0
DIMENSION
  5
AA
330
17
100
AcDbEntity
  8
DIM
100
AcDbDimension
280
0
  2
*D2
  3
EZDXF
 10
828.0
 20
0.0
 30
0.0
 11
827.775
 21
379.0
 31
0.0
 70
32
 71
5
  1
<>
100
AcDbAlignedDimension
 13
768.0
 23
0.0
 33
0.0
 14
768.0
 24
758.0
 34
0.0
 50
90.0
100
AcDbRotatedDimension
  0
TEXT
  5
B9
330
17
100
AcDbEntity
  8
TEXT
100
AcDbText
 10
792.0
 20
379.0
 30
0.0
 40
15.0
  1
أ-شرق
 11
792.0
 21
379.0
 31
0.0
100
AcDbText
  0
LWPOLYLINE
  5
BA
330
17
100
AcDbEntity
  8
WALL
100
AcDbPolyline
 90
4
 70
1
 10
768.0
 20
752.0
 10
0.0
 20
752.0
 10
0.0
 20
764.0
 10
768.0
 20
764.0
  0
LWPOLYLINE
  5
BB
330
17
100
AcDbEntity
  8
OPENING
100
AcDbPolyline
 90
4
 70
1
 10
468.0
 20
752.0
 10
408.0
 20
752.0
 10
408.0
 20
764.0
 10
468.0
 20
764.0
  0
LWPOLYLINE
  5
BC
330
17
100
AcDbEntity
  8
OPENING
100
AcDbPolyline
 90
4
 70
1
 10
298.0
 20
752.0
 10
198.0
 20
752.0
 10
198.0
 20
764.0
 10
298.0
 20
764.0
  0
DIMENSION
  5
BD
330
17
100
AcDbEntity
  8
DIM
100
AcDbDimension
280
0
  2
*D3
  3
EZDXF
 10
768.0
 20
818.0
 30
0.0
 11
384.0
 21
817.775
 31
0.0
 70
32
 71
5
  1
<>
100
AcDbAlignedDimension
 13
768.0
 23
758.0
 33
0.0
 14
0.0
 24
758.0
 34
0.0
 50
180.0
100
AcDbRotatedDimension
  0
TEXT
  5
CC
330
17
100
AcDbEntity
  8
TEXT
100
AcDbText
 10
384.0
 20
782.0
 30
0.0
 40
15.0
  1
أ-شمال
 11
384.0
 21
782.0
 31
0.0
100
AcDbText
  0
LWPOLYLINE
  5
CD
330
17
100
AcDbEntity
  8
WALL
100
AcDbPolyline
 90
4
 70
1
 10
6.0
 20
758.0
 10
6.0
 20
0.0
 10
-6.0
 20
0.0
 10
-6.0
 20
758.0
  0
LWPOLYLINE
  5
CE
330
17
100
AcDbEntity
  8
OPENING
100
AcDbPolyline
 90
4
 70
1
 10
6.0
 20
678.0
 10
6.0
 20
618.0
 10
-6.0
 20
618.0
 10
-6.0
 20
678.0
  0
LWPOLYLINE
  5
CF
330
17
100
AcDbEntity
  8
OPENING
100
AcDbPolyline
 90
4
 70
1
 10
6.0
 20
458.0
 10
6.0
 20
398.0
 10
-6.0
 20
398.0
 10
-6.0
 20
458.0
  0
LWPOLYLINE
  5
D0
330
17
100
AcDbEntity
  8
OPENING
100
AcDbPolyline
 90
4
 70
1
 10
6.0
 20
218.0
 10
6.0
 20
78.0
 10
-6.0
 20
78.0
 10
-6.0
 20
218.0
  0
DIMENSION
  5
D1
330
17
100
AcDbEntity
  8
DIM
100
AcDbDimension
280
0
  2
*D4
  3
EZDXF
 10
-60.00000000000001
 20
758.0
 30
0.0
 11
-59.775000000000006
 21
379.0
 31
0.0
 70
32
 71
5
  1
<>
100
AcDbAlignedDimension
 13
0.0
 23
758.0
 33
0.0
 14
0.0
 24
0.0
 34
0.0
 50
-90.0
100
AcDbRotatedDimension
  0
TEXT
  5
E0
330
17
100
AcDbEntity
  8
TEXT
100
AcDbText
 10
-24.0
 20
379.0
 30
0.0
 40
15.0
  1
أ-غرب
 11
-24.0
 21
379.0
 31
0.0
100
AcDbText
  0
LWPOLYLINE
  5
E1
330
17
100
AcDbEntity
  8
WALL
100
AcDbPolyline
 90
4
 70
1
 10
156.0
 20
330.0
 10
156.0
 20
758.0
 10
168.0
 20
758.0
 10
168.0
 20
330.0
  0
LWPOLYLINE
  5
E2
330
17
100
AcDbEntity
  8
OPENING
100
AcDbPolyline
 90
4
 70
1
 10
156.0
 20
346.0
 10
156.0
 20
416.0
 10
168.0
 20
416.0
 10
168.0
 20
346.0
  0
LWPOLYLINE
  5
E3
330
17
100
AcDbEntity
  8
OPENING
100
AcDbPolyline
 90
4
 70
1
 10
156.0
 20
610.0
 10
156.0
 20
680.0
 10
168.0
 20
680.0
 10
168.0
 20
610.0
  0
DIMENSION
  5
E4
330
17
100
AcDbEntity
  8
DIM
100
AcDbDimension
280
0
  2
*D5
  3
EZDXF
 10
222.0
 20
330.0
 30
0.0
 11
221.775
 21
544.0
 31
0.0
 70
32
 71
5
  1
<>
100
AcDbAlignedDimension
 13
162.0
 23
330.0
 33
0.0
 14
162.0
 24
758.0
 34
0.0
 50
90.0
100
AcDbRotatedDimension
  0
TEXT
  5
F3
330
17
100
AcDbEntity
  8
TEXT
100
AcDbText
 10
186.0
 20
544.0
 30
0.0
 40
15.0
  1
أ-جدار الحمامات
 11
186.0
 21
544.0
 31
0.0
100
AcDbText
  0
LWPOLYLINE
  5
F4
330
17
100
AcDbEntity
  8
WALL
100
AcDbPolyline
 90
4
 70
1
 10
0.0
 20
534.0
 10
162.0
 20
534.0
 10
162.0
 20
522.0
 10
0.0
 20
522.0
  0
DIMENSION
  5
F5
330
17
100
AcDbEntity
  8
DIM
100
AcDbDimension
280
0
  2
*D6
  3
EZDXF
 10
0.0
 20
468.0
 30
0.0
 11
81.0
 21
468.225
 31
0.0
 70
32
 71
5
  1
<>
100
AcDbAlignedDimension
 13
0.0
 23
528.0
 33
0.0
 14
162.0
 24
528.0
 34
0.0
 50
0.0
100
AcDbRotatedDimension
  0
TEXT
  5
104
330
17
100
AcDbEntity
  8
TEXT
100
AcDbText
 10
81.0
 20
504.0
 30
0.0
 40
15.0
  1
أ-فاصل الحمامين
 11
81.0
 21
504.0
 31
0.0
100
AcDbText
  0
LWPOLYLINE
  5
105
330
17
100
AcDbEntity
  8
WALL
100
AcDbPolyline
 90
4
 70
1
 10
0.0
 20
336.0
 10
162.0
 20
336.0
 10
162.0
 20
324.0
 10
0.0
 20
324.0
  0
DIMENSION
  5
106
330
17
100
AcDbEntity
  8
DIM
100
AcDbDimension
280
0
  2
*D7
  3
EZDXF
 10
0.0
 20
270.0
 30
0.0
 11
81.0
 21
270.225
 31
0.0
 70
32
 71
5
  1
<>
100
AcDbAlignedDimension
 13
0.0
 23
330.0
 33
0.0
 14
162.0
 24
330.0
 34
0.0
 50
0.0
100
AcDbRotatedDimension
  0
TEXT
  5
115
330
17
100
AcDbEntity
  8
TEXT
100
AcDbText
 10
81.0
 20
306.0
 30
0.0
 40
15.0
  1
أ-حمام الضيوف جنوب
 11
81.0
 21
306.0
 31
0.0
100
AcDbText
  0
LWPOLYLINE
  5
116
330
17
100
AcDbEntity
  8
WALL
100
AcDbPolyline
 90
4
 70
1
 10
510.0
 20
336.0
 10
768.0
 20
336.0
 10
768.0
 20
324.0
 10
510.0
 20
324.0
  0
LWPOLYLINE
  5
117
330
17
100
AcDbEntity
  8
OPENING
100
AcDbPolyline
 90
4
 70
1
 10
550.0
 20
336.0
 10
650.0
 20
336.0
 10
650.0
 20
324.0
 10
550.0
 20
324.0
  0
DIMENSION
  5
118
330
17
100
AcDbEntity
  8
DIM
100
AcDbDimension
280
0
  2
*D8
  3
EZDXF
 10
510.0
 20
270.0
 30
0.0
 11
639.0
 21
270.225
 31
0.0
 70
32
 71
5
  1
<>
100
AcDbAlignedDimension
 13
510.0
 23
330.0
 33
0.0
 14
768.0
 24
330.0
 34
0.0
 50
0.0
100
AcDbRotatedDimension
  0
TEXT
  5
127
330
17
100
AcDbEntity
  8
TEXT
100
AcDbText
 10
639.0
 20
306.0
 30
0.0
 40
15.0
  1
أ-مطبخ شمال
 11
639.0
 21
306.0
 31
0.0
100
AcDbText
  0
LWPOLYLINE
  5
128
330
17
100
AcDbEntity
  8
WALL
100
AcDbPolyline
 90
4
 70
1
 10
504.0
 20
0.0
 10
504.0
 20
330.0
 10
516.0
 20
330.0
 10
516.0
 20
0.0
  0
DIMENSION
  5
129
330
17
100
AcDbEntity
  8
DIM
100
AcDbDimension
280
0
  2
*D9
  3
EZDXF
 10
570.0
 20
0.0
 30
0.0
 11
569.775
 21
165.0
 31
0.0
 70
32
 71
5
  1
<>
100
AcDbAlignedDimension
 13
510.0
 23
0.0
 33
0.0
 14
510.0
 24
330.0
 34
0.0
 50
90.0
100
AcDbRotatedDimension
  0
TEXT
  5
138
330
17
100
AcDbEntity
  8
TEXT
100
AcDbText
 10
534.0
 20
165.0
 30
0.0
 40
15.0
  1
أ-مطبخ غرب
 11
534.0
 21
165.0
 31
0.0
100
AcDbText
  0
LWPOLYLINE
  5
139
330
17
100
AcDbEntity
  8
WALL
100
AcDbPolyline
 90
4
 70
1
 10
162.0
 20
438.0
 10
510.0
 20
438.0
 10
510.0
 20
426.0
 10
162.0
 20
426.0
  0
LWPOLYLINE
  5
13A
330
17
100
AcDbEntity
  8
OPENING
100
AcDbPolyline
 90
4
 70
1
 10
212.0
 20
438.0
 10
292.0
 20
438.0
 10
292.0
 20
426.0
 10
212.0
 20
426.0
  0
LWPOLYLINE
  5
13B
330
17
100
AcDbEntity
  8
OPENING
100
AcDbPolyline
 90
4
 70
1
 10
412.0
 20
438.0
 10
482.0
 20
438.0
 10
482.0
 20
426.0
 10
412.0
 20
426.0
  0
DIMENSION
  5
13C
330
17
100
AcDbEntity
  8
DIM
100
AcDbDimension
280
0
  2
*D10
  3
EZDXF
 10
162.0
 20
372.0
 30
0.0
 11
336.0
 21
372.225
 31
0.0
 70
32
 71
5
  1
<>
100
AcDbAlignedDimension
 13
162.0
 23
432.0
 33
0.0
 14
510.0
 24
432.0
 34
0.0
 50
0.0
100
AcDbRotatedDimension
  0
TEXT
  5
14B
330
17
100
AcDbEntity
  8
TEXT
100
AcDbText
 10
336.0
 20
408.0
 30
0.0
 40
15.0
  1
أ-جدار الخادمة
 11
336.0
 21
408.0
 31
0.0
100
AcDbText
  0
LWPOLYLINE
  5
14C
330
17
100
AcDbEntity
  8
WALL
100
AcDbPolyline
 90
4
 70
1
 10
384.0
 20
432.0
 10
384.0
 20
758.0
 10
396.0
 20
758.0
 10
396.0
 20
432.0
  0
DIMENSION
  5
14D
330
17
100
AcDbEntity
  8
DIM
100
AcDbDimension
280
0
  2
*D11
  3
EZDXF
 10
450.0
 20
432.0
 30
0.0
 11
449.775
 21
595.0
 31
0.0
 70
32
 71
5
  1
<>
100
AcDbAlignedDimension
 13
390.0
 23
432.0
 33
0.0
 14
390.0
 24
758.0
 34
0.0
 50
90.0
100
AcDbRotatedDimension
  0
TEXT
  5
15C
330
17
100
AcDbEntity
  8
TEXT
100
AcDbText
 10
414.0
 20
595.0
 30
0.0
 40
15.0
  1
أ-فاصل المخزن
 11
414.0
 21
595.0
 31
0.0
100
AcDbText
  0
LWPOLYLINE
  5
15D
330
17
100
AcDbEntity
  8
WALL
100
AcDbPolyline
 90
4
 70
1
 10
504.0
 20
432.0
 10
504.0
 20
758.0
 10
516.0
 20
758.0
 10
516.0
 20
432.0
  0
DIMENSION
  5
15E
330
17
100
AcDbEntity
  8
DIM
100
AcDbDimension
280
0
  2
*D12
  3
EZDXF
 10
570.0
 20
432.0
 30
0.0
 11
569.775
 21
595.0
 31
0.0
 70
32
 71
5
  1
<>
100
AcDbAlignedDimension
 13
510.0
 23
432.0
 33
0.0
 14
510.0
 24
758.0
 34
0.0
 50
90.0
100
AcDbRotatedDimension
  0
TEXT
  5
16D
330
17
100
AcDbEntity
  8
TEXT
100
AcDbText
 10
534.0
 20
595.0
 30
0.0
 40
15.0
  1
أ-جدار الدرج
 11
534.0
 21
595.0
 31
0.0
100
AcDbText
  0
LWPOLYLINE
  5
16E
330
17
100
AcDbEntity
  8
WALL
100
AcDbPolyline
 90
4
 70
1
 10
0.0
 20
6.0
 10
768.0
 20
6.0
 10
768.0
 20
-6.0
 10
0.0
 20
-6.0
  0
LWPOLYLINE
  5
16F
330
17
100
AcDbEntity
  8
OPENING
100
AcDbPolyline
 90
4
 70
1
 10
120.0
 20
6.0
 10
240.0
 20
6.0
 10
240.0
 20
-6.0
 10
120.0
 20
-6.0
  0
LWPOLYLINE
  5
170
330
17
100
AcDbEntity
  8
OPENING
100
AcDbPolyline
 90
4
 70
1
 10
528.0
 20
6.0
 10
648.0
 20
6.0
 10
648.0
 20
-6.0
 10
528.0
 20
-6.0
  0
DIMENSION
  5
171
330
17
100
AcDbEntity
  8
DIM
100
AcDbDimension
280
0
  2
*D13
  3
EZDXF
 10
0.0
 20
-60.0
 30
0.0
 11
384.0
 21
-59.775
 31
0.0
 70
32
 71
5
  1
<>
100
AcDbAlignedDimension
 13
0.0
 23
0.0
 33
0.0
 14
768.0
 24
0.0
 34
0.0
 50
0.0
100
AcDbRotatedDimension
  0
TEXT
  5
180
330
17
100
AcDbEntity
  8
TEXT
100
AcDbText
 10
384.0
 20
-24.0
 30
0.0
 40
15.0
  1
ب-جنوب
 11
384.0
 21
-24.0
 31
0.0
100
AcDbText
  0
LWPOLYLINE
  5
181
330
17
100
AcDbEntity
  8
WALL
100
AcDbPolyline
 90
4
 70
1
 10
762.0
 20
0.0
 10
762.0
 20
758.0
 10
774.0
 20
758.0
 10
774.0
 20
0.0
  0
LWPOLYLINE
  5
182
330
17
100
AcDbEntity
  8
OPENING
100
AcDbPolyline
 90
4
 70
1
 10
762.0
 20
100.0
 10
762.0
 20
200.0
 10
774.0
 20
200.0
 10
774.0
 20
100.0
  0
LWPOLYLINE
  5
183
330
17
100
AcDbEntity
  8
OPENING
100
AcDbPolyline
 90
4
 70
1
 10
762.0
 20
560.0
 10
762.0
 20
660.0
 10
774.0
 20
660.0
 10
774.0
 20
560.0
  0
DIMENSION
  5
184
330
17
100
AcDbEntity
  8
DIM
100
AcDbDimension
280
0
  2
*D14
  3
EZDXF
 10
828.0
 20
0.0
 30
0.0
 11
827.775
 21
379.0
 31
0.0
 70
32
 71
5
  1
<>
100
AcDbAlignedDimension
 13
768.0
 23
0.0
 33
0.0
 14
768.0
 24
758.0
 34
0.0
 50
90.0
100
AcDbRotatedDimension
  0
TEXT
  5
193
330
17
100
AcDbEntity
  8
TEXT
100
AcDbText
 10
792.0
 20
379.0
 30
0.0
 40
15.0
  1
ب-شرق
 11
792.0
 21
379.0
 31
0.0
100
AcDbText
  0
LWPOLYLINE
  5
194
330
17
100
AcDbEntity
  8
WALL
100
AcDbPolyline
 90
4
 70
1
 10
768.0
 20
752.0
 10
0.0
 20
752.0
 10
0.0
 20
764.0
 10
768.0
 20
764.0
  0
LWPOLYLINE
  5
195
330
17
100
AcDbEntity
  8
OPENING
100
AcDbPolyline
 90
4
 70
1
 10
408.0
 20
752.0
 10
288.0
 20
752.0
 10
288.0
 20
764.0
 10
408.0
 20
764.0
  0
DIMENSION
  5
196
330
17
100
AcDbEntity
  8
DIM
100
AcDbDimension
280
0
  2
*D15
  3
EZDXF
 10
768.0
 20
818.0
 30
0.0
 11
384.0
 21
817.775
 31
0.0
 70
32
 71
5
  1
<>
100
AcDbAlignedDimension
 13
768.0
 23
758.0
 33
0.0
 14
0.0
 24
758.0
 34
0.0
 50
180.0
100
AcDbRotatedDimension
  0
TEXT
  5
1A5
330
17
100
AcDbEntity
  8
TEXT
100
AcDbText
 10
384.0
 20
782.0
 30
0.0
 40
15.0
  1
ب-شمال
 11
384.0
 21
782.0
 31
0.0
100
AcDbText
  0
LWPOLYLINE
  5
1A6
330
17
100
AcDbEntity
  8
WALL
100
AcDbPolyline
 90
4
 70
1
 10
6.0
 20
758.0
 10
6.0
 20
0.0
 10
-6.0
 20
0.0
 10
-6.0
 20
758.0
  0
LWPOLYLINE
  5
1A7
330
17
100
AcDbEntity
  8
OPENING
100
AcDbPolyline
 90
4
 70
1
 10
6.0
 20
678.0
 10
6.0
 20
618.0
 10
-6.0
 20
618.0
 10
-6.0
 20
678.0
  0
LWPOLYLINE
  5
1A8
330
17
100
AcDbEntity
  8
OPENING
100
AcDbPolyline
 90
4
 70
1
 10
6.0
 20
458.0
 10
6.0
 20
398.0
 10
-6.0
 20
398.0
 10
-6.0
 20
458.0
  0
LWPOLYLINE
  5
1A9
330
17
100
AcDbEntity
  8
OPENING
100
AcDbPolyline
 90
4
 70
1
 10
6.0
 20
198.0
 10
6.0
 20
98.0
 10
-6.0
 20
98.0
 10
-6.0
 20
198.0
  0
DIMENSION
  5
1AA
330
17
100
AcDbEntity
  8
DIM
100
AcDbDimension
280
0
  2
*D16
  3
EZDXF
 10
-60.00000000000001
 20
758.0
 30
0.0
 11
-59.775000000000006
 21
379.0
 31
0.0
 70
32
 71
5
  1
<>
100
AcDbAlignedDimension
 13
0.0
 23
758.0
 33
0.0
 14
0.0
 24
0.0
 34
0.0
 50
-90.0
100
AcDbRotatedDimension
  0
TEXT
  5
1B9
330
17
100
AcDbEntity
  8
TEXT
100
AcDbText
 10
-24.0
 20
379.0
 30
0.0
 40
15.0
  1
ب-غرب
 11
-24.0
 21
379.0
 31
0.0
100
AcDbText
  0
LWPOLYLINE
  5
1BA
330
17
100
AcDbEntity
  8
WALL
100
AcDbPolyline
 90
4
 70
1
 10
0.0
 20
336.0
 10
768.0
 20
336.0
 10
768.0
 20
324.0
 10
0.0
 20
324.0
  0
LWPOLYLINE
  5
1BB
330
17
100
AcDbEntity
  8
OPENING
100
AcDbPolyline
 90
4
 70
1
 10
200.0
 20
336.0
 10
280.0
 20
336.0
 10
280.0
 20
324.0
 10
200.0
 20
324.0
  0
LWPOLYLINE
  5
1BC
330
17
100
AcDbEntity
  8
OPENING
100
AcDbPolyline
 90
4
 70
1
 10
420.0
 20
336.0
 10
500.0
 20
336.0
 10
500.0
 20
324.0
 10
420.0
 20
324.0
  0
DIMENSION
  5
1BD
330
17
100
AcDbEntity
  8
DIM
100
AcDbDimension
280
0
  2
*D17
  3
EZDXF
 10
0.0
 20
270.0
 30
0.0
 11
384.0
 21
270.225
 31
0.0
 70
32
 71
5
  1
<>
100
AcDbAlignedDimension
 13
0.0
 23
330.0
 33
0.0
 14
768.0
 24
330.0
 34
0.0
 50
0.0
100
AcDbRotatedDimension
  0
TEXT
  5
1CC
330
17
100
AcDbEntity
  8
TEXT
100
AcDbText
 10
384.0
 20
306.0
 30
0.0
 40
15.0
  1
ب-فاصل الغرف
 11
384.0
 21
306.0
 31
0.0
100
AcDbText
  0
LWPOLYLINE
  5
1CD
330
17
100
AcDbEntity
  8
WALL
100
AcDbPolyline
 90
4
 70
1
 10
378.0
 20
0.0
 10
378.0
 20
330.0
 10
390.0
 20
330.0
 10
390.0
 20
0.0
  0
DIMENSION
  5
1CE
330
17
100
AcDbEntity
  8
DIM
100
AcDbDimension
280
0
  2
*D18
  3
EZDXF
 10
444.0
 20
0.0
 30
0.0
 11
443.775
 21
165.0
 31
0.0
 70
32
 71
5
  1
<>
100
AcDbAlignedDimension
 13
384.0
 23
0.0
 33
0.0
 14
384.0
 24
330.0
 34
0.0
 50
90.0
100
AcDbRotatedDimension
  0
TEXT
  5
1DD
330
17
100
AcDbEntity
  8
TEXT
100
AcDbText
 10
408.0
 20
165.0
 30
0.0
 40
15.0
  1
ب-غرفة 2 شرق
 11
408.0
 21
165.0
 31
0.0
100
AcDbText
  0
LWPOLYLINE
  5
1DE
330
17
100
AcDbEntity
  8
WALL
100
AcDbPolyline
 90
4
 70
1
 10
156.0
 20
330.0
 10
156.0
 20
758.0
 10
168.0
 20
758.0
 10
168.0
 20
330.0
  0
LWPOLYLINE
  5
1DF
330
17
100
AcDbEntity
  8
OPENING
100
AcDbPolyline
 90
4
 70
1
 10
156.0
 20
346.0
 10
156.0
 20
416.0
 10
168.0
 20
416.0
 10
168.0
 20
346.0
  0
LWPOLYLINE
  5
1E0
330
17
100
AcDbEntity
  8
OPENING
100
AcDbPolyline
 90
4
 70
1
 10
156.0
 20
610.0
 10
156.0
 20
680.0
 10
168.0
 20
680.0
 10
168.0
 20
610.0
  0
DIMENSION
  5
1E1
330
17
100
AcDbEntity
  8
DIM
100
AcDbDimension
280
0
  2
*D19
  3
EZDXF
 10
222.0
 20
330.0
 30
0.0
 11
221.775
 21
544.0
 31
0.0
 70
32
 71
5
  1
<>
100
AcDbAlignedDimension
 13
162.0
 23
330.0
 33
0.0
 14
162.0
 24
758.0
 34
0.0
 50
90.0
100
AcDbRotatedDimension
  0
TEXT
  5
1F0
330
17
100
AcDbEntity
  8
TEXT
100
AcDbText
 10
186.0
 20
544.0
 30
0.0
 40
15.0
  1
ب-جدار الحمامات
 11
186.0
 21
544.0
 31
0.0
100
AcDbText
  0
LWPOLYLINE
  5
1F1
330
17
100
AcDbEntity
  8
WALL
100
AcDbPolyline
 90
4
 70
1
 10
0.0
 20
534.0
 10
162.0
 20
534.0
 10
162.0
 20
522.0
 10
0.0
 20
522.0
  0
DIMENSION
  5
1F2
330
17
100
AcDbEntity
  8
DIM
100
AcDbDimension
280
0
  2
*D20
  3
EZDXF
 10
0.0
 20
468.0
 30
0.0
 11
81.0
 21
468.225
 31
0.0
 70
32
 71
5
  1
<>
100
AcDbAlignedDimension
 13
0.0
 23
528.0
 33
0.0
 14
162.0
 24
528.0
 34
0.0
 50
0.0
100
AcDbRotatedDimension
  0
TEXT
  5
201
330
17
100
AcDbEntity
  8
TEXT
100
AcDbText
 10
81.0
 20
504.0
 30
0.0
 40
15.0
  1
ب-فاصل الحمامين
 11
81.0
 21
504.0
 31
0.0
100
AcDbText
  0
LWPOLYLINE
  5
202
330
17
100
AcDbEntity
  8
WALL
100
AcDbPolyline
 90
4
 70
1
 10
162.0
 20
438.0
 10
510.0
 20
438.0
 10
510.0
 20
426.0
 10
162.0
 20
426.0
  0
LWPOLYLINE
  5
203
330
17
100
AcDbEntity
  8
OPENING
100
AcDbPolyline
 90
4
 70
1
 10
392.0
 20
438.0
 10
472.0
 20
438.0
 10
472.0
 20
426.0
 10
392.0
 20
426.0
  0
DIMENSION
  5
204
330
17
100
AcDbEntity
  8
DIM
100
AcDbDimension
280
0
  2
*D21
  3
EZDXF
 10
162.0
 20
372.0
 30
0.0
 11
336.0
 21
372.225
 31
0.0
 70
32
 71
5
  1
<>
100
AcDbAlignedDimension
 13
162.0
 23
432.0
 33
0.0
 14
510.0
 24
432.0
 34
0.0
 50
0.0
100
AcDbRotatedDimension
  0
TEXT
  5
213
330
17
100
AcDbEntity
  8
TEXT
100
AcDbText
 10
336.0
 20
408.0
 30
0.0
 40
15.0
  1
ب-جدار الماستر
 11
336.0
 21
408.0
 31
0.0
100
AcDbText
  0
LWPOLYLINE
  5
214
330
17
100
AcDbEntity
  8
WALL
100
AcDbPolyline
 90
4
 70
1
 10
504.0
 20
432.0
 10
504.0
 20
758.0
 10
516.0
 20
758.0
 10
516.0
 20
432.0
  0
DIMENSION
  5
215
330
17
100
AcDbEntity
  8
DIM
100
AcDbDimension
280
0
  2
*D22
  3
EZDXF
 10
570.0
 20
432.0
 30
0.0
 11
569.775
 21
595.0
 31
0.0
 70
32
 71
5
  1
<>
100
AcDbAlignedDimension
 13
510.0
 23
432.0
 33
0.0
 14
510.0
 24
758.0
 34
0.0
 50
90.0
100
AcDbRotatedDimension
  0
TEXT
  5
224
330
17
100
AcDbEntity
  8
TEXT
100
AcDbText
 10
534.0
 20
595.0
 30
0.0
 40
15.0
  1
ب-جدار الدرج
 11
534.0
 21
595.0
 31
0.0
100
AcDbText
  0
TEXT
  5
225
330
17
100
AcDbEntity
  8
TEXT
100
AcDbText
 10
255.0
 20
165.0
 30
0.0
 40
12.0
  1
الصالة  15.84 m2
 72
1
 11
255.0
 21
165.0
 31
0.0
100
AcDbText
 73
2
  0
TEXT
  5
226
330
17
100
AcDbEntity
  8
TEXT
100
AcDbText
 10
465.0
 20
381.0
 30
0.0
 40
12.0
  1
الموزع  5.35 m2
 72
1
 11
465.0
 21
381.0
 31
0.0
100
AcDbText
 73
2
  0
TEXT
  5
227
330
17
100
AcDbEntity
  8
TEXT
100
AcDbText
 10
639.0
 20
165.0
 30
0.0
 40
12.0
  1
المطبخ  7.82 m2
 72
1
 11
639.0
 21
165.0
 31
0.0
100
AcDbText
 73
2
  0
TEXT
  5
228
330
17
100
AcDbEntity
  8
TEXT
100
AcDbText
 10
81.0
 20
429.0
 30
0.0
 40
12.0
  1
دورة مياه ضيوف  2.79 m2
 72
1
 11
81.0
 21
429.0
 31
0.0
100
AcDbText
 73
2
  0
TEXT
  5
229
330
17
100
AcDbEntity
  8
TEXT
100
AcDbText
 10
81.0
 20
643.0
 30
0.0
 40
12.0
  1
دورة مياه الخادمة  3.27 m2
 72
1
 11
81.0
 21
643.0
 31
0.0
100
AcDbText
 73
2
  0
TEXT
  5
22A
330
17
100
AcDbEntity
  8
TEXT
100
AcDbText
 10
276.0
 20
595.0
 30
0.0
 40
12.0
  1
غرفة الخادمة  6.78 m2
 72
1
 11
276.0
 21
595.0
 31
0.0
100
AcDbText
 73
2
  0
TEXT
  5
22B
330
17
100
AcDbEntity
  8
TEXT
100
AcDbText
 10
450.0
 20
595.0
 30
0.0
 40
12.0
  1
مخزن / غسيل  3.39 m2
 72
1
 11
450.0
 21
595.0
 31
0.0
100
AcDbText
 73
2
  0
TEXT
  5
22C
330
17
100
AcDbEntity
  8
TEXT
100
AcDbText
 10
639.0
 20
595.0
 30
0.0
 40
12.0
  1
الدرج  7.72 m2
 72
1
 11
639.0
 21
595.0
 31
0.0
100
AcDbText
 73
2
  0
TEXT
  5
22D
330
17
100
AcDbEntity
  8
TEXT
100
AcDbText
 10
192.0
 20
165.0
 30
0.0
 40
12.0
  1
غرفة نوم 2  11.83 m2
 72
1
 11
192.0
 21
165.0
 31
0.0
100
AcDbText
 73
2
  0
TEXT
  5
22E
330
17
100
AcDbEntity
  8
TEXT
100
AcDbText
 10
576.0
 20
165.0
 30
0.0
 40
12.0
  1
غرفة نوم 3  11.83 m2
 72
1
 11
576.0
 21
165.0
 31
0.0
100
AcDbText
 73
2
  0
TEXT
  5
22F
330
17
100
AcDbEntity
  8
TEXT
100
AcDbText
 10
465.0
 20
381.0
 30
0.0
 40
12.0
  1
الممر  5.35 m2
 72
1
 11
465.0
 21
381.0
 31
0.0
100
AcDbText
 73
2
  0
TEXT
  5
230
330
17
100
AcDbEntity
  8
TEXT
100
AcDbText
 10
81.0
 20
429.0
 30
0.0
 40
12.0
  1
دورة مياه مشتركة  2.79 m2
 72
1
 11
81.0
 21
429.0
 31
0.0
100
AcDbText
 73
2
  0
TEXT
  5
231
330
17
100
AcDbEntity
  8
TEXT
100
AcDbText
 10
81.0
 20
643.0
 30
0.0
 40
12.0
  1
دورة مياه الماستر  3.27 m2
 72
1
 11
81.0
 21
643.0
 31
0.0
100
AcDbText
 73
2
  0
TEXT
  5
232
330
17
100
AcDbEntity
  8
TEXT
100
AcDbText
 10
336.0
 20
595.0
 30
0.0
 40
12.0
  1
غرفة الماستر  10.55 m2
 72
1
 11
336.0
 21
595.0
 31
0.0
100
AcDbText
 73
2
  0
TEXT
  5
233
330
17
100
AcDbEntity
  8
TEXT
100
AcDbText
 10
639.0
 20
595.0
 30
0.0
 40
12.0
  1
فتحة الدرج  7.72 m2
 72
1
 11
639.0
 21
595.0
 31
0.0
100
AcDbText
 73
2
  0
LWPOLYLINE
  5
234
330
17
100
AcDbEntity
  8
FURNITURE
100
AcDbPolyline
 90
4
 70
1
 10
30.0
 20
230.0
 10
270.0
 20
230.0
 10
270.0
 20
320.0
 10
30.0
 20
320.0
  0
LWPOLYLINE
  5
235
330
17
100
AcDbEntity
  8
FURNITURE
100
AcDbPolyline
 90
4
 70
1
 10
330.0
 20
200.0
 10
410.0
 20
200.0
 10
410.0
 20
280.0
 10
330.0
 20
280.0
  0
LWPOLYLINE
  5
236
330
17
100
AcDbEntity
  8
FURNITURE
100
AcDbPolyline
 90
4
 70
1
 10
120.0
 20
130.0
 10
240.0
 20
130.0
 10
240.0
 20
190.0
 10
120.0
 20
190.0
  0
LWPOLYLINE
  5
237
330
17
100
AcDbEntity
  8
FURNITURE
100
AcDbPolyline
 90
4
 70
1
 10
8.0
 20
40.0
 10
40.0
 20
40.0
 10
40.0
 20
200.0
 10
8.0
 20
200.0
  0
LWPOLYLINE
  5
238
330
17
100
AcDbEntity
  8
FURNITURE
100
AcDbPolyline
 90
4
 70
1
 10
702.0
 20
40.0
 10
762.0
 20
40.0
 10
762.0
 20
300.0
 10
702.0
 20
300.0
  0
LWPOLYLINE
  5
239
330
17
100
AcDbEntity
  8
FURNITURE
100
AcDbPolyline
 90
4
 70
1
 10
522.0
 20
20.0
 10
587.0
 20
20.0
 10
587.0
 20
85.0
 10
522.0
 20
85.0
  0
LWPOLYLINE
  5
23A
330
17
100
AcDbEntity
  8
FURNITURE
100
AcDbPolyline
 90
4
 70
1
 10
294.0
 20
562.0
 10
384.0
 20
562.0
 10
384.0
 20
752.0
 10
294.0
 20
752.0
  0
LWPOLYLINE
  5
23B
330
17
100
AcDbEntity
  8
FURNITURE
100
AcDbPolyline
 90
4
 70
1
 10
324.0
 20
444.0
 10
384.0
 20
444.0
 10
384.0
 20
544.0
 10
324.0
 20
544.0
  0
LWPOLYLINE
  5
23C
330
17
100
AcDbEntity
  8
FURNITURE
100
AcDbPolyline
 90
4
 70
1
 10
6.0
 20
432.0
 10
96.0
 20
432.0
 10
96.0
 20
522.0
 10
6.0
 20
522.0
  0
LWPOLYLINE
  5
23D
330
17
100
AcDbEntity
  8
FURNITURE
100
AcDbPolyline
 90
4
 70
1
 10
110.0
 20
345.0
 10
150.0
 20
345.0
 10
150.0
 20
395.0
 10
110.0
 20
395.0
  0
LWPOLYLINE
  5
23E
330
17
100
AcDbEntity
  8
FURNITURE
100
AcDbPolyline
 90
4
 70
1
 10
10.0
 20
345.0
 10
56.0
 20
345.0
 10
56.0
 20
395.0
 10
10.0
 20
395.0
  0
LWPOLYLINE
  5
23F
330
17
100
AcDbEntity
  8
FURNITURE
100
AcDbPolyline
 90
4
 70
1
 10
6.0
 20
662.0
 10
96.0
 20
662.0
 10
96.0
 20
752.0
 10
6.0
 20
752.0
  0
LWPOLYLINE
  5
240
330
17
100
AcDbEntity
  8
FURNITURE
100
AcDbPolyline
 90
4
 70
1
 10
110.0
 20
545.0
 10
150.0
 20
545.0
 10
150.0
 20
595.0
 10
110.0
 20
595.0
  0
LWPOLYLINE
  5
241
330
17
100
AcDbEntity
  8
FURNITURE
100
AcDbPolyline
 90
4
 70
1
 10
10.0
 20
545.0
 10
56.0
 20
545.0
 10
56.0
 20
595.0
 10
10.0
 20
595.0
  0
LWPOLYLINE
  5
242
330
17
100
AcDbEntity
  8
FURNITURE
100
AcDbPolyline
 90
4
 70
1
 10
100.0
 20
6.0
 10
260.0
 20
6.0
 10
260.0
 20
206.0
 10
100.0
 20
206.0
  0
LWPOLYLINE
  5
243
330
17
100
AcDbEntity
  8
FURNITURE
100
AcDbPolyline
 90
4
 70
1
 10
52.0
 20
6.0
 10
94.0
 20
6.0
 10
94.0
 20
48.0
 10
52.0
 20
48.0
  0
LWPOLYLINE
  5
244
330
17
100
AcDbEntity
  8
FURNITURE
100
AcDbPolyline
 90
4
 70
1
 10
300.0
 20
140.0
 10
378.0
 20
140.0
 10
378.0
 20
300.0
 10
300.0
 20
300.0
  0
LWPOLYLINE
  5
245
330
17
100
AcDbEntity
  8
FURNITURE
100
AcDbPolyline
 90
4
 70
1
 10
500.0
 20
6.0
 10
660.0
 20
6.0
 10
660.0
 20
206.0
 10
500.0
 20
206.0
  0
LWPOLYLINE
  5
246
330
17
100
AcDbEntity
  8
FURNITURE
100
AcDbPolyline
 90
4
 70
1
 10
666.0
 20
6.0
 10
708.0
 20
6.0
 10
708.0
 20
48.0
 10
666.0
 20
48.0
  0
LWPOLYLINE
  5
247
330
17
100
AcDbEntity
  8
FURNITURE
100
AcDbPolyline
 90
4
 70
1
 10
390.0
 20
90.0
 10
450.0
 20
90.0
 10
450.0
 20
240.0
 10
390.0
 20
240.0
  0
LWPOLYLINE
  5
248
330
17
100
AcDbEntity
  8
FURNITURE
100
AcDbPolyline
 90
4
 70
1
 10
240.0
 20
552.0
 10
420.0
 20
552.0
 10
420.0
 20
752.0
 10
240.0
 20
752.0
  0
LWPOLYLINE
  5
249
330
17
100
AcDbEntity
  8
FURNITURE
100
AcDbPolyline
 90
4
 70
1
 10
194.0
 20
706.0
 10
236.0
 20
706.0
 10
236.0
 20
748.0
 10
194.0
 20
748.0
  0
LWPOLYLINE
  5
24A
330
17
100
AcDbEntity
  8
FURNITURE
100
AcDbPolyline
 90
4
 70
1
 10
424.0
 20
706.0
 10
466.0
 20
706.0
 10
466.0
 20
748.0
 10
424.0
 20
748.0
  0
LWPOLYLINE
  5
24B
330
17
100
AcDbEntity
  8
FURNITURE
100
AcDbPolyline
 90
4
 70
1
 10
168.0
 20
444.0
 10
228.0
 20
444.0
 10
228.0
 20
604.0
 10
168.0
 20
604.0
  0
LWPOLYLINE
  5
24C
330
17
100
AcDbEntity
  8
FURNITURE
100
AcDbPolyline
 90
4
 70
1
 10
6.0
 20
432.0
 10
96.0
 20
432.0
 10
96.0
 20
522.0
 10
6.0
 20
522.0
  0
LWPOLYLINE
  5
24D
330
17
100
AcDbEntity
  8
FURNITURE
100
AcDbPolyline
 90
4
 70
1
 10
110.0
 20
345.0
 10
150.0
 20
345.0
 10
150.0
 20
395.0
 10
110.0
 20
395.0
  0
LWPOLYLINE
  5
24E
330
17
100
AcDbEntity
  8
FURNITURE
100
AcDbPolyline
 90
4
 70
1
 10
10.0
 20
345.0
 10
56.0
 20
345.0
 10
56.0
 20
395.0
 10
10.0
 20
395.0
  0
LWPOLYLINE
  5
24F
330
17
100
AcDbEntity
  8
FURNITURE
100
AcDbPolyline
 90
4
 70
1
 10
6.0
 20
662.0
 10
96.0
 20
662.0
 10
96.0
 20
752.0
 10
6.0
 20
752.0
  0
LWPOLYLINE
  5
250
330
17
100
AcDbEntity
  8
FURNITURE
100
AcDbPolyline
 90
4
 70
1
 10
110.0
 20
545.0
 10
150.0
 20
545.0
 10
150.0
 20
595.0
 10
110.0
 20
595.0
  0
LWPOLYLINE
  5
251
330
17
100
AcDbEntity
  8
FURNITURE
100
AcDbPolyline
 90
4
 70
1
 10
10.0
 20
545.0
 10
56.0
 20
545.0
 10
56.0
 20
595.0
 10
10.0
 20
595.0
  0
LWPOLYLINE
  5
252
330
17
100
AcDbEntity
  8
FRAME-PLATE
100
AcDbPolyline
 90
4
 70
1
 10
0.0
 20
-780.0
 10
768.0
 20
-780.0
 10
768.0
 20
-775.0
 10
0.0
 20
-775.0
  0
LWPOLYLINE
  5
253
330
17
100
AcDbEntity
  8
FRAME-PLATE
100
AcDbPolyline
 90
4
 70
1
 10
0.0
 20
-505.0
 10
768.0
 20
-505.0
 10
768.0
 20
-500.0
 10
0.0
 20
-500.0
  0
LWPOLYLINE
  5
254
330
17
100
AcDbEntity
  8
FRAME-STUD
100
AcDbPolyline
 90
4
 70
1
 10
0.0
 20
-775.0
 10
5.0
 20
-775.0
 10
5.0
 20
-505.0
 10
0.0
 20
-505.0
  0
LWPOLYLINE
  5
255
330
17
100
AcDbEntity
  8
FRAME-STUD
100
AcDbPolyline
 90
4
 70
1
 10
763.0
 20
-775.0
 10
768.0
 20
-775.0
 10
768.0
 20
-505.0
 10
763.0
 20
-505.0
  0
LWPOLYLINE
  5
256
330
17
100
AcDbEntity
  8
FRAME-OPENING
100
AcDbPolyline
 90
4
 70
1
 10
55.0
 20
-775.0
 10
60.0
 20
-775.0
 10
60.0
 20
-505.0
 10
55.0
 20
-505.0
  0
LWPOLYLINE
  5
257
330
17
100
AcDbEntity
  8
FRAME-OPENING
100
AcDbPolyline
 90
4
 70
1
 10
220.0
 20
-775.0
 10
225.0
 20
-775.0
 10
225.0
 20
-505.0
 10
220.0
 20
-505.0
  0
LWPOLYLINE
  5
258
330
17
100
AcDbEntity
  8
FRAME-OPENING
100
AcDbPolyline
 90
4
 70
1
 10
60.0
 20
-565.0
 10
220.0
 20
-565.0
 10
220.0
 20
-560.0
 10
60.0
 20
-560.0
  0
LWPOLYLINE
  5
259
330
17
100
AcDbEntity
  8
FRAME-OPENING
100
AcDbPolyline
 90
4
 70
1
 10
60.0
 20
-690.0
 10
220.0
 20
-690.0
 10
220.0
 20
-685.0
 10
60.0
 20
-685.0
  0
LWPOLYLINE
  5
25A
330
17
100
AcDbEntity
  8
FRAME-CRIPPLE
100
AcDbPolyline
 90
4
 70
1
 10
117.5
 20
-775.0
 10
122.5
 20
-775.0
 10
122.5
 20
-690.0
 10
117.5
 20
-690.0
  0
LWPOLYLINE
  5
25B
330
17
100
AcDbEntity
  8
FRAME-CRIPPLE
100
AcDbPolyline
 90
4
 70
1
 10
177.5
 20
-775.0
 10
182.5
 20
-775.0
 10
182.5
 20
-690.0
 10
177.5
 20
-690.0
  0
LWPOLYLINE
  5
25C
330
17
100
AcDbEntity
  8
FRAME-OPENING
100
AcDbPolyline
 90
4
 70
1
 10
285.0
 20
-775.0
 10
290.0
 20
-775.0
 10
290.0
 20
-505.0
 10
285.0
 20
-505.0
  0
LWPOLYLINE
  5
25D
330
17
100
AcDbEntity
  8
FRAME-OPENING
100
AcDbPolyline
 90
4
 70
1
 10
390.0
 20
-775.0
 10
395.0
 20
-775.0
 10
395.0
 20
-505.0
 10
390.0
 20
-505.0
  0
LWPOLYLINE
  5
25E
330
17
100
AcDbEntity
  8
FRAME-OPENING
100
AcDbPolyline
 90
4
 70
1
 10
290.0
 20
-555.0
 10
390.0
 20
-555.0
 10
390.0
 20
-550.0
 10
290.0
 20
-550.0
  0
LWPOLYLINE
  5
25F
330
17
100
AcDbEntity
  8
FRAME-OPENING
100
AcDbPolyline
 90
4
 70
1
 10
575.0
 20
-775.0
 10
580.0
 20
-775.0
 10
580.0
 20
-505.0
 10
575.0
 20
-505.0
  0
LWPOLYLINE
  5
260
330
17
100
AcDbEntity
  8
FRAME-OPENING
100
AcDbPolyline
 90
4
 70
1
 10
700.0
 20
-775.0
 10
705.0
 20
-775.0
 10
705.0
 20
-505.0
 10
700.0
 20
-505.0
  0
LWPOLYLINE
  5
261
330
17
100
AcDbEntity
  8
FRAME-OPENING
100
AcDbPolyline
 90
4
 70
1
 10
580.0
 20
-565.0
 10
700.0
 20
-565.0
 10
700.0
 20
-560.0
 10
580.0
 20
-560.0
  0
LWPOLYLINE
  5
262
330
17
100
AcDbEntity
  8
FRAME-OPENING
100
AcDbPolyline
 90
4
 70
1
 10
580.0
 20
-670.0
 10
700.0
 20
-670.0
 10
700.0
 20
-665.0
 10
580.0
 20
-665.0
  0
LWPOLYLINE
  5
263
330
17
100
AcDbEntity
  8
FRAME-CRIPPLE
100
AcDbPolyline
 90
4
 70
1
 10
597.5
 20
-775.0
 10
602.5
 20
-775.0
 10
602.5
 20
-670.0
 10
597.5
 20
-670.0
  0
LWPOLYLINE
  5
264
330
17
100
AcDbEntity
  8
FRAME-CRIPPLE
100
AcDbPolyline
 90
4
 70
1
 10
657.5
 20
-775.0
 10
662.5
 20
-775.0
 10
662.5
 20
-670.0
 10
657.5
 20
-670.0
  0
LWPOLYLINE
  5
265
330
17
100
AcDbEntity
  8
FRAME-STUD
100
AcDbPolyline
 90
4
 70
1
 10
237.5
 20
-775.0
 10
242.5
 20
-775.0
 10
242.5
 20
-505.0
 10
237.5
 20
-505.0
  0
LWPOLYLINE
  5
266
330
17
100
AcDbEntity
  8
FRAME-STUD
100
AcDbPolyline
 90
4
 70
1
 10
417.5
 20
-775.0
 10
422.5
 20
-775.0
 10
422.5
 20
-505.0
 10
417.5
 20
-505.0
  0
LWPOLYLINE
  5
267
330
17
100
AcDbEntity
  8
FRAME-STUD
100
AcDbPolyline
 90
4
 70
1
 10
477.5
 20
-775.0
 10
482.5
 20
-775.0
 10
482.5
 20
-505.0
 10
477.5
 20
-505.0
  0
LWPOLYLINE
  5
268
330
17
100
AcDbEntity
  8
FRAME-STUD
100
AcDbPolyline
 90
4
 70
1
 10
537.5
 20
-775.0
 10
542.5
 20
-775.0
 10
542.5
 20
-505.0
 10
537.5
 20
-505.0
  0
LWPOLYLINE
  5
269
330
17
100
AcDbEntity
  8
FRAME-STUD
100
AcDbPolyline
 90
4
 70
1
 10
717.5
 20
-775.0
 10
722.5
 20
-775.0
 10
722.5
 20
-505.0
 10
717.5
 20
-505.0
  0
LWPOLYLINE
  5
26A
330
17
100
AcDbEntity
  8
OPENING
100
AcDbPolyline
 90
4
 70
1
 10
60.0
 20
-685.0
 10
220.0
 20
-685.0
 10
220.0
 20
-565.0
 10
60.0
 20
-565.0
  0
LWPOLYLINE
  5
26B
330
17
100
AcDbEntity
  8
OPENING
100
AcDbPolyline
 90
4
 70
1
 10
290.0
 20
-775.0
 10
390.0
 20
-775.0
 10
390.0
 20
-555.0
 10
290.0
 20
-555.0
  0
LWPOLYLINE
  5
26C
330
17
100
AcDbEntity
  8
OPENING
100
AcDbPolyline
 90
4
 70
1
 10
580.0
 20
-665.0
 10
700.0
 20
-665.0
 10
700.0
 20
-565.0
 10
580.0
 20
-565.0
  0
TEXT
  5
26D
330
17
100
AcDbEntity
  8
TEXT
100
AcDbText
 10
0.0
 20
-470.0
 30
0.0
 40
15.0
  1
أ-جنوب  L=768  H=280
 11
0.0
 21
-470.0
 31
0.0
100
AcDbText
  0
DIMENSION
  5
26E
330
17
100
AcDbEntity
  8
DIM
100
AcDbDimension
280
0
  2
*D23
  3
EZDXF
 10
0.0
 20
-830.0
 30
0.0
 11
384.0
 21
-829.775
 31
0.0
 70
32
 71
5
  1
<>
100
AcDbAlignedDimension
 13
0.0
 23
-780.0
 33
0.0
 14
768.0
 24
-780.0
 34
0.0
 50
0.0
100
AcDbRotatedDimension
  0
LWPOLYLINE
  5
27D
330
17
100
AcDbEntity
  8
FRAME-PLATE
100
AcDbPolyline
 90
4
 70
1
 10
968.0
 20
-780.0
 10
1726.0
 20
-780.0
 10
1726.0
 20
-775.0
 10
968.0
 20
-775.0
  0
LWPOLYLINE
  5
27E
330
17
100
AcDbEntity
  8
FRAME-PLATE
100
AcDbPolyline
 90
4
 70
1
 10
968.0
 20
-505.0
 10
1726.0
 20
-505.0
 10
1726.0
 20
-500.0
 10
968.0
 20
-500.0
  0
LWPOLYLINE
  5
27F
330
17
100
AcDbEntity
  8
FRAME-STUD
100
AcDbPolyline
 90
4
 70
1
 10
968.0
 20
-775.0
 10
973.0
 20
-775.0
 10
973.0
 20
-505.0
 10
968.0
 20
-505.0
  0
LWPOLYLINE
  5
280
330
17
100
AcDbEntity
  8
FRAME-STUD
100
AcDbPolyline
 90
4
 70
1
 10
1721.0
 20
-775.0
 10
1726.0
 20
-775.0
 10
1726.0
 20
-505.0
 10
1721.0
 20
-505.0
  0
LWPOLYLINE
  5
281
330
17
100
AcDbEntity
  8
FRAME-OPENING
100
AcDbPolyline
 90
4
 70
1
 10
1073.0
 20
-775.0
 10
1078.0
 20
-775.0
 10
1078.0
 20
-505.0
 10
1073.0
 20
-505.0
  0
LWPOLYLINE
  5
282
330
17
100
AcDbEntity
  8
FRAME-OPENING
100
AcDbPolyline
 90
4
 70
1
 10
1178.0
 20
-775.0
 10
1183.0
 20
-775.0
 10
1183.0
 20
-505.0
 10
1178.0
 20
-505.0
  0
LWPOLYLINE
  5
283
330
17
100
AcDbEntity
  8
FRAME-OPENING
100
AcDbPolyline
 90
4
 70
1
 10
1078.0
 20
-565.0
 10
1178.0
 20
-565.0
 10
1178.0
 20
-560.0
 10
1078.0
 20
-560.0
  0
LWPOLYLINE
  5
284
330
17
100
AcDbEntity
  8
FRAME-OPENING
100
AcDbPolyline
 90
4
 70
1
 10
1078.0
 20
-670.0
 10
1178.0
 20
-670.0
 10
1178.0
 20
-665.0
 10
1078.0
 20
-665.0
  0
LWPOLYLINE
  5
285
330
17
100
AcDbEntity
  8
FRAME-CRIPPLE
100
AcDbPolyline
 90
4
 70
1
 10
1085.5
 20
-775.0
 10
1090.5
 20
-775.0
 10
1090.5
 20
-670.0
 10
1085.5
 20
-670.0
  0
LWPOLYLINE
  5
286
330
17
100
AcDbEntity
  8
FRAME-CRIPPLE
100
AcDbPolyline
 90
4
 70
1
 10
1145.5
 20
-775.0
 10
1150.5
 20
-775.0
 10
1150.5
 20
-670.0
 10
1145.5
 20
-670.0
  0
LWPOLYLINE
  5
287
330
17
100
AcDbEntity
  8
FRAME-OPENING
100
AcDbPolyline
 90
4
 70
1
 10
1523.0
 20
-775.0
 10
1528.0
 20
-775.0
 10
1528.0
 20
-505.0
 10
1523.0
 20
-505.0
  0
LWPOLYLINE
  5
288
330
17
100
AcDbEntity
  8
FRAME-OPENING
100
AcDbPolyline
 90
4
 70
1
 10
1628.0
 20
-775.0
 10
1633.0
 20
-775.0
 10
1633.0
 20
-505.0
 10
1628.0
 20
-505.0
  0
LWPOLYLINE
  5
289
330
17
100
AcDbEntity
  8
FRAME-OPENING
100
AcDbPolyline
 90
4
 70
1
 10
1528.0
 20
-565.0
 10
1628.0
 20
-565.0
 10
1628.0
 20
-560.0
 10
1528.0
 20
-560.0
  0
LWPOLYLINE
  5
28A
330
17
100
AcDbEntity
  8
FRAME-OPENING
100
AcDbPolyline
 90
4
 70
1
 10
1528.0
 20
-680.0
 10
1628.0
 20
-680.0
 10
1628.0
 20
-675.0
 10
1528.0
 20
-675.0
  0
LWPOLYLINE
  5
28B
330
17
100
AcDbEntity
  8
FRAME-CRIPPLE
100
AcDbPolyline
 90
4
 70
1
 10
1565.5
 20
-775.0
 10
1570.5
 20
-775.0
 10
1570.5
 20
-680.0
 10
1565.5
 20
-680.0
  0
LWPOLYLINE
  5
28C
330
17
100
AcDbEntity
  8
FRAME-STUD
100
AcDbPolyline
 90
4
 70
1
 10
1025.5
 20
-775.0
 10
1030.5
 20
-775.0
 10
1030.5
 20
-505.0
 10
1025.5
 20
-505.0
  0
LWPOLYLINE
  5
28D
330
17
100
AcDbEntity
  8
FRAME-STUD
100
AcDbPolyline
 90
4
 70
1
 10
1205.5
 20
-775.0
 10
1210.5
 20
-775.0
 10
1210.5
 20
-505.0
 10
1205.5
 20
-505.0
  0
LWPOLYLINE
  5
28E
330
17
100
AcDbEntity
  8
FRAME-STUD
100
AcDbPolyline
 90
4
 70
1
 10
1265.5
 20
-775.0
 10
1270.5
 20
-775.0
 10
1270.5
 20
-505.0
 10
1265.5
 20
-505.0
  0
LWPOLYLINE
  5
28F
330
17
100
AcDbEntity
  8
FRAME-STUD
100
AcDbPolyline
 90
4
 70
1
 10
1325.5
 20
-775.0
 10
1330.5
 20
-775.0
 10
1330.5
 20
-505.0
 10
1325.5
 20
-505.0
  0
LWPOLYLINE
  5
290
330
17
100
AcDbEntity
  8
FRAME-STUD
100
AcDbPolyline
 90
4
 70
1
 10
1385.5
 20
-775.0
 10
1390.5
 20
-775.0
 10
1390.5
 20
-505.0
 10
1385.5
 20
-505.0
  0
LWPOLYLINE
  5
291
330
17
100
AcDbEntity
  8
FRAME-STUD
100
AcDbPolyline
 90
4
 70
1
 10
1445.5
 20
-775.0
 10
1450.5
 20
-775.0
 10
1450.5
 20
-505.0
 10
1445.5
 20
-505.0
  0
LWPOLYLINE
  5
292
330
17
100
AcDbEntity
  8
FRAME-STUD
100
AcDbPolyline
 90
4
 70
1
 10
1505.5
 20
-775.0
 10
1510.5
 20
-775.0
 10
1510.5
 20
-505.0
 10
1505.5
 20
-505.0
  0
LWPOLYLINE
  5
293
330
17
100
AcDbEntity
  8
FRAME-STUD
100
AcDbPolyline
 90
4
 70
1
 10
1685.5
 20
-775.0
 10
1690.5
 20
-775.0
 10
1690.5
 20
-505.0
 10
1685.5
 20
-505.0
  0
LWPOLYLINE
  5
294
330
17
100
AcDbEntity
  8
OPENING
100
AcDbPolyline
 90
4
 70
1
 10
1078.0
 20
-665.0
 10
1178.0
 20
-665.0
 10
1178.0
 20
-565.0
 10
1078.0
 20
-565.0
  0
LWPOLYLINE
  5
295
330
17
100
AcDbEntity
  8
OPENING
100
AcDbPolyline
 90
4
 70
1
 10
1528.0
 20
-675.0
 10
1628.0
 20
-675.0
 10
1628.0
 20
-565.0
 10
1528.0
 20
-565.0
  0
TEXT
  5
296
330
17
100
AcDbEntity
  8
TEXT
100
AcDbText
 10
968.0
 20
-470.0
 30
0.0
 40
15.0
  1
أ-شرق  L=758  H=280
 11
968.0
 21
-470.0
 31
0.0
100
AcDbText
  0
DIMENSION
  5
297
330
17
100
AcDbEntity
  8
DIM
100
AcDbDimension
280
0
  2
*D24
  3
EZDXF
 10
968.0
 20
-830.0
 30
0.0
 11
1347.0
 21
-829.775
 31
0.0
 70
32
 71
5
  1
<>
100
AcDbAlignedDimension
 13
968.0
 23
-780.0
 33
0.0
 14
1726.0
 24
-780.0
 34
0.0
 50
0.0
100
AcDbRotatedDimension
  0
LWPOLYLINE
  5
2A6
330
17
100
AcDbEntity
  8
FRAME-PLATE
100
AcDbPolyline
 90
4
 70
1
 10
1926.0
 20
-780.0
 10
2694.0
 20
-780.0
 10
2694.0
 20
-775.0
 10
1926.0
 20
-775.0
  0
LWPOLYLINE
  5
2A7
330
17
100
AcDbEntity
  8
FRAME-PLATE
100
AcDbPolyline
 90
4
 70
1
 10
1926.0
 20
-505.0
 10
2694.0
 20
-505.0
 10
2694.0
 20
-500.0
 10
1926.0
 20
-500.0
  0
LWPOLYLINE
  5
2A8
330
17
100
AcDbEntity
  8
FRAME-STUD
100
AcDbPolyline
 90
4
 70
1
 10
1926.0
 20
-775.0
 10
1931.0
 20
-775.0
 10
1931.0
 20
-505.0
 10
1926.0
 20
-505.0
  0
LWPOLYLINE
  5
2A9
330
17
100
AcDbEntity
  8
FRAME-STUD
100
AcDbPolyline
 90
4
 70
1
 10
2689.0
 20
-775.0
 10
2694.0
 20
-775.0
 10
2694.0
 20
-505.0
 10
2689.0
 20
-505.0
  0
LWPOLYLINE
  5
2AA
330
17
100
AcDbEntity
  8
FRAME-OPENING
100
AcDbPolyline
 90
4
 70
1
 10
2221.0
 20
-775.0
 10
2226.0
 20
-775.0
 10
2226.0
 20
-505.0
 10
2221.0
 20
-505.0
  0
LWPOLYLINE
  5
2AB
330
17
100
AcDbEntity
  8
FRAME-OPENING
100
AcDbPolyline
 90
4
 70
1
 10
2286.0
 20
-775.0
 10
2291.0
 20
-775.0
 10
2291.0
 20
-505.0
 10
2286.0
 20
-505.0
  0
LWPOLYLINE
  5
2AC
330
17
100
AcDbEntity
  8
FRAME-OPENING
100
AcDbPolyline
 90
4
 70
1
 10
2226.0
 20
-565.0
 10
2286.0
 20
-565.0
 10
2286.0
 20
-560.0
 10
2226.0
 20
-560.0
  0
LWPOLYLINE
  5
2AD
330
17
100
AcDbEntity
  8
FRAME-OPENING
100
AcDbPolyline
 90
4
 70
1
 10
2226.0
 20
-630.0
 10
2286.0
 20
-630.0
 10
2286.0
 20
-625.0
 10
2226.0
 20
-625.0
  0
LWPOLYLINE
  5
2AE
330
17
100
AcDbEntity
  8
FRAME-OPENING
100
AcDbPolyline
 90
4
 70
1
 10
2391.0
 20
-775.0
 10
2396.0
 20
-775.0
 10
2396.0
 20
-505.0
 10
2391.0
 20
-505.0
  0
LWPOLYLINE
  5
2AF
330
17
100
AcDbEntity
  8
FRAME-OPENING
100
AcDbPolyline
 90
4
 70
1
 10
2496.0
 20
-775.0
 10
2501.0
 20
-775.0
 10
2501.0
 20
-505.0
 10
2496.0
 20
-505.0
  0
LWPOLYLINE
  5
2B0
330
17
100
AcDbEntity
  8
FRAME-OPENING
100
AcDbPolyline
 90
4
 70
1
 10
2396.0
 20
-565.0
 10
2496.0
 20
-565.0
 10
2496.0
 20
-560.0
 10
2396.0
 20
-560.0
  0
LWPOLYLINE
  5
2B1
330
17
100
AcDbEntity
  8
FRAME-OPENING
100
AcDbPolyline
 90
4
 70
1
 10
2396.0
 20
-680.0
 10
2496.0
 20
-680.0
 10
2496.0
 20
-675.0
 10
2396.0
 20
-675.0
  0
LWPOLYLINE
  5
2B2
330
17
100
AcDbEntity
  8
FRAME-CRIPPLE
100
AcDbPolyline
 90
4
 70
1
 10
2403.5
 20
-775.0
 10
2408.5
 20
-775.0
 10
2408.5
 20
-680.0
 10
2403.5
 20
-680.0
  0
LWPOLYLINE
  5
2B3
330
17
100
AcDbEntity
  8
FRAME-CRIPPLE
100
AcDbPolyline
 90
4
 70
1
 10
2463.5
 20
-775.0
 10
2468.5
 20
-775.0
 10
2468.5
 20
-680.0
 10
2463.5
 20
-680.0
  0
LWPOLYLINE
  5
2B4
330
17
100
AcDbEntity
  8
FRAME-STUD
100
AcDbPolyline
 90
4
 70
1
 10
1983.5
 20
-775.0
 10
1988.5
 20
-775.0
 10
1988.5
 20
-505.0
 10
1983.5
 20
-505.0
  0
LWPOLYLINE
  5
2B5
330
17
100
AcDbEntity
  8
FRAME-STUD
100
AcDbPolyline
 90
4
 70
1
 10
2043.5
 20
-775.0
 10
2048.5
 20
-775.0
 10
2048.5
 20
-505.0
 10
2043.5
 20
-505.0
  0
LWPOLYLINE
  5
2B6
330
17
100
AcDbEntity
  8
FRAME-STUD
100
AcDbPolyline
 90
4
 70
1
 10
2103.5
 20
-775.0
 10
2108.5
 20
-775.0
 10
2108.5
 20
-505.0
 10
2103.5
 20
-505.0
  0
LWPOLYLINE
  5
2B7
330
17
100
AcDbEntity
  8
FRAME-STUD
100
AcDbPolyline
 90
4
 70
1
 10
2163.5
 20
-775.0
 10
2168.5
 20
-775.0
 10
2168.5
 20
-505.0
 10
2163.5
 20
-505.0
  0
LWPOLYLINE
  5
2B8
330
17
100
AcDbEntity
  8
FRAME-STUD
100
AcDbPolyline
 90
4
 70
1
 10
2343.5
 20
-775.0
 10
2348.5
 20
-775.0
 10
2348.5
 20
-505.0
 10
2343.5
 20
-505.0
  0
LWPOLYLINE
  5
2B9
330
17
100
AcDbEntity
  8
FRAME-STUD
100
AcDbPolyline
 90
4
 70
1
 10
2523.5
 20
-775.0
 10
2528.5
 20
-775.0
 10
2528.5
 20
-505.0
 10
2523.5
 20
-505.0
  0
LWPOLYLINE
  5
2BA
330
17
100
AcDbEntity
  8
FRAME-STUD
100
AcDbPolyline
 90
4
 70
1
 10
2583.5
 20
-775.0
 10
2588.5
 20
-775.0
 10
2588.5
 20
-505.0
 10
2583.5
 20
-505.0
  0
LWPOLYLINE
  5
2BB
330
17
100
AcDbEntity
  8
FRAME-STUD
100
AcDbPolyline
 90
4
 70
1
 10
2643.5
 20
-775.0
 10
2648.5
 20
-775.0
 10
2648.5
 20
-505.0
 10
2643.5
 20
-505.0
  0
LWPOLYLINE
  5
2BC
330
17
100
AcDbEntity
  8
OPENING
100
AcDbPolyline
 90
4
 70
1
 10
2226.0
 20
-625.0
 10
2286.0
 20
-625.0
 10
2286.0
 20
-565.0
 10
2226.0
 20
-565.0
  0
LWPOLYLINE
  5
2BD
330
17
100
AcDbEntity
  8
OPENING
100
AcDbPolyline
 90
4
 70
1
 10
2396.0
 20
-675.0
 10
2496.0
 20
-675.0
 10
2496.0
 20
-565.0
 10
2396.0
 20
-565.0
  0
TEXT
  5
2BE
330
17
100
AcDbEntity
  8
TEXT
100
AcDbText
 10
1926.0
 20
-470.0
 30
0.0
 40
15.0
  1
أ-شمال  L=768  H=280
 11
1926.0
 21
-470.0
 31
0.0
100
AcDbText
  0
DIMENSION
  5
2BF
330
17
100
AcDbEntity
  8
DIM
100
AcDbDimension
280
0
  2
*D25
  3
EZDXF
 10
1926.0
 20
-830.0
 30
0.0
 11
2310.0
 21
-829.775
 31
0.0
 70
32
 71
5
  1
<>
100
AcDbAlignedDimension
 13
1926.0
 23
-780.0
 33
0.0
 14
2694.0
 24
-780.0
 34
0.0
 50
0.0
100
AcDbRotatedDimension
  0
LWPOLYLINE
  5
2CE
330
17
100
AcDbEntity
  8
FRAME-PLATE
100
AcDbPolyline
 90
4
 70
1
 10
2894.0
 20
-780.0
 10
3652.0
 20
-780.0
 10
3652.0
 20
-775.0
 10
2894.0
 20
-775.0
  0
LWPOLYLINE
  5
2CF
330
17
100
AcDbEntity
  8
FRAME-PLATE
100
AcDbPolyline
 90
4
 70
1
 10
2894.0
 20
-505.0
 10
3652.0
 20
-505.0
 10
3652.0
 20
-500.0
 10
2894.0
 20
-500.0
  0
LWPOLYLINE
  5
2D0
330
17
100
AcDbEntity
  8
FRAME-STUD
100
AcDbPolyline
 90
4
 70
1
 10
2894.0
 20
-775.0
 10
2899.0
 20
-775.0
 10
2899.0
 20
-505.0
 10
2894.0
 20
-505.0
  0
LWPOLYLINE
  5
2D1
330
17
100
AcDbEntity
  8
FRAME-STUD
100
AcDbPolyline
 90
4
 70
1
 10
3647.0
 20
-775.0
 10
3652.0
 20
-775.0
 10
3652.0
 20
-505.0
 10
3647.0
 20
-505.0
  0
LWPOLYLINE
  5
2D2
330
17
100
AcDbEntity
  8
FRAME-OPENING
100
AcDbPolyline
 90
4
 70
1
 10
2969.0
 20
-775.0
 10
2974.0
 20
-775.0
 10
2974.0
 20
-505.0
 10
2969.0
 20
-505.0
  0
LWPOLYLINE
  5
2D3
330
17
100
AcDbEntity
  8
FRAME-OPENING
100
AcDbPolyline
 90
4
 70
1
 10
3034.0
 20
-775.0
 10
3039.0
 20
-775.0
 10
3039.0
 20
-505.0
 10
3034.0
 20
-505.0
  0
LWPOLYLINE
  5
2D4
330
17
100
AcDbEntity
  8
FRAME-OPENING
100
AcDbPolyline
 90
4
 70
1
 10
2974.0
 20
-565.0
 10
3034.0
 20
-565.0
 10
3034.0
 20
-560.0
 10
2974.0
 20
-560.0
  0
LWPOLYLINE
  5
2D5
330
17
100
AcDbEntity
  8
FRAME-OPENING
100
AcDbPolyline
 90
4
 70
1
 10
2974.0
 20
-630.0
 10
3034.0
 20
-630.0
 10
3034.0
 20
-625.0
 10
2974.0
 20
-625.0
  0
LWPOLYLINE
  5
2D6
330
17
100
AcDbEntity
  8
FRAME-CRIPPLE
100
AcDbPolyline
 90
4
 70
1
 10
3011.5
 20
-775.0
 10
3016.5
 20
-775.0
 10
3016.5
 20
-630.0
 10
3011.5
 20
-630.0
  0
LWPOLYLINE
  5
2D7
330
17
100
AcDbEntity
  8
FRAME-OPENING
100
AcDbPolyline
 90
4
 70
1
 10
3189.0
 20
-775.0
 10
3194.0
 20
-775.0
 10
3194.0
 20
-505.0
 10
3189.0
 20
-505.0
  0
LWPOLYLINE
  5
2D8
330
17
100
AcDbEntity
  8
FRAME-OPENING
100
AcDbPolyline
 90
4
 70
1
 10
3254.0
 20
-775.0
 10
3259.0
 20
-775.0
 10
3259.0
 20
-505.0
 10
3254.0
 20
-505.0
  0
LWPOLYLINE
  5
2D9
330
17
100
AcDbEntity
  8
FRAME-OPENING
100
AcDbPolyline
 90
4
 70
1
 10
3194.0
 20
-565.0
 10
3254.0
 20
-565.0
 10
3254.0
 20
-560.0
 10
3194.0
 20
-560.0
  0
LWPOLYLINE
  5
2DA
330
17
100
AcDbEntity
  8
FRAME-OPENING
100
AcDbPolyline
 90
4
 70
1
 10
3194.0
 20
-630.0
 10
3254.0
 20
-630.0
 10
3254.0
 20
-625.0
 10
3194.0
 20
-625.0
  0
LWPOLYLINE
  5
2DB
330
17
100
AcDbEntity
  8
FRAME-OPENING
100
AcDbPolyline
 90
4
 70
1
 10
3429.0
 20
-775.0
 10
3434.0
 20
-775.0
 10
3434.0
 20
-505.0
 10
3429.0
 20
-505.0
  0
LWPOLYLINE
  5
2DC
330
17
100
AcDbEntity
  8
FRAME-OPENING
100
AcDbPolyline
 90
4
 70
1
 10
3574.0
 20
-775.0
 10
3579.0
 20
-775.0
 10
3579.0
 20
-505.0
 10
3574.0
 20
-505.0
  0
LWPOLYLINE
  5
2DD
330
17
100
AcDbEntity
  8
FRAME-OPENING
100
AcDbPolyline
 90
4
 70
1
 10
3434.0
 20
-565.0
 10
3574.0
 20
-565.0
 10
3574.0
 20
-560.0
 10
3434.0
 20
-560.0
  0
LWPOLYLINE
  5
2DE
330
17
100
AcDbEntity
  8
FRAME-OPENING
100
AcDbPolyline
 90
4
 70
1
 10
3434.0
 20
-690.0
 10
3574.0
 20
-690.0
 10
3574.0
 20
-685.0
 10
3434.0
 20
-685.0
  0
LWPOLYLINE
  5
2DF
330
17
100
AcDbEntity
  8
FRAME-CRIPPLE
100
AcDbPolyline
 90
4
 70
1
 10
3491.5
 20
-775.0
 10
3496.5
 20
-775.0
 10
3496.5
 20
-690.0
 10
3491.5
 20
-690.0
  0
LWPOLYLINE
  5
2E0
330
17
100
AcDbEntity
  8
FRAME-CRIPPLE
100
AcDbPolyline
 90
4
 70
1
 10
3551.5
 20
-775.0
 10
3556.5
 20
-775.0
 10
3556.5
 20
-690.0
 10
3551.5
 20
-690.0
  0
LWPOLYLINE
  5
2E1
330
17
100
AcDbEntity
  8
FRAME-STUD
100
AcDbPolyline
 90
4
 70
1
 10
2951.5
 20
-775.0
 10
2956.5
 20
-775.0
 10
2956.5
 20
-505.0
 10
2951.5
 20
-505.0
  0
LWPOLYLINE
  5
2E2
330
17
100
AcDbEntity
  8
FRAME-STUD
100
AcDbPolyline
 90
4
 70
1
 10
3071.5
 20
-775.0
 10
3076.5
 20
-775.0
 10
3076.5
 20
-505.0
 10
3071.5
 20
-505.0
  0
LWPOLYLINE
  5
2E3
330
17
100
AcDbEntity
  8
FRAME-STUD
100
AcDbPolyline
 90
4
 70
1
 10
3131.5
 20
-775.0
 10
3136.5
 20
-775.0
 10
3136.5
 20
-505.0
 10
3131.5
 20
-505.0
  0
LWPOLYLINE
  5
2E4
330
17
100
AcDbEntity
  8
FRAME-STUD
100
AcDbPolyline
 90
4
 70
1
 10
3311.5
 20
-775.0
 10
3316.5
 20
-775.0
 10
3316.5
 20
-505.0
 10
3311.5
 20
-505.0
  0
LWPOLYLINE
  5
2E5
330
17
100
AcDbEntity
  8
FRAME-STUD
100
AcDbPolyline
 90
4
 70
1
 10
3371.5
 20
-775.0
 10
3376.5
 20
-775.0
 10
3376.5
 20
-505.0
 10
3371.5
 20
-505.0
  0
LWPOLYLINE
  5
2E6
330
17
100
AcDbEntity
  8
FRAME-STUD
100
AcDbPolyline
 90
4
 70
1
 10
3611.5
 20
-775.0
 10
3616.5
 20
-775.0
 10
3616.5
 20
-505.0
 10
3611.5
 20
-505.0
  0
LWPOLYLINE
  5
2E7
330
17
100
AcDbEntity
  8
OPENING
100
AcDbPolyline
 90
4
 70
1
 10
2974.0
 20
-625.0
 10
3034.0
 20
-625.0
 10
3034.0
 20
-565.0
 10
2974.0
 20
-565.0
  0
LWPOLYLINE
  5
2E8
330
17
100
AcDbEntity
  8
OPENING
100
AcDbPolyline
 90
4
 70
1
 10
3194.0
 20
-625.0
 10
3254.0
 20
-625.0
 10
3254.0
 20
-565.0
 10
3194.0
 20
-565.0
  0
LWPOLYLINE
  5
2E9
330
17
100
AcDbEntity
  8
OPENING
100
AcDbPolyline
 90
4
 70
1
 10
3434.0
 20
-685.0
 10
3574.0
 20
-685.0
 10
3574.0
 20
-565.0
 10
3434.0
 20
-565.0
  0
TEXT
  5
2EA
330
17
100
AcDbEntity
  8
TEXT
100
AcDbText
 10
2894.0
 20
-470.0
 30
0.0
 40
15.0
  1
أ-غرب  L=758  H=280
 11
2894.0
 21
-470.0
 31
0.0
100
AcDbText
  0
DIMENSION
  5
2EB
330
17
100
AcDbEntity
  8
DIM
100
AcDbDimension
280
0
  2
*D26
  3
EZDXF
 10
2894.0
 20
-830.0
 30
0.0
 11
3273.0
 21
-829.775
 31
0.0
 70
32
 71
5
  1
<>
100
AcDbAlignedDimension
 13
2894.0
 23
-780.0
 33
0.0
 14
3652.0
 24
-780.0
 34
0.0
 50
0.0
100
AcDbRotatedDimension
  0
LWPOLYLINE
  5
2FA
330
17
100
AcDbEntity
  8
FRAME-PLATE
100
AcDbPolyline
 90
4
 70
1
 10
3852.0
 20
-780.0
 10
4280.0
 20
-780.0
 10
4280.0
 20
-775.0
 10
3852.0
 20
-775.0
  0
LWPOLYLINE
  5
2FB
330
17
100
AcDbEntity
  8
FRAME-PLATE
100
AcDbPolyline
 90
4
 70
1
 10
3852.0
 20
-505.0
 10
4280.0
 20
-505.0
 10
4280.0
 20
-500.0
 10
3852.0
 20
-500.0
  0
LWPOLYLINE
  5
2FC
330
17
100
AcDbEntity
  8
FRAME-STUD
100
AcDbPolyline
 90
4
 70
1
 10
3852.0
 20
-775.0
 10
3857.0
 20
-775.0
 10
3857.0
 20
-505.0
 10
3852.0
 20
-505.0
  0
LWPOLYLINE
  5
2FD
330
17
100
AcDbEntity
  8
FRAME-STUD
100
AcDbPolyline
 90
4
 70
1
 10
4275.0
 20
-775.0
 10
4280.0
 20
-775.0
 10
4280.0
 20
-505.0
 10
4275.0
 20
-505.0
  0
LWPOLYLINE
  5
2FE
330
17
100
AcDbEntity
  8
FRAME-OPENING
100
AcDbPolyline
 90
4
 70
1
 10
3863.0
 20
-775.0
 10
3868.0
 20
-775.0
 10
3868.0
 20
-505.0
 10
3863.0
 20
-505.0
  0
LWPOLYLINE
  5
2FF
330
17
100
AcDbEntity
  8
FRAME-OPENING
100
AcDbPolyline
 90
4
 70
1
 10
3938.0
 20
-775.0
 10
3943.0
 20
-775.0
 10
3943.0
 20
-505.0
 10
3938.0
 20
-505.0
  0
LWPOLYLINE
  5
300
330
17
100
AcDbEntity
  8
FRAME-OPENING
100
AcDbPolyline
 90
4
 70
1
 10
3868.0
 20
-565.0
 10
3938.0
 20
-565.0
 10
3938.0
 20
-560.0
 10
3868.0
 20
-560.0
  0
LWPOLYLINE
  5
301
330
17
100
AcDbEntity
  8
FRAME-OPENING
100
AcDbPolyline
 90
4
 70
1
 10
4127.0
 20
-775.0
 10
4132.0
 20
-775.0
 10
4132.0
 20
-505.0
 10
4127.0
 20
-505.0
  0
LWPOLYLINE
  5
302
330
17
100
AcDbEntity
  8
FRAME-OPENING
100
AcDbPolyline
 90
4
 70
1
 10
4202.0
 20
-775.0
 10
4207.0
 20
-775.0
 10
4207.0
 20
-505.0
 10
4202.0
 20
-505.0
  0
LWPOLYLINE
  5
303
330
17
100
AcDbEntity
  8
FRAME-OPENING
100
AcDbPolyline
 90
4
 70
1
 10
4132.0
 20
-565.0
 10
4202.0
 20
-565.0
 10
4202.0
 20
-560.0
 10
4132.0
 20
-560.0
  0
LWPOLYLINE
  5
304
330
17
100
AcDbEntity
  8
FRAME-STUD
100
AcDbPolyline
 90
4
 70
1
 10
3969.5
 20
-775.0
 10
3974.5
 20
-775.0
 10
3974.5
 20
-505.0
 10
3969.5
 20
-505.0
  0
LWPOLYLINE
  5
305
330
17
100
AcDbEntity
  8
FRAME-STUD
100
AcDbPolyline
 90
4
 70
1
 10
4029.5
 20
-775.0
 10
4034.5
 20
-775.0
 10
4034.5
 20
-505.0
 10
4029.5
 20
-505.0
  0
LWPOLYLINE
  5
306
330
17
100
AcDbEntity
  8
FRAME-STUD
100
AcDbPolyline
 90
4
 70
1
 10
4089.5
 20
-775.0
 10
4094.5
 20
-775.0
 10
4094.5
 20
-505.0
 10
4089.5
 20
-505.0
  0
LWPOLYLINE
  5
307
330
17
100
AcDbEntity
  8
FRAME-STUD
100
AcDbPolyline
 90
4
 70
1
 10
4209.5
 20
-775.0
 10
4214.5
 20
-775.0
 10
4214.5
 20
-505.0
 10
4209.5
 20
-505.0
  0
LWPOLYLINE
  5
308
330
17
100
AcDbEntity
  8
FRAME-STUD
100
AcDbPolyline
 90
4
 70
1
 10
4269.5
 20
-775.0
 10
4274.5
 20
-775.0
 10
4274.5
 20
-505.0
 10
4269.5
 20
-505.0
  0
LWPOLYLINE
  5
309
330
17
100
AcDbEntity
  8
OPENING
100
AcDbPolyline
 90
4
 70
1
 10
3868.0
 20
-775.0
 10
3938.0
 20
-775.0
 10
3938.0
 20
-565.0
 10
3868.0
 20
-565.0
  0
LWPOLYLINE
  5
30A
330
17
100
AcDbEntity
  8
OPENING
100
AcDbPolyline
 90
4
 70
1
 10
4132.0
 20
-775.0
 10
4202.0
 20
-775.0
 10
4202.0
 20
-565.0
 10
4132.0
 20
-565.0
  0
TEXT
  5
30B
330
17
100
AcDbEntity
  8
TEXT
100
AcDbText
 10
3852.0
 20
-470.0
 30
0.0
 40
15.0
  1
أ-جدار الحمامات  L=428  H=280
 11
3852.0
 21
-470.0
 31
0.0
100
AcDbText
  0
DIMENSION
  5
30C
330
17
100
AcDbEntity
  8
DIM
100
AcDbDimension
280
0
  2
*D27
  3
EZDXF
 10
3852.0
 20
-830.0
 30
0.0
 11
4066.0
 21
-829.775
 31
0.0
 70
32
 71
5
  1
<>
100
AcDbAlignedDimension
 13
3852.0
 23
-780.0
 33
0.0
 14
4280.0
 24
-780.0
 34
0.0
 50
0.0
100
AcDbRotatedDimension
  0
LWPOLYLINE
  5
31B
330
17
100
AcDbEntity
  8
FRAME-PLATE
100
AcDbPolyline
 90
4
 70
1
 10
4480.0
 20
-780.0
 10
4642.0
 20
-780.0
 10
4642.0
 20
-775.0
 10
4480.0
 20
-775.0
  0
LWPOLYLINE
  5
31C
330
17
100
AcDbEntity
  8
FRAME-PLATE
100
AcDbPolyline
 90
4
 70
1
 10
4480.0
 20
-505.0
 10
4642.0
 20
-505.0
 10
4642.0
 20
-500.0
 10
4480.0
 20
-500.0
  0
LWPOLYLINE
  5
31D
330
17
100
AcDbEntity
  8
FRAME-STUD
100
AcDbPolyline
 90
4
 70
1
 10
4480.0
 20
-775.0
 10
4485.0
 20
-775.0
 10
4485.0
 20
-505.0
 10
4480.0
 20
-505.0
  0
LWPOLYLINE
  5
31E
330
17
100
AcDbEntity
  8
FRAME-STUD
100
AcDbPolyline
 90
4
 70
1
 10
4637.0
 20
-775.0
 10
4642.0
 20
-775.0
 10
4642.0
 20
-505.0
 10
4637.0
 20
-505.0
  0
LWPOLYLINE
  5
31F
330
17
100
AcDbEntity
  8
FRAME-STUD
100
AcDbPolyline
 90
4
 70
1
 10
4537.5
 20
-775.0
 10
4542.5
 20
-775.0
 10
4542.5
 20
-505.0
 10
4537.5
 20
-505.0
  0
LWPOLYLINE
  5
320
330
17
100
AcDbEntity
  8
FRAME-STUD
100
AcDbPolyline
 90
4
 70
1
 10
4597.5
 20
-775.0
 10
4602.5
 20
-775.0
 10
4602.5
 20
-505.0
 10
4597.5
 20
-505.0
  0
TEXT
  5
321
330
17
100
AcDbEntity
  8
TEXT
100
AcDbText
 10
4480.0
 20
-470.0
 30
0.0
 40
15.0
  1
أ-فاصل الحمامين  L=162  H=280
 11
4480.0
 21
-470.0
 31
0.0
100
AcDbText
  0
DIMENSION
  5
322
330
17
100
AcDbEntity
  8
DIM
100
AcDbDimension
280
0
  2
*D28
  3
EZDXF
 10
4480.0
 20
-830.0
 30
0.0
 11
4561.0
 21
-829.775
 31
0.0
 70
32
 71
5
  1
<>
100
AcDbAlignedDimension
 13
4480.0
 23
-780.0
 33
0.0
 14
4642.0
 24
-780.0
 34
0.0
 50
0.0
100
AcDbRotatedDimension
  0
LWPOLYLINE
  5
331
330
17
100
AcDbEntity
  8
FRAME-PLATE
100
AcDbPolyline
 90
4
 70
1
 10
4842.0
 20
-780.0
 10
5004.0
 20
-780.0
 10
5004.0
 20
-775.0
 10
4842.0
 20
-775.0
  0
LWPOLYLINE
  5
332
330
17
100
AcDbEntity
  8
FRAME-PLATE
100
AcDbPolyline
 90
4
 70
1
 10
4842.0
 20
-505.0
 10
5004.0
 20
-505.0
 10
5004.0
 20
-500.0
 10
4842.0
 20
-500.0
  0
LWPOLYLINE
  5
333
330
17
100
AcDbEntity
  8
FRAME-STUD
100
AcDbPolyline
 90
4
 70
1
 10
4842.0
 20
-775.0
 10
4847.0
 20
-775.0
 10
4847.0
 20
-505.0
 10
4842.0
 20
-505.0
  0
LWPOLYLINE
  5
334
330
17
100
AcDbEntity
  8
FRAME-STUD
100
AcDbPolyline
 90
4
 70
1
 10
4999.0
 20
-775.0
 10
5004.0
 20
-775.0
 10
5004.0
 20
-505.0
 10
4999.0
 20
-505.0
  0
LWPOLYLINE
  5
335
330
17
100
AcDbEntity
  8
FRAME-STUD
100
AcDbPolyline
 90
4
 70
1
 10
4899.5
 20
-775.0
 10
4904.5
 20
-775.0
 10
4904.5
 20
-505.0
 10
4899.5
 20
-505.0
  0
LWPOLYLINE
  5
336
330
17
100
AcDbEntity
  8
FRAME-STUD
100
AcDbPolyline
 90
4
 70
1
 10
4959.5
 20
-775.0
 10
4964.5
 20
-775.0
 10
4964.5
 20
-505.0
 10
4959.5
 20
-505.0
  0
TEXT
  5
337
330
17
100
AcDbEntity
  8
TEXT
100
AcDbText
 10
4842.0
 20
-470.0
 30
0.0
 40
15.0
  1
أ-حمام الضيوف جنوب  L=162  H=280
 11
4842.0
 21
-470.0
 31
0.0
100
AcDbText
  0
DIMENSION
  5
338
330
17
100
AcDbEntity
  8
DIM
100
AcDbDimension
280
0
  2
*D29
  3
EZDXF
 10
4842.0
 20
-830.0
 30
0.0
 11
4923.0
 21
-829.775
 31
0.0
 70
32
 71
5
  1
<>
100
AcDbAlignedDimension
 13
4842.0
 23
-780.0
 33
0.0
 14
5004.0
 24
-780.0
 34
0.0
 50
0.0
100
AcDbRotatedDimension
  0
LWPOLYLINE
  5
347
330
17
100
AcDbEntity
  8
FRAME-PLATE
100
AcDbPolyline
 90
4
 70
1
 10
5204.0
 20
-780.0
 10
5462.0
 20
-780.0
 10
5462.0
 20
-775.0
 10
5204.0
 20
-775.0
  0
LWPOLYLINE
  5
348
330
17
100
AcDbEntity
  8
FRAME-PLATE
100
AcDbPolyline
 90
4
 70
1
 10
5204.0
 20
-505.0
 10
5462.0
 20
-505.0
 10
5462.0
 20
-500.0
 10
5204.0
 20
-500.0
  0
LWPOLYLINE
  5
349
330
17
100
AcDbEntity
  8
FRAME-STUD
100
AcDbPolyline
 90
4
 70
1
 10
5204.0
 20
-775.0
 10
5209.0
 20
-775.0
 10
5209.0
 20
-505.0
 10
5204.0
 20
-505.0
  0
LWPOLYLINE
  5
34A
330
17
100
AcDbEntity
  8
FRAME-STUD
100
AcDbPolyline
 90
4
 70
1
 10
5457.0
 20
-775.0
 10
5462.0
 20
-775.0
 10
5462.0
 20
-505.0
 10
5457.0
 20
-505.0
  0
LWPOLYLINE
  5
34B
330
17
100
AcDbEntity
  8
FRAME-OPENING
100
AcDbPolyline
 90
4
 70
1
 10
5239.0
 20
-775.0
 10
5244.0
 20
-775.0
 10
5244.0
 20
-505.0
 10
5239.0
 20
-505.0
  0
LWPOLYLINE
  5
34C
330
17
100
AcDbEntity
  8
FRAME-OPENING
100
AcDbPolyline
 90
4
 70
1
 10
5344.0
 20
-775.0
 10
5349.0
 20
-775.0
 10
5349.0
 20
-505.0
 10
5344.0
 20
-505.0
  0
LWPOLYLINE
  5
34D
330
17
100
AcDbEntity
  8
FRAME-OPENING
100
AcDbPolyline
 90
4
 70
1
 10
5244.0
 20
-565.0
 10
5344.0
 20
-565.0
 10
5344.0
 20
-560.0
 10
5244.0
 20
-560.0
  0
LWPOLYLINE
  5
34E
330
17
100
AcDbEntity
  8
FRAME-STUD
100
AcDbPolyline
 90
4
 70
1
 10
5381.5
 20
-775.0
 10
5386.5
 20
-775.0
 10
5386.5
 20
-505.0
 10
5381.5
 20
-505.0
  0
LWPOLYLINE
  5
34F
330
17
100
AcDbEntity
  8
FRAME-STUD
100
AcDbPolyline
 90
4
 70
1
 10
5441.5
 20
-775.0
 10
5446.5
 20
-775.0
 10
5446.5
 20
-505.0
 10
5441.5
 20
-505.0
  0
LWPOLYLINE
  5
350
330
17
100
AcDbEntity
  8
OPENING
100
AcDbPolyline
 90
4
 70
1
 10
5244.0
 20
-775.0
 10
5344.0
 20
-775.0
 10
5344.0
 20
-565.0
 10
5244.0
 20
-565.0
  0
TEXT
  5
351
330
17
100
AcDbEntity
  8
TEXT
100
AcDbText
 10
5204.0
 20
-470.0
 30
0.0
 40
15.0
  1
أ-مطبخ شمال  L=258  H=280
 11
5204.0
 21
-470.0
 31
0.0
100
AcDbText
  0
DIMENSION
  5
352
330
17
100
AcDbEntity
  8
DIM
100
AcDbDimension
280
0
  2
*D30
  3
EZDXF
 10
5204.0
 20
-830.0
 30
0.0
 11
5333.0
 21
-829.775
 31
0.0
 70
32
 71
5
  1
<>
100
AcDbAlignedDimension
 13
5204.0
 23
-780.0
 33
0.0
 14
5462.0
 24
-780.0
 34
0.0
 50
0.0
100
AcDbRotatedDimension
  0
LWPOLYLINE
  5
361
330
17
100
AcDbEntity
  8
FRAME-PLATE
100
AcDbPolyline
 90
4
 70
1
 10
5662.0
 20
-780.0
 10
5992.0
 20
-780.0
 10
5992.0
 20
-775.0
 10
5662.0
 20
-775.0
  0
LWPOLYLINE
  5
362
330
17
100
AcDbEntity
  8
FRAME-PLATE
100
AcDbPolyline
 90
4
 70
1
 10
5662.0
 20
-505.0
 10
5992.0
 20
-505.0
 10
5992.0
 20
-500.0
 10
5662.0
 20
-500.0
  0
LWPOLYLINE
  5
363
330
17
100
AcDbEntity
  8
FRAME-STUD
100
AcDbPolyline
 90
4
 70
1
 10
5662.0
 20
-775.0
 10
5667.0
 20
-775.0
 10
5667.0
 20
-505.0
 10
5662.0
 20
-505.0
  0
LWPOLYLINE
  5
364
330
17
100
AcDbEntity
  8
FRAME-STUD
100
AcDbPolyline
 90
4
 70
1
 10
5987.0
 20
-775.0
 10
5992.0
 20
-775.0
 10
5992.0
 20
-505.0
 10
5987.0
 20
-505.0
  0
LWPOLYLINE
  5
365
330
17
100
AcDbEntity
  8
FRAME-STUD
100
AcDbPolyline
 90
4
 70
1
 10
5719.5
 20
-775.0
 10
5724.5
 20
-775.0
 10
5724.5
 20
-505.0
 10
5719.5
 20
-505.0
  0
LWPOLYLINE
  5
366
330
17
100
AcDbEntity
  8
FRAME-STUD
100
AcDbPolyline
 90
4
 70
1
 10
5779.5
 20
-775.0
 10
5784.5
 20
-775.0
 10
5784.5
 20
-505.0
 10
5779.5
 20
-505.0
  0
LWPOLYLINE
  5
367
330
17
100
AcDbEntity
  8
FRAME-STUD
100
AcDbPolyline
 90
4
 70
1
 10
5839.5
 20
-775.0
 10
5844.5
 20
-775.0
 10
5844.5
 20
-505.0
 10
5839.5
 20
-505.0
  0
LWPOLYLINE
  5
368
330
17
100
AcDbEntity
  8
FRAME-STUD
100
AcDbPolyline
 90
4
 70
1
 10
5899.5
 20
-775.0
 10
5904.5
 20
-775.0
 10
5904.5
 20
-505.0
 10
5899.5
 20
-505.0
  0
LWPOLYLINE
  5
369
330
17
100
AcDbEntity
  8
FRAME-STUD
100
AcDbPolyline
 90
4
 70
1
 10
5959.5
 20
-775.0
 10
5964.5
 20
-775.0
 10
5964.5
 20
-505.0
 10
5959.5
 20
-505.0
  0
TEXT
  5
36A
330
17
100
AcDbEntity
  8
TEXT
100
AcDbText
 10
5662.0
 20
-470.0
 30
0.0
 40
15.0
  1
أ-مطبخ غرب  L=330  H=280
 11
5662.0
 21
-470.0
 31
0.0
100
AcDbText
  0
DIMENSION
  5
36B
330
17
100
AcDbEntity
  8
DIM
100
AcDbDimension
280
0
  2
*D31
  3
EZDXF
 10
5662.0
 20
-830.0
 30
0.0
 11
5827.0
 21
-829.775
 31
0.0
 70
32
 71
5
  1
<>
100
AcDbAlignedDimension
 13
5662.0
 23
-780.0
 33
0.0
 14
5992.0
 24
-780.0
 34
0.0
 50
0.0
100
AcDbRotatedDimension
  0
LWPOLYLINE
  5
37A
330
17
100
AcDbEntity
  8
FRAME-PLATE
100
AcDbPolyline
 90
4
 70
1
 10
6192.0
 20
-780.0
 10
6540.0
 20
-780.0
 10
6540.0
 20
-775.0
 10
6192.0
 20
-775.0
  0
LWPOLYLINE
  5
37B
330
17
100
AcDbEntity
  8
FRAME-PLATE
100
AcDbPolyline
 90
4
 70
1
 10
6192.0
 20
-505.0
 10
6540.0
 20
-505.0
 10
6540.0
 20
-500.0
 10
6192.0
 20
-500.0
  0
LWPOLYLINE
  5
37C
330
17
100
AcDbEntity
  8
FRAME-STUD
100
AcDbPolyline
 90
4
 70
1
 10
6192.0
 20
-775.0
 10
6197.0
 20
-775.0
 10
6197.0
 20
-505.0
 10
6192.0
 20
-505.0
  0
LWPOLYLINE
  5
37D
330
17
100
AcDbEntity
  8
FRAME-STUD
100
AcDbPolyline
 90
4
 70
1
 10
6535.0
 20
-775.0
 10
6540.0
 20
-775.0
 10
6540.0
 20
-505.0
 10
6535.0
 20
-505.0
  0
LWPOLYLINE
  5
37E
330
17
100
AcDbEntity
  8
FRAME-OPENING
100
AcDbPolyline
 90
4
 70
1
 10
6237.0
 20
-775.0
 10
6242.0
 20
-775.0
 10
6242.0
 20
-505.0
 10
6237.0
 20
-505.0
  0
LWPOLYLINE
  5
37F
330
17
100
AcDbEntity
  8
FRAME-OPENING
100
AcDbPolyline
 90
4
 70
1
 10
6322.0
 20
-775.0
 10
6327.0
 20
-775.0
 10
6327.0
 20
-505.0
 10
6322.0
 20
-505.0
  0
LWPOLYLINE
  5
380
330
17
100
AcDbEntity
  8
FRAME-OPENING
100
AcDbPolyline
 90
4
 70
1
 10
6242.0
 20
-565.0
 10
6322.0
 20
-565.0
 10
6322.0
 20
-560.0
 10
6242.0
 20
-560.0
  0
LWPOLYLINE
  5
381
330
17
100
AcDbEntity
  8
FRAME-OPENING
100
AcDbPolyline
 90
4
 70
1
 10
6437.0
 20
-775.0
 10
6442.0
 20
-775.0
 10
6442.0
 20
-505.0
 10
6437.0
 20
-505.0
  0
LWPOLYLINE
  5
382
330
17
100
AcDbEntity
  8
FRAME-OPENING
100
AcDbPolyline
 90
4
 70
1
 10
6512.0
 20
-775.0
 10
6517.0
 20
-775.0
 10
6517.0
 20
-505.0
 10
6512.0
 20
-505.0
  0
LWPOLYLINE
  5
383
330
17
100
AcDbEntity
  8
FRAME-OPENING
100
AcDbPolyline
 90
4
 70
1
 10
6442.0
 20
-565.0
 10
6512.0
 20
-565.0
 10
6512.0
 20
-560.0
 10
6442.0
 20
-560.0
  0
LWPOLYLINE
  5
384
330
17
100
AcDbEntity
  8
FRAME-STUD
100
AcDbPolyline
 90
4
 70
1
 10
6369.5
 20
-775.0
 10
6374.5
 20
-775.0
 10
6374.5
 20
-505.0
 10
6369.5
 20
-505.0
  0
LWPOLYLINE
  5
385
330
17
100
AcDbEntity
  8
FRAME-STUD
100
AcDbPolyline
 90
4
 70
1
 10
6429.5
 20
-775.0
 10
6434.5
 20
-775.0
 10
6434.5
 20
-505.0
 10
6429.5
 20
-505.0
  0
LWPOLYLINE
  5
386
330
17
100
AcDbEntity
  8
OPENING
100
AcDbPolyline
 90
4
 70
1
 10
6242.0
 20
-775.0
 10
6322.0
 20
-775.0
 10
6322.0
 20
-565.0
 10
6242.0
 20
-565.0
  0
LWPOLYLINE
  5
387
330
17
100
AcDbEntity
  8
OPENING
100
AcDbPolyline
 90
4
 70
1
 10
6442.0
 20
-775.0
 10
6512.0
 20
-775.0
 10
6512.0
 20
-565.0
 10
6442.0
 20
-565.0
  0
TEXT
  5
388
330
17
100
AcDbEntity
  8
TEXT
100
AcDbText
 10
6192.0
 20
-470.0
 30
0.0
 40
15.0
  1
أ-جدار الخادمة  L=348  H=280
 11
6192.0
 21
-470.0
 31
0.0
100
AcDbText
  0
DIMENSION
  5
389
330
17
100
AcDbEntity
  8
DIM
100
AcDbDimension
280
0
  2
*D32
  3
EZDXF
 10
6192.0
 20
-830.0
 30
0.0
 11
6366.0
 21
-829.775
 31
0.0
 70
32
 71
5
  1
<>
100
AcDbAlignedDimension
 13
6192.0
 23
-780.0
 33
0.0
 14
6540.0
 24
-780.0
 34
0.0
 50
0.0
100
AcDbRotatedDimension
  0
LWPOLYLINE
  5
398
330
17
100
AcDbEntity
  8
FRAME-PLATE
100
AcDbPolyline
 90
4
 70
1
 10
6740.0
 20
-780.0
 10
7066.0
 20
-780.0
 10
7066.0
 20
-775.0
 10
6740.0
 20
-775.0
  0
LWPOLYLINE
  5
399
330
17
100
AcDbEntity
  8
FRAME-PLATE
100
AcDbPolyline
 90
4
 70
1
 10
6740.0
 20
-505.0
 10
7066.0
 20
-505.0
 10
7066.0
 20
-500.0
 10
6740.0
 20
-500.0
  0
LWPOLYLINE
  5
39A
330
17
100
AcDbEntity
  8
FRAME-STUD
100
AcDbPolyline
 90
4
 70
1
 10
6740.0
 20
-775.0
 10
6745.0
 20
-775.0
 10
6745.0
 20
-505.0
 10
6740.0
 20
-505.0
  0
LWPOLYLINE
  5
39B
330
17
100
AcDbEntity
  8
FRAME-STUD
100
AcDbPolyline
 90
4
 70
1
 10
7061.0
 20
-775.0
 10
7066.0
 20
-775.0
 10
7066.0
 20
-505.0
 10
7061.0
 20
-505.0
  0
LWPOLYLINE
  5
39C
330
17
100
AcDbEntity
  8
FRAME-STUD
100
AcDbPolyline
 90
4
 70
1
 10
6797.5
 20
-775.0
 10
6802.5
 20
-775.0
 10
6802.5
 20
-505.0
 10
6797.5
 20
-505.0
  0
LWPOLYLINE
  5
39D
330
17
100
AcDbEntity
  8
FRAME-STUD
100
AcDbPolyline
 90
4
 70
1
 10
6857.5
 20
-775.0
 10
6862.5
 20
-775.0
 10
6862.5
 20
-505.0
 10
6857.5
 20
-505.0
  0
LWPOLYLINE
  5
39E
330
17
100
AcDbEntity
  8
FRAME-STUD
100
AcDbPolyline
 90
4
 70
1
 10
6917.5
 20
-775.0
 10
6922.5
 20
-775.0
 10
6922.5
 20
-505.0
 10
6917.5
 20
-505.0
  0
LWPOLYLINE
  5
39F
330
17
100
AcDbEntity
  8
FRAME-STUD
100
AcDbPolyline
 90
4
 70
1
 10
6977.5
 20
-775.0
 10
6982.5
 20
-775.0
 10
6982.5
 20
-505.0
 10
6977.5
 20
-505.0
  0
LWPOLYLINE
  5
3A0
330
17
100
AcDbEntity
  8
FRAME-STUD
100
AcDbPolyline
 90
4
 70
1
 10
7037.5
 20
-775.0
 10
7042.5
 20
-775.0
 10
7042.5
 20
-505.0
 10
7037.5
 20
-505.0
  0
TEXT
  5
3A1
330
17
100
AcDbEntity
  8
TEXT
100
AcDbText
 10
6740.0
 20
-470.0
 30
0.0
 40
15.0
  1
أ-فاصل المخزن  L=326  H=280
 11
6740.0
 21
-470.0
 31
0.0
100
AcDbText
  0
DIMENSION
  5
3A2
330
17
100
AcDbEntity
  8
DIM
100
AcDbDimension
280
0
  2
*D33
  3
EZDXF
 10
6740.0
 20
-830.0
 30
0.0
 11
6903.0
 21
-829.775
 31
0.0
 70
32
 71
5
  1
<>
100
AcDbAlignedDimension
 13
6740.0
 23
-780.0
 33
0.0
 14
7066.0
 24
-780.0
 34
0.0
 50
0.0
100
AcDbRotatedDimension
  0
LWPOLYLINE
  5
3B1
330
17
100
AcDbEntity
  8
FRAME-PLATE
100
AcDbPolyline
 90
4
 70
1
 10
7266.0
 20
-780.0
 10
7592.0
 20
-780.0
 10
7592.0
 20
-775.0
 10
7266.0
 20
-775.0
  0
LWPOLYLINE
  5
3B2
330
17
100
AcDbEntity
  8
FRAME-PLATE
100
AcDbPolyline
 90
4
 70
1
 10
7266.0
 20
-505.0
 10
7592.0
 20
-505.0
 10
7592.0
 20
-500.0
 10
7266.0
 20
-500.0
  0
LWPOLYLINE
  5
3B3
330
17
100
AcDbEntity
  8
FRAME-STUD
100
AcDbPolyline
 90
4
 70
1
 10
7266.0
 20
-775.0
 10
7271.0
 20
-775.0
 10
7271.0
 20
-505.0
 10
7266.0
 20
-505.0
  0
LWPOLYLINE
  5
3B4
330
17
100
AcDbEntity
  8
FRAME-STUD
100
AcDbPolyline
 90
4
 70
1
 10
7587.0
 20
-775.0
 10
7592.0
 20
-775.0
 10
7592.0
 20
-505.0
 10
7587.0
 20
-505.0
  0
LWPOLYLINE
  5
3B5
330
17
100
AcDbEntity
  8
FRAME-STUD
100
AcDbPolyline
 90
4
 70
1
 10
7323.5
 20
-775.0
 10
7328.5
 20
-775.0
 10
7328.5
 20
-505.0
 10
7323.5
 20
-505.0
  0
LWPOLYLINE
  5
3B6
330
17
100
AcDbEntity
  8
FRAME-STUD
100
AcDbPolyline
 90
4
 70
1
 10
7383.5
 20
-775.0
 10
7388.5
 20
-775.0
 10
7388.5
 20
-505.0
 10
7383.5
 20
-505.0
  0
LWPOLYLINE
  5
3B7
330
17
100
AcDbEntity
  8
FRAME-STUD
100
AcDbPolyline
 90
4
 70
1
 10
7443.5
 20
-775.0
 10
7448.5
 20
-775.0
 10
7448.5
 20
-505.0
 10
7443.5
 20
-505.0
  0
LWPOLYLINE
  5
3B8
330
17
100
AcDbEntity
  8
FRAME-STUD
100
AcDbPolyline
 90
4
 70
1
 10
7503.5
 20
-775.0
 10
7508.5
 20
-775.0
 10
7508.5
 20
-505.0
 10
7503.5
 20
-505.0
  0
LWPOLYLINE
  5
3B9
330
17
100
AcDbEntity
  8
FRAME-STUD
100
AcDbPolyline
 90
4
 70
1
 10
7563.5
 20
-775.0
 10
7568.5
 20
-775.0
 10
7568.5
 20
-505.0
 10
7563.5
 20
-505.0
  0
TEXT
  5
3BA
330
17
100
AcDbEntity
  8
TEXT
100
AcDbText
 10
7266.0
 20
-470.0
 30
0.0
 40
15.0
  1
أ-جدار الدرج  L=326  H=280
 11
7266.0
 21
-470.0
 31
0.0
100
AcDbText
  0
DIMENSION
  5
3BB
330
17
100
AcDbEntity
  8
DIM
100
AcDbDimension
280
0
  2
*D34
  3
EZDXF
 10
7266.0
 20
-830.0
 30
0.0
 11
7429.0
 21
-829.775
 31
0.0
 70
32
 71
5
  1
<>
100
AcDbAlignedDimension
 13
7266.0
 23
-780.0
 33
0.0
 14
7592.0
 24
-780.0
 34
0.0
 50
0.0
100
AcDbRotatedDimension
  0
LWPOLYLINE
  5
3CA
330
17
100
AcDbEntity
  8
FRAME-PLATE
100
AcDbPolyline
 90
4
 70
1
 10
7792.0
 20
-780.0
 10
8560.0
 20
-780.0
 10
8560.0
 20
-775.0
 10
7792.0
 20
-775.0
  0
LWPOLYLINE
  5
3CB
330
17
100
AcDbEntity
  8
FRAME-PLATE
100
AcDbPolyline
 90
4
 70
1
 10
7792.0
 20
-505.0
 10
8560.0
 20
-505.0
 10
8560.0
 20
-500.0
 10
7792.0
 20
-500.0
  0
LWPOLYLINE
  5
3CC
330
17
100
AcDbEntity
  8
FRAME-STUD
100
AcDbPolyline
 90
4
 70
1
 10
7792.0
 20
-775.0
 10
7797.0
 20
-775.0
 10
7797.0
 20
-505.0
 10
7792.0
 20
-505.0
  0
LWPOLYLINE
  5
3CD
330
17
100
AcDbEntity
  8
FRAME-STUD
100
AcDbPolyline
 90
4
 70
1
 10
8555.0
 20
-775.0
 10
8560.0
 20
-775.0
 10
8560.0
 20
-505.0
 10
8555.0
 20
-505.0
  0
LWPOLYLINE
  5
3CE
330
17
100
AcDbEntity
  8
FRAME-OPENING
100
AcDbPolyline
 90
4
 70
1
 10
7907.0
 20
-775.0
 10
7912.0
 20
-775.0
 10
7912.0
 20
-505.0
 10
7907.0
 20
-505.0
  0
LWPOLYLINE
  5
3CF
330
17
100
AcDbEntity
  8
FRAME-OPENING
100
AcDbPolyline
 90
4
 70
1
 10
8032.0
 20
-775.0
 10
8037.0
 20
-775.0
 10
8037.0
 20
-505.0
 10
8032.0
 20
-505.0
  0
LWPOLYLINE
  5
3D0
330
17
100
AcDbEntity
  8
FRAME-OPENING
100
AcDbPolyline
 90
4
 70
1
 10
7912.0
 20
-565.0
 10
8032.0
 20
-565.0
 10
8032.0
 20
-560.0
 10
7912.0
 20
-560.0
  0
LWPOLYLINE
  5
3D1
330
17
100
AcDbEntity
  8
FRAME-OPENING
100
AcDbPolyline
 90
4
 70
1
 10
7912.0
 20
-680.0
 10
8032.0
 20
-680.0
 10
8032.0
 20
-675.0
 10
7912.0
 20
-675.0
  0
LWPOLYLINE
  5
3D2
330
17
100
AcDbEntity
  8
FRAME-CRIPPLE
100
AcDbPolyline
 90
4
 70
1
 10
7969.5
 20
-775.0
 10
7974.5
 20
-775.0
 10
7974.5
 20
-680.0
 10
7969.5
 20
-680.0
  0
LWPOLYLINE
  5
3D3
330
17
100
AcDbEntity
  8
FRAME-OPENING
100
AcDbPolyline
 90
4
 70
1
 10
8315.0
 20
-775.0
 10
8320.0
 20
-775.0
 10
8320.0
 20
-505.0
 10
8315.0
 20
-505.0
  0
LWPOLYLINE
  5
3D4
330
17
100
AcDbEntity
  8
FRAME-OPENING
100
AcDbPolyline
 90
4
 70
1
 10
8440.0
 20
-775.0
 10
8445.0
 20
-775.0
 10
8445.0
 20
-505.0
 10
8440.0
 20
-505.0
  0
LWPOLYLINE
  5
3D5
330
17
100
AcDbEntity
  8
FRAME-OPENING
100
AcDbPolyline
 90
4
 70
1
 10
8320.0
 20
-565.0
 10
8440.0
 20
-565.0
 10
8440.0
 20
-560.0
 10
8320.0
 20
-560.0
  0
LWPOLYLINE
  5
3D6
330
17
100
AcDbEntity
  8
FRAME-OPENING
100
AcDbPolyline
 90
4
 70
1
 10
8320.0
 20
-680.0
 10
8440.0
 20
-680.0
 10
8440.0
 20
-675.0
 10
8320.0
 20
-675.0
  0
LWPOLYLINE
  5
3D7
330
17
100
AcDbEntity
  8
FRAME-CRIPPLE
100
AcDbPolyline
 90
4
 70
1
 10
8329.5
 20
-775.0
 10
8334.5
 20
-775.0
 10
8334.5
 20
-680.0
 10
8329.5
 20
-680.0
  0
LWPOLYLINE
  5
3D8
330
17
100
AcDbEntity
  8
FRAME-CRIPPLE
100
AcDbPolyline
 90
4
 70
1
 10
8389.5
 20
-775.0
 10
8394.5
 20
-775.0
 10
8394.5
 20
-680.0
 10
8389.5
 20
-680.0
  0
LWPOLYLINE
  5
3D9
330
17
100
AcDbEntity
  8
FRAME-STUD
100
AcDbPolyline
 90
4
 70
1
 10
7849.5
 20
-775.0
 10
7854.5
 20
-775.0
 10
7854.5
 20
-505.0
 10
7849.5
 20
-505.0
  0
LWPOLYLINE
  5
3DA
330
17
100
AcDbEntity
  8
FRAME-STUD
100
AcDbPolyline
 90
4
 70
1
 10
8089.5
 20
-775.0
 10
8094.5
 20
-775.0
 10
8094.5
 20
-505.0
 10
8089.5
 20
-505.0
  0
LWPOLYLINE
  5
3DB
330
17
100
AcDbEntity
  8
FRAME-STUD
100
AcDbPolyline
 90
4
 70
1
 10
8149.5
 20
-775.0
 10
8154.5
 20
-775.0
 10
8154.5
 20
-505.0
 10
8149.5
 20
-505.0
  0
LWPOLYLINE
  5
3DC
330
17
100
AcDbEntity
  8
FRAME-STUD
100
AcDbPolyline
 90
4
 70
1
 10
8209.5
 20
-775.0
 10
8214.5
 20
-775.0
 10
8214.5
 20
-505.0
 10
8209.5
 20
-505.0
  0
LWPOLYLINE
  5
3DD
330
17
100
AcDbEntity
  8
FRAME-STUD
100
AcDbPolyline
 90
4
 70
1
 10
8269.5
 20
-775.0
 10
8274.5
 20
-775.0
 10
8274.5
 20
-505.0
 10
8269.5
 20
-505.0
  0
LWPOLYLINE
  5
3DE
330
17
100
AcDbEntity
  8
FRAME-STUD
100
AcDbPolyline
 90
4
 70
1
 10
8449.5
 20
-775.0
 10
8454.5
 20
-775.0
 10
8454.5
 20
-505.0
 10
8449.5
 20
-505.0
  0
LWPOLYLINE
  5
3DF
330
17
100
AcDbEntity
  8
FRAME-STUD
100
AcDbPolyline
 90
4
 70
1
 10
8509.5
 20
-775.0
 10
8514.5
 20
-775.0
 10
8514.5
 20
-505.0
 10
8509.5
 20
-505.0
  0
LWPOLYLINE
  5
3E0
330
17
100
AcDbEntity
  8
OPENING
100
AcDbPolyline
 90
4
 70
1
 10
7912.0
 20
-675.0
 10
8032.0
 20
-675.0
 10
8032.0
 20
-565.0
 10
7912.0
 20
-565.0
  0
LWPOLYLINE
  5
3E1
330
17
100
AcDbEntity
  8
OPENING
100
AcDbPolyline
 90
4
 70
1
 10
8320.0
 20
-675.0
 10
8440.0
 20
-675.0
 10
8440.0
 20
-565.0
 10
8320.0
 20
-565.0
  0
TEXT
  5
3E2
330
17
100
AcDbEntity
  8
TEXT
100
AcDbText
 10
7792.0
 20
-470.0
 30
0.0
 40
15.0
  1
ب-جنوب  L=768  H=280
 11
7792.0
 21
-470.0
 31
0.0
100
AcDbText
  0
DIMENSION
  5
3E3
330
17
100
AcDbEntity
  8
DIM
100
AcDbDimension
280
0
  2
*D35
  3
EZDXF
 10
7792.0
 20
-830.0
 30
0.0
 11
8176.0
 21
-829.775
 31
0.0
 70
32
 71
5
  1
<>
100
AcDbAlignedDimension
 13
7792.0
 23
-780.0
 33
0.0
 14
8560.0
 24
-780.0
 34
0.0
 50
0.0
100
AcDbRotatedDimension
  0
LWPOLYLINE
  5
3F2
330
17
100
AcDbEntity
  8
FRAME-PLATE
100
AcDbPolyline
 90
4
 70
1
 10
8760.0
 20
-780.0
 10
9518.0
 20
-780.0
 10
9518.0
 20
-775.0
 10
8760.0
 20
-775.0
  0
LWPOLYLINE
  5
3F3
330
17
100
AcDbEntity
  8
FRAME-PLATE
100
AcDbPolyline
 90
4
 70
1
 10
8760.0
 20
-505.0
 10
9518.0
 20
-505.0
 10
9518.0
 20
-500.0
 10
8760.0
 20
-500.0
  0
LWPOLYLINE
  5
3F4
330
17
100
AcDbEntity
  8
FRAME-STUD
100
AcDbPolyline
 90
4
 70
1
 10
8760.0
 20
-775.0
 10
8765.0
 20
-775.0
 10
8765.0
 20
-505.0
 10
8760.0
 20
-505.0
  0
LWPOLYLINE
  5
3F5
330
17
100
AcDbEntity
  8
FRAME-STUD
100
AcDbPolyline
 90
4
 70
1
 10
9513.0
 20
-775.0
 10
9518.0
 20
-775.0
 10
9518.0
 20
-505.0
 10
9513.0
 20
-505.0
  0
LWPOLYLINE
  5
3F6
330
17
100
AcDbEntity
  8
FRAME-OPENING
100
AcDbPolyline
 90
4
 70
1
 10
8855.0
 20
-775.0
 10
8860.0
 20
-775.0
 10
8860.0
 20
-505.0
 10
8855.0
 20
-505.0
  0
LWPOLYLINE
  5
3F7
330
17
100
AcDbEntity
  8
FRAME-OPENING
100
AcDbPolyline
 90
4
 70
1
 10
8960.0
 20
-775.0
 10
8965.0
 20
-775.0
 10
8965.0
 20
-505.0
 10
8960.0
 20
-505.0
  0
LWPOLYLINE
  5
3F8
330
17
100
AcDbEntity
  8
FRAME-OPENING
100
AcDbPolyline
 90
4
 70
1
 10
8860.0
 20
-565.0
 10
8960.0
 20
-565.0
 10
8960.0
 20
-560.0
 10
8860.0
 20
-560.0
  0
LWPOLYLINE
  5
3F9
330
17
100
AcDbEntity
  8
FRAME-OPENING
100
AcDbPolyline
 90
4
 70
1
 10
8860.0
 20
-680.0
 10
8960.0
 20
-680.0
 10
8960.0
 20
-675.0
 10
8860.0
 20
-675.0
  0
LWPOLYLINE
  5
3FA
330
17
100
AcDbEntity
  8
FRAME-CRIPPLE
100
AcDbPolyline
 90
4
 70
1
 10
8877.5
 20
-775.0
 10
8882.5
 20
-775.0
 10
8882.5
 20
-680.0
 10
8877.5
 20
-680.0
  0
LWPOLYLINE
  5
3FB
330
17
100
AcDbEntity
  8
FRAME-CRIPPLE
100
AcDbPolyline
 90
4
 70
1
 10
8937.5
 20
-775.0
 10
8942.5
 20
-775.0
 10
8942.5
 20
-680.0
 10
8937.5
 20
-680.0
  0
LWPOLYLINE
  5
3FC
330
17
100
AcDbEntity
  8
FRAME-OPENING
100
AcDbPolyline
 90
4
 70
1
 10
9315.0
 20
-775.0
 10
9320.0
 20
-775.0
 10
9320.0
 20
-505.0
 10
9315.0
 20
-505.0
  0
LWPOLYLINE
  5
3FD
330
17
100
AcDbEntity
  8
FRAME-OPENING
100
AcDbPolyline
 90
4
 70
1
 10
9420.0
 20
-775.0
 10
9425.0
 20
-775.0
 10
9425.0
 20
-505.0
 10
9420.0
 20
-505.0
  0
LWPOLYLINE
  5
3FE
330
17
100
AcDbEntity
  8
FRAME-OPENING
100
AcDbPolyline
 90
4
 70
1
 10
9320.0
 20
-565.0
 10
9420.0
 20
-565.0
 10
9420.0
 20
-560.0
 10
9320.0
 20
-560.0
  0
LWPOLYLINE
  5
3FF
330
17
100
AcDbEntity
  8
FRAME-OPENING
100
AcDbPolyline
 90
4
 70
1
 10
9320.0
 20
-680.0
 10
9420.0
 20
-680.0
 10
9420.0
 20
-675.0
 10
9320.0
 20
-675.0
  0
LWPOLYLINE
  5
400
330
17
100
AcDbEntity
  8
FRAME-CRIPPLE
100
AcDbPolyline
 90
4
 70
1
 10
9357.5
 20
-775.0
 10
9362.5
 20
-775.0
 10
9362.5
 20
-680.0
 10
9357.5
 20
-680.0
  0
LWPOLYLINE
  5
401
330
17
100
AcDbEntity
  8
FRAME-STUD
100
AcDbPolyline
 90
4
 70
1
 10
8817.5
 20
-775.0
 10
8822.5
 20
-775.0
 10
8822.5
 20
-505.0
 10
8817.5
 20
-505.0
  0
LWPOLYLINE
  5
402
330
17
100
AcDbEntity
  8
FRAME-STUD
100
AcDbPolyline
 90
4
 70
1
 10
8997.5
 20
-775.0
 10
9002.5
 20
-775.0
 10
9002.5
 20
-505.0
 10
8997.5
 20
-505.0
  0
LWPOLYLINE
  5
403
330
17
100
AcDbEntity
  8
FRAME-STUD
100
AcDbPolyline
 90
4
 70
1
 10
9057.5
 20
-775.0
 10
9062.5
 20
-775.0
 10
9062.5
 20
-505.0
 10
9057.5
 20
-505.0
  0
LWPOLYLINE
  5
404
330
17
100
AcDbEntity
  8
FRAME-STUD
100
AcDbPolyline
 90
4
 70
1
 10
9117.5
 20
-775.0
 10
9122.5
 20
-775.0
 10
9122.5
 20
-505.0
 10
9117.5
 20
-505.0
  0
LWPOLYLINE
  5
405
330
17
100
AcDbEntity
  8
FRAME-STUD
100
AcDbPolyline
 90
4
 70
1
 10
9177.5
 20
-775.0
 10
9182.5
 20
-775.0
 10
9182.5
 20
-505.0
 10
9177.5
 20
-505.0
  0
LWPOLYLINE
  5
406
330
17
100
AcDbEntity
  8
FRAME-STUD
100
AcDbPolyline
 90
4
 70
1
 10
9237.5
 20
-775.0
 10
9242.5
 20
-775.0
 10
9242.5
 20
-505.0
 10
9237.5
 20
-505.0
  0
LWPOLYLINE
  5
407
330
17
100
AcDbEntity
  8
FRAME-STUD
100
AcDbPolyline
 90
4
 70
1
 10
9297.5
 20
-775.0
 10
9302.5
 20
-775.0
 10
9302.5
 20
-505.0
 10
9297.5
 20
-505.0
  0
LWPOLYLINE
  5
408
330
17
100
AcDbEntity
  8
FRAME-STUD
100
AcDbPolyline
 90
4
 70
1
 10
9477.5
 20
-775.0
 10
9482.5
 20
-775.0
 10
9482.5
 20
-505.0
 10
9477.5
 20
-505.0
  0
LWPOLYLINE
  5
409
330
17
100
AcDbEntity
  8
OPENING
100
AcDbPolyline
 90
4
 70
1
 10
8860.0
 20
-675.0
 10
8960.0
 20
-675.0
 10
8960.0
 20
-565.0
 10
8860.0
 20
-565.0
  0
LWPOLYLINE
  5
40A
330
17
100
AcDbEntity
  8
OPENING
100
AcDbPolyline
 90
4
 70
1
 10
9320.0
 20
-675.0
 10
9420.0
 20
-675.0
 10
9420.0
 20
-565.0
 10
9320.0
 20
-565.0
  0
TEXT
  5
40B
330
17
100
AcDbEntity
  8
TEXT
100
AcDbText
 10
8760.0
 20
-470.0
 30
0.0
 40
15.0
  1
ب-شرق  L=758  H=280
 11
8760.0
 21
-470.0
 31
0.0
100
AcDbText
  0
DIMENSION
  5
40C
330
17
100
AcDbEntity
  8
DIM
100
AcDbDimension
280
0
  2
*D36
  3
EZDXF
 10
8760.0
 20
-830.0
 30
0.0
 11
9139.0
 21
-829.775
 31
0.0
 70
32
 71
5
  1
<>
100
AcDbAlignedDimension
 13
8760.0
 23
-780.0
 33
0.0
 14
9518.0
 24
-780.0
 34
0.0
 50
0.0
100
AcDbRotatedDimension
  0
LWPOLYLINE
  5
41B
330
17
100
AcDbEntity
  8
FRAME-PLATE
100
AcDbPolyline
 90
4
 70
1
 10
9718.0
 20
-780.0
 10
10486.0
 20
-780.0
 10
10486.0
 20
-775.0
 10
9718.0
 20
-775.0
  0
LWPOLYLINE
  5
41C
330
17
100
AcDbEntity
  8
FRAME-PLATE
100
AcDbPolyline
 90
4
 70
1
 10
9718.0
 20
-505.0
 10
10486.0
 20
-505.0
 10
10486.0
 20
-500.0
 10
9718.0
 20
-500.0
  0
LWPOLYLINE
  5
41D
330
17
100
AcDbEntity
  8
FRAME-STUD
100
AcDbPolyline
 90
4
 70
1
 10
9718.0
 20
-775.0
 10
9723.0
 20
-775.0
 10
9723.0
 20
-505.0
 10
9718.0
 20
-505.0
  0
LWPOLYLINE
  5
41E
330
17
100
AcDbEntity
  8
FRAME-STUD
100
AcDbPolyline
 90
4
 70
1
 10
10481.0
 20
-775.0
 10
10486.0
 20
-775.0
 10
10486.0
 20
-505.0
 10
10481.0
 20
-505.0
  0
LWPOLYLINE
  5
41F
330
17
100
AcDbEntity
  8
FRAME-OPENING
100
AcDbPolyline
 90
4
 70
1
 10
10073.0
 20
-775.0
 10
10078.0
 20
-775.0
 10
10078.0
 20
-505.0
 10
10073.0
 20
-505.0
  0
LWPOLYLINE
  5
420
330
17
100
AcDbEntity
  8
FRAME-OPENING
100
AcDbPolyline
 90
4
 70
1
 10
10198.0
 20
-775.0
 10
10203.0
 20
-775.0
 10
10203.0
 20
-505.0
 10
10198.0
 20
-505.0
  0
LWPOLYLINE
  5
421
330
17
100
AcDbEntity
  8
FRAME-OPENING
100
AcDbPolyline
 90
4
 70
1
 10
10078.0
 20
-565.0
 10
10198.0
 20
-565.0
 10
10198.0
 20
-560.0
 10
10078.0
 20
-560.0
  0
LWPOLYLINE
  5
422
330
17
100
AcDbEntity
  8
FRAME-OPENING
100
AcDbPolyline
 90
4
 70
1
 10
10078.0
 20
-680.0
 10
10198.0
 20
-680.0
 10
10198.0
 20
-675.0
 10
10078.0
 20
-675.0
  0
LWPOLYLINE
  5
423
330
17
100
AcDbEntity
  8
FRAME-CRIPPLE
100
AcDbPolyline
 90
4
 70
1
 10
10135.5
 20
-775.0
 10
10140.5
 20
-775.0
 10
10140.5
 20
-680.0
 10
10135.5
 20
-680.0
  0
LWPOLYLINE
  5
424
330
17
100
AcDbEntity
  8
FRAME-STUD
100
AcDbPolyline
 90
4
 70
1
 10
9775.5
 20
-775.0
 10
9780.5
 20
-775.0
 10
9780.5
 20
-505.0
 10
9775.5
 20
-505.0
  0
LWPOLYLINE
  5
425
330
17
100
AcDbEntity
  8
FRAME-STUD
100
AcDbPolyline
 90
4
 70
1
 10
9835.5
 20
-775.0
 10
9840.5
 20
-775.0
 10
9840.5
 20
-505.0
 10
9835.5
 20
-505.0
  0
LWPOLYLINE
  5
426
330
17
100
AcDbEntity
  8
FRAME-STUD
100
AcDbPolyline
 90
4
 70
1
 10
9895.5
 20
-775.0
 10
9900.5
 20
-775.0
 10
9900.5
 20
-505.0
 10
9895.5
 20
-505.0
  0
LWPOLYLINE
  5
427
330
17
100
AcDbEntity
  8
FRAME-STUD
100
AcDbPolyline
 90
4
 70
1
 10
9955.5
 20
-775.0
 10
9960.5
 20
-775.0
 10
9960.5
 20
-505.0
 10
9955.5
 20
-505.0
  0
LWPOLYLINE
  5
428
330
17
100
AcDbEntity
  8
FRAME-STUD
100
AcDbPolyline
 90
4
 70
1
 10
10015.5
 20
-775.0
 10
10020.5
 20
-775.0
 10
10020.5
 20
-505.0
 10
10015.5
 20
-505.0
  0
LWPOLYLINE
  5
429
330
17
100
AcDbEntity
  8
FRAME-STUD
100
AcDbPolyline
 90
4
 70
1
 10
10255.5
 20
-775.0
 10
10260.5
 20
-775.0
 10
10260.5
 20
-505.0
 10
10255.5
 20
-505.0
  0
LWPOLYLINE
  5
42A
330
17
100
AcDbEntity
  8
FRAME-STUD
100
AcDbPolyline
 90
4
 70
1
 10
10315.5
 20
-775.0
 10
10320.5
 20
-775.0
 10
10320.5
 20
-505.0
 10
10315.5
 20
-505.0
  0
LWPOLYLINE
  5
42B
330
17
100
AcDbEntity
  8
FRAME-STUD
100
AcDbPolyline
 90
4
 70
1
 10
10375.5
 20
-775.0
 10
10380.5
 20
-775.0
 10
10380.5
 20
-505.0
 10
10375.5
 20
-505.0
  0
LWPOLYLINE
  5
42C
330
17
100
AcDbEntity
  8
FRAME-STUD
100
AcDbPolyline
 90
4
 70
1
 10
10435.5
 20
-775.0
 10
10440.5
 20
-775.0
 10
10440.5
 20
-505.0
 10
10435.5
 20
-505.0
  0
LWPOLYLINE
  5
42D
330
17
100
AcDbEntity
  8
OPENING
100
AcDbPolyline
 90
4
 70
1
 10
10078.0
 20
-675.0
 10
10198.0
 20
-675.0
 10
10198.0
 20
-565.0
 10
10078.0
 20
-565.0
  0
TEXT
  5
42E
330
17
100
AcDbEntity
  8
TEXT
100
AcDbText
 10
9718.0
 20
-470.0
 30
0.0
 40
15.0
  1
ب-شمال  L=768  H=280
 11
9718.0
 21
-470.0
 31
0.0
100
AcDbText
  0
DIMENSION
  5
42F
330
17
100
AcDbEntity
  8
DIM
100
AcDbDimension
280
0
  2
*D37
  3
EZDXF
 10
9718.0
 20
-830.0
 30
0.0
 11
10102.0
 21
-829.775
 31
0.0
 70
32
 71
5
  1
<>
100
AcDbAlignedDimension
 13
9718.0
 23
-780.0
 33
0.0
 14
10486.0
 24
-780.0
 34
0.0
 50
0.0
100
AcDbRotatedDimension
  0
LWPOLYLINE
  5
43E
330
17
100
AcDbEntity
  8
FRAME-PLATE
100
AcDbPolyline
 90
4
 70
1
 10
10686.0
 20
-780.0
 10
11444.0
 20
-780.0
 10
11444.0
 20
-775.0
 10
10686.0
 20
-775.0
  0
LWPOLYLINE
  5
43F
330
17
100
AcDbEntity
  8
FRAME-PLATE
100
AcDbPolyline
 90
4
 70
1
 10
10686.0
 20
-505.0
 10
11444.0
 20
-505.0
 10
11444.0
 20
-500.0
 10
10686.0
 20
-500.0
  0
LWPOLYLINE
  5
440
330
17
100
AcDbEntity
  8
FRAME-STUD
100
AcDbPolyline
 90
4
 70
1
 10
10686.0
 20
-775.0
 10
10691.0
 20
-775.0
 10
10691.0
 20
-505.0
 10
10686.0
 20
-505.0
  0
LWPOLYLINE
  5
441
330
17
100
AcDbEntity
  8
FRAME-STUD
100
AcDbPolyline
 90
4
 70
1
 10
11439.0
 20
-775.0
 10
11444.0
 20
-775.0
 10
11444.0
 20
-505.0
 10
11439.0
 20
-505.0
  0
LWPOLYLINE
  5
442
330
17
100
AcDbEntity
  8
FRAME-OPENING
100
AcDbPolyline
 90
4
 70
1
 10
10761.0
 20
-775.0
 10
10766.0
 20
-775.0
 10
10766.0
 20
-505.0
 10
10761.0
 20
-505.0
  0
LWPOLYLINE
  5
443
330
17
100
AcDbEntity
  8
FRAME-OPENING
100
AcDbPolyline
 90
4
 70
1
 10
10826.0
 20
-775.0
 10
10831.0
 20
-775.0
 10
10831.0
 20
-505.0
 10
10826.0
 20
-505.0
  0
LWPOLYLINE
  5
444
330
17
100
AcDbEntity
  8
FRAME-OPENING
100
AcDbPolyline
 90
4
 70
1
 10
10766.0
 20
-565.0
 10
10826.0
 20
-565.0
 10
10826.0
 20
-560.0
 10
10766.0
 20
-560.0
  0
LWPOLYLINE
  5
445
330
17
100
AcDbEntity
  8
FRAME-OPENING
100
AcDbPolyline
 90
4
 70
1
 10
10766.0
 20
-630.0
 10
10826.0
 20
-630.0
 10
10826.0
 20
-625.0
 10
10766.0
 20
-625.0
  0
LWPOLYLINE
  5
446
330
17
100
AcDbEntity
  8
FRAME-CRIPPLE
100
AcDbPolyline
 90
4
 70
1
 10
10803.5
 20
-775.0
 10
10808.5
 20
-775.0
 10
10808.5
 20
-630.0
 10
10803.5
 20
-630.0
  0
LWPOLYLINE
  5
447
330
17
100
AcDbEntity
  8
FRAME-OPENING
100
AcDbPolyline
 90
4
 70
1
 10
10981.0
 20
-775.0
 10
10986.0
 20
-775.0
 10
10986.0
 20
-505.0
 10
10981.0
 20
-505.0
  0
LWPOLYLINE
  5
448
330
17
100
AcDbEntity
  8
FRAME-OPENING
100
AcDbPolyline
 90
4
 70
1
 10
11046.0
 20
-775.0
 10
11051.0
 20
-775.0
 10
11051.0
 20
-505.0
 10
11046.0
 20
-505.0
  0
LWPOLYLINE
  5
449
330
17
100
AcDbEntity
  8
FRAME-OPENING
100
AcDbPolyline
 90
4
 70
1
 10
10986.0
 20
-565.0
 10
11046.0
 20
-565.0
 10
11046.0
 20
-560.0
 10
10986.0
 20
-560.0
  0
LWPOLYLINE
  5
44A
330
17
100
AcDbEntity
  8
FRAME-OPENING
100
AcDbPolyline
 90
4
 70
1
 10
10986.0
 20
-630.0
 10
11046.0
 20
-630.0
 10
11046.0
 20
-625.0
 10
10986.0
 20
-625.0
  0
LWPOLYLINE
  5
44B
330
17
100
AcDbEntity
  8
FRAME-OPENING
100
AcDbPolyline
 90
4
 70
1
 10
11241.0
 20
-775.0
 10
11246.0
 20
-775.0
 10
11246.0
 20
-505.0
 10
11241.0
 20
-505.0
  0
LWPOLYLINE
  5
44C
330
17
100
AcDbEntity
  8
FRAME-OPENING
100
AcDbPolyline
 90
4
 70
1
 10
11346.0
 20
-775.0
 10
11351.0
 20
-775.0
 10
11351.0
 20
-505.0
 10
11346.0
 20
-505.0
  0
LWPOLYLINE
  5
44D
330
17
100
AcDbEntity
  8
FRAME-OPENING
100
AcDbPolyline
 90
4
 70
1
 10
11246.0
 20
-565.0
 10
11346.0
 20
-565.0
 10
11346.0
 20
-560.0
 10
11246.0
 20
-560.0
  0
LWPOLYLINE
  5
44E
330
17
100
AcDbEntity
  8
FRAME-OPENING
100
AcDbPolyline
 90
4
 70
1
 10
11246.0
 20
-680.0
 10
11346.0
 20
-680.0
 10
11346.0
 20
-675.0
 10
11246.0
 20
-675.0
  0
LWPOLYLINE
  5
44F
330
17
100
AcDbEntity
  8
FRAME-CRIPPLE
100
AcDbPolyline
 90
4
 70
1
 10
11283.5
 20
-775.0
 10
11288.5
 20
-775.0
 10
11288.5
 20
-680.0
 10
11283.5
 20
-680.0
  0
LWPOLYLINE
  5
450
330
17
100
AcDbEntity
  8
FRAME-STUD
100
AcDbPolyline
 90
4
 70
1
 10
10743.5
 20
-775.0
 10
10748.5
 20
-775.0
 10
10748.5
 20
-505.0
 10
10743.5
 20
-505.0
  0
LWPOLYLINE
  5
451
330
17
100
AcDbEntity
  8
FRAME-STUD
100
AcDbPolyline
 90
4
 70
1
 10
10863.5
 20
-775.0
 10
10868.5
 20
-775.0
 10
10868.5
 20
-505.0
 10
10863.5
 20
-505.0
  0
LWPOLYLINE
  5
452
330
17
100
AcDbEntity
  8
FRAME-STUD
100
AcDbPolyline
 90
4
 70
1
 10
10923.5
 20
-775.0
 10
10928.5
 20
-775.0
 10
10928.5
 20
-505.0
 10
10923.5
 20
-505.0
  0
LWPOLYLINE
  5
453
330
17
100
AcDbEntity
  8
FRAME-STUD
100
AcDbPolyline
 90
4
 70
1
 10
11103.5
 20
-775.0
 10
11108.5
 20
-775.0
 10
11108.5
 20
-505.0
 10
11103.5
 20
-505.0
  0
LWPOLYLINE
  5
454
330
17
100
AcDbEntity
  8
FRAME-STUD
100
AcDbPolyline
 90
4
 70
1
 10
11163.5
 20
-775.0
 10
11168.5
 20
-775.0
 10
11168.5
 20
-505.0
 10
11163.5
 20
-505.0
  0
LWPOLYLINE
  5
455
330
17
100
AcDbEntity
  8
FRAME-STUD
100
AcDbPolyline
 90
4
 70
1
 10
11223.5
 20
-775.0
 10
11228.5
 20
-775.0
 10
11228.5
 20
-505.0
 10
11223.5
 20
-505.0
  0
LWPOLYLINE
  5
456
330
17
100
AcDbEntity
  8
FRAME-STUD
100
AcDbPolyline
 90
4
 70
1
 10
11403.5
 20
-775.0
 10
11408.5
 20
-775.0
 10
11408.5
 20
-505.0
 10
11403.5
 20
-505.0
  0
LWPOLYLINE
  5
457
330
17
100
AcDbEntity
  8
OPENING
100
AcDbPolyline
 90
4
 70
1
 10
10766.0
 20
-625.0
 10
10826.0
 20
-625.0
 10
10826.0
 20
-565.0
 10
10766.0
 20
-565.0
  0
LWPOLYLINE
  5
458
330
17
100
AcDbEntity
  8
OPENING
100
AcDbPolyline
 90
4
 70
1
 10
10986.0
 20
-625.0
 10
11046.0
 20
-625.0
 10
11046.0
 20
-565.0
 10
10986.0
 20
-565.0
  0
LWPOLYLINE
  5
459
330
17
100
AcDbEntity
  8
OPENING
100
AcDbPolyline
 90
4
 70
1
 10
11246.0
 20
-675.0
 10
11346.0
 20
-675.0
 10
11346.0
 20
-565.0
 10
11246.0
 20
-565.0
  0
TEXT
  5
45A
330
17
100
AcDbEntity
  8
TEXT
100
AcDbText
 10
10686.0
 20
-470.0
 30
0.0
 40
15.0
  1
ب-غرب  L=758  H=280
 11
10686.0
 21
-470.0
 31
0.0
100
AcDbText
  0
DIMENSION
  5
45B
330
17
100
AcDbEntity
  8
DIM
100
AcDbDimension
280
0
  2
*D38
  3
EZDXF
 10
10686.0
 20
-830.0
 30
0.0
 11
11065.0
 21
-829.775
 31
0.0
 70
32
 71
5
  1
<>
100
AcDbAlignedDimension
 13
10686.0
 23
-780.0
 33
0.0
 14
11444.0
 24
-780.0
 34
0.0
 50
0.0
100
AcDbRotatedDimension
  0
LWPOLYLINE
  5
46A
330
17
100
AcDbEntity
  8
FRAME-PLATE
100
AcDbPolyline
 90
4
 70
1
 10
11644.0
 20
-780.0
 10
12412.0
 20
-780.0
 10
12412.0
 20
-775.0
 10
11644.0
 20
-775.0
  0
LWPOLYLINE
  5
46B
330
17
100
AcDbEntity
  8
FRAME-PLATE
100
AcDbPolyline
 90
4
 70
1
 10
11644.0
 20
-505.0
 10
12412.0
 20
-505.0
 10
12412.0
 20
-500.0
 10
11644.0
 20
-500.0
  0
LWPOLYLINE
  5
46C
330
17
100
AcDbEntity
  8
FRAME-STUD
100
AcDbPolyline
 90
4
 70
1
 10
11644.0
 20
-775.0
 10
11649.0
 20
-775.0
 10
11649.0
 20
-505.0
 10
11644.0
 20
-505.0
  0
LWPOLYLINE
  5
46D
330
17
100
AcDbEntity
  8
FRAME-STUD
100
AcDbPolyline
 90
4
 70
1
 10
12407.0
 20
-775.0
 10
12412.0
 20
-775.0
 10
12412.0
 20
-505.0
 10
12407.0
 20
-505.0
  0
LWPOLYLINE
  5
46E
330
17
100
AcDbEntity
  8
FRAME-OPENING
100
AcDbPolyline
 90
4
 70
1
 10
11839.0
 20
-775.0
 10
11844.0
 20
-775.0
 10
11844.0
 20
-505.0
 10
11839.0
 20
-505.0
  0
LWPOLYLINE
  5
46F
330
17
100
AcDbEntity
  8
FRAME-OPENING
100
AcDbPolyline
 90
4
 70
1
 10
11924.0
 20
-775.0
 10
11929.0
 20
-775.0
 10
11929.0
 20
-505.0
 10
11924.0
 20
-505.0
  0
LWPOLYLINE
  5
470
330
17
100
AcDbEntity
  8
FRAME-OPENING
100
AcDbPolyline
 90
4
 70
1
 10
11844.0
 20
-565.0
 10
11924.0
 20
-565.0
 10
11924.0
 20
-560.0
 10
11844.0
 20
-560.0
  0
LWPOLYLINE
  5
471
330
17
100
AcDbEntity
  8
FRAME-OPENING
100
AcDbPolyline
 90
4
 70
1
 10
12059.0
 20
-775.0
 10
12064.0
 20
-775.0
 10
12064.0
 20
-505.0
 10
12059.0
 20
-505.0
  0
LWPOLYLINE
  5
472
330
17
100
AcDbEntity
  8
FRAME-OPENING
100
AcDbPolyline
 90
4
 70
1
 10
12144.0
 20
-775.0
 10
12149.0
 20
-775.0
 10
12149.0
 20
-505.0
 10
12144.0
 20
-505.0
  0
LWPOLYLINE
  5
473
330
17
100
AcDbEntity
  8
FRAME-OPENING
100
AcDbPolyline
 90
4
 70
1
 10
12064.0
 20
-565.0
 10
12144.0
 20
-565.0
 10
12144.0
 20
-560.0
 10
12064.0
 20
-560.0
  0
LWPOLYLINE
  5
474
330
17
100
AcDbEntity
  8
FRAME-STUD
100
AcDbPolyline
 90
4
 70
1
 10
11701.5
 20
-775.0
 10
11706.5
 20
-775.0
 10
11706.5
 20
-505.0
 10
11701.5
 20
-505.0
  0
LWPOLYLINE
  5
475
330
17
100
AcDbEntity
  8
FRAME-STUD
100
AcDbPolyline
 90
4
 70
1
 10
11761.5
 20
-775.0
 10
11766.5
 20
-775.0
 10
11766.5
 20
-505.0
 10
11761.5
 20
-505.0
  0
LWPOLYLINE
  5
476
330
17
100
AcDbEntity
  8
FRAME-STUD
100
AcDbPolyline
 90
4
 70
1
 10
11821.5
 20
-775.0
 10
11826.5
 20
-775.0
 10
11826.5
 20
-505.0
 10
11821.5
 20
-505.0
  0
LWPOLYLINE
  5
477
330
17
100
AcDbEntity
  8
FRAME-STUD
100
AcDbPolyline
 90
4
 70
1
 10
11941.5
 20
-775.0
 10
11946.5
 20
-775.0
 10
11946.5
 20
-505.0
 10
11941.5
 20
-505.0
  0
LWPOLYLINE
  5
478
330
17
100
AcDbEntity
  8
FRAME-STUD
100
AcDbPolyline
 90
4
 70
1
 10
12001.5
 20
-775.0
 10
12006.5
 20
-775.0
 10
12006.5
 20
-505.0
 10
12001.5
 20
-505.0
  0
LWPOLYLINE
  5
479
330
17
100
AcDbEntity
  8
FRAME-STUD
100
AcDbPolyline
 90
4
 70
1
 10
12181.5
 20
-775.0
 10
12186.5
 20
-775.0
 10
12186.5
 20
-505.0
 10
12181.5
 20
-505.0
  0
LWPOLYLINE
  5
47A
330
17
100
AcDbEntity
  8
FRAME-STUD
100
AcDbPolyline
 90
4
 70
1
 10
12241.5
 20
-775.0
 10
12246.5
 20
-775.0
 10
12246.5
 20
-505.0
 10
12241.5
 20
-505.0
  0
LWPOLYLINE
  5
47B
330
17
100
AcDbEntity
  8
FRAME-STUD
100
AcDbPolyline
 90
4
 70
1
 10
12301.5
 20
-775.0
 10
12306.5
 20
-775.0
 10
12306.5
 20
-505.0
 10
12301.5
 20
-505.0
  0
LWPOLYLINE
  5
47C
330
17
100
AcDbEntity
  8
FRAME-STUD
100
AcDbPolyline
 90
4
 70
1
 10
12361.5
 20
-775.0
 10
12366.5
 20
-775.0
 10
12366.5
 20
-505.0
 10
12361.5
 20
-505.0
  0
LWPOLYLINE
  5
47D
330
17
100
AcDbEntity
  8
OPENING
100
AcDbPolyline
 90
4
 70
1
 10
11844.0
 20
-775.0
 10
11924.0
 20
-775.0
 10
11924.0
 20
-565.0
 10
11844.0
 20
-565.0
  0
LWPOLYLINE
  5
47E
330
17
100
AcDbEntity
  8
OPENING
100
AcDbPolyline
 90
4
 70
1
 10
12064.0
 20
-775.0
 10
12144.0
 20
-775.0
 10
12144.0
 20
-565.0
 10
12064.0
 20
-565.0
  0
TEXT
  5
47F
330
17
100
AcDbEntity
  8
TEXT
100
AcDbText
 10
11644.0
 20
-470.0
 30
0.0
 40
15.0
  1
ب-فاصل الغرف  L=768  H=280
 11
11644.0
 21
-470.0
 31
0.0
100
AcDbText
  0
DIMENSION
  5
480
330
17
100
AcDbEntity
  8
DIM
100
AcDbDimension
280
0
  2
*D39
  3
EZDXF
 10
11644.0
 20
-830.0
 30
0.0
 11
12028.0
 21
-829.775
 31
0.0
 70
32
 71
5
  1
<>
100
AcDbAlignedDimension
 13
11644.0
 23
-780.0
 33
0.0
 14
12412.0
 24
-780.0
 34
0.0
 50
0.0
100
AcDbRotatedDimension
  0
LWPOLYLINE
  5
48F
330
17
100
AcDbEntity
  8
FRAME-PLATE
100
AcDbPolyline
 90
4
 70
1
 10
12612.0
 20
-780.0
 10
12942.0
 20
-780.0
 10
12942.0
 20
-775.0
 10
12612.0
 20
-775.0
  0
LWPOLYLINE
  5
490
330
17
100
AcDbEntity
  8
FRAME-PLATE
100
AcDbPolyline
 90
4
 70
1
 10
12612.0
 20
-505.0
 10
12942.0
 20
-505.0
 10
12942.0
 20
-500.0
 10
12612.0
 20
-500.0
  0
LWPOLYLINE
  5
491
330
17
100
AcDbEntity
  8
FRAME-STUD
100
AcDbPolyline
 90
4
 70
1
 10
12612.0
 20
-775.0
 10
12617.0
 20
-775.0
 10
12617.0
 20
-505.0
 10
12612.0
 20
-505.0
  0
LWPOLYLINE
  5
492
330
17
100
AcDbEntity
  8
FRAME-STUD
100
AcDbPolyline
 90
4
 70
1
 10
12937.0
 20
-775.0
 10
12942.0
 20
-775.0
 10
12942.0
 20
-505.0
 10
12937.0
 20
-505.0
  0
LWPOLYLINE
  5
493
330
17
100
AcDbEntity
  8
FRAME-STUD
100
AcDbPolyline
 90
4
 70
1
 10
12669.5
 20
-775.0
 10
12674.5
 20
-775.0
 10
12674.5
 20
-505.0
 10
12669.5
 20
-505.0
  0
LWPOLYLINE
  5
494
330
17
100
AcDbEntity
  8
FRAME-STUD
100
AcDbPolyline
 90
4
 70
1
 10
12729.5
 20
-775.0
 10
12734.5
 20
-775.0
 10
12734.5
 20
-505.0
 10
12729.5
 20
-505.0
  0
LWPOLYLINE
  5
495
330
17
100
AcDbEntity
  8
FRAME-STUD
100
AcDbPolyline
 90
4
 70
1
 10
12789.5
 20
-775.0
 10
12794.5
 20
-775.0
 10
12794.5
 20
-505.0
 10
12789.5
 20
-505.0
  0
LWPOLYLINE
  5
496
330
17
100
AcDbEntity
  8
FRAME-STUD
100
AcDbPolyline
 90
4
 70
1
 10
12849.5
 20
-775.0
 10
12854.5
 20
-775.0
 10
12854.5
 20
-505.0
 10
12849.5
 20
-505.0
  0
LWPOLYLINE
  5
497
330
17
100
AcDbEntity
  8
FRAME-STUD
100
AcDbPolyline
 90
4
 70
1
 10
12909.5
 20
-775.0
 10
12914.5
 20
-775.0
 10
12914.5
 20
-505.0
 10
12909.5
 20
-505.0
  0
TEXT
  5
498
330
17
100
AcDbEntity
  8
TEXT
100
AcDbText
 10
12612.0
 20
-470.0
 30
0.0
 40
15.0
  1
ب-غرفة 2 شرق  L=330  H=280
 11
12612.0
 21
-470.0
 31
0.0
100
AcDbText
  0
DIMENSION
  5
499
330
17
100
AcDbEntity
  8
DIM
100
AcDbDimension
280
0
  2
*D40
  3
EZDXF
 10
12612.0
 20
-830.0
 30
0.0
 11
12777.0
 21
-829.775
 31
0.0
 70
32
 71
5
  1
<>
100
AcDbAlignedDimension
 13
12612.0
 23
-780.0
 33
0.0
 14
12942.0
 24
-780.0
 34
0.0
 50
0.0
100
AcDbRotatedDimension
  0
LWPOLYLINE
  5
4A8
330
17
100
AcDbEntity
  8
FRAME-PLATE
100
AcDbPolyline
 90
4
 70
1
 10
13142.0
 20
-780.0
 10
13570.0
 20
-780.0
 10
13570.0
 20
-775.0
 10
13142.0
 20
-775.0
  0
LWPOLYLINE
  5
4A9
330
17
100
AcDbEntity
  8
FRAME-PLATE
100
AcDbPolyline
 90
4
 70
1
 10
13142.0
 20
-505.0
 10
13570.0
 20
-505.0
 10
13570.0
 20
-500.0
 10
13142.0
 20
-500.0
  0
LWPOLYLINE
  5
4AA
330
17
100
AcDbEntity
  8
FRAME-STUD
100
AcDbPolyline
 90
4
 70
1
 10
13142.0
 20
-775.0
 10
13147.0
 20
-775.0
 10
13147.0
 20
-505.0
 10
13142.0
 20
-505.0
  0
LWPOLYLINE
  5
4AB
330
17
100
AcDbEntity
  8
FRAME-STUD
100
AcDbPolyline
 90
4
 70
1
 10
13565.0
 20
-775.0
 10
13570.0
 20
-775.0
 10
13570.0
 20
-505.0
 10
13565.0
 20
-505.0
  0
LWPOLYLINE
  5
4AC
330
17
100
AcDbEntity
  8
FRAME-OPENING
100
AcDbPolyline
 90
4
 70
1
 10
13153.0
 20
-775.0
 10
13158.0
 20
-775.0
 10
13158.0
 20
-505.0
 10
13153.0
 20
-505.0
  0
LWPOLYLINE
  5
4AD
330
17
100
AcDbEntity
  8
FRAME-OPENING
100
AcDbPolyline
 90
4
 70
1
 10
13228.0
 20
-775.0
 10
13233.0
 20
-775.0
 10
13233.0
 20
-505.0
 10
13228.0
 20
-505.0
  0
LWPOLYLINE
  5
4AE
330
17
100
AcDbEntity
  8
FRAME-OPENING
100
AcDbPolyline
 90
4
 70
1
 10
13158.0
 20
-565.0
 10
13228.0
 20
-565.0
 10
13228.0
 20
-560.0
 10
13158.0
 20
-560.0
  0
LWPOLYLINE
  5
4AF
330
17
100
AcDbEntity
  8
FRAME-OPENING
100
AcDbPolyline
 90
4
 70
1
 10
13417.0
 20
-775.0
 10
13422.0
 20
-775.0
 10
13422.0
 20
-505.0
 10
13417.0
 20
-505.0
  0
LWPOLYLINE
  5
4B0
330
17
100
AcDbEntity
  8
FRAME-OPENING
100
AcDbPolyline
 90
4
 70
1
 10
13492.0
 20
-775.0
 10
13497.0
 20
-775.0
 10
13497.0
 20
-505.0
 10
13492.0
 20
-505.0
  0
LWPOLYLINE
  5
4B1
330
17
100
AcDbEntity
  8
FRAME-OPENING
100
AcDbPolyline
 90
4
 70
1
 10
13422.0
 20
-565.0
 10
13492.0
 20
-565.0
 10
13492.0
 20
-560.0
 10
13422.0
 20
-560.0
  0
LWPOLYLINE
  5
4B2
330
17
100
AcDbEntity
  8
FRAME-STUD
100
AcDbPolyline
 90
4
 70
1
 10
13259.5
 20
-775.0
 10
13264.5
 20
-775.0
 10
13264.5
 20
-505.0
 10
13259.5
 20
-505.0
  0
LWPOLYLINE
  5
4B3
330
17
100
AcDbEntity
  8
FRAME-STUD
100
AcDbPolyline
 90
4
 70
1
 10
13319.5
 20
-775.0
 10
13324.5
 20
-775.0
 10
13324.5
 20
-505.0
 10
13319.5
 20
-505.0
  0
LWPOLYLINE
  5
4B4
330
17
100
AcDbEntity
  8
FRAME-STUD
100
AcDbPolyline
 90
4
 70
1
 10
13379.5
 20
-775.0
 10
13384.5
 20
-775.0
 10
13384.5
 20
-505.0
 10
13379.5
 20
-505.0
  0
LWPOLYLINE
  5
4B5
330
17
100
AcDbEntity
  8
FRAME-STUD
100
AcDbPolyline
 90
4
 70
1
 10
13499.5
 20
-775.0
 10
13504.5
 20
-775.0
 10
13504.5
 20
-505.0
 10
13499.5
 20
-505.0
  0
LWPOLYLINE
  5
4B6
330
17
100
AcDbEntity
  8
FRAME-STUD
100
AcDbPolyline
 90
4
 70
1
 10
13559.5
 20
-775.0
 10
13564.5
 20
-775.0
 10
13564.5
 20
-505.0
 10
13559.5
 20
-505.0
  0
LWPOLYLINE
  5
4B7
330
17
100
AcDbEntity
  8
OPENING
100
AcDbPolyline
 90
4
 70
1
 10
13158.0
 20
-775.0
 10
13228.0
 20
-775.0
 10
13228.0
 20
-565.0
 10
13158.0
 20
-565.0
  0
LWPOLYLINE
  5
4B8
330
17
100
AcDbEntity
  8
OPENING
100
AcDbPolyline
 90
4
 70
1
 10
13422.0
 20
-775.0
 10
13492.0
 20
-775.0
 10
13492.0
 20
-565.0
 10
13422.0
 20
-565.0
  0
TEXT
  5
4B9
330
17
100
AcDbEntity
  8
TEXT
100
AcDbText
 10
13142.0
 20
-470.0
 30
0.0
 40
15.0
  1
ب-جدار الحمامات  L=428  H=280
 11
13142.0
 21
-470.0
 31
0.0
100
AcDbText
  0
DIMENSION
  5
4BA
330
17
100
AcDbEntity
  8
DIM
100
AcDbDimension
280
0
  2
*D41
  3
EZDXF
 10
13142.0
 20
-830.0
 30
0.0
 11
13356.0
 21
-829.775
 31
0.0
 70
32
 71
5
  1
<>
100
AcDbAlignedDimension
 13
13142.0
 23
-780.0
 33
0.0
 14
13570.0
 24
-780.0
 34
0.0
 50
0.0
100
AcDbRotatedDimension
  0
LWPOLYLINE
  5
4C9
330
17
100
AcDbEntity
  8
FRAME-PLATE
100
AcDbPolyline
 90
4
 70
1
 10
13770.0
 20
-780.0
 10
13932.0
 20
-780.0
 10
13932.0
 20
-775.0
 10
13770.0
 20
-775.0
  0
LWPOLYLINE
  5
4CA
330
17
100
AcDbEntity
  8
FRAME-PLATE
100
AcDbPolyline
 90
4
 70
1
 10
13770.0
 20
-505.0
 10
13932.0
 20
-505.0
 10
13932.0
 20
-500.0
 10
13770.0
 20
-500.0
  0
LWPOLYLINE
  5
4CB
330
17
100
AcDbEntity
  8
FRAME-STUD
100
AcDbPolyline
 90
4
 70
1
 10
13770.0
 20
-775.0
 10
13775.0
 20
-775.0
 10
13775.0
 20
-505.0
 10
13770.0
 20
-505.0
  0
LWPOLYLINE
  5
4CC
330
17
100
AcDbEntity
  8
FRAME-STUD
100
AcDbPolyline
 90
4
 70
1
 10
13927.0
 20
-775.0
 10
13932.0
 20
-775.0
 10
13932.0
 20
-505.0
 10
13927.0
 20
-505.0
  0
LWPOLYLINE
  5
4CD
330
17
100
AcDbEntity
  8
FRAME-STUD
100
AcDbPolyline
 90
4
 70
1
 10
13827.5
 20
-775.0
 10
13832.5
 20
-775.0
 10
13832.5
 20
-505.0
 10
13827.5
 20
-505.0
  0
LWPOLYLINE
  5
4CE
330
17
100
AcDbEntity
  8
FRAME-STUD
100
AcDbPolyline
 90
4
 70
1
 10
13887.5
 20
-775.0
 10
13892.5
 20
-775.0
 10
13892.5
 20
-505.0
 10
13887.5
 20
-505.0
  0
TEXT
  5
4CF
330
17
100
AcDbEntity
  8
TEXT
100
AcDbText
 10
13770.0
 20
-470.0
 30
0.0
 40
15.0
  1
ب-فاصل الحمامين  L=162  H=280
 11
13770.0
 21
-470.0
 31
0.0
100
AcDbText
  0
DIMENSION
  5
4D0
330
17
100
AcDbEntity
  8
DIM
100
AcDbDimension
280
0
  2
*D42
  3
EZDXF
 10
13770.0
 20
-830.0
 30
0.0
 11
13851.0
 21
-829.775
 31
0.0
 70
32
 71
5
  1
<>
100
AcDbAlignedDimension
 13
13770.0
 23
-780.0
 33
0.0
 14
13932.0
 24
-780.0
 34
0.0
 50
0.0
100
AcDbRotatedDimension
  0
LWPOLYLINE
  5
4DF
330
17
100
AcDbEntity
  8
FRAME-PLATE
100
AcDbPolyline
 90
4
 70
1
 10
14132.0
 20
-780.0
 10
14480.0
 20
-780.0
 10
14480.0
 20
-775.0
 10
14132.0
 20
-775.0
  0
LWPOLYLINE
  5
4E0
330
17
100
AcDbEntity
  8
FRAME-PLATE
100
AcDbPolyline
 90
4
 70
1
 10
14132.0
 20
-505.0
 10
14480.0
 20
-505.0
 10
14480.0
 20
-500.0
 10
14132.0
 20
-500.0
  0
LWPOLYLINE
  5
4E1
330
17
100
AcDbEntity
  8
FRAME-STUD
100
AcDbPolyline
 90
4
 70
1
 10
14132.0
 20
-775.0
 10
14137.0
 20
-775.0
 10
14137.0
 20
-505.0
 10
14132.0
 20
-505.0
  0
LWPOLYLINE
  5
4E2
330
17
100
AcDbEntity
  8
FRAME-STUD
100
AcDbPolyline
 90
4
 70
1
 10
14475.0
 20
-775.0
 10
14480.0
 20
-775.0
 10
14480.0
 20
-505.0
 10
14475.0
 20
-505.0
  0
LWPOLYLINE
  5
4E3
330
17
100
AcDbEntity
  8
FRAME-OPENING
100
AcDbPolyline
 90
4
 70
1
 10
14357.0
 20
-775.0
 10
14362.0
 20
-775.0
 10
14362.0
 20
-505.0
 10
14357.0
 20
-505.0
  0
LWPOLYLINE
  5
4E4
330
17
100
AcDbEntity
  8
FRAME-OPENING
100
AcDbPolyline
 90
4
 70
1
 10
14442.0
 20
-775.0
 10
14447.0
 20
-775.0
 10
14447.0
 20
-505.0
 10
14442.0
 20
-505.0
  0
LWPOLYLINE
  5
4E5
330
17
100
AcDbEntity
  8
FRAME-OPENING
100
AcDbPolyline
 90
4
 70
1
 10
14362.0
 20
-565.0
 10
14442.0
 20
-565.0
 10
14442.0
 20
-560.0
 10
14362.0
 20
-560.0
  0
LWPOLYLINE
  5
4E6
330
17
100
AcDbEntity
  8
FRAME-STUD
100
AcDbPolyline
 90
4
 70
1
 10
14189.5
 20
-775.0
 10
14194.5
 20
-775.0
 10
14194.5
 20
-505.0
 10
14189.5
 20
-505.0
  0
LWPOLYLINE
  5
4E7
330
17
100
AcDbEntity
  8
FRAME-STUD
100
AcDbPolyline
 90
4
 70
1
 10
14249.5
 20
-775.0
 10
14254.5
 20
-775.0
 10
14254.5
 20
-505.0
 10
14249.5
 20
-505.0
  0
LWPOLYLINE
  5
4E8
330
17
100
AcDbEntity
  8
FRAME-STUD
100
AcDbPolyline
 90
4
 70
1
 10
14309.5
 20
-775.0
 10
14314.5
 20
-775.0
 10
14314.5
 20
-505.0
 10
14309.5
 20
-505.0
  0
LWPOLYLINE
  5
4E9
330
17
100
AcDbEntity
  8
OPENING
100
AcDbPolyline
 90
4
 70
1
 10
14362.0
 20
-775.0
 10
14442.0
 20
-775.0
 10
14442.0
 20
-565.0
 10
14362.0
 20
-565.0
  0
TEXT
  5
4EA
330
17
100
AcDbEntity
  8
TEXT
100
AcDbText
 10
14132.0
 20
-470.0
 30
0.0
 40
15.0
  1
ب-جدار الماستر  L=348  H=280
 11
14132.0
 21
-470.0
 31
0.0
100
AcDbText
  0
DIMENSION
  5
4EB
330
17
100
AcDbEntity
  8
DIM
100
AcDbDimension
280
0
  2
*D43
  3
EZDXF
 10
14132.0
 20
-830.0
 30
0.0
 11
14306.0
 21
-829.775
 31
0.0
 70
32
 71
5
  1
<>
100
AcDbAlignedDimension
 13
14132.0
 23
-780.0
 33
0.0
 14
14480.0
 24
-780.0
 34
0.0
 50
0.0
100
AcDbRotatedDimension
  0
LWPOLYLINE
  5
4FA
330
17
100
AcDbEntity
  8
FRAME-PLATE
100
AcDbPolyline
 90
4
 70
1
 10
14680.0
 20
-780.0
 10
15006.0
 20
-780.0
 10
15006.0
 20
-775.0
 10
14680.0
 20
-775.0
  0
LWPOLYLINE
  5
4FB
330
17
100
AcDbEntity
  8
FRAME-PLATE
100
AcDbPolyline
 90
4
 70
1
 10
14680.0
 20
-505.0
 10
15006.0
 20
-505.0
 10
15006.0
 20
-500.0
 10
14680.0
 20
-500.0
  0
LWPOLYLINE
  5
4FC
330
17
100
AcDbEntity
  8
FRAME-STUD
100
AcDbPolyline
 90
4
 70
1
 10
14680.0
 20
-775.0
 10
14685.0
 20
-775.0
 10
14685.0
 20
-505.0
 10
14680.0
 20
-505.0
  0
LWPOLYLINE
  5
4FD
330
17
100
AcDbEntity
  8
FRAME-STUD
100
AcDbPolyline
 90
4
 70
1
 10
15001.0
 20
-775.0
 10
15006.0
 20
-775.0
 10
15006.0
 20
-505.0
 10
15001.0
 20
-505.0
  0
LWPOLYLINE
  5
4FE
330
17
100
AcDbEntity
  8
FRAME-STUD
100
AcDbPolyline
 90
4
 70
1
 10
14737.5
 20
-775.0
 10
14742.5
 20
-775.0
 10
14742.5
 20
-505.0
 10
14737.5
 20
-505.0
  0
LWPOLYLINE
  5
4FF
330
17
100
AcDbEntity
  8
FRAME-STUD
100
AcDbPolyline
 90
4
 70
1
 10
14797.5
 20
-775.0
 10
14802.5
 20
-775.0
 10
14802.5
 20
-505.0
 10
14797.5
 20
-505.0
  0
LWPOLYLINE
  5
500
330
17
100
AcDbEntity
  8
FRAME-STUD
100
AcDbPolyline
 90
4
 70
1
 10
14857.5
 20
-775.0
 10
14862.5
 20
-775.0
 10
14862.5
 20
-505.0
 10
14857.5
 20
-505.0
  0
LWPOLYLINE
  5
501
330
17
100
AcDbEntity
  8
FRAME-STUD
100
AcDbPolyline
 90
4
 70
1
 10
14917.5
 20
-775.0
 10
14922.5
 20
-775.0
 10
14922.5
 20
-505.0
 10
14917.5
 20
-505.0
  0
LWPOLYLINE
  5
502
330
17
100
AcDbEntity
  8
FRAME-STUD
100
AcDbPolyline
 90
4
 70
1
 10
14977.5
 20
-775.0
 10
14982.5
 20
-775.0
 10
14982.5
 20
-505.0
 10
14977.5
 20
-505.0
  0
TEXT
  5
503
330
17
100
AcDbEntity
  8
TEXT
100
AcDbText
 10
14680.0
 20
-470.0
 30
0.0
 40
15.0
  1
ب-جدار الدرج  L=326  H=280
 11
14680.0
 21
-470.0
 31
0.0
100
AcDbText
  0
DIMENSION
  5
504
330
17
100
AcDbEntity
  8
DIM
100
AcDbDimension
280
0
  2
*D44
  3
EZDXF
 10
14680.0
 20
-830.0
 30
0.0
 11
14843.0
 21
-829.775
 31
0.0
 70
32
 71
5
  1
<>
100
AcDbAlignedDimension
 13
14680.0
 23
-780.0
 33
0.0
 14
15006.0
 24
-780.0
 34
0.0
 50
0.0
100
AcDbRotatedDimension
  0
ENDSEC
  0
SECTION
  2
OBJECTS
  0
DICTIONARY
  5
A
330
0
100
AcDbDictionary
281
1
  3
ACAD_COLOR
350
B
  3
ACAD_GROUP
350
C
  3
ACAD_LAYOUT
350
D
  3
ACAD_MATERIAL
350
E
  3
ACAD_MLEADERSTYLE
350
F
  3
ACAD_MLINESTYLE
350
10
  3
ACAD_PLOTSETTINGS
350
11
  3
ACAD_PLOTSTYLENAME
350
12
  3
ACAD_SCALELIST
350
14
  3
ACAD_TABLESTYLE
350
15
  3
ACAD_VISUALSTYLE
350
16
  3
EZDXF_META
350
2D
  0
DICTIONARY
  5
B
330
A
100
AcDbDictionary
281
1
  0
DICTIONARY
  5
C
330
A
100
AcDbDictionary
281
1
  0
DICTIONARY
  5
D
330
A
100
AcDbDictionary
281
1
  3
Model
350
1A
  3
Layout1
350
1E
  0
DICTIONARY
  5
E
330
A
100
AcDbDictionary
281
1
  3
ByBlock
350
1F
  3
ByLayer
350
20
  3
Global
350
21
  0
DICTIONARY
  5
F
330
A
100
AcDbDictionary
281
1
  3
Standard
350
2C
  0
DICTIONARY
  5
10
330
A
100
AcDbDictionary
281
1
  3
Standard
350
22
  0
DICTIONARY
  5
11
330
A
100
AcDbDictionary
281
1
  0
ACDBDICTIONARYWDFLT
  5
12
330
A
100
AcDbDictionary
281
1
  3
Normal
350
13
100
AcDbDictionaryWithDefault
340
13
  0
ACDBPLACEHOLDER
  5
13
330
12
  0
DICTIONARY
  5
14
330
A
100
AcDbDictionary
281
1
  0
DICTIONARY
  5
15
330
A
100
AcDbDictionary
281
1
  0
DICTIONARY
  5
16
330
A
100
AcDbDictionary
281
1
  3
2dWireframe
350
5A
  3
Basic
350
5B
  3
Brighten
350
5C
  3
ColorChange
350
5D
  3
Conceptual
350
5E
  3
Dim
350
5F
  3
EdgeColorOff
350
60
  3
Facepattern
350
61
  3
Flat
350
62
  3
FlatWithEdges
350
63
  3
Gouraud
350
64
  3
GouraudWithEdges
350
65
  3
Hidden
350
66
  3
JitterOff
350
67
  3
Linepattern
350
68
  3
Modeling
350
69
  3
OverhangOff
350
6A
  3
Realistic
350
6B
  3
Shaded
350
6C
  3
Shaded with edges
350
6D
  3
Shades of Gray
350
6E
  3
Sketchy
350
6F
  3
Thicken
350
70
  3
Wireframe
350
71
  3
X-Ray
350
72
  0
LAYOUT
  5
1A
330
D
100
AcDbPlotSettings
  1

  4
A3
  6

 40
7.5
 41
20.0
 42
7.5
 43
20.0
 44
420.0
 45
297.0
 46
0.0
 47
0.0
 48
0.0
 49
0.0
140
0.0
141
0.0
142
1.0
143
1.0
 70
1024
 72
1
 73
0
 74
5
  7

 75
16
 76
0
 77
2
 78
300
147
1.0
148
0.0
149
0.0
100
AcDbLayout
  1
Model
 70
1
 71
0
 10
0.0
 20
0.0
 11
420.0
 21
297.0
 12
0.0
 22
0.0
 32
0.0
 14
1e+20
 24
1e+20
 34
1e+20
 15
-1e+20
 25
-1e+20
 35
-1e+20
146
0.0
 13
0.0
 23
0.0
 33
0.0
 16
1.0
 26
0.0
 36
0.0
 17
0.0
 27
1.0
 37
0.0
 76
1
330
17
  0
LAYOUT
  5
1E
330
D
100
AcDbPlotSettings
  1

  4
A3
  6

 40
7.5
 41
20.0
 42
7.5
 43
20.0
 44
420.0
 45
297.0
 46
0.0
 47
0.0
 48
0.0
 49
0.0
140
0.0
141
0.0
142
1.0
143
1.0
 70
0
 72
1
 73
0
 74
5
  7

 75
16
 76
0
 77
2
 78
300
147
1.0
148
0.0
149
0.0
100
AcDbLayout
  1
Layout1
 70
1
 71
1
 10
0.0
 20
0.0
 11
420.0
 21
297.0
 12
0.0
 22
0.0
 32
0.0
 14
1e+20
 24
1e+20
 34
1e+20
 15
-1e+20
 25
-1e+20
 35
-1e+20
146
0.0
 13
0.0
 23
0.0
 33
0.0
 16
1.0
 26
0.0
 36
0.0
 17
0.0
 27
1.0
 37
0.0
 76
1
330
1B
  0
MATERIAL
  5
1F
102
{ACAD_REACTORS
330
E
102
}
330
E
100
AcDbMaterial
  1
ByBlock
  2

 70
0
 40
1.0
 71
1
 41
1.0
 91
-1023410177
 42
1.0
 72
1
  3

 73
1
 74
1
 75
1
 44
0.5
 73
0
 45
1.0
 46
1.0
 77
1
  4

 78
1
 79
1
170
1
 48
1.0
171
1
  6

172
1
173
1
174
1
140
1.0
141
1.0
175
1
  7

176
1
177
1
178
1
143
1.0
179
1
  8

270
1
271
1
272
1
145
1.0
146
1.0
273
1
  9

274
1
275
1
276
1
 42
1.0
 72
1
  3

 73
1
 74
1
 75
1
 94
63
  0
MATERIAL
  5
20
102
{ACAD_REACTORS
330
E
102
}
330
E
100
AcDbMaterial
  1
ByLayer
  2

 70
0
 40
1.0
 71
1
 41
1.0
 91
-1023410177
 42
1.0
 72
1
  3

 73
1
 74
1
 75
1
 44
0.5
 73
0
 45
1.0
 46
1.0
 77
1
  4

 78
1
 79
1
170
1
 48
1.0
171
1
  6

172
1
173
1
174
1
140
1.0
141
1.0
175
1
  7

176
1
177
1
178
1
143
1.0
179
1
  8

270
1
271
1
272
1
145
1.0
146
1.0
273
1
  9

274
1
275
1
276
1
 42
1.0
 72
1
  3

 73
1
 74
1
 75
1
 94
63
  0
MATERIAL
  5
21
102
{ACAD_REACTORS
330
E
102
}
330
E
100
AcDbMaterial
  1
Global
  2

 70
0
 40
1.0
 71
1
 41
1.0
 91
-1023410177
 42
1.0
 72
1
  3

 73
1
 74
1
 75
1
 44
0.5
 73
0
 45
1.0
 46
1.0
 77
1
  4

 78
1
 79
1
170
1
 48
1.0
171
1
  6

172
1
173
1
174
1
140
1.0
141
1.0
175
1
  7

176
1
177
1
178
1
143
1.0
179
1
  8

270
1
271
1
272
1
145
1.0
146
1.0
273
1
  9

274
1
275
1
276
1
 42
1.0
 72
1
  3

 73
1
 74
1
 75
1
 94
63
  0
MLINESTYLE
  5
22
102
{ACAD_REACTORS
330
10
102
}
330
10
100
AcDbMlineStyle
  2
Standard
 70
0
  3

 62
256
 51
90.0
 52
90.0
 71
2
 49
0.5
 62
256
  6
BYLAYER
 49
-0.5
 62
256
  6
BYLAYER
  0
MLEADERSTYLE
  5
2C
102
{ACAD_REACTORS
330
F
102
}
330
F
100
AcDbMLeaderStyle
179
2
170
2
171
1
172
0
 90
2
 40
0.0
 41
0.0
173
1
 91
-1056964608
 92
-2
290
1
 42
2.0
291
1
 43
8.0
  3
Standard
 44
4.0
300

342
29
174
1
175
1
176
0
178
1
 93
-1056964608
 45
4.0
292
0
297
0
 46
4.0
 94
-1056964608
 47
1.0
 49
1.0
140
1.0
294
1
141
0.0
177
0
142
1.0
295
0
296
0
143
3.75
271
0
272
9
273
9
  0
DICTIONARY
  5
2D
330
A
100
AcDbDictionary
280
1
281
1
  3
CREATED_BY_EZDXF
350
2E
  3
WRITTEN_BY_EZDXF
350
515
  0
DICTIONARYVAR
  5
2E
330
2D
100
DictionaryVariables
280
0
  1
1.4.4 @ 2026-10-06T08:48:35.651739+00:00
  0
VISUALSTYLE
  5
5A
102
{ACAD_REACTORS
330
16
102
}
330
16
100
AcDbVisualStyle
  2
2dWireframe
 70
4
 90
0
 40
0.6
 62
7
290
0
291
0
  0
VISUALSTYLE
  5
5B
102
{ACAD_REACTORS
330
16
102
}
330
16
100
AcDbVisualStyle
  2
Basic
 70
7
 90
1
 40
0.6
 62
7
290
0
291
1
  0
VISUALSTYLE
  5
5C
102
{ACAD_REACTORS
330
16
102
}
330
16
100
AcDbVisualStyle
  2
Brighten
 70
12
 90
2
 40
0.6
 62
7
290
0
291
1
  0
VISUALSTYLE
  5
5D
102
{ACAD_REACTORS
330
16
102
}
330
16
100
AcDbVisualStyle
  2
ColorChange
 70
16
 90
2
 40
0.6
 62
8
290
0
291
1
  0
VISUALSTYLE
  5
5E
102
{ACAD_REACTORS
330
16
102
}
330
16
100
AcDbVisualStyle
  2
Conceptual
 70
9
 90
3
 40
0.6
 62
7
290
0
291
0
  0
VISUALSTYLE
  5
5F
102
{ACAD_REACTORS
330
16
102
}
330
16
100
AcDbVisualStyle
  2
Dim
 70
11
 90
2
 40
0.6
 62
7
290
0
291
1
  0
VISUALSTYLE
  5
60
102
{ACAD_REACTORS
330
16
102
}
330
16
100
AcDbVisualStyle
  2
EdgeColorOff
 70
22
 90
2
 40
0.6
 62
7
290
0
291
1
  0
VISUALSTYLE
  5
61
102
{ACAD_REACTORS
330
16
102
}
330
16
100
AcDbVisualStyle
  2
Facepattern
 70
15
 90
2
 40
0.6
 62
7
290
0
291
1
  0
VISUALSTYLE
  5
62
102
{ACAD_REACTORS
330
16
102
}
330
16
100
AcDbVisualStyle
  2
Flat
 70
0
 90
2
 40
0.6
 62
7
290
0
291
1
  0
VISUALSTYLE
  5
63
102
{ACAD_REACTORS
330
16
102
}
330
16
100
AcDbVisualStyle
  2
FlatWithEdges
 70
1
 90
2
 40
0.6
 62
7
290
0
291
1
  0
VISUALSTYLE
  5
64
102
{ACAD_REACTORS
330
16
102
}
330
16
100
AcDbVisualStyle
  2
Gouraud
 70
2
 90
2
 40
0.6
 62
7
290
0
291
1
  0
VISUALSTYLE
  5
65
102
{ACAD_REACTORS
330
16
102
}
330
16
100
AcDbVisualStyle
  2
GouraudWithEdges
 70
3
 90
2
 40
0.6
 62
7
290
0
291
1
  0
VISUALSTYLE
  5
66
102
{ACAD_REACTORS
330
16
102
}
330
16
100
AcDbVisualStyle
  2
Hidden
 70
6
 90
1
 40
0.6
 62
7
290
0
291
0
  0
VISUALSTYLE
  5
67
102
{ACAD_REACTORS
330
16
102
}
330
16
100
AcDbVisualStyle
  2
JitterOff
 70
20
 90
2
 40
0.6
 62
7
290
0
291
1
  0
VISUALSTYLE
  5
68
102
{ACAD_REACTORS
330
16
102
}
330
16
100
AcDbVisualStyle
  2
Linepattern
 70
14
 90
2
 40
0.6
 62
7
290
0
291
1
  0
VISUALSTYLE
  5
69
102
{ACAD_REACTORS
330
16
102
}
330
16
100
AcDbVisualStyle
  2
Modeling
 70
10
 90
2
 40
0.6
 62
7
290
0
291
0
  0
VISUALSTYLE
  5
6A
102
{ACAD_REACTORS
330
16
102
}
330
16
100
AcDbVisualStyle
  2
OverhangOff
 70
21
 90
2
 40
0.6
 62
7
290
0
291
1
  0
VISUALSTYLE
  5
6B
102
{ACAD_REACTORS
330
16
102
}
330
16
100
AcDbVisualStyle
  2
Realistic
 70
8
 90
2
 40
0.6
 62
7
290
0
291
0
  0
VISUALSTYLE
  5
6C
102
{ACAD_REACTORS
330
16
102
}
330
16
100
AcDbVisualStyle
  2
Shaded
 70
27
 90
2
 40
0.6
 62
7
290
0
291
0
  0
VISUALSTYLE
  5
6D
102
{ACAD_REACTORS
330
16
102
}
330
16
100
AcDbVisualStyle
  2
Shaded with edges
 70
26
 90
2
 40
0.6
 62
7
290
0
291
0
  0
VISUALSTYLE
  5
6E
102
{ACAD_REACTORS
330
16
102
}
330
16
100
AcDbVisualStyle
  2
Shades of Gray
 70
23
 90
2
 40
0.6
 62
7
290
0
291
0
  0
VISUALSTYLE
  5
6F
102
{ACAD_REACTORS
330
16
102
}
330
16
100
AcDbVisualStyle
  2
Sketchy
 70
24
 90
1
 40
0.6
 62
7
290
0
291
0
  0
VISUALSTYLE
  5
70
102
{ACAD_REACTORS
330
16
102
}
330
16
100
AcDbVisualStyle
  2
Thicken
 70
13
 90
2
 40
0.6
 62
7
290
0
291
1
  0
VISUALSTYLE
  5
71
102
{ACAD_REACTORS
330
16
102
}
330
16
100
AcDbVisualStyle
  2
Wireframe
 70
5
 90
0
 40
0.6
 62
7
290
0
291
0
  0
VISUALSTYLE
  5
72
102
{ACAD_REACTORS
330
16
102
}
330
16
100
AcDbVisualStyle
  2
X-Ray
 70
25
 90
2
 40
0.5
 62
7
290
0
291
0
  0
DICTIONARYVAR
  5
515
330
2D
100
DictionaryVariables
280
0
  1
1.4.4 @ 2026-10-06T08:48:35.700800+00:00
  0
ENDSEC
  0
EOF
