# كوخ مزرعة 6.5×10 - غرفتين وصالة — Watad Wood Factory (units: cm, Z-up)
mtllib farm-cabin-6.5x10_3d.mtl
o slab
v -16.00 -16.00 -20.00
v 659.00 -16.00 -20.00
v 659.00 1002.00 -20.00
v -16.00 1002.00 -20.00
v -16.00 -16.00 0.00
v 659.00 -16.00 0.00
v 659.00 1002.00 0.00
v -16.00 1002.00 0.00
usemtl slab
f 4 3 2 1
f 5 6 7 8
f 1 2 6 5
f 2 3 7 6
f 3 4 8 7
f 4 1 5 8
o wood
v -6.00 -6.00 0.00
v 57.00 -6.00 0.00
v 57.00 6.00 0.00
v -6.00 6.00 0.00
v -6.00 -6.00 280.00
v 57.00 -6.00 280.00
v 57.00 6.00 280.00
v -6.00 6.00 280.00
v 177.00 -6.00 0.00
v 257.00 -6.00 0.00
v 257.00 6.00 0.00
v 177.00 6.00 0.00
v 177.00 -6.00 280.00
v 257.00 -6.00 280.00
v 257.00 6.00 280.00
v 177.00 6.00 280.00
v 377.00 -6.00 0.00
v 456.00 -6.00 0.00
v 456.00 6.00 0.00
v 377.00 6.00 0.00
v 377.00 -6.00 280.00
v 456.00 -6.00 280.00
v 456.00 6.00 280.00
v 377.00 6.00 280.00
v 576.00 -6.00 0.00
v 649.00 -6.00 0.00
v 649.00 6.00 0.00
v 576.00 6.00 0.00
v 576.00 -6.00 280.00
v 649.00 -6.00 280.00
v 649.00 6.00 280.00
v 576.00 6.00 280.00
v 57.00 -6.00 0.00
v 177.00 -6.00 0.00
v 177.00 6.00 0.00
v 57.00 6.00 0.00
v 57.00 -6.00 90.00
v 177.00 -6.00 90.00
v 177.00 6.00 90.00
v 57.00 6.00 90.00
v 57.00 -6.00 210.00
v 177.00 -6.00 210.00
v 177.00 6.00 210.00
v 57.00 6.00 210.00
v 57.00 -6.00 280.00
v 177.00 -6.00 280.00
v 177.00 6.00 280.00
v 57.00 6.00 280.00
v 257.00 -6.00 210.00
v 377.00 -6.00 210.00
v 377.00 6.00 210.00
v 257.00 6.00 210.00
v 257.00 -6.00 280.00
v 377.00 -6.00 280.00
v 377.00 6.00 280.00
v 257.00 6.00 280.00
v 456.00 -6.00 0.00
v 576.00 -6.00 0.00
v 576.00 6.00 0.00
v 456.00 6.00 0.00
v 456.00 -6.00 90.00
v 576.00 -6.00 90.00
v 576.00 6.00 90.00
v 456.00 6.00 90.00
v 456.00 -6.00 210.00
v 576.00 -6.00 210.00
v 576.00 6.00 210.00
v 456.00 6.00 210.00
v 456.00 -6.00 280.00
v 576.00 -6.00 280.00
v 576.00 6.00 280.00
v 456.00 6.00 280.00
v -6.00 -6.00 280.00
v 649.00 -6.00 280.00
v 321.50 -6.00 461.54
v -6.00 6.00 280.00
v 649.00 6.00 280.00
v 321.50 6.00 461.54
v 649.00 -6.00 0.00
v 649.00 314.00 0.00
v 637.00 314.00 0.00
v 637.00 -6.00 0.00
v 649.00 -6.00 280.00
v 649.00 314.00 280.00
v 637.00 314.00 280.00
v 637.00 -6.00 280.00
v 649.00 434.00 0.00
v 649.00 494.00 0.00
v 637.00 494.00 0.00
v 637.00 434.00 0.00
v 649.00 434.00 280.00
v 649.00 494.00 280.00
v 637.00 494.00 280.00
v 637.00 434.00 280.00
v 649.00 594.00 0.00
v 649.00 772.00 0.00
v 637.00 772.00 0.00
v 637.00 594.00 0.00
v 649.00 594.00 280.00
v 649.00 772.00 280.00
v 637.00 772.00 280.00
v 637.00 594.00 280.00
v 649.00 892.00 0.00
v 649.00 992.00 0.00
v 637.00 992.00 0.00
v 637.00 892.00 0.00
v 649.00 892.00 280.00
v 649.00 992.00 280.00
v 637.00 992.00 280.00
v 637.00 892.00 280.00
v 649.00 314.00 0.00
v 649.00 434.00 0.00
v 637.00 434.00 0.00
v 637.00 314.00 0.00
v 649.00 314.00 90.00
v 649.00 434.00 90.00
v 637.00 434.00 90.00
v 637.00 314.00 90.00
v 649.00 314.00 210.00
v 649.00 434.00 210.00
v 637.00 434.00 210.00
v 637.00 314.00 210.00
v 649.00 314.00 280.00
v 649.00 434.00 280.00
v 637.00 434.00 280.00
v 637.00 314.00 280.00
v 649.00 494.00 0.00
v 649.00 594.00 0.00
v 637.00 594.00 0.00
v 637.00 494.00 0.00
v 649.00 494.00 120.00
v 649.00 594.00 120.00
v 637.00 594.00 120.00
v 637.00 494.00 120.00
v 649.00 494.00 210.00
v 649.00 594.00 210.00
v 637.00 594.00 210.00
v 637.00 494.00 210.00
v 649.00 494.00 280.00
v 649.00 594.00 280.00
v 637.00 594.00 280.00
v 637.00 494.00 280.00
v 649.00 772.00 0.00
v 649.00 892.00 0.00
v 637.00 892.00 0.00
v 637.00 772.00 0.00
v 649.00 772.00 90.00
v 649.00 892.00 90.00
v 637.00 892.00 90.00
v 637.00 772.00 90.00
v 649.00 772.00 210.00
v 649.00 892.00 210.00
v 637.00 892.00 210.00
v 637.00 772.00 210.00
v 649.00 772.00 280.00
v 649.00 892.00 280.00
v 637.00 892.00 280.00
v 637.00 772.00 280.00
v 649.00 992.00 0.00
v 558.00 992.00 0.00
v 558.00 980.00 0.00
v 649.00 980.00 0.00
v 649.00 992.00 280.00
v 558.00 992.00 280.00
v 558.00 980.00 280.00
v 649.00 980.00 280.00
v 438.00 992.00 0.00
v 236.00 992.00 0.00
v 236.00 980.00 0.00
v 438.00 980.00 0.00
v 438.00 992.00 280.00
v 236.00 992.00 280.00
v 236.00 980.00 280.00
v 438.00 980.00 280.00
v 116.00 992.00 0.00
v -6.00 992.00 0.00
v -6.00 980.00 0.00
v 116.00 980.00 0.00
v 116.00 992.00 280.00
v -6.00 992.00 280.00
v -6.00 980.00 280.00
v 116.00 980.00 280.00
v 558.00 992.00 0.00
v 438.00 992.00 0.00
v 438.00 980.00 0.00
v 558.00 980.00 0.00
v 558.00 992.00 90.00
v 438.00 992.00 90.00
v 438.00 980.00 90.00
v 558.00 980.00 90.00
v 558.00 992.00 210.00
v 438.00 992.00 210.00
v 438.00 980.00 210.00
v 558.00 980.00 210.00
v 558.00 992.00 280.00
v 438.00 992.00 280.00
v 438.00 980.00 280.00
v 558.00 980.00 280.00
v 236.00 992.00 0.00
v 116.00 992.00 0.00
v 116.00 980.00 0.00
v 236.00 980.00 0.00
v 236.00 992.00 90.00
v 116.00 992.00 90.00
v 116.00 980.00 90.00
v 236.00 980.00 90.00
v 236.00 992.00 210.00
v 116.00 992.00 210.00
v 116.00 980.00 210.00
v 236.00 980.00 210.00
v 236.00 992.00 280.00
v 116.00 992.00 280.00
v 116.00 980.00 280.00
v 236.00 980.00 280.00
v 649.00 992.00 280.00
v -6.00 992.00 280.00
v 321.50 992.00 461.54
v 649.00 980.00 280.00
v -6.00 980.00 280.00
v 321.50 980.00 461.54
v -6.00 992.00 0.00
v -6.00 874.00 0.00
v 6.00 874.00 0.00
v 6.00 992.00 0.00
v -6.00 992.00 280.00
v -6.00 874.00 280.00
v 6.00 874.00 280.00
v 6.00 992.00 280.00
v -6.00 754.00 0.00
v -6.00 536.00 0.00
v 6.00 536.00 0.00
v 6.00 754.00 0.00
v -6.00 754.00 280.00
v -6.00 536.00 280.00
v 6.00 536.00 280.00
v 6.00 754.00 280.00
v -6.00 476.00 0.00
v -6.00 265.00 0.00
v 6.00 265.00 0.00
v 6.00 476.00 0.00
v -6.00 476.00 280.00
v -6.00 265.00 280.00
v 6.00 265.00 280.00
v 6.00 476.00 280.00
v -6.00 145.00 0.00
v -6.00 -6.00 0.00
v 6.00 -6.00 0.00
v 6.00 145.00 0.00
v -6.00 145.00 280.00
v -6.00 -6.00 280.00
v 6.00 -6.00 280.00
v 6.00 145.00 280.00
v -6.00 874.00 0.00
v -6.00 754.00 0.00
v 6.00 754.00 0.00
v 6.00 874.00 0.00
v -6.00 874.00 90.00
v -6.00 754.00 90.00
v 6.00 754.00 90.00
v 6.00 874.00 90.00
v -6.00 874.00 210.00
v -6.00 754.00 210.00
v 6.00 754.00 210.00
v 6.00 874.00 210.00
v -6.00 874.00 280.00
v -6.00 754.00 280.00
v 6.00 754.00 280.00
v 6.00 874.00 280.00
v -6.00 536.00 0.00
v -6.00 476.00 0.00
v 6.00 476.00 0.00
v 6.00 536.00 0.00
v -6.00 536.00 150.00
v -6.00 476.00 150.00
v 6.00 476.00 150.00
v 6.00 536.00 150.00
v -6.00 536.00 210.00
v -6.00 476.00 210.00
v 6.00 476.00 210.00
v 6.00 536.00 210.00
v -6.00 536.00 280.00
v -6.00 476.00 280.00
v 6.00 476.00 280.00
v 6.00 536.00 280.00
v -6.00 265.00 0.00
v -6.00 145.00 0.00
v 6.00 145.00 0.00
v 6.00 265.00 0.00
v -6.00 265.00 90.00
v -6.00 145.00 90.00
v 6.00 145.00 90.00
v 6.00 265.00 90.00
v -6.00 265.00 210.00
v -6.00 145.00 210.00
v 6.00 145.00 210.00
v 6.00 265.00 210.00
v -6.00 265.00 280.00
v -6.00 145.00 280.00
v 6.00 145.00 280.00
v 6.00 265.00 280.00
usemtl wood
f 12 11 10 9
f 13 14 15 16
f 9 10 14 13
f 10 11 15 14
f 11 12 16 15
f 12 9 13 16
f 20 19 18 17
f 21 22 23 24
f 17 18 22 21
f 18 19 23 22
f 19 20 24 23
f 20 17 21 24
f 28 27 26 25
f 29 30 31 32
f 25 26 30 29
f 26 27 31 30
f 27 28 32 31
f 28 25 29 32
f 36 35 34 33
f 37 38 39 40
f 33 34 38 37
f 34 35 39 38
f 35 36 40 39
f 36 33 37 40
f 44 43 42 41
f 45 46 47 48
f 41 42 46 45
f 42 43 47 46
f 43 44 48 47
f 44 41 45 48
f 52 51 50 49
f 53 54 55 56
f 49 50 54 53
f 50 51 55 54
f 51 52 56 55
f 52 49 53 56
f 60 59 58 57
f 61 62 63 64
f 57 58 62 61
f 58 59 63 62
f 59 60 64 63
f 60 57 61 64
f 68 67 66 65
f 69 70 71 72
f 65 66 70 69
f 66 67 71 70
f 67 68 72 71
f 68 65 69 72
f 76 75 74 73
f 77 78 79 80
f 73 74 78 77
f 74 75 79 78
f 75 76 80 79
f 76 73 77 80
f 81 82 83
f 86 85 84
f 84 85 82 81
f 85 86 83 82
f 86 84 81 83
f 90 89 88 87
f 91 92 93 94
f 87 88 92 91
f 88 89 93 92
f 89 90 94 93
f 90 87 91 94
f 98 97 96 95
f 99 100 101 102
f 95 96 100 99
f 96 97 101 100
f 97 98 102 101
f 98 95 99 102
f 106 105 104 103
f 107 108 109 110
f 103 104 108 107
f 104 105 109 108
f 105 106 110 109
f 106 103 107 110
f 114 113 112 111
f 115 116 117 118
f 111 112 116 115
f 112 113 117 116
f 113 114 118 117
f 114 111 115 118
f 122 121 120 119
f 123 124 125 126
f 119 120 124 123
f 120 121 125 124
f 121 122 126 125
f 122 119 123 126
f 130 129 128 127
f 131 132 133 134
f 127 128 132 131
f 128 129 133 132
f 129 130 134 133
f 130 127 131 134
f 138 137 136 135
f 139 140 141 142
f 135 136 140 139
f 136 137 141 140
f 137 138 142 141
f 138 135 139 142
f 146 145 144 143
f 147 148 149 150
f 143 144 148 147
f 144 145 149 148
f 145 146 150 149
f 146 143 147 150
f 154 153 152 151
f 155 156 157 158
f 151 152 156 155
f 152 153 157 156
f 153 154 158 157
f 154 151 155 158
f 162 161 160 159
f 163 164 165 166
f 159 160 164 163
f 160 161 165 164
f 161 162 166 165
f 162 159 163 166
f 170 169 168 167
f 171 172 173 174
f 167 168 172 171
f 168 169 173 172
f 169 170 174 173
f 170 167 171 174
f 178 177 176 175
f 179 180 181 182
f 175 176 180 179
f 176 177 181 180
f 177 178 182 181
f 178 175 179 182
f 186 185 184 183
f 187 188 189 190
f 183 184 188 187
f 184 185 189 188
f 185 186 190 189
f 186 183 187 190
f 194 193 192 191
f 195 196 197 198
f 191 192 196 195
f 192 193 197 196
f 193 194 198 197
f 194 191 195 198
f 202 201 200 199
f 203 204 205 206
f 199 200 204 203
f 200 201 205 204
f 201 202 206 205
f 202 199 203 206
f 210 209 208 207
f 211 212 213 214
f 207 208 212 211
f 208 209 213 212
f 209 210 214 213
f 210 207 211 214
f 218 217 216 215
f 219 220 221 222
f 215 216 220 219
f 216 217 221 220
f 217 218 222 221
f 218 215 219 222
f 223 224 225
f 228 227 226
f 226 227 224 223
f 227 228 225 224
f 228 226 223 225
f 232 231 230 229
f 233 234 235 236
f 229 230 234 233
f 230 231 235 234
f 231 232 236 235
f 232 229 233 236
f 240 239 238 237
f 241 242 243 244
f 237 238 242 241
f 238 239 243 242
f 239 240 244 243
f 240 237 241 244
f 248 247 246 245
f 249 250 251 252
f 245 246 250 249
f 246 247 251 250
f 247 248 252 251
f 248 245 249 252
f 256 255 254 253
f 257 258 259 260
f 253 254 258 257
f 254 255 259 258
f 255 256 260 259
f 256 253 257 260
f 264 263 262 261
f 265 266 267 268
f 261 262 266 265
f 262 263 267 266
f 263 264 268 267
f 264 261 265 268
f 272 271 270 269
f 273 274 275 276
f 269 270 274 273
f 270 271 275 274
f 271 272 276 275
f 272 269 273 276
f 280 279 278 277
f 281 282 283 284
f 277 278 282 281
f 278 279 283 282
f 279 280 284 283
f 280 277 281 284
f 288 287 286 285
f 289 290 291 292
f 285 286 290 289
f 286 287 291 290
f 287 288 292 291
f 288 285 289 292
f 296 295 294 293
f 297 298 299 300
f 293 294 298 297
f 294 295 299 298
f 295 296 300 299
f 296 293 297 300
f 304 303 302 301
f 305 306 307 308
f 301 302 306 305
f 302 303 307 306
f 303 304 308 307
f 304 301 305 308
o glass
v 57.00 -1.00 90.00
v 177.00 -1.00 90.00
v 177.00 1.00 90.00
v 57.00 1.00 90.00
v 57.00 -1.00 210.00
v 177.00 -1.00 210.00
v 177.00 1.00 210.00
v 57.00 1.00 210.00
v 271.00 -1.00 10.00
v 309.00 -1.00 10.00
v 309.00 1.00 10.00
v 271.00 1.00 10.00
v 271.00 -1.00 196.00
v 309.00 -1.00 196.00
v 309.00 1.00 196.00
v 271.00 1.00 196.00
v 325.00 -1.00 10.00
v 363.00 -1.00 10.00
v 363.00 1.00 10.00
v 325.00 1.00 10.00
v 325.00 -1.00 196.00
v 363.00 -1.00 196.00
v 363.00 1.00 196.00
v 325.00 1.00 196.00
v 456.00 -1.00 90.00
v 576.00 -1.00 90.00
v 576.00 1.00 90.00
v 456.00 1.00 90.00
v 456.00 -1.00 210.00
v 576.00 -1.00 210.00
v 576.00 1.00 210.00
v 456.00 1.00 210.00
v 644.00 314.00 90.00
v 644.00 434.00 90.00
v 642.00 434.00 90.00
v 642.00 314.00 90.00
v 644.00 314.00 210.00
v 644.00 434.00 210.00
v 642.00 434.00 210.00
v 642.00 314.00 210.00
v 644.00 494.00 120.00
v 644.00 594.00 120.00
v 642.00 594.00 120.00
v 642.00 494.00 120.00
v 644.00 494.00 210.00
v 644.00 594.00 210.00
v 642.00 594.00 210.00
v 642.00 494.00 210.00
v 644.00 772.00 90.00
v 644.00 892.00 90.00
v 642.00 892.00 90.00
v 642.00 772.00 90.00
v 644.00 772.00 210.00
v 644.00 892.00 210.00
v 642.00 892.00 210.00
v 642.00 772.00 210.00
v 558.00 987.00 90.00
v 438.00 987.00 90.00
v 438.00 985.00 90.00
v 558.00 985.00 90.00
v 558.00 987.00 210.00
v 438.00 987.00 210.00
v 438.00 985.00 210.00
v 558.00 985.00 210.00
v 236.00 987.00 90.00
v 116.00 987.00 90.00
v 116.00 985.00 90.00
v 236.00 985.00 90.00
v 236.00 987.00 210.00
v 116.00 987.00 210.00
v 116.00 985.00 210.00
v 236.00 985.00 210.00
v -1.00 874.00 90.00
v -1.00 754.00 90.00
v 1.00 754.00 90.00
v 1.00 874.00 90.00
v -1.00 874.00 210.00
v -1.00 754.00 210.00
v 1.00 754.00 210.00
v 1.00 874.00 210.00
v -1.00 536.00 150.00
v -1.00 476.00 150.00
v 1.00 476.00 150.00
v 1.00 536.00 150.00
v -1.00 536.00 210.00
v -1.00 476.00 210.00
v 1.00 476.00 210.00
v 1.00 536.00 210.00
v -1.00 265.00 90.00
v -1.00 145.00 90.00
v 1.00 145.00 90.00
v 1.00 265.00 90.00
v -1.00 265.00 210.00
v -1.00 145.00 210.00
v 1.00 145.00 210.00
v 1.00 265.00 210.00
usemtl glass
f 312 311 310 309
f 313 314 315 316
f 309 310 314 313
f 310 311 315 314
f 311 312 316 315
f 312 309 313 316
f 320 319 318 317
f 321 322 323 324
f 317 318 322 321
f 318 319 323 322
f 319 320 324 323
f 320 317 321 324
f 328 327 326 325
f 329 330 331 332
f 325 326 330 329
f 326 327 331 330
f 327 328 332 331
f 328 325 329 332
f 336 335 334 333
f 337 338 339 340
f 333 334 338 337
f 334 335 339 338
f 335 336 340 339
f 336 333 337 340
f 344 343 342 341
f 345 346 347 348
f 341 342 346 345
f 342 343 347 346
f 343 344 348 347
f 344 341 345 348
f 352 351 350 349
f 353 354 355 356
f 349 350 354 353
f 350 351 355 354
f 351 352 356 355
f 352 349 353 356
f 360 359 358 357
f 361 362 363 364
f 357 358 362 361
f 358 359 363 362
f 359 360 364 363
f 360 357 361 364
f 368 367 366 365
f 369 370 371 372
f 365 366 370 369
f 366 367 371 370
f 367 368 372 371
f 368 365 369 372
f 376 375 374 373
f 377 378 379 380
f 373 374 378 377
f 374 375 379 378
f 375 376 380 379
f 376 373 377 380
f 384 383 382 381
f 385 386 387 388
f 381 382 386 385
f 382 383 387 386
f 383 384 388 387
f 384 381 385 388
f 392 391 390 389
f 393 394 395 396
f 389 390 394 393
f 390 391 395 394
f 391 392 396 395
f 392 389 393 396
f 400 399 398 397
f 401 402 403 404
f 397 398 402 401
f 398 399 403 402
f 399 400 404 403
f 400 397 401 404
o frame
v 57.00 -8.00 90.00
v 63.00 -8.00 90.00
v 63.00 6.00 90.00
v 57.00 6.00 90.00
v 57.00 -8.00 210.00
v 63.00 -8.00 210.00
v 63.00 6.00 210.00
v 57.00 6.00 210.00
v 171.00 -8.00 90.00
v 177.00 -8.00 90.00
v 177.00 6.00 90.00
v 171.00 6.00 90.00
v 171.00 -8.00 210.00
v 177.00 -8.00 210.00
v 177.00 6.00 210.00
v 171.00 6.00 210.00
v 57.00 -8.00 90.00
v 177.00 -8.00 90.00
v 177.00 6.00 90.00
v 57.00 6.00 90.00
v 57.00 -8.00 96.00
v 177.00 -8.00 96.00
v 177.00 6.00 96.00
v 57.00 6.00 96.00
v 57.00 -8.00 204.00
v 177.00 -8.00 204.00
v 177.00 6.00 204.00
v 57.00 6.00 204.00
v 57.00 -8.00 210.00
v 177.00 -8.00 210.00
v 177.00 6.00 210.00
v 57.00 6.00 210.00
v 114.50 -3.00 90.00
v 119.50 -3.00 90.00
v 119.50 3.00 90.00
v 114.50 3.00 90.00
v 114.50 -3.00 210.00
v 119.50 -3.00 210.00
v 119.50 3.00 210.00
v 114.50 3.00 210.00
v 257.00 -8.00 0.00
v 263.00 -8.00 0.00
v 263.00 6.00 0.00
v 257.00 6.00 0.00
v 257.00 -8.00 210.00
v 263.00 -8.00 210.00
v 263.00 6.00 210.00
v 257.00 6.00 210.00
v 371.00 -8.00 0.00
v 377.00 -8.00 0.00
v 377.00 6.00 0.00
v 371.00 6.00 0.00
v 371.00 -8.00 210.00
v 377.00 -8.00 210.00
v 377.00 6.00 210.00
v 371.00 6.00 210.00
v 257.00 -8.00 204.00
v 377.00 -8.00 204.00
v 377.00 6.00 204.00
v 257.00 6.00 204.00
v 257.00 -8.00 210.00
v 377.00 -8.00 210.00
v 377.00 6.00 210.00
v 257.00 6.00 210.00
v 456.00 -8.00 90.00
v 462.00 -8.00 90.00
v 462.00 6.00 90.00
v 456.00 6.00 90.00
v 456.00 -8.00 210.00
v 462.00 -8.00 210.00
v 462.00 6.00 210.00
v 456.00 6.00 210.00
v 570.00 -8.00 90.00
v 576.00 -8.00 90.00
v 576.00 6.00 90.00
v 570.00 6.00 90.00
v 570.00 -8.00 210.00
v 576.00 -8.00 210.00
v 576.00 6.00 210.00
v 570.00 6.00 210.00
v 456.00 -8.00 90.00
v 576.00 -8.00 90.00
v 576.00 6.00 90.00
v 456.00 6.00 90.00
v 456.00 -8.00 96.00
v 576.00 -8.00 96.00
v 576.00 6.00 96.00
v 456.00 6.00 96.00
v 456.00 -8.00 204.00
v 576.00 -8.00 204.00
v 576.00 6.00 204.00
v 456.00 6.00 204.00
v 456.00 -8.00 210.00
v 576.00 -8.00 210.00
v 576.00 6.00 210.00
v 456.00 6.00 210.00
v 513.50 -3.00 90.00
v 518.50 -3.00 90.00
v 518.50 3.00 90.00
v 513.50 3.00 90.00
v 513.50 -3.00 210.00
v 518.50 -3.00 210.00
v 518.50 3.00 210.00
v 513.50 3.00 210.00
v 651.00 314.00 90.00
v 651.00 320.00 90.00
v 637.00 320.00 90.00
v 637.00 314.00 90.00
v 651.00 314.00 210.00
v 651.00 320.00 210.00
v 637.00 320.00 210.00
v 637.00 314.00 210.00
v 651.00 428.00 90.00
v 651.00 434.00 90.00
v 637.00 434.00 90.00
v 637.00 428.00 90.00
v 651.00 428.00 210.00
v 651.00 434.00 210.00
v 637.00 434.00 210.00
v 637.00 428.00 210.00
v 651.00 314.00 90.00
v 651.00 434.00 90.00
v 637.00 434.00 90.00
v 637.00 314.00 90.00
v 651.00 314.00 96.00
v 651.00 434.00 96.00
v 637.00 434.00 96.00
v 637.00 314.00 96.00
v 651.00 314.00 204.00
v 651.00 434.00 204.00
v 637.00 434.00 204.00
v 637.00 314.00 204.00
v 651.00 314.00 210.00
v 651.00 434.00 210.00
v 637.00 434.00 210.00
v 637.00 314.00 210.00
v 646.00 371.50 90.00
v 646.00 376.50 90.00
v 640.00 376.50 90.00
v 640.00 371.50 90.00
v 646.00 371.50 210.00
v 646.00 376.50 210.00
v 640.00 376.50 210.00
v 640.00 371.50 210.00
v 651.00 494.00 120.00
v 651.00 500.00 120.00
v 637.00 500.00 120.00
v 637.00 494.00 120.00
v 651.00 494.00 210.00
v 651.00 500.00 210.00
v 637.00 500.00 210.00
v 637.00 494.00 210.00
v 651.00 588.00 120.00
v 651.00 594.00 120.00
v 637.00 594.00 120.00
v 637.00 588.00 120.00
v 651.00 588.00 210.00
v 651.00 594.00 210.00
v 637.00 594.00 210.00
v 637.00 588.00 210.00
v 651.00 494.00 120.00
v 651.00 594.00 120.00
v 637.00 594.00 120.00
v 637.00 494.00 120.00
v 651.00 494.00 126.00
v 651.00 594.00 126.00
v 637.00 594.00 126.00
v 637.00 494.00 126.00
v 651.00 494.00 204.00
v 651.00 594.00 204.00
v 637.00 594.00 204.00
v 637.00 494.00 204.00
v 651.00 494.00 210.00
v 651.00 594.00 210.00
v 637.00 594.00 210.00
v 637.00 494.00 210.00
v 646.00 541.50 120.00
v 646.00 546.50 120.00
v 640.00 546.50 120.00
v 640.00 541.50 120.00
v 646.00 541.50 210.00
v 646.00 546.50 210.00
v 640.00 546.50 210.00
v 640.00 541.50 210.00
v 651.00 772.00 90.00
v 651.00 778.00 90.00
v 637.00 778.00 90.00
v 637.00 772.00 90.00
v 651.00 772.00 210.00
v 651.00 778.00 210.00
v 637.00 778.00 210.00
v 637.00 772.00 210.00
v 651.00 886.00 90.00
v 651.00 892.00 90.00
v 637.00 892.00 90.00
v 637.00 886.00 90.00
v 651.00 886.00 210.00
v 651.00 892.00 210.00
v 637.00 892.00 210.00
v 637.00 886.00 210.00
v 651.00 772.00 90.00
v 651.00 892.00 90.00
v 637.00 892.00 90.00
v 637.00 772.00 90.00
v 651.00 772.00 96.00
v 651.00 892.00 96.00
v 637.00 892.00 96.00
v 637.00 772.00 96.00
v 651.00 772.00 204.00
v 651.00 892.00 204.00
v 637.00 892.00 204.00
v 637.00 772.00 204.00
v 651.00 772.00 210.00
v 651.00 892.00 210.00
v 637.00 892.00 210.00
v 637.00 772.00 210.00
v 646.00 829.50 90.00
v 646.00 834.50 90.00
v 640.00 834.50 90.00
v 640.00 829.50 90.00
v 646.00 829.50 210.00
v 646.00 834.50 210.00
v 640.00 834.50 210.00
v 640.00 829.50 210.00
v 558.00 994.00 90.00
v 552.00 994.00 90.00
v 552.00 980.00 90.00
v 558.00 980.00 90.00
v 558.00 994.00 210.00
v 552.00 994.00 210.00
v 552.00 980.00 210.00
v 558.00 980.00 210.00
v 444.00 994.00 90.00
v 438.00 994.00 90.00
v 438.00 980.00 90.00
v 444.00 980.00 90.00
v 444.00 994.00 210.00
v 438.00 994.00 210.00
v 438.00 980.00 210.00
v 444.00 980.00 210.00
v 558.00 994.00 90.00
v 438.00 994.00 90.00
v 438.00 980.00 90.00
v 558.00 980.00 90.00
v 558.00 994.00 96.00
v 438.00 994.00 96.00
v 438.00 980.00 96.00
v 558.00 980.00 96.00
v 558.00 994.00 204.00
v 438.00 994.00 204.00
v 438.00 980.00 204.00
v 558.00 980.00 204.00
v 558.00 994.00 210.00
v 438.00 994.00 210.00
v 438.00 980.00 210.00
v 558.00 980.00 210.00
v 500.50 989.00 90.00
v 495.50 989.00 90.00
v 495.50 983.00 90.00
v 500.50 983.00 90.00
v 500.50 989.00 210.00
v 495.50 989.00 210.00
v 495.50 983.00 210.00
v 500.50 983.00 210.00
v 236.00 994.00 90.00
v 230.00 994.00 90.00
v 230.00 980.00 90.00
v 236.00 980.00 90.00
v 236.00 994.00 210.00
v 230.00 994.00 210.00
v 230.00 980.00 210.00
v 236.00 980.00 210.00
v 122.00 994.00 90.00
v 116.00 994.00 90.00
v 116.00 980.00 90.00
v 122.00 980.00 90.00
v 122.00 994.00 210.00
v 116.00 994.00 210.00
v 116.00 980.00 210.00
v 122.00 980.00 210.00
v 236.00 994.00 90.00
v 116.00 994.00 90.00
v 116.00 980.00 90.00
v 236.00 980.00 90.00
v 236.00 994.00 96.00
v 116.00 994.00 96.00
v 116.00 980.00 96.00
v 236.00 980.00 96.00
v 236.00 994.00 204.00
v 116.00 994.00 204.00
v 116.00 980.00 204.00
v 236.00 980.00 204.00
v 236.00 994.00 210.00
v 116.00 994.00 210.00
v 116.00 980.00 210.00
v 236.00 980.00 210.00
v 178.50 989.00 90.00
v 173.50 989.00 90.00
v 173.50 983.00 90.00
v 178.50 983.00 90.00
v 178.50 989.00 210.00
v 173.50 989.00 210.00
v 173.50 983.00 210.00
v 178.50 983.00 210.00
v -8.00 874.00 90.00
v -8.00 868.00 90.00
v 6.00 868.00 90.00
v 6.00 874.00 90.00
v -8.00 874.00 210.00
v -8.00 868.00 210.00
v 6.00 868.00 210.00
v 6.00 874.00 210.00
v -8.00 760.00 90.00
v -8.00 754.00 90.00
v 6.00 754.00 90.00
v 6.00 760.00 90.00
v -8.00 760.00 210.00
v -8.00 754.00 210.00
v 6.00 754.00 210.00
v 6.00 760.00 210.00
v -8.00 874.00 90.00
v -8.00 754.00 90.00
v 6.00 754.00 90.00
v 6.00 874.00 90.00
v -8.00 874.00 96.00
v -8.00 754.00 96.00
v 6.00 754.00 96.00
v 6.00 874.00 96.00
v -8.00 874.00 204.00
v -8.00 754.00 204.00
v 6.00 754.00 204.00
v 6.00 874.00 204.00
v -8.00 874.00 210.00
v -8.00 754.00 210.00
v 6.00 754.00 210.00
v 6.00 874.00 210.00
v -3.00 816.50 90.00
v -3.00 811.50 90.00
v 3.00 811.50 90.00
v 3.00 816.50 90.00
v -3.00 816.50 210.00
v -3.00 811.50 210.00
v 3.00 811.50 210.00
v 3.00 816.50 210.00
v -8.00 536.00 150.00
v -8.00 530.00 150.00
v 6.00 530.00 150.00
v 6.00 536.00 150.00
v -8.00 536.00 210.00
v -8.00 530.00 210.00
v 6.00 530.00 210.00
v 6.00 536.00 210.00
v -8.00 482.00 150.00
v -8.00 476.00 150.00
v 6.00 476.00 150.00
v 6.00 482.00 150.00
v -8.00 482.00 210.00
v -8.00 476.00 210.00
v 6.00 476.00 210.00
v 6.00 482.00 210.00
v -8.00 536.00 150.00
v -8.00 476.00 150.00
v 6.00 476.00 150.00
v 6.00 536.00 150.00
v -8.00 536.00 156.00
v -8.00 476.00 156.00
v 6.00 476.00 156.00
v 6.00 536.00 156.00
v -8.00 536.00 204.00
v -8.00 476.00 204.00
v 6.00 476.00 204.00
v 6.00 536.00 204.00
v -8.00 536.00 210.00
v -8.00 476.00 210.00
v 6.00 476.00 210.00
v 6.00 536.00 210.00
v -8.00 265.00 90.00
v -8.00 259.00 90.00
v 6.00 259.00 90.00
v 6.00 265.00 90.00
v -8.00 265.00 210.00
v -8.00 259.00 210.00
v 6.00 259.00 210.00
v 6.00 265.00 210.00
v -8.00 151.00 90.00
v -8.00 145.00 90.00
v 6.00 145.00 90.00
v 6.00 151.00 90.00
v -8.00 151.00 210.00
v -8.00 145.00 210.00
v 6.00 145.00 210.00
v 6.00 151.00 210.00
v -8.00 265.00 90.00
v -8.00 145.00 90.00
v 6.00 145.00 90.00
v 6.00 265.00 90.00
v -8.00 265.00 96.00
v -8.00 145.00 96.00
v 6.00 145.00 96.00
v 6.00 265.00 96.00
v -8.00 265.00 204.00
v -8.00 145.00 204.00
v 6.00 145.00 204.00
v 6.00 265.00 204.00
v -8.00 265.00 210.00
v -8.00 145.00 210.00
v 6.00 145.00 210.00
v 6.00 265.00 210.00
v -3.00 207.50 90.00
v -3.00 202.50 90.00
v 3.00 202.50 90.00
v 3.00 207.50 90.00
v -3.00 207.50 210.00
v -3.00 202.50 210.00
v 3.00 202.50 210.00
v 3.00 207.50 210.00
v 197.00 442.00 0.00
v 203.00 442.00 0.00
v 203.00 456.00 0.00
v 197.00 456.00 0.00
v 197.00 442.00 210.00
v 203.00 442.00 210.00
v 203.00 456.00 210.00
v 197.00 456.00 210.00
v 271.00 442.00 0.00
v 277.00 442.00 0.00
v 277.00 456.00 0.00
v 271.00 456.00 0.00
v 271.00 442.00 210.00
v 277.00 442.00 210.00
v 277.00 456.00 210.00
v 271.00 456.00 210.00
v 197.00 442.00 204.00
v 277.00 442.00 204.00
v 277.00 456.00 204.00
v 197.00 456.00 204.00
v 197.00 442.00 210.00
v 277.00 442.00 210.00
v 277.00 456.00 210.00
v 197.00 456.00 210.00
v 36.00 635.00 0.00
v 42.00 635.00 0.00
v 42.00 649.00 0.00
v 36.00 649.00 0.00
v 36.00 635.00 210.00
v 42.00 635.00 210.00
v 42.00 649.00 210.00
v 36.00 649.00 210.00
v 110.00 635.00 0.00
v 116.00 635.00 0.00
v 116.00 649.00 0.00
v 110.00 649.00 0.00
v 110.00 635.00 210.00
v 116.00 635.00 210.00
v 116.00 649.00 210.00
v 110.00 649.00 210.00
v 36.00 635.00 204.00
v 116.00 635.00 204.00
v 116.00 649.00 204.00
v 36.00 649.00 204.00
v 36.00 635.00 210.00
v 116.00 635.00 210.00
v 116.00 649.00 210.00
v 36.00 649.00 210.00
v 297.00 635.00 0.00
v 303.00 635.00 0.00
v 303.00 649.00 0.00
v 297.00 649.00 0.00
v 297.00 635.00 210.00
v 303.00 635.00 210.00
v 303.00 649.00 210.00
v 297.00 649.00 210.00
v 371.00 635.00 0.00
v 377.00 635.00 0.00
v 377.00 649.00 0.00
v 371.00 649.00 0.00
v 371.00 635.00 210.00
v 377.00 635.00 210.00
v 377.00 649.00 210.00
v 371.00 649.00 210.00
v 297.00 635.00 204.00
v 377.00 635.00 204.00
v 377.00 649.00 204.00
v 297.00 649.00 204.00
v 297.00 635.00 210.00
v 377.00 635.00 210.00
v 377.00 649.00 210.00
v 297.00 649.00 210.00
v 386.00 635.00 0.00
v 392.00 635.00 0.00
v 392.00 649.00 0.00
v 386.00 649.00 0.00
v 386.00 635.00 210.00
v 392.00 635.00 210.00
v 392.00 649.00 210.00
v 386.00 649.00 210.00
v 460.00 635.00 0.00
v 466.00 635.00 0.00
v 466.00 649.00 0.00
v 460.00 649.00 0.00
v 460.00 635.00 210.00
v 466.00 635.00 210.00
v 466.00 649.00 210.00
v 460.00 649.00 210.00
v 386.00 635.00 204.00
v 466.00 635.00 204.00
v 466.00 649.00 204.00
v 386.00 649.00 204.00
v 386.00 635.00 210.00
v 466.00 635.00 210.00
v 466.00 649.00 210.00
v 386.00 649.00 210.00
usemtl frame
f 408 407 406 405
f 409 410 411 412
f 405 406 410 409
f 406 407 411 410
f 407 408 412 411
f 408 405 409 412
f 416 415 414 413
f 417 418 419 420
f 413 414 418 417
f 414 415 419 418
f 415 416 420 419
f 416 413 417 420
f 424 423 422 421
f 425 426 427 428
f 421 422 426 425
f 422 423 427 426
f 423 424 428 427
f 424 421 425 428
f 432 431 430 429
f 433 434 435 436
f 429 430 434 433
f 430 431 435 434
f 431 432 436 435
f 432 429 433 436
f 440 439 438 437
f 441 442 443 444
f 437 438 442 441
f 438 439 443 442
f 439 440 444 443
f 440 437 441 444
f 448 447 446 445
f 449 450 451 452
f 445 446 450 449
f 446 447 451 450
f 447 448 452 451
f 448 445 449 452
f 456 455 454 453
f 457 458 459 460
f 453 454 458 457
f 454 455 459 458
f 455 456 460 459
f 456 453 457 460
f 464 463 462 461
f 465 466 467 468
f 461 462 466 465
f 462 463 467 466
f 463 464 468 467
f 464 461 465 468
f 472 471 470 469
f 473 474 475 476
f 469 470 474 473
f 470 471 475 474
f 471 472 476 475
f 472 469 473 476
f 480 479 478 477
f 481 482 483 484
f 477 478 482 481
f 478 479 483 482
f 479 480 484 483
f 480 477 481 484
f 488 487 486 485
f 489 490 491 492
f 485 486 490 489
f 486 487 491 490
f 487 488 492 491
f 488 485 489 492
f 496 495 494 493
f 497 498 499 500
f 493 494 498 497
f 494 495 499 498
f 495 496 500 499
f 496 493 497 500
f 504 503 502 501
f 505 506 507 508
f 501 502 506 505
f 502 503 507 506
f 503 504 508 507
f 504 501 505 508
f 512 511 510 509
f 513 514 515 516
f 509 510 514 513
f 510 511 515 514
f 511 512 516 515
f 512 509 513 516
f 520 519 518 517
f 521 522 523 524
f 517 518 522 521
f 518 519 523 522
f 519 520 524 523
f 520 517 521 524
f 528 527 526 525
f 529 530 531 532
f 525 526 530 529
f 526 527 531 530
f 527 528 532 531
f 528 525 529 532
f 536 535 534 533
f 537 538 539 540
f 533 534 538 537
f 534 535 539 538
f 535 536 540 539
f 536 533 537 540
f 544 543 542 541
f 545 546 547 548
f 541 542 546 545
f 542 543 547 546
f 543 544 548 547
f 544 541 545 548
f 552 551 550 549
f 553 554 555 556
f 549 550 554 553
f 550 551 555 554
f 551 552 556 555
f 552 549 553 556
f 560 559 558 557
f 561 562 563 564
f 557 558 562 561
f 558 559 563 562
f 559 560 564 563
f 560 557 561 564
f 568 567 566 565
f 569 570 571 572
f 565 566 570 569
f 566 567 571 570
f 567 568 572 571
f 568 565 569 572
f 576 575 574 573
f 577 578 579 580
f 573 574 578 577
f 574 575 579 578
f 575 576 580 579
f 576 573 577 580
f 584 583 582 581
f 585 586 587 588
f 581 582 586 585
f 582 583 587 586
f 583 584 588 587
f 584 581 585 588
f 592 591 590 589
f 593 594 595 596
f 589 590 594 593
f 590 591 595 594
f 591 592 596 595
f 592 589 593 596
f 600 599 598 597
f 601 602 603 604
f 597 598 602 601
f 598 599 603 602
f 599 600 604 603
f 600 597 601 604
f 608 607 606 605
f 609 610 611 612
f 605 606 610 609
f 606 607 611 610
f 607 608 612 611
f 608 605 609 612
f 616 615 614 613
f 617 618 619 620
f 613 614 618 617
f 614 615 619 618
f 615 616 620 619
f 616 613 617 620
f 624 623 622 621
f 625 626 627 628
f 621 622 626 625
f 622 623 627 626
f 623 624 628 627
f 624 621 625 628
f 632 631 630 629
f 633 634 635 636
f 629 630 634 633
f 630 631 635 634
f 631 632 636 635
f 632 629 633 636
f 640 639 638 637
f 641 642 643 644
f 637 638 642 641
f 638 639 643 642
f 639 640 644 643
f 640 637 641 644
f 648 647 646 645
f 649 650 651 652
f 645 646 650 649
f 646 647 651 650
f 647 648 652 651
f 648 645 649 652
f 656 655 654 653
f 657 658 659 660
f 653 654 658 657
f 654 655 659 658
f 655 656 660 659
f 656 653 657 660
f 664 663 662 661
f 665 666 667 668
f 661 662 666 665
f 662 663 667 666
f 663 664 668 667
f 664 661 665 668
f 672 671 670 669
f 673 674 675 676
f 669 670 674 673
f 670 671 675 674
f 671 672 676 675
f 672 669 673 676
f 680 679 678 677
f 681 682 683 684
f 677 678 682 681
f 678 679 683 682
f 679 680 684 683
f 680 677 681 684
f 688 687 686 685
f 689 690 691 692
f 685 686 690 689
f 686 687 691 690
f 687 688 692 691
f 688 685 689 692
f 696 695 694 693
f 697 698 699 700
f 693 694 698 697
f 694 695 699 698
f 695 696 700 699
f 696 693 697 700
f 704 703 702 701
f 705 706 707 708
f 701 702 706 705
f 702 703 707 706
f 703 704 708 707
f 704 701 705 708
f 712 711 710 709
f 713 714 715 716
f 709 710 714 713
f 710 711 715 714
f 711 712 716 715
f 712 709 713 716
f 720 719 718 717
f 721 722 723 724
f 717 718 722 721
f 718 719 723 722
f 719 720 724 723
f 720 717 721 724
f 728 727 726 725
f 729 730 731 732
f 725 726 730 729
f 726 727 731 730
f 727 728 732 731
f 728 725 729 732
f 736 735 734 733
f 737 738 739 740
f 733 734 738 737
f 734 735 739 738
f 735 736 740 739
f 736 733 737 740
f 744 743 742 741
f 745 746 747 748
f 741 742 746 745
f 742 743 747 746
f 743 744 748 747
f 744 741 745 748
f 752 751 750 749
f 753 754 755 756
f 749 750 754 753
f 750 751 755 754
f 751 752 756 755
f 752 749 753 756
f 760 759 758 757
f 761 762 763 764
f 757 758 762 761
f 758 759 763 762
f 759 760 764 763
f 760 757 761 764
f 768 767 766 765
f 769 770 771 772
f 765 766 770 769
f 766 767 771 770
f 767 768 772 771
f 768 765 769 772
f 776 775 774 773
f 777 778 779 780
f 773 774 778 777
f 774 775 779 778
f 775 776 780 779
f 776 773 777 780
f 784 783 782 781
f 785 786 787 788
f 781 782 786 785
f 782 783 787 786
f 783 784 788 787
f 784 781 785 788
f 792 791 790 789
f 793 794 795 796
f 789 790 794 793
f 790 791 795 794
f 791 792 796 795
f 792 789 793 796
f 800 799 798 797
f 801 802 803 804
f 797 798 802 801
f 798 799 803 802
f 799 800 804 803
f 800 797 801 804
f 808 807 806 805
f 809 810 811 812
f 805 806 810 809
f 806 807 811 810
f 807 808 812 811
f 808 805 809 812
f 816 815 814 813
f 817 818 819 820
f 813 814 818 817
f 814 815 819 818
f 815 816 820 819
f 816 813 817 820
f 824 823 822 821
f 825 826 827 828
f 821 822 826 825
f 822 823 827 826
f 823 824 828 827
f 824 821 825 828
f 832 831 830 829
f 833 834 835 836
f 829 830 834 833
f 830 831 835 834
f 831 832 836 835
f 832 829 833 836
f 840 839 838 837
f 841 842 843 844
f 837 838 842 841
f 838 839 843 842
f 839 840 844 843
f 840 837 841 844
f 848 847 846 845
f 849 850 851 852
f 845 846 850 849
f 846 847 851 850
f 847 848 852 851
f 848 845 849 852
f 856 855 854 853
f 857 858 859 860
f 853 854 858 857
f 854 855 859 858
f 855 856 860 859
f 856 853 857 860
f 864 863 862 861
f 865 866 867 868
f 861 862 866 865
f 862 863 867 866
f 863 864 868 867
f 864 861 865 868
f 872 871 870 869
f 873 874 875 876
f 869 870 874 873
f 870 871 875 874
f 871 872 876 875
f 872 869 873 876
f 880 879 878 877
f 881 882 883 884
f 877 878 882 881
f 878 879 883 882
f 879 880 884 883
f 880 877 881 884
f 888 887 886 885
f 889 890 891 892
f 885 886 890 889
f 886 887 891 890
f 887 888 892 891
f 888 885 889 892
f 896 895 894 893
f 897 898 899 900
f 893 894 898 897
f 894 895 899 898
f 895 896 900 899
f 896 893 897 900
f 904 903 902 901
f 905 906 907 908
f 901 902 906 905
f 902 903 907 906
f 903 904 908 907
f 904 901 905 908
f 912 911 910 909
f 913 914 915 916
f 909 910 914 913
f 910 911 915 914
f 911 912 916 915
f 912 909 913 916
o trim
v 50.00 -8.50 83.00
v 57.00 -8.50 83.00
v 57.00 -6.00 83.00
v 50.00 -6.00 83.00
v 50.00 -8.50 217.00
v 57.00 -8.50 217.00
v 57.00 -6.00 217.00
v 50.00 -6.00 217.00
v 177.00 -8.50 83.00
v 184.00 -8.50 83.00
v 184.00 -6.00 83.00
v 177.00 -6.00 83.00
v 177.00 -8.50 217.00
v 184.00 -8.50 217.00
v 184.00 -6.00 217.00
v 177.00 -6.00 217.00
v 57.00 -8.50 83.00
v 177.00 -8.50 83.00
v 177.00 -6.00 83.00
v 57.00 -6.00 83.00
v 57.00 -8.50 90.00
v 177.00 -8.50 90.00
v 177.00 -6.00 90.00
v 57.00 -6.00 90.00
v 57.00 -8.50 210.00
v 177.00 -8.50 210.00
v 177.00 -6.00 210.00
v 57.00 -6.00 210.00
v 57.00 -8.50 217.00
v 177.00 -8.50 217.00
v 177.00 -6.00 217.00
v 57.00 -6.00 217.00
v 449.00 -8.50 83.00
v 456.00 -8.50 83.00
v 456.00 -6.00 83.00
v 449.00 -6.00 83.00
v 449.00 -8.50 217.00
v 456.00 -8.50 217.00
v 456.00 -6.00 217.00
v 449.00 -6.00 217.00
v 576.00 -8.50 83.00
v 583.00 -8.50 83.00
v 583.00 -6.00 83.00
v 576.00 -6.00 83.00
v 576.00 -8.50 217.00
v 583.00 -8.50 217.00
v 583.00 -6.00 217.00
v 576.00 -6.00 217.00
v 456.00 -8.50 83.00
v 576.00 -8.50 83.00
v 576.00 -6.00 83.00
v 456.00 -6.00 83.00
v 456.00 -8.50 90.00
v 576.00 -8.50 90.00
v 576.00 -6.00 90.00
v 456.00 -6.00 90.00
v 456.00 -8.50 210.00
v 576.00 -8.50 210.00
v 576.00 -6.00 210.00
v 456.00 -6.00 210.00
v 456.00 -8.50 217.00
v 576.00 -8.50 217.00
v 576.00 -6.00 217.00
v 456.00 -6.00 217.00
v -6.00 -8.50 0.00
v 4.00 -8.50 0.00
v 4.00 -6.00 0.00
v -6.00 -6.00 0.00
v -6.00 -8.50 280.00
v 4.00 -8.50 280.00
v 4.00 -6.00 280.00
v -6.00 -6.00 280.00
v 639.00 -8.50 0.00
v 649.00 -8.50 0.00
v 649.00 -6.00 0.00
v 639.00 -6.00 0.00
v 639.00 -8.50 280.00
v 649.00 -8.50 280.00
v 649.00 -6.00 280.00
v 639.00 -6.00 280.00
v 651.50 307.00 83.00
v 651.50 314.00 83.00
v 649.00 314.00 83.00
v 649.00 307.00 83.00
v 651.50 307.00 217.00
v 651.50 314.00 217.00
v 649.00 314.00 217.00
v 649.00 307.00 217.00
v 651.50 434.00 83.00
v 651.50 441.00 83.00
v 649.00 441.00 83.00
v 649.00 434.00 83.00
v 651.50 434.00 217.00
v 651.50 441.00 217.00
v 649.00 441.00 217.00
v 649.00 434.00 217.00
v 651.50 314.00 83.00
v 651.50 434.00 83.00
v 649.00 434.00 83.00
v 649.00 314.00 83.00
v 651.50 314.00 90.00
v 651.50 434.00 90.00
v 649.00 434.00 90.00
v 649.00 314.00 90.00
v 651.50 314.00 210.00
v 651.50 434.00 210.00
v 649.00 434.00 210.00
v 649.00 314.00 210.00
v 651.50 314.00 217.00
v 651.50 434.00 217.00
v 649.00 434.00 217.00
v 649.00 314.00 217.00
v 651.50 487.00 113.00
v 651.50 494.00 113.00
v 649.00 494.00 113.00
v 649.00 487.00 113.00
v 651.50 487.00 217.00
v 651.50 494.00 217.00
v 649.00 494.00 217.00
v 649.00 487.00 217.00
v 651.50 594.00 113.00
v 651.50 601.00 113.00
v 649.00 601.00 113.00
v 649.00 594.00 113.00
v 651.50 594.00 217.00
v 651.50 601.00 217.00
v 649.00 601.00 217.00
v 649.00 594.00 217.00
v 651.50 494.00 113.00
v 651.50 594.00 113.00
v 649.00 594.00 113.00
v 649.00 494.00 113.00
v 651.50 494.00 120.00
v 651.50 594.00 120.00
v 649.00 594.00 120.00
v 649.00 494.00 120.00
v 651.50 494.00 210.00
v 651.50 594.00 210.00
v 649.00 594.00 210.00
v 649.00 494.00 210.00
v 651.50 494.00 217.00
v 651.50 594.00 217.00
v 649.00 594.00 217.00
v 649.00 494.00 217.00
v 651.50 765.00 83.00
v 651.50 772.00 83.00
v 649.00 772.00 83.00
v 649.00 765.00 83.00
v 651.50 765.00 217.00
v 651.50 772.00 217.00
v 649.00 772.00 217.00
v 649.00 765.00 217.00
v 651.50 892.00 83.00
v 651.50 899.00 83.00
v 649.00 899.00 83.00
v 649.00 892.00 83.00
v 651.50 892.00 217.00
v 651.50 899.00 217.00
v 649.00 899.00 217.00
v 649.00 892.00 217.00
v 651.50 772.00 83.00
v 651.50 892.00 83.00
v 649.00 892.00 83.00
v 649.00 772.00 83.00
v 651.50 772.00 90.00
v 651.50 892.00 90.00
v 649.00 892.00 90.00
v 649.00 772.00 90.00
v 651.50 772.00 210.00
v 651.50 892.00 210.00
v 649.00 892.00 210.00
v 649.00 772.00 210.00
v 651.50 772.00 217.00
v 651.50 892.00 217.00
v 649.00 892.00 217.00
v 649.00 772.00 217.00
v 651.50 -6.00 0.00
v 651.50 4.00 0.00
v 649.00 4.00 0.00
v 649.00 -6.00 0.00
v 651.50 -6.00 280.00
v 651.50 4.00 280.00
v 649.00 4.00 280.00
v 649.00 -6.00 280.00
v 651.50 982.00 0.00
v 651.50 992.00 0.00
v 649.00 992.00 0.00
v 649.00 982.00 0.00
v 651.50 982.00 280.00
v 651.50 992.00 280.00
v 649.00 992.00 280.00
v 649.00 982.00 280.00
v 565.00 994.50 83.00
v 558.00 994.50 83.00
v 558.00 992.00 83.00
v 565.00 992.00 83.00
v 565.00 994.50 217.00
v 558.00 994.50 217.00
v 558.00 992.00 217.00
v 565.00 992.00 217.00
v 438.00 994.50 83.00
v 431.00 994.50 83.00
v 431.00 992.00 83.00
v 438.00 992.00 83.00
v 438.00 994.50 217.00
v 431.00 994.50 217.00
v 431.00 992.00 217.00
v 438.00 992.00 217.00
v 558.00 994.50 83.00
v 438.00 994.50 83.00
v 438.00 992.00 83.00
v 558.00 992.00 83.00
v 558.00 994.50 90.00
v 438.00 994.50 90.00
v 438.00 992.00 90.00
v 558.00 992.00 90.00
v 558.00 994.50 210.00
v 438.00 994.50 210.00
v 438.00 992.00 210.00
v 558.00 992.00 210.00
v 558.00 994.50 217.00
v 438.00 994.50 217.00
v 438.00 992.00 217.00
v 558.00 992.00 217.00
v 243.00 994.50 83.00
v 236.00 994.50 83.00
v 236.00 992.00 83.00
v 243.00 992.00 83.00
v 243.00 994.50 217.00
v 236.00 994.50 217.00
v 236.00 992.00 217.00
v 243.00 992.00 217.00
v 116.00 994.50 83.00
v 109.00 994.50 83.00
v 109.00 992.00 83.00
v 116.00 992.00 83.00
v 116.00 994.50 217.00
v 109.00 994.50 217.00
v 109.00 992.00 217.00
v 116.00 992.00 217.00
v 236.00 994.50 83.00
v 116.00 994.50 83.00
v 116.00 992.00 83.00
v 236.00 992.00 83.00
v 236.00 994.50 90.00
v 116.00 994.50 90.00
v 116.00 992.00 90.00
v 236.00 992.00 90.00
v 236.00 994.50 210.00
v 116.00 994.50 210.00
v 116.00 992.00 210.00
v 236.00 992.00 210.00
v 236.00 994.50 217.00
v 116.00 994.50 217.00
v 116.00 992.00 217.00
v 236.00 992.00 217.00
v 649.00 994.50 0.00
v 639.00 994.50 0.00
v 639.00 992.00 0.00
v 649.00 992.00 0.00
v 649.00 994.50 280.00
v 639.00 994.50 280.00
v 639.00 992.00 280.00
v 649.00 992.00 280.00
v 4.00 994.50 0.00
v -6.00 994.50 0.00
v -6.00 992.00 0.00
v 4.00 992.00 0.00
v 4.00 994.50 280.00
v -6.00 994.50 280.00
v -6.00 992.00 280.00
v 4.00 992.00 280.00
v -8.50 881.00 83.00
v -8.50 874.00 83.00
v -6.00 874.00 83.00
v -6.00 881.00 83.00
v -8.50 881.00 217.00
v -8.50 874.00 217.00
v -6.00 874.00 217.00
v -6.00 881.00 217.00
v -8.50 754.00 83.00
v -8.50 747.00 83.00
v -6.00 747.00 83.00
v -6.00 754.00 83.00
v -8.50 754.00 217.00
v -8.50 747.00 217.00
v -6.00 747.00 217.00
v -6.00 754.00 217.00
v -8.50 874.00 83.00
v -8.50 754.00 83.00
v -6.00 754.00 83.00
v -6.00 874.00 83.00
v -8.50 874.00 90.00
v -8.50 754.00 90.00
v -6.00 754.00 90.00
v -6.00 874.00 90.00
v -8.50 874.00 210.00
v -8.50 754.00 210.00
v -6.00 754.00 210.00
v -6.00 874.00 210.00
v -8.50 874.00 217.00
v -8.50 754.00 217.00
v -6.00 754.00 217.00
v -6.00 874.00 217.00
v -8.50 543.00 143.00
v -8.50 536.00 143.00
v -6.00 536.00 143.00
v -6.00 543.00 143.00
v -8.50 543.00 217.00
v -8.50 536.00 217.00
v -6.00 536.00 217.00
v -6.00 543.00 217.00
v -8.50 476.00 143.00
v -8.50 469.00 143.00
v -6.00 469.00 143.00
v -6.00 476.00 143.00
v -8.50 476.00 217.00
v -8.50 469.00 217.00
v -6.00 469.00 217.00
v -6.00 476.00 217.00
v -8.50 536.00 143.00
v -8.50 476.00 143.00
v -6.00 476.00 143.00
v -6.00 536.00 143.00
v -8.50 536.00 150.00
v -8.50 476.00 150.00
v -6.00 476.00 150.00
v -6.00 536.00 150.00
v -8.50 536.00 210.00
v -8.50 476.00 210.00
v -6.00 476.00 210.00
v -6.00 536.00 210.00
v -8.50 536.00 217.00
v -8.50 476.00 217.00
v -6.00 476.00 217.00
v -6.00 536.00 217.00
v -8.50 272.00 83.00
v -8.50 265.00 83.00
v -6.00 265.00 83.00
v -6.00 272.00 83.00
v -8.50 272.00 217.00
v -8.50 265.00 217.00
v -6.00 265.00 217.00
v -6.00 272.00 217.00
v -8.50 145.00 83.00
v -8.50 138.00 83.00
v -6.00 138.00 83.00
v -6.00 145.00 83.00
v -8.50 145.00 217.00
v -8.50 138.00 217.00
v -6.00 138.00 217.00
v -6.00 145.00 217.00
v -8.50 265.00 83.00
v -8.50 145.00 83.00
v -6.00 145.00 83.00
v -6.00 265.00 83.00
v -8.50 265.00 90.00
v -8.50 145.00 90.00
v -6.00 145.00 90.00
v -6.00 265.00 90.00
v -8.50 265.00 210.00
v -8.50 145.00 210.00
v -6.00 145.00 210.00
v -6.00 265.00 210.00
v -8.50 265.00 217.00
v -8.50 145.00 217.00
v -6.00 145.00 217.00
v -6.00 265.00 217.00
v -8.50 992.00 0.00
v -8.50 982.00 0.00
v -6.00 982.00 0.00
v -6.00 992.00 0.00
v -8.50 992.00 280.00
v -8.50 982.00 280.00
v -6.00 982.00 280.00
v -6.00 992.00 280.00
v -8.50 4.00 0.00
v -8.50 -6.00 0.00
v -6.00 -6.00 0.00
v -6.00 4.00 0.00
v -8.50 4.00 280.00
v -8.50 -6.00 280.00
v -6.00 -6.00 280.00
v -6.00 4.00 280.00
v -53.50 -51.00 255.14
v -51.00 -51.00 255.14
v -51.00 1037.00 255.14
v -53.50 1037.00 255.14
v -53.50 -51.00 279.64
v -51.00 -51.00 279.64
v -51.00 1037.00 279.64
v -53.50 1037.00 279.64
v 694.00 -51.00 255.14
v 696.50 -51.00 255.14
v 696.50 1037.00 255.14
v 694.00 1037.00 255.14
v 694.00 -51.00 279.64
v 696.50 -51.00 279.64
v 696.50 1037.00 279.64
v 694.00 1037.00 279.64
v -51.00 -53.50 259.06
v 321.50 -53.50 465.54
v 321.50 -51.00 465.54
v -51.00 -51.00 259.06
v -51.00 -53.50 279.64
v 321.50 -53.50 486.12
v 321.50 -51.00 486.12
v -51.00 -51.00 279.64
v 321.50 -53.50 465.54
v 694.00 -53.50 259.06
v 694.00 -51.00 259.06
v 321.50 -51.00 465.54
v 321.50 -53.50 486.12
v 694.00 -53.50 279.64
v 694.00 -51.00 279.64
v 321.50 -51.00 486.12
v -51.00 1037.00 259.06
v 321.50 1037.00 465.54
v 321.50 1039.50 465.54
v -51.00 1039.50 259.06
v -51.00 1037.00 279.64
v 321.50 1037.00 486.12
v 321.50 1039.50 486.12
v -51.00 1039.50 279.64
v 321.50 1037.00 465.54
v 694.00 1037.00 259.06
v 694.00 1039.50 259.06
v 321.50 1039.50 465.54
v 321.50 1037.00 486.12
v 694.00 1037.00 279.64
v 694.00 1039.50 279.64
v 321.50 1039.50 486.12
usemtl trim
f 920 919 918 917
f 921 922 923 924
f 917 918 922 921
f 918 919 923 922
f 919 920 924 923
f 920 917 921 924
f 928 927 926 925
f 929 930 931 932
f 925 926 930 929
f 926 927 931 930
f 927 928 932 931
f 928 925 929 932
f 936 935 934 933
f 937 938 939 940
f 933 934 938 937
f 934 935 939 938
f 935 936 940 939
f 936 933 937 940
f 944 943 942 941
f 945 946 947 948
f 941 942 946 945
f 942 943 947 946
f 943 944 948 947
f 944 941 945 948
f 952 951 950 949
f 953 954 955 956
f 949 950 954 953
f 950 951 955 954
f 951 952 956 955
f 952 949 953 956
f 960 959 958 957
f 961 962 963 964
f 957 958 962 961
f 958 959 963 962
f 959 960 964 963
f 960 957 961 964
f 968 967 966 965
f 969 970 971 972
f 965 966 970 969
f 966 967 971 970
f 967 968 972 971
f 968 965 969 972
f 976 975 974 973
f 977 978 979 980
f 973 974 978 977
f 974 975 979 978
f 975 976 980 979
f 976 973 977 980
f 984 983 982 981
f 985 986 987 988
f 981 982 986 985
f 982 983 987 986
f 983 984 988 987
f 984 981 985 988
f 992 991 990 989
f 993 994 995 996
f 989 990 994 993
f 990 991 995 994
f 991 992 996 995
f 992 989 993 996
f 1000 999 998 997
f 1001 1002 1003 1004
f 997 998 1002 1001
f 998 999 1003 1002
f 999 1000 1004 1003
f 1000 997 1001 1004
f 1008 1007 1006 1005
f 1009 1010 1011 1012
f 1005 1006 1010 1009
f 1006 1007 1011 1010
f 1007 1008 1012 1011
f 1008 1005 1009 1012
f 1016 1015 1014 1013
f 1017 1018 1019 1020
f 1013 1014 1018 1017
f 1014 1015 1019 1018
f 1015 1016 1020 1019
f 1016 1013 1017 1020
f 1024 1023 1022 1021
f 1025 1026 1027 1028
f 1021 1022 1026 1025
f 1022 1023 1027 1026
f 1023 1024 1028 1027
f 1024 1021 1025 1028
f 1032 1031 1030 1029
f 1033 1034 1035 1036
f 1029 1030 1034 1033
f 1030 1031 1035 1034
f 1031 1032 1036 1035
f 1032 1029 1033 1036
f 1040 1039 1038 1037
f 1041 1042 1043 1044
f 1037 1038 1042 1041
f 1038 1039 1043 1042
f 1039 1040 1044 1043
f 1040 1037 1041 1044
f 1048 1047 1046 1045
f 1049 1050 1051 1052
f 1045 1046 1050 1049
f 1046 1047 1051 1050
f 1047 1048 1052 1051
f 1048 1045 1049 1052
f 1056 1055 1054 1053
f 1057 1058 1059 1060
f 1053 1054 1058 1057
f 1054 1055 1059 1058
f 1055 1056 1060 1059
f 1056 1053 1057 1060
f 1064 1063 1062 1061
f 1065 1066 1067 1068
f 1061 1062 1066 1065
f 1062 1063 1067 1066
f 1063 1064 1068 1067
f 1064 1061 1065 1068
f 1072 1071 1070 1069
f 1073 1074 1075 1076
f 1069 1070 1074 1073
f 1070 1071 1075 1074
f 1071 1072 1076 1075
f 1072 1069 1073 1076
f 1080 1079 1078 1077
f 1081 1082 1083 1084
f 1077 1078 1082 1081
f 1078 1079 1083 1082
f 1079 1080 1084 1083
f 1080 1077 1081 1084
f 1088 1087 1086 1085
f 1089 1090 1091 1092
f 1085 1086 1090 1089
f 1086 1087 1091 1090
f 1087 1088 1092 1091
f 1088 1085 1089 1092
f 1096 1095 1094 1093
f 1097 1098 1099 1100
f 1093 1094 1098 1097
f 1094 1095 1099 1098
f 1095 1096 1100 1099
f 1096 1093 1097 1100
f 1104 1103 1102 1101
f 1105 1106 1107 1108
f 1101 1102 1106 1105
f 1102 1103 1107 1106
f 1103 1104 1108 1107
f 1104 1101 1105 1108
f 1112 1111 1110 1109
f 1113 1114 1115 1116
f 1109 1110 1114 1113
f 1110 1111 1115 1114
f 1111 1112 1116 1115
f 1112 1109 1113 1116
f 1120 1119 1118 1117
f 1121 1122 1123 1124
f 1117 1118 1122 1121
f 1118 1119 1123 1122
f 1119 1120 1124 1123
f 1120 1117 1121 1124
f 1128 1127 1126 1125
f 1129 1130 1131 1132
f 1125 1126 1130 1129
f 1126 1127 1131 1130
f 1127 1128 1132 1131
f 1128 1125 1129 1132
f 1136 1135 1134 1133
f 1137 1138 1139 1140
f 1133 1134 1138 1137
f 1134 1135 1139 1138
f 1135 1136 1140 1139
f 1136 1133 1137 1140
f 1144 1143 1142 1141
f 1145 1146 1147 1148
f 1141 1142 1146 1145
f 1142 1143 1147 1146
f 1143 1144 1148 1147
f 1144 1141 1145 1148
f 1152 1151 1150 1149
f 1153 1154 1155 1156
f 1149 1150 1154 1153
f 1150 1151 1155 1154
f 1151 1152 1156 1155
f 1152 1149 1153 1156
f 1160 1159 1158 1157
f 1161 1162 1163 1164
f 1157 1158 1162 1161
f 1158 1159 1163 1162
f 1159 1160 1164 1163
f 1160 1157 1161 1164
f 1168 1167 1166 1165
f 1169 1170 1171 1172
f 1165 1166 1170 1169
f 1166 1167 1171 1170
f 1167 1168 1172 1171
f 1168 1165 1169 1172
f 1176 1175 1174 1173
f 1177 1178 1179 1180
f 1173 1174 1178 1177
f 1174 1175 1179 1178
f 1175 1176 1180 1179
f 1176 1173 1177 1180
f 1184 1183 1182 1181
f 1185 1186 1187 1188
f 1181 1182 1186 1185
f 1182 1183 1187 1186
f 1183 1184 1188 1187
f 1184 1181 1185 1188
f 1192 1191 1190 1189
f 1193 1194 1195 1196
f 1189 1190 1194 1193
f 1190 1191 1195 1194
f 1191 1192 1196 1195
f 1192 1189 1193 1196
f 1200 1199 1198 1197
f 1201 1202 1203 1204
f 1197 1198 1202 1201
f 1198 1199 1203 1202
f 1199 1200 1204 1203
f 1200 1197 1201 1204
f 1208 1207 1206 1205
f 1209 1210 1211 1212
f 1205 1206 1210 1209
f 1206 1207 1211 1210
f 1207 1208 1212 1211
f 1208 1205 1209 1212
f 1216 1215 1214 1213
f 1217 1218 1219 1220
f 1213 1214 1218 1217
f 1214 1215 1219 1218
f 1215 1216 1220 1219
f 1216 1213 1217 1220
f 1224 1223 1222 1221
f 1225 1226 1227 1228
f 1221 1222 1226 1225
f 1222 1223 1227 1226
f 1223 1224 1228 1227
f 1224 1221 1225 1228
f 1232 1231 1230 1229
f 1233 1234 1235 1236
f 1229 1230 1234 1233
f 1230 1231 1235 1234
f 1231 1232 1236 1235
f 1232 1229 1233 1236
f 1240 1239 1238 1237
f 1241 1242 1243 1244
f 1237 1238 1242 1241
f 1238 1239 1243 1242
f 1239 1240 1244 1243
f 1240 1237 1241 1244
f 1248 1247 1246 1245
f 1249 1250 1251 1252
f 1245 1246 1250 1249
f 1246 1247 1251 1250
f 1247 1248 1252 1251
f 1248 1245 1249 1252
f 1256 1255 1254 1253
f 1257 1258 1259 1260
f 1253 1254 1258 1257
f 1254 1255 1259 1258
f 1255 1256 1260 1259
f 1256 1253 1257 1260
f 1264 1263 1262 1261
f 1265 1266 1267 1268
f 1261 1262 1266 1265
f 1262 1263 1267 1266
f 1263 1264 1268 1267
f 1264 1261 1265 1268
f 1272 1271 1270 1269
f 1273 1274 1275 1276
f 1269 1270 1274 1273
f 1270 1271 1275 1274
f 1271 1272 1276 1275
f 1272 1269 1273 1276
f 1280 1279 1278 1277
f 1281 1282 1283 1284
f 1277 1278 1282 1281
f 1278 1279 1283 1282
f 1279 1280 1284 1283
f 1280 1277 1281 1284
f 1288 1287 1286 1285
f 1289 1290 1291 1292
f 1285 1286 1290 1289
f 1286 1287 1291 1290
f 1287 1288 1292 1291
f 1288 1285 1289 1292
f 1296 1295 1294 1293
f 1297 1298 1299 1300
f 1293 1294 1298 1297
f 1294 1295 1299 1298
f 1295 1296 1300 1299
f 1296 1293 1297 1300
f 1304 1303 1302 1301
f 1305 1306 1307 1308
f 1301 1302 1306 1305
f 1302 1303 1307 1306
f 1303 1304 1308 1307
f 1304 1301 1305 1308
f 1312 1311 1310 1309
f 1313 1314 1315 1316
f 1309 1310 1314 1313
f 1310 1311 1315 1314
f 1311 1312 1316 1315
f 1312 1309 1313 1316
f 1320 1319 1318 1317
f 1321 1322 1323 1324
f 1317 1318 1322 1321
f 1318 1319 1323 1322
f 1319 1320 1324 1323
f 1320 1317 1321 1324
f 1328 1327 1326 1325
f 1329 1330 1331 1332
f 1325 1326 1330 1329
f 1326 1327 1331 1330
f 1327 1328 1332 1331
f 1328 1325 1329 1332
f 1336 1335 1334 1333
f 1337 1338 1339 1340
f 1333 1334 1338 1337
f 1334 1335 1339 1338
f 1335 1336 1340 1339
f 1336 1333 1337 1340
f 1344 1343 1342 1341
f 1345 1346 1347 1348
f 1341 1342 1346 1345
f 1342 1343 1347 1346
f 1343 1344 1348 1347
f 1344 1341 1345 1348
o door
v 263.00 -2.50 0.00
v 271.00 -2.50 0.00
v 271.00 2.50 0.00
v 263.00 2.50 0.00
v 263.00 -2.50 204.00
v 271.00 -2.50 204.00
v 271.00 2.50 204.00
v 263.00 2.50 204.00
v 309.00 -2.50 0.00
v 317.00 -2.50 0.00
v 317.00 2.50 0.00
v 309.00 2.50 0.00
v 309.00 -2.50 204.00
v 317.00 -2.50 204.00
v 317.00 2.50 204.00
v 309.00 2.50 204.00
v 263.00 -2.50 0.00
v 317.00 -2.50 0.00
v 317.00 2.50 0.00
v 263.00 2.50 0.00
v 263.00 -2.50 10.00
v 317.00 -2.50 10.00
v 317.00 2.50 10.00
v 263.00 2.50 10.00
v 263.00 -2.50 196.00
v 317.00 -2.50 196.00
v 317.00 2.50 196.00
v 263.00 2.50 196.00
v 263.00 -2.50 204.00
v 317.00 -2.50 204.00
v 317.00 2.50 204.00
v 263.00 2.50 204.00
v 271.00 -1.50 55.00
v 309.00 -1.50 55.00
v 309.00 1.50 55.00
v 271.00 1.50 55.00
v 271.00 -1.50 58.00
v 309.00 -1.50 58.00
v 309.00 1.50 58.00
v 271.00 1.50 58.00
v 271.00 -1.50 101.50
v 309.00 -1.50 101.50
v 309.00 1.50 101.50
v 271.00 1.50 101.50
v 271.00 -1.50 104.50
v 309.00 -1.50 104.50
v 309.00 1.50 104.50
v 271.00 1.50 104.50
v 271.00 -1.50 148.00
v 309.00 -1.50 148.00
v 309.00 1.50 148.00
v 271.00 1.50 148.00
v 271.00 -1.50 151.00
v 309.00 -1.50 151.00
v 309.00 1.50 151.00
v 271.00 1.50 151.00
v 288.50 -1.50 10.00
v 291.50 -1.50 10.00
v 291.50 1.50 10.00
v 288.50 1.50 10.00
v 288.50 -1.50 196.00
v 291.50 -1.50 196.00
v 291.50 1.50 196.00
v 288.50 1.50 196.00
v 317.00 -2.50 0.00
v 325.00 -2.50 0.00
v 325.00 2.50 0.00
v 317.00 2.50 0.00
v 317.00 -2.50 204.00
v 325.00 -2.50 204.00
v 325.00 2.50 204.00
v 317.00 2.50 204.00
v 363.00 -2.50 0.00
v 371.00 -2.50 0.00
v 371.00 2.50 0.00
v 363.00 2.50 0.00
v 363.00 -2.50 204.00
v 371.00 -2.50 204.00
v 371.00 2.50 204.00
v 363.00 2.50 204.00
v 317.00 -2.50 0.00
v 371.00 -2.50 0.00
v 371.00 2.50 0.00
v 317.00 2.50 0.00
v 317.00 -2.50 10.00
v 371.00 -2.50 10.00
v 371.00 2.50 10.00
v 317.00 2.50 10.00
v 317.00 -2.50 196.00
v 371.00 -2.50 196.00
v 371.00 2.50 196.00
v 317.00 2.50 196.00
v 317.00 -2.50 204.00
v 371.00 -2.50 204.00
v 371.00 2.50 204.00
v 317.00 2.50 204.00
v 325.00 -1.50 55.00
v 363.00 -1.50 55.00
v 363.00 1.50 55.00
v 325.00 1.50 55.00
v 325.00 -1.50 58.00
v 363.00 -1.50 58.00
v 363.00 1.50 58.00
v 325.00 1.50 58.00
v 325.00 -1.50 101.50
v 363.00 -1.50 101.50
v 363.00 1.50 101.50
v 325.00 1.50 101.50
v 325.00 -1.50 104.50
v 363.00 -1.50 104.50
v 363.00 1.50 104.50
v 325.00 1.50 104.50
v 325.00 -1.50 148.00
v 363.00 -1.50 148.00
v 363.00 1.50 148.00
v 325.00 1.50 148.00
v 325.00 -1.50 151.00
v 363.00 -1.50 151.00
v 363.00 1.50 151.00
v 325.00 1.50 151.00
v 342.50 -1.50 10.00
v 345.50 -1.50 10.00
v 345.50 1.50 10.00
v 342.50 1.50 10.00
v 342.50 -1.50 196.00
v 345.50 -1.50 196.00
v 345.50 1.50 196.00
v 342.50 1.50 196.00
v 203.00 448.00 0.00
v 271.00 448.00 0.00
v 271.00 452.00 0.00
v 203.00 452.00 0.00
v 203.00 448.00 204.00
v 271.00 448.00 204.00
v 271.00 452.00 204.00
v 203.00 452.00 204.00
v 42.00 641.00 0.00
v 110.00 641.00 0.00
v 110.00 645.00 0.00
v 42.00 645.00 0.00
v 42.00 641.00 204.00
v 110.00 641.00 204.00
v 110.00 645.00 204.00
v 42.00 645.00 204.00
v 303.00 641.00 0.00
v 371.00 641.00 0.00
v 371.00 645.00 0.00
v 303.00 645.00 0.00
v 303.00 641.00 204.00
v 371.00 641.00 204.00
v 371.00 645.00 204.00
v 303.00 645.00 204.00
v 392.00 641.00 0.00
v 460.00 641.00 0.00
v 460.00 645.00 0.00
v 392.00 645.00 0.00
v 392.00 641.00 204.00
v 460.00 641.00 204.00
v 460.00 645.00 204.00
v 392.00 645.00 204.00
usemtl door
f 1352 1351 1350 1349
f 1353 1354 1355 1356
f 1349 1350 1354 1353
f 1350 1351 1355 1354
f 1351 1352 1356 1355
f 1352 1349 1353 1356
f 1360 1359 1358 1357
f 1361 1362 1363 1364
f 1357 1358 1362 1361
f 1358 1359 1363 1362
f 1359 1360 1364 1363
f 1360 1357 1361 1364
f 1368 1367 1366 1365
f 1369 1370 1371 1372
f 1365 1366 1370 1369
f 1366 1367 1371 1370
f 1367 1368 1372 1371
f 1368 1365 1369 1372
f 1376 1375 1374 1373
f 1377 1378 1379 1380
f 1373 1374 1378 1377
f 1374 1375 1379 1378
f 1375 1376 1380 1379
f 1376 1373 1377 1380
f 1384 1383 1382 1381
f 1385 1386 1387 1388
f 1381 1382 1386 1385
f 1382 1383 1387 1386
f 1383 1384 1388 1387
f 1384 1381 1385 1388
f 1392 1391 1390 1389
f 1393 1394 1395 1396
f 1389 1390 1394 1393
f 1390 1391 1395 1394
f 1391 1392 1396 1395
f 1392 1389 1393 1396
f 1400 1399 1398 1397
f 1401 1402 1403 1404
f 1397 1398 1402 1401
f 1398 1399 1403 1402
f 1399 1400 1404 1403
f 1400 1397 1401 1404
f 1408 1407 1406 1405
f 1409 1410 1411 1412
f 1405 1406 1410 1409
f 1406 1407 1411 1410
f 1407 1408 1412 1411
f 1408 1405 1409 1412
f 1416 1415 1414 1413
f 1417 1418 1419 1420
f 1413 1414 1418 1417
f 1414 1415 1419 1418
f 1415 1416 1420 1419
f 1416 1413 1417 1420
f 1424 1423 1422 1421
f 1425 1426 1427 1428
f 1421 1422 1426 1425
f 1422 1423 1427 1426
f 1423 1424 1428 1427
f 1424 1421 1425 1428
f 1432 1431 1430 1429
f 1433 1434 1435 1436
f 1429 1430 1434 1433
f 1430 1431 1435 1434
f 1431 1432 1436 1435
f 1432 1429 1433 1436
f 1440 1439 1438 1437
f 1441 1442 1443 1444
f 1437 1438 1442 1441
f 1438 1439 1443 1442
f 1439 1440 1444 1443
f 1440 1437 1441 1444
f 1448 1447 1446 1445
f 1449 1450 1451 1452
f 1445 1446 1450 1449
f 1446 1447 1451 1450
f 1447 1448 1452 1451
f 1448 1445 1449 1452
f 1456 1455 1454 1453
f 1457 1458 1459 1460
f 1453 1454 1458 1457
f 1454 1455 1459 1458
f 1455 1456 1460 1459
f 1456 1453 1457 1460
f 1464 1463 1462 1461
f 1465 1466 1467 1468
f 1461 1462 1466 1465
f 1462 1463 1467 1466
f 1463 1464 1468 1467
f 1464 1461 1465 1468
f 1472 1471 1470 1469
f 1473 1474 1475 1476
f 1469 1470 1474 1473
f 1470 1471 1475 1474
f 1471 1472 1476 1475
f 1472 1469 1473 1476
f 1480 1479 1478 1477
f 1481 1482 1483 1484
f 1477 1478 1482 1481
f 1478 1479 1483 1482
f 1479 1480 1484 1483
f 1480 1477 1481 1484
f 1488 1487 1486 1485
f 1489 1490 1491 1492
f 1485 1486 1490 1489
f 1486 1487 1491 1490
f 1487 1488 1492 1491
f 1488 1485 1489 1492
f 1496 1495 1494 1493
f 1497 1498 1499 1500
f 1493 1494 1498 1497
f 1494 1495 1499 1498
f 1495 1496 1500 1499
f 1496 1493 1497 1500
f 1504 1503 1502 1501
f 1505 1506 1507 1508
f 1501 1502 1506 1505
f 1502 1503 1507 1506
f 1503 1504 1508 1507
f 1504 1501 1505 1508
o wood_in
v 0.00 444.00 0.00
v 197.00 444.00 0.00
v 197.00 456.00 0.00
v 0.00 456.00 0.00
v 0.00 444.00 280.00
v 197.00 444.00 280.00
v 197.00 456.00 280.00
v 0.00 456.00 280.00
v 277.00 444.00 0.00
v 303.00 444.00 0.00
v 303.00 456.00 0.00
v 277.00 456.00 0.00
v 277.00 444.00 280.00
v 303.00 444.00 280.00
v 303.00 456.00 280.00
v 277.00 456.00 280.00
v 197.00 444.00 210.00
v 277.00 444.00 210.00
v 277.00 456.00 210.00
v 197.00 456.00 210.00
v 197.00 444.00 280.00
v 277.00 444.00 280.00
v 277.00 456.00 280.00
v 197.00 456.00 280.00
v 157.00 450.00 0.00
v 157.00 643.00 0.00
v 145.00 643.00 0.00
v 145.00 450.00 0.00
v 157.00 450.00 280.00
v 157.00 643.00 280.00
v 145.00 643.00 280.00
v 145.00 450.00 280.00
v 309.00 450.00 0.00
v 309.00 643.00 0.00
v 297.00 643.00 0.00
v 297.00 450.00 0.00
v 309.00 450.00 280.00
v 309.00 643.00 280.00
v 297.00 643.00 280.00
v 297.00 450.00 280.00
v 0.00 637.00 0.00
v 36.00 637.00 0.00
v 36.00 649.00 0.00
v 0.00 649.00 0.00
v 0.00 637.00 280.00
v 36.00 637.00 280.00
v 36.00 649.00 280.00
v 0.00 649.00 280.00
v 116.00 637.00 0.00
v 297.00 637.00 0.00
v 297.00 649.00 0.00
v 116.00 649.00 0.00
v 116.00 637.00 280.00
v 297.00 637.00 280.00
v 297.00 649.00 280.00
v 116.00 649.00 280.00
v 377.00 637.00 0.00
v 386.00 637.00 0.00
v 386.00 649.00 0.00
v 377.00 649.00 0.00
v 377.00 637.00 280.00
v 386.00 637.00 280.00
v 386.00 649.00 280.00
v 377.00 649.00 280.00
v 466.00 637.00 0.00
v 643.00 637.00 0.00
v 643.00 649.00 0.00
v 466.00 649.00 0.00
v 466.00 637.00 280.00
v 643.00 637.00 280.00
v 643.00 649.00 280.00
v 466.00 649.00 280.00
v 36.00 637.00 210.00
v 116.00 637.00 210.00
v 116.00 649.00 210.00
v 36.00 649.00 210.00
v 36.00 637.00 280.00
v 116.00 637.00 280.00
v 116.00 649.00 280.00
v 36.00 649.00 280.00
v 297.00 637.00 210.00
v 377.00 637.00 210.00
v 377.00 649.00 210.00
v 297.00 649.00 210.00
v 297.00 637.00 280.00
v 377.00 637.00 280.00
v 377.00 649.00 280.00
v 297.00 649.00 280.00
v 386.00 637.00 210.00
v 466.00 637.00 210.00
v 466.00 649.00 210.00
v 386.00 649.00 210.00
v 386.00 637.00 280.00
v 466.00 637.00 280.00
v 466.00 649.00 280.00
v 386.00 649.00 280.00
v 386.00 643.00 0.00
v 386.00 986.00 0.00
v 374.00 986.00 0.00
v 374.00 643.00 0.00
v 386.00 643.00 280.00
v 386.00 986.00 280.00
v 374.00 986.00 280.00
v 374.00 643.00 280.00
usemtl wood_in
f 1512 1511 1510 1509
f 1513 1514 1515 1516
f 1509 1510 1514 1513
f 1510 1511 1515 1514
f 1511 1512 1516 1515
f 1512 1509 1513 1516
f 1520 1519 1518 1517
f 1521 1522 1523 1524
f 1517 1518 1522 1521
f 1518 1519 1523 1522
f 1519 1520 1524 1523
f 1520 1517 1521 1524
f 1528 1527 1526 1525
f 1529 1530 1531 1532
f 1525 1526 1530 1529
f 1526 1527 1531 1530
f 1527 1528 1532 1531
f 1528 1525 1529 1532
f 1536 1535 1534 1533
f 1537 1538 1539 1540
f 1533 1534 1538 1537
f 1534 1535 1539 1538
f 1535 1536 1540 1539
f 1536 1533 1537 1540
f 1544 1543 1542 1541
f 1545 1546 1547 1548
f 1541 1542 1546 1545
f 1542 1543 1547 1546
f 1543 1544 1548 1547
f 1544 1541 1545 1548
f 1552 1551 1550 1549
f 1553 1554 1555 1556
f 1549 1550 1554 1553
f 1550 1551 1555 1554
f 1551 1552 1556 1555
f 1552 1549 1553 1556
f 1560 1559 1558 1557
f 1561 1562 1563 1564
f 1557 1558 1562 1561
f 1558 1559 1563 1562
f 1559 1560 1564 1563
f 1560 1557 1561 1564
f 1568 1567 1566 1565
f 1569 1570 1571 1572
f 1565 1566 1570 1569
f 1566 1567 1571 1570
f 1567 1568 1572 1571
f 1568 1565 1569 1572
f 1576 1575 1574 1573
f 1577 1578 1579 1580
f 1573 1574 1578 1577
f 1574 1575 1579 1578
f 1575 1576 1580 1579
f 1576 1573 1577 1580
f 1584 1583 1582 1581
f 1585 1586 1587 1588
f 1581 1582 1586 1585
f 1582 1583 1587 1586
f 1583 1584 1588 1587
f 1584 1581 1585 1588
f 1592 1591 1590 1589
f 1593 1594 1595 1596
f 1589 1590 1594 1593
f 1590 1591 1595 1594
f 1591 1592 1596 1595
f 1592 1589 1593 1596
f 1600 1599 1598 1597
f 1601 1602 1603 1604
f 1597 1598 1602 1601
f 1598 1599 1603 1602
f 1599 1600 1604 1603
f 1600 1597 1601 1604
f 1608 1607 1606 1605
f 1609 1610 1611 1612
f 1605 1606 1610 1609
f 1606 1607 1611 1610
f 1607 1608 1612 1611
f 1608 1605 1609 1612
o sheathing
v -51.00 -51.00 272.21
v 321.50 -51.00 478.69
v 321.50 1037.00 478.69
v -51.00 1037.00 272.21
v -51.00 -51.00 275.06
v 321.50 -51.00 481.54
v 321.50 1037.00 481.54
v -51.00 1037.00 275.06
v 321.50 -51.00 478.69
v 694.00 -51.00 272.21
v 694.00 1037.00 272.21
v 321.50 1037.00 478.69
v 321.50 -51.00 481.54
v 694.00 -51.00 275.06
v 694.00 1037.00 275.06
v 321.50 1037.00 481.54
usemtl sheathing
f 1616 1615 1614 1613
f 1617 1618 1619 1620
f 1613 1614 1618 1617
f 1614 1615 1619 1618
f 1615 1616 1620 1619
f 1616 1613 1617 1620
f 1624 1623 1622 1621
f 1625 1626 1627 1628
f 1621 1622 1626 1625
f 1622 1623 1627 1626
f 1623 1624 1628 1627
f 1624 1621 1625 1628
o roof_tiles
v -51.00 -51.00 275.06
v 321.50 -51.00 481.54
v 321.50 1037.00 481.54
v -51.00 1037.00 275.06
v -51.00 -51.00 279.64
v 321.50 -51.00 486.12
v 321.50 1037.00 486.12
v -51.00 1037.00 279.64
v 321.50 -51.00 481.54
v 694.00 -51.00 275.06
v 694.00 1037.00 275.06
v 321.50 1037.00 481.54
v 321.50 -51.00 486.12
v 694.00 -51.00 279.64
v 694.00 1037.00 279.64
v 321.50 1037.00 486.12
usemtl roof_tiles
f 1632 1631 1630 1629
f 1633 1634 1635 1636
f 1629 1630 1634 1633
f 1630 1631 1635 1634
f 1631 1632 1636 1635
f 1632 1629 1633 1636
f 1640 1639 1638 1637
f 1641 1642 1643 1644
f 1637 1638 1642 1641
f 1638 1639 1643 1642
f 1639 1640 1644 1643
f 1640 1637 1641 1644
o rafters
v -51.00 -51.00 255.06
v 321.50 -51.00 461.54
v 321.50 -48.50 461.54
v -51.00 -48.50 255.06
v -51.00 -51.00 272.21
v 321.50 -51.00 478.69
v 321.50 -48.50 478.69
v -51.00 -48.50 272.21
v -51.00 6.50 255.06
v 321.50 6.50 461.54
v 321.50 11.50 461.54
v -51.00 11.50 255.06
v -51.00 6.50 272.21
v 321.50 6.50 478.69
v 321.50 11.50 478.69
v -51.00 11.50 272.21
v -51.00 66.50 255.06
v 321.50 66.50 461.54
v 321.50 71.50 461.54
v -51.00 71.50 255.06
v -51.00 66.50 272.21
v 321.50 66.50 478.69
v 321.50 71.50 478.69
v -51.00 71.50 272.21
v -51.00 126.50 255.06
v 321.50 126.50 461.54
v 321.50 131.50 461.54
v -51.00 131.50 255.06
v -51.00 126.50 272.21
v 321.50 126.50 478.69
v 321.50 131.50 478.69
v -51.00 131.50 272.21
v -51.00 186.50 255.06
v 321.50 186.50 461.54
v 321.50 191.50 461.54
v -51.00 191.50 255.06
v -51.00 186.50 272.21
v 321.50 186.50 478.69
v 321.50 191.50 478.69
v -51.00 191.50 272.21
v -51.00 246.50 255.06
v 321.50 246.50 461.54
v 321.50 251.50 461.54
v -51.00 251.50 255.06
v -51.00 246.50 272.21
v 321.50 246.50 478.69
v 321.50 251.50 478.69
v -51.00 251.50 272.21
v -51.00 306.50 255.06
v 321.50 306.50 461.54
v 321.50 311.50 461.54
v -51.00 311.50 255.06
v -51.00 306.50 272.21
v 321.50 306.50 478.69
v 321.50 311.50 478.69
v -51.00 311.50 272.21
v -51.00 366.50 255.06
v 321.50 366.50 461.54
v 321.50 371.50 461.54
v -51.00 371.50 255.06
v -51.00 366.50 272.21
v 321.50 366.50 478.69
v 321.50 371.50 478.69
v -51.00 371.50 272.21
v -51.00 426.50 255.06
v 321.50 426.50 461.54
v 321.50 431.50 461.54
v -51.00 431.50 255.06
v -51.00 426.50 272.21
v 321.50 426.50 478.69
v 321.50 431.50 478.69
v -51.00 431.50 272.21
v -51.00 486.50 255.06
v 321.50 486.50 461.54
v 321.50 491.50 461.54
v -51.00 491.50 255.06
v -51.00 486.50 272.21
v 321.50 486.50 478.69
v 321.50 491.50 478.69
v -51.00 491.50 272.21
v -51.00 546.50 255.06
v 321.50 546.50 461.54
v 321.50 551.50 461.54
v -51.00 551.50 255.06
v -51.00 546.50 272.21
v 321.50 546.50 478.69
v 321.50 551.50 478.69
v -51.00 551.50 272.21
v -51.00 606.50 255.06
v 321.50 606.50 461.54
v 321.50 611.50 461.54
v -51.00 611.50 255.06
v -51.00 606.50 272.21
v 321.50 606.50 478.69
v 321.50 611.50 478.69
v -51.00 611.50 272.21
v -51.00 666.50 255.06
v 321.50 666.50 461.54
v 321.50 671.50 461.54
v -51.00 671.50 255.06
v -51.00 666.50 272.21
v 321.50 666.50 478.69
v 321.50 671.50 478.69
v -51.00 671.50 272.21
v -51.00 726.50 255.06
v 321.50 726.50 461.54
v 321.50 731.50 461.54
v -51.00 731.50 255.06
v -51.00 726.50 272.21
v 321.50 726.50 478.69
v 321.50 731.50 478.69
v -51.00 731.50 272.21
v -51.00 786.50 255.06
v 321.50 786.50 461.54
v 321.50 791.50 461.54
v -51.00 791.50 255.06
v -51.00 786.50 272.21
v 321.50 786.50 478.69
v 321.50 791.50 478.69
v -51.00 791.50 272.21
v -51.00 846.50 255.06
v 321.50 846.50 461.54
v 321.50 851.50 461.54
v -51.00 851.50 255.06
v -51.00 846.50 272.21
v 321.50 846.50 478.69
v 321.50 851.50 478.69
v -51.00 851.50 272.21
v -51.00 906.50 255.06
v 321.50 906.50 461.54
v 321.50 911.50 461.54
v -51.00 911.50 255.06
v -51.00 906.50 272.21
v 321.50 906.50 478.69
v 321.50 911.50 478.69
v -51.00 911.50 272.21
v -51.00 966.50 255.06
v 321.50 966.50 461.54
v 321.50 971.50 461.54
v -51.00 971.50 255.06
v -51.00 966.50 272.21
v 321.50 966.50 478.69
v 321.50 971.50 478.69
v -51.00 971.50 272.21
v -51.00 1026.50 255.06
v 321.50 1026.50 461.54
v 321.50 1031.50 461.54
v -51.00 1031.50 255.06
v -51.00 1026.50 272.21
v 321.50 1026.50 478.69
v 321.50 1031.50 478.69
v -51.00 1031.50 272.21
v 321.50 -51.00 461.54
v 694.00 -51.00 255.06
v 694.00 -48.50 255.06
v 321.50 -48.50 461.54
v 321.50 -51.00 478.69
v 694.00 -51.00 272.21
v 694.00 -48.50 272.21
v 321.50 -48.50 478.69
v 321.50 6.50 461.54
v 694.00 6.50 255.06
v 694.00 11.50 255.06
v 321.50 11.50 461.54
v 321.50 6.50 478.69
v 694.00 6.50 272.21
v 694.00 11.50 272.21
v 321.50 11.50 478.69
v 321.50 66.50 461.54
v 694.00 66.50 255.06
v 694.00 71.50 255.06
v 321.50 71.50 461.54
v 321.50 66.50 478.69
v 694.00 66.50 272.21
v 694.00 71.50 272.21
v 321.50 71.50 478.69
v 321.50 126.50 461.54
v 694.00 126.50 255.06
v 694.00 131.50 255.06
v 321.50 131.50 461.54
v 321.50 126.50 478.69
v 694.00 126.50 272.21
v 694.00 131.50 272.21
v 321.50 131.50 478.69
v 321.50 186.50 461.54
v 694.00 186.50 255.06
v 694.00 191.50 255.06
v 321.50 191.50 461.54
v 321.50 186.50 478.69
v 694.00 186.50 272.21
v 694.00 191.50 272.21
v 321.50 191.50 478.69
v 321.50 246.50 461.54
v 694.00 246.50 255.06
v 694.00 251.50 255.06
v 321.50 251.50 461.54
v 321.50 246.50 478.69
v 694.00 246.50 272.21
v 694.00 251.50 272.21
v 321.50 251.50 478.69
v 321.50 306.50 461.54
v 694.00 306.50 255.06
v 694.00 311.50 255.06
v 321.50 311.50 461.54
v 321.50 306.50 478.69
v 694.00 306.50 272.21
v 694.00 311.50 272.21
v 321.50 311.50 478.69
v 321.50 366.50 461.54
v 694.00 366.50 255.06
v 694.00 371.50 255.06
v 321.50 371.50 461.54
v 321.50 366.50 478.69
v 694.00 366.50 272.21
v 694.00 371.50 272.21
v 321.50 371.50 478.69
v 321.50 426.50 461.54
v 694.00 426.50 255.06
v 694.00 431.50 255.06
v 321.50 431.50 461.54
v 321.50 426.50 478.69
v 694.00 426.50 272.21
v 694.00 431.50 272.21
v 321.50 431.50 478.69
v 321.50 486.50 461.54
v 694.00 486.50 255.06
v 694.00 491.50 255.06
v 321.50 491.50 461.54
v 321.50 486.50 478.69
v 694.00 486.50 272.21
v 694.00 491.50 272.21
v 321.50 491.50 478.69
v 321.50 546.50 461.54
v 694.00 546.50 255.06
v 694.00 551.50 255.06
v 321.50 551.50 461.54
v 321.50 546.50 478.69
v 694.00 546.50 272.21
v 694.00 551.50 272.21
v 321.50 551.50 478.69
v 321.50 606.50 461.54
v 694.00 606.50 255.06
v 694.00 611.50 255.06
v 321.50 611.50 461.54
v 321.50 606.50 478.69
v 694.00 606.50 272.21
v 694.00 611.50 272.21
v 321.50 611.50 478.69
v 321.50 666.50 461.54
v 694.00 666.50 255.06
v 694.00 671.50 255.06
v 321.50 671.50 461.54
v 321.50 666.50 478.69
v 694.00 666.50 272.21
v 694.00 671.50 272.21
v 321.50 671.50 478.69
v 321.50 726.50 461.54
v 694.00 726.50 255.06
v 694.00 731.50 255.06
v 321.50 731.50 461.54
v 321.50 726.50 478.69
v 694.00 726.50 272.21
v 694.00 731.50 272.21
v 321.50 731.50 478.69
v 321.50 786.50 461.54
v 694.00 786.50 255.06
v 694.00 791.50 255.06
v 321.50 791.50 461.54
v 321.50 786.50 478.69
v 694.00 786.50 272.21
v 694.00 791.50 272.21
v 321.50 791.50 478.69
v 321.50 846.50 461.54
v 694.00 846.50 255.06
v 694.00 851.50 255.06
v 321.50 851.50 461.54
v 321.50 846.50 478.69
v 694.00 846.50 272.21
v 694.00 851.50 272.21
v 321.50 851.50 478.69
v 321.50 906.50 461.54
v 694.00 906.50 255.06
v 694.00 911.50 255.06
v 321.50 911.50 461.54
v 321.50 906.50 478.69
v 694.00 906.50 272.21
v 694.00 911.50 272.21
v 321.50 911.50 478.69
v 321.50 966.50 461.54
v 694.00 966.50 255.06
v 694.00 971.50 255.06
v 321.50 971.50 461.54
v 321.50 966.50 478.69
v 694.00 966.50 272.21
v 694.00 971.50 272.21
v 321.50 971.50 478.69
v 321.50 1026.50 461.54
v 694.00 1026.50 255.06
v 694.00 1031.50 255.06
v 321.50 1031.50 461.54
v 321.50 1026.50 478.69
v 694.00 1026.50 272.21
v 694.00 1031.50 272.21
v 321.50 1031.50 478.69
usemtl rafters
f 1648 1647 1646 1645
f 1649 1650 1651 1652
f 1645 1646 1650 1649
f 1646 1647 1651 1650
f 1647 1648 1652 1651
f 1648 1645 1649 1652
f 1656 1655 1654 1653
f 1657 1658 1659 1660
f 1653 1654 1658 1657
f 1654 1655 1659 1658
f 1655 1656 1660 1659
f 1656 1653 1657 1660
f 1664 1663 1662 1661
f 1665 1666 1667 1668
f 1661 1662 1666 1665
f 1662 1663 1667 1666
f 1663 1664 1668 1667
f 1664 1661 1665 1668
f 1672 1671 1670 1669
f 1673 1674 1675 1676
f 1669 1670 1674 1673
f 1670 1671 1675 1674
f 1671 1672 1676 1675
f 1672 1669 1673 1676
f 1680 1679 1678 1677
f 1681 1682 1683 1684
f 1677 1678 1682 1681
f 1678 1679 1683 1682
f 1679 1680 1684 1683
f 1680 1677 1681 1684
f 1688 1687 1686 1685
f 1689 1690 1691 1692
f 1685 1686 1690 1689
f 1686 1687 1691 1690
f 1687 1688 1692 1691
f 1688 1685 1689 1692
f 1696 1695 1694 1693
f 1697 1698 1699 1700
f 1693 1694 1698 1697
f 1694 1695 1699 1698
f 1695 1696 1700 1699
f 1696 1693 1697 1700
f 1704 1703 1702 1701
f 1705 1706 1707 1708
f 1701 1702 1706 1705
f 1702 1703 1707 1706
f 1703 1704 1708 1707
f 1704 1701 1705 1708
f 1712 1711 1710 1709
f 1713 1714 1715 1716
f 1709 1710 1714 1713
f 1710 1711 1715 1714
f 1711 1712 1716 1715
f 1712 1709 1713 1716
f 1720 1719 1718 1717
f 1721 1722 1723 1724
f 1717 1718 1722 1721
f 1718 1719 1723 1722
f 1719 1720 1724 1723
f 1720 1717 1721 1724
f 1728 1727 1726 1725
f 1729 1730 1731 1732
f 1725 1726 1730 1729
f 1726 1727 1731 1730
f 1727 1728 1732 1731
f 1728 1725 1729 1732
f 1736 1735 1734 1733
f 1737 1738 1739 1740
f 1733 1734 1738 1737
f 1734 1735 1739 1738
f 1735 1736 1740 1739
f 1736 1733 1737 1740
f 1744 1743 1742 1741
f 1745 1746 1747 1748
f 1741 1742 1746 1745
f 1742 1743 1747 1746
f 1743 1744 1748 1747
f 1744 1741 1745 1748
f 1752 1751 1750 1749
f 1753 1754 1755 1756
f 1749 1750 1754 1753
f 1750 1751 1755 1754
f 1751 1752 1756 1755
f 1752 1749 1753 1756
f 1760 1759 1758 1757
f 1761 1762 1763 1764
f 1757 1758 1762 1761
f 1758 1759 1763 1762
f 1759 1760 1764 1763
f 1760 1757 1761 1764
f 1768 1767 1766 1765
f 1769 1770 1771 1772
f 1765 1766 1770 1769
f 1766 1767 1771 1770
f 1767 1768 1772 1771
f 1768 1765 1769 1772
f 1776 1775 1774 1773
f 1777 1778 1779 1780
f 1773 1774 1778 1777
f 1774 1775 1779 1778
f 1775 1776 1780 1779
f 1776 1773 1777 1780
f 1784 1783 1782 1781
f 1785 1786 1787 1788
f 1781 1782 1786 1785
f 1782 1783 1787 1786
f 1783 1784 1788 1787
f 1784 1781 1785 1788
f 1792 1791 1790 1789
f 1793 1794 1795 1796
f 1789 1790 1794 1793
f 1790 1791 1795 1794
f 1791 1792 1796 1795
f 1792 1789 1793 1796
f 1800 1799 1798 1797
f 1801 1802 1803 1804
f 1797 1798 1802 1801
f 1798 1799 1803 1802
f 1799 1800 1804 1803
f 1800 1797 1801 1804
f 1808 1807 1806 1805
f 1809 1810 1811 1812
f 1805 1806 1810 1809
f 1806 1807 1811 1810
f 1807 1808 1812 1811
f 1808 1805 1809 1812
f 1816 1815 1814 1813
f 1817 1818 1819 1820
f 1813 1814 1818 1817
f 1814 1815 1819 1818
f 1815 1816 1820 1819
f 1816 1813 1817 1820
f 1824 1823 1822 1821
f 1825 1826 1827 1828
f 1821 1822 1826 1825
f 1822 1823 1827 1826
f 1823 1824 1828 1827
f 1824 1821 1825 1828
f 1832 1831 1830 1829
f 1833 1834 1835 1836
f 1829 1830 1834 1833
f 1830 1831 1835 1834
f 1831 1832 1836 1835
f 1832 1829 1833 1836
f 1840 1839 1838 1837
f 1841 1842 1843 1844
f 1837 1838 1842 1841
f 1838 1839 1843 1842
f 1839 1840 1844 1843
f 1840 1837 1841 1844
f 1848 1847 1846 1845
f 1849 1850 1851 1852
f 1845 1846 1850 1849
f 1846 1847 1851 1850
f 1847 1848 1852 1851
f 1848 1845 1849 1852
f 1856 1855 1854 1853
f 1857 1858 1859 1860
f 1853 1854 1858 1857
f 1854 1855 1859 1858
f 1855 1856 1860 1859
f 1856 1853 1857 1860
f 1864 1863 1862 1861
f 1865 1866 1867 1868
f 1861 1862 1866 1865
f 1862 1863 1867 1866
f 1863 1864 1868 1867
f 1864 1861 1865 1868
f 1872 1871 1870 1869
f 1873 1874 1875 1876
f 1869 1870 1874 1873
f 1870 1871 1875 1874
f 1871 1872 1876 1875
f 1872 1869 1873 1876
f 1880 1879 1878 1877
f 1881 1882 1883 1884
f 1877 1878 1882 1881
f 1878 1879 1883 1882
f 1879 1880 1884 1883
f 1880 1877 1881 1884
f 1888 1887 1886 1885
f 1889 1890 1891 1892
f 1885 1886 1890 1889
f 1886 1887 1891 1890
f 1887 1888 1892 1891
f 1888 1885 1889 1892
f 1896 1895 1894 1893
f 1897 1898 1899 1900
f 1893 1894 1898 1897
f 1894 1895 1899 1898
f 1895 1896 1900 1899
f 1896 1893 1897 1900
f 1904 1903 1902 1901
f 1905 1906 1907 1908
f 1901 1902 1906 1905
f 1902 1903 1907 1906
f 1903 1904 1908 1907
f 1904 1901 1905 1908
f 1912 1911 1910 1909
f 1913 1914 1915 1916
f 1909 1910 1914 1913
f 1910 1911 1915 1914
f 1911 1912 1916 1915
f 1912 1909 1913 1916
f 1920 1919 1918 1917
f 1921 1922 1923 1924
f 1917 1918 1922 1921
f 1918 1919 1923 1922
f 1919 1920 1924 1923
f 1920 1917 1921 1924
f 1928 1927 1926 1925
f 1929 1930 1931 1932
f 1925 1926 1930 1929
f 1926 1927 1931 1930
f 1927 1928 1932 1931
f 1928 1925 1929 1932
f 1936 1935 1934 1933
f 1937 1938 1939 1940
f 1933 1934 1938 1937
f 1934 1935 1939 1938
f 1935 1936 1940 1939
f 1936 1933 1937 1940
f 1944 1943 1942 1941
f 1945 1946 1947 1948
f 1941 1942 1946 1945
f 1942 1943 1947 1946
f 1943 1944 1948 1947
f 1944 1941 1945 1948
